<svg width="121" height="121" viewBox="0 0 121 121" fill="none" xmlns="http://www.w3.org/2000/svg">
<circle cx="60.4996" cy="60.5006" r="52.8521" fill="#C1CBFF"/>
<circle cx="60.5" cy="60.5" r="60.5" fill="#EFF2FF"/>
<g clip-path="url(#clip0_204_1845)">
<path d="M77.7369 65.8391C78.0105 65.8145 78.2841 65.8254 78.5495 65.8719L79.0092 65.2754L80.1393 65.7981L79.9833 66.5341C80.1913 66.7065 80.3773 66.9062 80.5333 67.1306L81.2803 67.0321L81.7099 68.2005L81.0778 68.6109C81.1024 68.8845 81.0915 69.1581 81.045 69.4235L81.6415 69.8832L81.1188 71.0133L80.3828 70.8573C80.2104 71.0653 80.0107 71.2513 79.7863 71.4073L79.8848 72.1543L78.7164 72.5839L78.306 71.9518C78.0324 71.9764 77.7588 71.9655 77.4933 71.919L77.0337 72.5155L75.9036 71.9929L76.0596 71.2568C75.8516 71.0844 75.6655 70.8847 75.5096 70.6603L74.7626 70.7588L74.333 69.5905L74.9651 69.18C74.9404 68.9064 74.9514 68.6328 74.9979 68.3674L74.4014 67.9077L74.924 66.7776L75.6601 66.9336C75.8325 66.7256 76.0322 66.5396 76.2566 66.3836L76.1581 65.6366L77.3264 65.207L77.7369 65.8391ZM77.8326 67.5629C76.9543 67.7326 76.4946 68.6684 76.8722 69.4591C77.1294 69.9982 77.7341 70.3074 78.3197 70.1924C79.198 70.0228 79.6577 69.087 79.2801 68.2962C79.0229 67.7572 78.4182 67.448 77.8326 67.5629Z" fill="#E0E0E0"/>
<path d="M77.83 67.559C77.83 67.559 77.9395 67.4988 78.1611 67.4961C78.3773 67.4961 78.7138 67.5618 79.023 67.8272C79.3295 68.0789 79.5757 68.5687 79.4909 69.1105C79.4225 69.6468 78.9628 70.1831 78.339 70.298C77.7096 70.4239 77.0967 70.0764 76.834 69.603C76.5632 69.1269 76.6151 68.5851 76.8122 68.2376C77.0064 67.8792 77.2992 67.6986 77.4989 67.622C77.7069 67.5481 77.83 67.5508 77.83 67.5618C77.8355 67.5809 77.7178 67.6083 77.5345 67.7013C77.3567 67.7971 77.1049 67.9831 76.949 68.3088C76.7903 68.6289 76.7684 69.0968 77.0064 69.5017C77.239 69.9012 77.7644 70.1885 78.2952 70.0818C78.8288 69.9833 79.22 69.5373 79.2912 69.0776C79.376 68.6152 79.179 68.1829 78.919 67.9421C78.6564 67.6931 78.3554 67.6083 78.1556 67.5809C77.9504 67.559 77.8328 67.5782 77.83 67.559Z" fill="#4E4E4E"/>
<path d="M77.7367 65.8376C77.7367 65.8376 77.6957 65.7938 77.6218 65.6925C77.537 65.5694 77.4303 65.4162 77.2962 65.2274L77.3373 65.2411C77.0281 65.3614 76.6395 65.5119 76.1744 65.6898L76.2099 65.6296C76.2428 65.8567 76.2783 66.1084 76.3167 66.3738L76.3221 66.4122L76.2893 66.434C76.0868 66.5791 75.8871 66.7597 75.7119 66.9786L75.6846 67.0114L75.6408 67.0032C75.411 66.9567 75.162 66.9047 74.902 66.8527L74.9896 66.8089C74.8281 67.1674 74.6558 67.545 74.4752 67.9444L74.4505 67.8405C74.6366 67.9827 74.8418 68.136 75.0498 68.2974L75.0936 68.3303L75.0854 68.385C75.0443 68.6258 75.0306 68.8994 75.058 69.173L75.0635 69.2305L75.0142 69.2633C74.8199 69.3919 74.6038 69.5315 74.3849 69.6765L74.4232 69.5616C74.56 69.9282 74.7078 70.325 74.8582 70.7299L74.7488 70.6643C74.9814 70.6342 75.2358 70.5986 75.4958 70.5657L75.5587 70.5575L75.5943 70.6095C75.7366 70.8093 75.9172 71.0117 76.1279 71.1841L76.1771 71.2252L76.1634 71.2881C76.1142 71.518 76.0622 71.7697 76.0075 72.0242L75.9473 71.9038C76.3057 72.0679 76.6888 72.2458 77.0801 72.4236L76.9487 72.4565C77.0937 72.2677 77.2497 72.0652 77.4084 71.86L77.4494 71.808L77.5151 71.8189C77.7614 71.8627 78.0295 71.8764 78.2977 71.849L78.3989 71.8983V71.901V71.9065L78.4099 71.9174L78.4235 71.9366L78.4482 71.9776L78.5002 72.057L78.6041 72.2157L78.8094 72.5304L78.6807 72.4866C79.0748 72.3416 79.466 72.1993 79.8491 72.057L79.778 72.1719C79.7451 71.9202 79.7123 71.6712 79.6822 71.4249L79.674 71.3592L79.726 71.3209C79.9421 71.1677 80.1364 70.9899 80.3033 70.7901L80.3444 70.7409L80.4073 70.7545C80.6563 70.8093 80.9026 70.8613 81.1434 70.9132L81.0284 70.9707C81.209 70.5849 81.3841 70.2073 81.5538 69.8406L81.5839 69.9638C81.3814 69.8078 81.1844 69.6546 80.9874 69.5041L80.9409 69.4685L80.9518 69.4111C80.9983 69.1456 81.0093 68.8802 80.9874 68.6258L80.9819 68.5683L81.0284 68.5382C81.2446 68.3987 81.4553 68.2646 81.6605 68.1305L81.6249 68.2372C81.4772 67.8268 81.3349 67.4355 81.2008 67.0661L81.2911 67.1208C81.0284 67.1537 80.7822 67.1838 80.5441 67.2139L80.4976 67.2193L80.4702 67.181C80.3088 66.9485 80.1282 66.7569 79.9367 66.5955L79.9038 66.5681L79.9121 66.5271C79.9722 66.2617 80.0242 66.0209 80.0762 65.791L80.1118 65.8622C79.6795 65.657 79.3101 65.4791 78.9872 65.3259L79.0474 65.3122C78.8641 65.542 78.7108 65.7363 78.5768 65.9005L78.5631 65.9169H78.5439C78.0076 65.8157 77.7368 65.8649 77.7395 65.8458C77.7422 65.8403 77.8024 65.8266 77.9392 65.8157C78.0733 65.8075 78.2813 65.802 78.5576 65.843L78.5248 65.8567C78.6506 65.6871 78.7984 65.4873 78.9735 65.252L78.9954 65.2219L79.031 65.2383C79.3566 65.3833 79.7315 65.5502 80.1693 65.7473L80.2158 65.7691L80.2048 65.8211C80.1583 66.051 80.1091 66.2918 80.0543 66.5599L80.0297 66.4888C80.2322 66.6529 80.4265 66.8527 80.5988 67.0962L80.525 67.0634C80.763 67.0305 81.0093 66.9977 81.272 66.9594L81.3376 66.9512L81.3622 67.0141C81.5018 67.3835 81.6468 67.7721 81.8 68.1798L81.8247 68.2482L81.7645 68.2892C81.5593 68.4233 81.3513 68.5601 81.1351 68.7024L81.1789 68.6148C81.2063 68.8884 81.1981 69.1703 81.1488 69.4521L81.1133 69.3563C81.3103 69.5068 81.51 69.6573 81.7125 69.8133L81.7754 69.8625L81.7426 69.9364C81.5729 70.3058 81.4006 70.6834 81.2227 71.0692L81.1871 71.1458L81.105 71.1294C80.8615 71.0774 80.618 71.0254 80.369 70.9734L80.473 70.9379C80.2951 71.1513 80.0899 71.3456 79.8573 71.5097L79.9011 71.4085C79.9339 71.6548 79.9668 71.9038 79.9996 72.1555L80.0106 72.2403L79.9285 72.2704C79.5454 72.4127 79.1541 72.555 78.7601 72.7027L78.678 72.7328L78.6315 72.659L78.4263 72.3443L78.3223 72.1856L78.2703 72.1062L78.2457 72.0652L78.232 72.046L78.2265 72.0351V72.0296H78.2211C78.2676 72.0515 78.1198 71.9804 78.3223 72.0789C78.035 72.1062 77.745 72.0926 77.4823 72.046L77.5863 72.005C77.4276 72.2102 77.2716 72.4127 77.1266 72.6015L77.0746 72.6699L76.9952 72.6343C76.6067 72.4537 76.2236 72.2759 75.8652 72.1117L75.7886 72.0761L75.8077 71.9913C75.8624 71.7369 75.9172 71.4851 75.9664 71.2553L76.002 71.3592C75.7776 71.1732 75.5833 70.957 75.4328 70.7409L75.5314 70.7846C75.2714 70.8175 75.0169 70.8503 74.7844 70.8804L74.7023 70.8914L74.6749 70.8147C74.5272 70.4098 74.3821 70.013 74.2481 69.6436L74.2207 69.5698L74.2864 69.5287C74.508 69.3864 74.7242 69.2469 74.9184 69.121L74.8747 69.2086C74.8473 68.9158 74.8665 68.6285 74.913 68.3713L74.9458 68.4589C74.7378 68.2974 74.5354 68.1387 74.352 67.9964L74.2973 67.9527L74.3274 67.8897C74.5135 67.4957 74.6913 67.1181 74.8582 66.7624L74.8856 66.7049L74.9458 66.7186C75.203 66.7761 75.452 66.8308 75.6818 66.8801L75.6107 66.9047C75.7995 66.6803 76.0102 66.4942 76.2264 66.3465L76.199 66.4067C76.1662 66.1385 76.1361 65.8868 76.1087 65.6597L76.1032 65.6159L76.1443 65.6022C76.6149 65.4381 77.0089 65.3013 77.3208 65.1918L77.3482 65.1836L77.3619 65.2082C77.4795 65.4025 77.5726 65.5585 77.6492 65.6816C77.7149 65.791 77.7477 65.8512 77.745 65.8567L77.7367 65.8376Z" fill="#4E4E4E"/>
<path d="M69.2784 19.7136C70.9174 18.8516 72.644 18.2251 74.4116 17.8338L75.7332 12.9414L84.1115 13.2862L85.0281 18.2716C86.7574 18.8079 88.4265 19.5713 89.9889 20.5673L94.3805 18.0417L100.061 24.2092L97.1852 28.3792C98.0498 30.0182 98.6737 31.7447 99.0649 33.5123L103.957 34.8339L103.613 43.2123L98.6271 44.1289C98.0908 45.8582 97.3274 47.5273 96.3315 49.0897L98.8542 53.4813L92.6868 59.1617L88.5168 56.2859C86.8778 57.1506 85.1512 57.7744 83.3836 58.1657L82.062 63.0581L73.6837 62.7133L72.7671 57.7279C71.0378 57.1916 69.3687 56.4255 67.8063 55.4322L63.4147 57.955L57.7343 51.7876L60.61 47.6176C59.7454 45.9786 59.1215 44.252 58.7303 42.4844L53.8379 41.1628L54.1827 32.7845L59.1681 31.8679C59.7044 30.1386 60.4705 28.4695 61.4638 26.9071L58.941 22.5155L65.1084 16.8351L69.2784 19.7108V19.7136ZM74.2884 30.1851C69.2647 33.4904 68.8023 40.5007 73.1803 44.4436C76.1655 47.1305 80.7104 47.5027 84.0677 45.2973C89.0941 41.9919 89.5566 34.979 85.1786 31.0361C82.1934 28.3491 77.6458 27.977 74.2912 30.1851H74.2884Z" fill="#20B4E3"/>
<path opacity="0.2" d="M57.1819 53.7468C59.3271 54.5923 61.3218 55.7087 63.1222 57.0494L68.8464 54.398L75.293 62.5027L71.2899 67.3185C72.1791 69.3597 72.8003 71.5295 73.1177 73.7815L79.0717 75.8829L77.7966 86.0945L71.5033 86.7183C70.6414 88.8279 69.5059 90.7871 68.1405 92.5547L70.8411 98.1776L62.5914 104.512L57.6881 100.58C55.6113 101.453 53.4032 102.063 51.113 102.375L48.9732 108.225L38.581 106.975L37.9435 100.791C35.7956 99.9452 33.8036 98.8261 32.0032 97.4881L26.279 100.14L19.8324 92.0348L23.8355 87.2163C22.9463 85.1751 22.3251 83.0053 22.0077 80.7561L16.0537 78.6547L17.3288 68.4431L23.6221 67.8192C24.484 65.7096 25.6196 63.7532 26.9849 61.9829L24.287 56.3599L32.5367 50.0256L37.44 53.9575C39.5168 53.0847 41.725 52.4745 44.0152 52.1625L46.1522 46.3125L56.5444 47.563L57.1819 53.7468ZM51.2689 66.7521C44.059 64.6808 37.0159 69.8194 36.8052 77.0458C36.6602 81.971 39.9847 86.5158 44.7977 87.9004C52.0077 89.9717 59.0562 84.8331 59.2642 77.6067C59.4064 72.6815 56.0819 68.1366 51.2689 66.7548V66.7521Z" fill="url(#paint0_linear_204_1845)"/>
<g filter="url(#filter0_f_204_1845)">
<circle cx="83.4689" cy="72.2306" r="14.3087" fill="#20B4E3"/>
</g>
<circle cx="80.2238" cy="68.9845" r="14.3087" fill="#686F73"/>
<path d="M87.0772 62.2553C86.639 62.2553 86.279 62.6153 86.279 63.0534V64.1802L85.653 63.5542C84.2602 62.1458 82.3979 61.3633 80.426 61.3633C78.4542 61.3633 76.5762 62.1458 75.1834 63.5386C73.681 65.041 72.8986 67.1224 73.0238 69.2351C73.0551 69.6576 73.3993 69.9862 73.8062 69.9862C73.8219 69.9862 73.8375 69.9862 73.8532 69.9862C74.2914 69.9549 74.62 69.5794 74.5887 69.1412C74.4948 67.4667 75.1208 65.8391 76.2945 64.6654C78.5637 62.3805 82.2727 62.3805 84.5419 64.6654L85.1679 65.2913H84.0411C83.6029 65.2913 83.2586 65.6356 83.2586 66.0738C83.2586 66.512 83.6186 66.872 84.0568 66.872H87.0928C87.531 66.872 87.8909 66.512 87.8909 66.0738V63.0378C87.8753 62.5996 87.5153 62.2553 87.0772 62.2553Z" fill="white"/>
<path d="M83.0396 68.7017L81.1773 68.1853V65.4466C81.1773 65.0084 80.8174 64.6484 80.3792 64.6484C79.941 64.6484 79.5811 65.0084 79.5811 65.4466V68.78C79.5811 69.1399 79.8158 69.4529 80.1601 69.5468L82.6014 70.2354C82.6797 70.251 82.7423 70.2667 82.8205 70.2667C83.1648 70.2667 83.4778 70.0319 83.5874 69.6876C83.7126 69.2494 83.4622 68.8112 83.0396 68.7017Z" fill="white"/>
<path d="M78.5641 74.3839C78.1885 74.2587 77.8286 74.1022 77.4843 73.8988C77.14 73.6953 76.7018 73.8205 76.514 74.1648C76.3106 74.5091 76.4358 74.9473 76.78 75.1351C77.2026 75.3855 77.6564 75.5889 78.1259 75.7298C78.2042 75.7611 78.2824 75.7611 78.345 75.7611C78.6424 75.7611 78.9241 75.5733 79.0179 75.2759C79.1275 74.916 78.9397 74.5091 78.5641 74.3839Z" fill="white"/>
<path d="M75.136 71.4245C74.9639 71.0645 74.5257 70.9394 74.1814 71.1115C73.8371 71.2836 73.6806 71.7218 73.8684 72.0661C74.0875 72.5043 74.3536 72.9269 74.6509 73.3024C74.7918 73.4746 74.9952 73.5685 75.2143 73.5685C75.3708 73.5685 75.5273 73.5215 75.6525 73.412C75.9655 73.1616 76.0124 72.7234 75.7777 72.4104C75.5273 72.1131 75.3238 71.7844 75.136 71.4245Z" fill="white"/>
<path d="M84.8546 72.6947C84.7763 72.7886 84.6824 72.8825 84.6042 72.9608C84.4007 73.1642 84.1973 73.3364 83.9782 73.5085C83.6652 73.7433 83.6026 74.1971 83.8373 74.5101C83.9782 74.6979 84.1973 74.7918 84.4007 74.7918C84.5572 74.7918 84.6981 74.7448 84.8233 74.6509C85.0893 74.4475 85.3397 74.2284 85.5901 73.978C85.6996 73.8685 85.8092 73.7589 85.9031 73.6494C86.1691 73.352 86.1378 72.8982 85.8405 72.6478C85.5588 72.3661 85.105 72.3974 84.8546 72.6947Z" fill="white"/>
<path d="M81.9596 74.4787C81.584 74.5883 81.1771 74.6509 80.7858 74.6665C80.3946 74.6978 80.0972 75.0265 80.1129 75.4177C80.1285 75.7933 80.4572 76.0906 80.8171 76.0906C80.8328 76.0906 80.8484 76.0906 80.8641 76.0906C81.3492 76.0593 81.85 75.9811 82.3195 75.8559C82.6951 75.7463 82.9298 75.3551 82.8203 74.9795C82.7107 74.6039 82.3351 74.3848 81.9596 74.4787Z" fill="white"/>
</g>
<defs>
<filter id="filter0_f_204_1845" x="48.3865" y="37.1482" width="70.1646" height="70.1646" filterUnits="userSpaceOnUse" color-interpolation-filters="sRGB">
<feFlood flood-opacity="0" result="BackgroundImageFix"/>
<feBlend mode="normal" in="SourceGraphic" in2="BackgroundImageFix" result="shape"/>
<feGaussianBlur stdDeviation="10.3868" result="effect1_foregroundBlur_204_1845"/>
</filter>
<linearGradient id="paint0_linear_204_1845" x1="16.0537" y1="73.9295" x2="42.7943" y2="73.9295" gradientUnits="userSpaceOnUse">
<stop stop-color="#A2B1FF"/>
<stop offset="1" stop-color="#546FFF"/>
</linearGradient>
<clipPath id="clip0_204_1845">
<rect width="87.9039" height="95.289" fill="white" transform="translate(16.0537 12.9375)"/>
</clipPath>
</defs>
</svg>
