<svg width="25" height="24" viewBox="0 0 25 24" fill="none" xmlns="http://www.w3.org/2000/svg">
<path fill-rule="evenodd" clip-rule="evenodd" d="M10.8088 0.917236C7.94692 0.917236 5.62695 3.23722 5.62695 6.09905C5.62695 8.96089 7.94692 11.2809 10.8088 11.2809C13.6707 11.2809 15.9906 8.96089 15.9906 6.09905C15.9906 3.23722 13.6707 0.917236 10.8088 0.917236ZM7.26332 6.09905C7.26332 4.14095 8.85067 2.5536 10.8088 2.5536C12.7668 2.5536 14.3542 4.14095 14.3542 6.09905C14.3542 8.05716 12.7668 9.64451 10.8088 9.64451C8.85067 9.64451 7.26332 8.05716 7.26332 6.09905Z" fill="#1D1D1D"/>
<path d="M7.53607 12.9172C4.67422 12.9172 2.35425 15.2373 2.35425 18.0991C2.35425 20.9609 4.67422 23.2809 7.53607 23.2809H14.0815C14.5334 23.2809 14.8997 22.9145 14.8997 22.4627C14.8997 22.0108 14.5334 21.6445 14.0815 21.6445H7.53607C5.57796 21.6445 3.99061 20.0571 3.99061 18.0991C3.99061 16.141 5.57796 14.5536 7.53607 14.5536H14.0815C14.5334 14.5536 14.8997 14.1873 14.8997 13.7354C14.8997 13.2836 14.5334 12.9172 14.0815 12.9172H7.53607Z" fill="#1D1D1D"/>
<path d="M19.2633 14.8262C19.2633 14.3744 18.897 14.0081 18.4452 14.0081C17.9933 14.0081 17.627 14.3744 17.627 14.8262V17.2808H15.1724C14.7206 17.2808 14.3542 17.6471 14.3542 18.099C14.3542 18.5508 14.7206 18.9171 15.1724 18.9171H17.627V21.3717C17.627 21.8235 17.9933 22.1899 18.4452 22.1899C18.897 22.1899 19.2633 21.8235 19.2633 21.3717V18.9171H21.7179C22.1697 18.9171 22.5361 18.5508 22.5361 18.099C22.5361 17.6471 22.1697 17.2808 21.7179 17.2808H19.2633V14.8262Z" fill="#1D1D1D"/>
</svg>
