<svg width="224" height="58" viewBox="0 0 224 58" fill="none" xmlns="http://www.w3.org/2000/svg">
<path d="M63.5847 14.1256H69.9537L81.2124 36.5197L92.5122 14.1256H98.9223L84.4175 42.8887H78.0074L63.5847 14.1256ZM103.424 28.5482C103.424 34.0954 107.615 37.9989 113.45 37.9989C117.6 37.9989 120.846 36.0677 122.448 32.9449H128.53C126.763 39.396 120.846 43.505 113.45 43.505C104.451 43.505 97.671 37.095 97.671 28.5482C97.671 19.8782 104.41 13.5092 113.45 13.5092C120.846 13.5092 126.722 17.6182 128.53 24.0694H122.448C120.887 20.9054 117.641 19.0153 113.45 19.0153C107.574 19.0153 103.424 22.8778 103.424 28.5482ZM129.302 28.5482C129.302 19.8782 136.041 13.5092 145.081 13.5092C154.08 13.5092 160.819 19.5495 160.819 28.5482C160.819 37.4237 154.08 43.505 145.081 43.505C136.082 43.505 129.302 37.095 129.302 28.5482ZM135.055 28.5482C135.055 34.0954 139.246 37.9989 145.081 37.9989C151.039 37.9989 155.066 34.0954 155.066 28.5482C155.066 22.8778 151.039 19.0153 145.081 19.0153C139.205 19.0153 135.055 22.8778 135.055 28.5482ZM169.324 23.6996V42.8887H163.572V14.1256H168.174L186.048 33.1914V14.1256H191.801V42.8887H187.158L169.324 23.6996ZM220.953 34.8761C220.953 39.6425 216.31 43.505 208.626 43.505C200.901 43.505 194.902 39.7247 194.491 34.0543H200.49C201.107 36.8073 204.353 38.5742 208.544 38.5742C212.448 38.5742 215.201 36.9306 215.201 34.7117C215.201 27.8497 194.861 34.835 194.861 21.6861C194.861 16.6321 200.203 13.5092 207.27 13.5092C214.749 13.5092 220.008 17.0841 220.46 22.3025H214.502C214.009 20.0836 210.968 18.2757 207.27 18.2757C203.243 18.2757 200.614 19.796 200.614 21.8505C200.614 28.2195 220.953 21.5629 220.953 34.8761Z" fill="white"/>
<path d="M54.4697 18.5469H41.9749L38.2655 25.1848H50.9555L53.2983 30.2608L49.9794 35.9225H3.31894L0 42.5604H54.4697L60.9124 30.2608L54.4697 18.5469Z" fill="white"/>
<path d="M11.3233 33.1901H4.29492L13.2756 15.8145H20.3039L15.8136 24.5023L11.3233 33.1901Z" fill="white"/>
<path d="M21.6709 33.1914H14.6426L26.3565 9.56836H33.3848L26.1613 24.5036L21.6709 33.1914Z" fill="white"/>
<path d="M31.627 32.9942H24.5986L41.3886 0H48.4169L36.1173 24.3064L31.627 32.9942Z" fill="white"/>
<path fill-rule="evenodd" clip-rule="evenodd" d="M71.8439 42.5606H62.8568L60.4248 37.8137L64.8876 28.7705L71.8439 42.5606ZM58.3521 15.8144L50.3748 0H41.3877L49.3204 15.8144H58.3521Z" fill="white"/>
<ellipse cx="37.5925" cy="37.0071" rx="3.31127" ry="3.11649" fill="white"/>
<ellipse cx="16.5564" cy="37.0071" rx="3.31127" ry="3.11649" fill="white"/>
</svg>
