<svg width="149" height="52" viewBox="0 0 149 52" fill="none" xmlns="http://www.w3.org/2000/svg">
<path d="M14.4221 36.9934V36.4459L17.2967 35.0428V16.3578L14.4221 14.9547V14.4072H25.4415C28.0651 14.4072 30.2895 14.852 32.1147 15.7418C33.9626 16.6316 35.3657 17.8521 36.3239 19.4035C37.3049 20.9549 37.7954 22.7116 37.7954 24.6736C37.7954 26.4532 37.476 28.0958 36.8372 29.6015C36.2212 31.1073 35.3429 32.4077 34.2022 33.5028C33.0843 34.5979 31.7496 35.4534 30.1983 36.0694C28.6697 36.6854 27.0042 36.9934 25.2019 36.9934H14.4221ZM24.2779 16.2894H21.5744V35.1112H24.7912C26.5936 35.1112 28.1221 34.7348 29.3769 33.9819C30.6545 33.2062 31.6241 32.1225 32.2858 30.7309C32.9702 29.3164 33.3124 27.6509 33.3124 25.7345C33.3124 22.8599 32.5367 20.567 30.9853 18.856C29.4568 17.1449 27.221 16.2894 24.2779 16.2894Z" fill="#19B86C"/>
<path d="M25.8291 50.1287C39.2576 50.1287 50.1435 39.2428 50.1435 25.8144C50.1435 12.3859 39.2576 1.5 25.8291 1.5C12.4007 1.5 1.51477 12.3859 1.51477 25.8144C1.51477 39.2428 12.4007 50.1287 25.8291 50.1287Z" stroke="#19B86C" stroke-width="3"/>
<path d="M60.6601 24.3308V7.45231H67.5145C72.6026 7.45231 75.6087 10.3999 75.6087 15.7688V15.7921C75.6087 21.1844 72.6026 24.3308 67.5145 24.3308H60.6601ZM64.9529 20.8686H66.953C69.7485 20.8686 71.2457 19.1725 71.2457 15.8038V15.7804C71.2457 12.6223 69.655 10.9146 66.953 10.9146H64.9529V20.8686Z" fill="#19B86C"/>
<path d="M79.6071 24.3308V7.45231H83.8998V24.3308H79.6071Z" fill="#19B86C"/>
<path d="M88.3778 24.3308V7.45231H99.946V10.9029H92.6706V14.2365H99.5132V17.4648H92.6706V20.8803H99.946V24.3308H88.3778Z" fill="#19B86C"/>
<path d="M110.787 24.6349C106.588 24.6349 103.933 22.7751 103.746 19.5468L103.734 19.3363H107.722L107.746 19.4649C107.956 20.5528 109.22 21.2663 110.869 21.2663C112.577 21.2663 113.629 20.5411 113.629 19.4883V19.4766C113.629 18.5175 112.881 18.073 110.904 17.687L109.173 17.3595C105.828 16.7396 104.061 15.0903 104.061 12.5053V12.4936C104.061 9.24193 106.88 7.1482 110.752 7.1482C114.986 7.1482 117.384 9.13666 117.536 12.2012L117.548 12.4469H113.559L113.548 12.3182C113.419 11.207 112.331 10.5169 110.787 10.5169C109.208 10.5169 108.319 11.2304 108.319 12.2012V12.2129C108.319 13.1253 109.114 13.6048 110.927 13.944L112.659 14.2716C116.238 14.9617 117.899 16.4121 117.899 19.114V19.1257C117.899 22.4944 115.255 24.6349 110.787 24.6349Z" fill="#19B86C"/>
<path d="M121.804 24.3308V7.45231H133.372V10.9029H126.096V14.2365H132.939V17.4648H126.096V20.8803H133.372V24.3308H121.804Z" fill="#19B86C"/>
<path d="M137.709 24.3308V7.45231H142.002V20.8803H148.985V24.3308H137.709Z" fill="#19B86C"/>
<path d="M60.6434 44.2934V33.0411H64.8309C67.0377 33.0411 68.5661 34.5226 68.5661 36.7294V36.745C68.5661 38.944 67.0377 40.449 64.8309 40.449H62.3902V44.2934H60.6434ZM64.3942 34.5149H62.3902V38.983H64.3942C65.9148 38.983 66.7882 38.1643 66.7882 36.7528V36.7372C66.7882 35.3336 65.9148 34.5149 64.3942 34.5149Z" fill="#19B86C"/>
<path d="M77.5155 44.4805C74.2716 44.4805 72.2442 42.2503 72.2442 38.6711V38.6555C72.2442 35.0841 74.2794 32.8539 77.5155 32.8539C80.7595 32.8539 82.7869 35.0919 82.7869 38.6555V38.6711C82.7869 42.2425 80.7673 44.4805 77.5155 44.4805ZM77.5155 42.9366C79.6756 42.9366 81.0012 41.2678 81.0012 38.6711V38.6555C81.0012 36.0432 79.6522 34.3979 77.5155 34.3979C75.3867 34.3979 74.0221 36.0354 74.0221 38.6555V38.6711C74.0221 41.2912 75.3789 42.9366 77.5155 42.9366Z" fill="#19B86C"/>
<path d="M88.9603 44.2934L85.927 33.0411H87.7439L89.8415 41.8605H89.8727L92.251 33.0411H93.9042L96.2825 41.8605H96.3215L98.4192 33.0411H100.236L97.1949 44.2934H95.5183L93.101 35.8093H93.062L90.6369 44.2934H88.9603Z" fill="#19B86C"/>
<path d="M104.179 44.2934V33.0411H111.322V34.546H105.926V37.829H111.034V39.295H105.926V42.7884H111.322V44.2934H104.179Z" fill="#19B86C"/>
<path d="M115.671 44.2934V33.0411H120.038C122.338 33.0411 123.788 34.3745 123.788 36.4877V36.5033C123.788 38.0317 122.954 39.2482 121.605 39.7082L124.124 44.2934H122.112L119.819 39.9734H117.418V44.2934H115.671ZM117.418 38.5386H119.866C121.215 38.5386 121.987 37.7978 121.987 36.5189V36.5033C121.987 35.2556 121.161 34.5071 119.819 34.5071H117.418V38.5386Z" fill="#19B86C"/>
<path d="M128.036 44.2934V33.0411H135.179V34.546H129.783V37.829H134.89V39.295H129.783V42.7884H135.179V44.2934H128.036Z" fill="#19B86C"/>
<path d="M139.527 44.2934V33.0411H143.497C146.834 33.0411 148.822 35.0919 148.822 38.6321V38.6477C148.822 42.2036 146.85 44.2934 143.497 44.2934H139.527ZM141.274 42.7806H143.333C145.719 42.7806 147.037 41.3224 147.037 38.6633V38.6477C147.037 36.0042 145.703 34.546 143.333 34.546H141.274V42.7806Z" fill="#19B86C"/>
</svg>
