<svg width="16" height="18" viewBox="0 0 16 18" fill="none" xmlns="http://www.w3.org/2000/svg">
<path d="M4.66667 10.666C4.43056 10.666 4.23264 10.5862 4.07292 10.4264C3.91319 10.2667 3.83333 10.0688 3.83333 9.83268C3.83333 9.59657 3.91319 9.39865 4.07292 9.23893C4.23264 9.07921 4.43056 8.99935 4.66667 8.99935C4.90278 8.99935 5.10069 9.07921 5.26042 9.23893C5.42014 9.39865 5.5 9.59657 5.5 9.83268C5.5 10.0688 5.42014 10.2667 5.26042 10.4264C5.10069 10.5862 4.90278 10.666 4.66667 10.666ZM8 10.666C7.76389 10.666 7.56597 10.5862 7.40625 10.4264C7.24653 10.2667 7.16667 10.0688 7.16667 9.83268C7.16667 9.59657 7.24653 9.39865 7.40625 9.23893C7.56597 9.07921 7.76389 8.99935 8 8.99935C8.23611 8.99935 8.43403 9.07921 8.59375 9.23893C8.75347 9.39865 8.83333 9.59657 8.83333 9.83268C8.83333 10.0688 8.75347 10.2667 8.59375 10.4264C8.43403 10.5862 8.23611 10.666 8 10.666ZM11.3333 10.666C11.0972 10.666 10.8993 10.5862 10.7396 10.4264C10.5799 10.2667 10.5 10.0688 10.5 9.83268C10.5 9.59657 10.5799 9.39865 10.7396 9.23893C10.8993 9.07921 11.0972 8.99935 11.3333 8.99935C11.5694 8.99935 11.7674 9.07921 11.9271 9.23893C12.0868 9.39865 12.1667 9.59657 12.1667 9.83268C12.1667 10.0688 12.0868 10.2667 11.9271 10.4264C11.7674 10.5862 11.5694 10.666 11.3333 10.666ZM2.16667 17.3327C1.70833 17.3327 1.31597 17.1695 0.989583 16.8431C0.663194 16.5167 0.5 16.1243 0.5 15.666V3.99935C0.5 3.54102 0.663194 3.14865 0.989583 2.82227C1.31597 2.49588 1.70833 2.33268 2.16667 2.33268H3V0.666016H4.66667V2.33268H11.3333V0.666016H13V2.33268H13.8333C14.2917 2.33268 14.684 2.49588 15.0104 2.82227C15.3368 3.14865 15.5 3.54102 15.5 3.99935V15.666C15.5 16.1243 15.3368 16.5167 15.0104 16.8431C14.684 17.1695 14.2917 17.3327 13.8333 17.3327H2.16667ZM2.16667 15.666H13.8333V7.33268H2.16667V15.666ZM2.16667 5.66602H13.8333V3.99935H2.16667V5.66602Z" fill="#20B4E3"/>
</svg>
