<svg width="34" height="34" viewBox="0 0 34 34" fill="none" xmlns="http://www.w3.org/2000/svg">
<rect x="33" y="33" width="32" height="32" rx="16" transform="rotate(-180 33 33)" fill="#F9FAF9"/>
<rect x="33.25" y="33.25" width="32.5" height="32.5" rx="16.25" transform="rotate(-180 33.25 33.25)" stroke="#1D1D1D" stroke-opacity="0.05" stroke-width="0.5"/>
<path fill-rule="evenodd" clip-rule="evenodd" d="M16.6354 21.7293C16.3488 22.058 15.8501 22.0921 15.5215 21.8056L10.6917 17.5951C10.5198 17.4452 10.4211 17.2281 10.4211 17C10.4211 16.7718 10.5198 16.5548 10.6917 16.4049L15.5215 12.1944C15.8501 11.9079 16.3488 11.942 16.6354 12.2706C16.9219 12.5994 16.8877 13.098 16.5591 13.3845L13.3175 16.2105L22.7895 16.2105C23.2255 16.2105 23.5789 16.564 23.5789 17C23.5789 17.436 23.2255 17.7895 22.7895 17.7895L13.3175 17.7895L16.5591 20.6154C16.8877 20.902 16.9219 21.4007 16.6354 21.7293Z" fill="#1D1D1D"/>
</svg>
