<svg width="25" height="24" viewBox="0 0 25 24" fill="none" xmlns="http://www.w3.org/2000/svg">
<path fill-rule="evenodd" clip-rule="evenodd" d="M6.32087 7.90911C6.665 4.81191 9.28293 2.46875 12.3992 2.46875C15.5155 2.46875 18.1334 4.81191 18.4775 7.90912L18.7293 10.1753L18.7356 10.2311C18.856 11.2804 19.1975 12.2923 19.7377 13.1999L19.7665 13.248L20.3445 14.2114L20.3592 14.2358C20.609 14.6522 20.8171 14.999 20.9526 15.2866C21.0894 15.5771 21.1974 15.8963 21.1437 16.2365C21.0861 16.6017 20.8982 16.9337 20.6147 17.171C20.3506 17.392 20.0212 17.4636 19.7018 17.4958C19.3854 17.5276 18.981 17.5276 18.4954 17.5276H18.467H6.33143H6.30299C5.81743 17.5276 5.41298 17.5276 5.09662 17.4958C4.77717 17.4636 4.44784 17.392 4.18373 17.171C3.90024 16.9337 3.71229 16.6017 3.65467 16.2365C3.60099 15.8963 3.70903 15.5771 3.84582 15.2866C3.9813 14.999 4.1894 14.6521 4.43923 14.2358L4.45385 14.2114L5.03189 13.248L5.0607 13.1999C5.60086 12.2923 5.94241 11.2804 6.06283 10.2311L6.06907 10.1753L6.32087 7.90911ZM12.3992 3.52757C9.82245 3.52757 7.65777 5.46506 7.37322 8.02604L7.12142 10.2923L7.11475 10.3518C6.97727 11.5498 6.5873 12.7051 5.97059 13.7414L5.93982 13.7928L5.36179 14.7562C5.09357 15.2032 4.91374 15.5042 4.80373 15.7378C4.6924 15.9741 4.69761 16.0529 4.70055 16.0715C4.71828 16.1839 4.77611 16.286 4.86334 16.359C4.8778 16.3711 4.94265 16.4161 5.20261 16.4423C5.45952 16.4681 5.81011 16.4688 6.33143 16.4688H18.467C18.9883 16.4688 19.3389 16.4681 19.5958 16.4423C19.8558 16.4161 19.9206 16.3711 19.9351 16.359C20.0223 16.286 20.0801 16.1839 20.0978 16.0715C20.1008 16.0529 20.106 15.9741 19.9947 15.7378C19.8847 15.5042 19.7048 15.2032 19.4366 14.7562L18.8586 13.7928L18.8278 13.7414C18.2111 12.7051 17.8211 11.5498 17.6837 10.3518L17.677 10.2923L17.4252 8.02604C17.1406 5.46506 14.9759 3.52757 12.3992 3.52757Z" fill="#263C51"/>
<path d="M9.50066 17.6647C9.67158 18.6215 10.0482 19.467 10.5722 20.0701C11.0961 20.6731 11.738 21 12.3984 21C13.0588 21 13.7008 20.6731 14.2247 20.0701C14.7487 19.467 15.1253 18.6215 15.2962 17.6647" stroke="#263C51" stroke-width="1.05882" stroke-linecap="round"/>
</svg>
