<svg width="24" height="24" viewBox="0 0 24 24" fill="none" xmlns="http://www.w3.org/2000/svg">
<path d="M9.58048 6.38989H2.30048C1.89048 6.38989 1.55048 6.04989 1.55048 5.63989C1.55048 5.22989 1.89048 4.88989 2.30048 4.88989H9.57048C9.98048 4.88989 10.3205 5.22989 10.3205 5.63989C10.3205 6.04989 9.99048 6.38989 9.58048 6.38989Z" fill="#1D1D1D"/>
<path d="M21.7005 16.0801H14.4305C14.0205 16.0801 13.6805 15.7401 13.6805 15.3301C13.6805 14.9201 14.0205 14.5801 14.4305 14.5801H21.7005C22.1105 14.5801 22.4505 14.9201 22.4505 15.3301C22.4505 15.7401 22.1105 16.0801 21.7005 16.0801Z" fill="#1D1D1D"/>
<path d="M21.7005 22.1399H14.4305C14.0205 22.1399 13.6805 21.7999 13.6805 21.3899C13.6805 20.9799 14.0205 20.6399 14.4305 20.6399H21.7005C22.1105 20.6399 22.4505 20.9799 22.4505 21.3899C22.4505 21.7999 22.1105 22.1399 21.7005 22.1399Z" fill="#1D1D1D"/>
<path d="M21.7005 6.38989H14.4305C14.0205 6.38989 13.6805 6.04989 13.6805 5.63989C13.6805 5.22989 14.0205 4.88989 14.4305 4.88989H21.7005C22.1105 4.88989 22.4505 5.22989 22.4505 5.63989C22.4505 6.04989 22.1105 6.38989 21.7005 6.38989Z" fill="#1D1D1D"/>
<path d="M18.0905 10.02C17.6805 10.02 17.3405 9.68 17.3405 9.27V2C17.3405 1.59 17.6805 1.25 18.0905 1.25C18.5005 1.25 18.8405 1.59 18.8405 2V9.27C18.8405 9.69 18.5105 10.02 18.0905 10.02Z" fill="#1D1D1D"/>
<path d="M2.30048 22.7499C2.11048 22.7499 1.92048 22.6799 1.77048 22.5299C1.48048 22.2399 1.48048 21.7599 1.77048 21.4699L9.04048 14.1999C9.33048 13.9099 9.81048 13.9099 10.1005 14.1999C10.3905 14.4899 10.3905 14.9699 10.1005 15.2599L2.83048 22.5299C2.69048 22.6799 2.50048 22.7499 2.30048 22.7499Z" fill="#1D1D1D"/>
<path d="M9.58049 22.7499C9.39049 22.7499 9.20049 22.6799 9.05049 22.5299L1.78049 15.2599C1.49049 14.9699 1.49049 14.4899 1.78049 14.1999C2.07049 13.9099 2.55049 13.9099 2.84049 14.1999L10.1105 21.4699C10.4005 21.7599 10.4005 22.2399 10.1105 22.5299C9.96049 22.6799 9.77049 22.7499 9.58049 22.7499Z" fill="#1D1D1D"/>
</svg>
