<svg width="232" height="183" viewBox="0 0 232 183" fill="none" xmlns="http://www.w3.org/2000/svg">
<circle cx="113.5" cy="91.5" r="91.5" fill="#EFF2FF"/>
<g clip-path="url(#clip0_1_31)">
<path opacity="0.1" d="M73.4852 88.1064H5.12584V139.122H73.4852V88.1064Z" fill="#020202"/>
<path opacity="0.1" d="M232 88.1064H163.641V139.122H232V88.1064Z" fill="#020202"/>
<path d="M226.874 88.1064H158.515V139.122H226.874V88.1064Z" fill="#3B4DB3"/>
<path d="M158.515 88.1064L192.702 121.85L226.874 88.1064H158.515Z" fill="#A1B1FF"/>
<path d="M158.515 139.122L184.367 113.614L158.515 88.1064V139.122Z" fill="#5167C4"/>
<path d="M226.874 139.122L201.037 113.614L226.874 88.1064V139.122Z" fill="#5167C4"/>
<path opacity="0.1" d="M172.095 62.7171V27H120.019H67.9285V62.7171H58.1672V155H181.856V62.7171H172.095Z" fill="#020202"/>
<path d="M175.17 62.7171H51.4961V155.015H175.17V62.7171Z" fill="#293F8E"/>
<path d="M175.17 155L113.333 93.2258L51.4961 155H175.17Z" fill="#A1B1FF"/>
<path d="M51.4961 155L98.2527 108.851L51.4961 62.7171V155Z" fill="#3B4DB3"/>
<path d="M175.17 155L128.413 108.851L175.17 62.7171V155Z" fill="#5167C4"/>
<path d="M113.333 27H61.2427V72.3476L98.2527 108.851L113.333 93.2258L128.413 108.851L165.409 72.3476V27H113.333Z" fill="#AFF2D6"/>
<mask id="mask0_1_31" style="mask-type:luminance" maskUnits="userSpaceOnUse" x="61" y="27" width="105" height="82">
<path d="M113.333 27H61.2427V72.3476L98.2527 108.851L113.333 93.2258L128.413 108.851L165.409 72.3476V27H113.333Z" fill="white"/>
</mask>
<g mask="url(#mask0_1_31)">
<path d="M156.717 39.1975H69.9343V51.7512H156.717V39.1975Z" fill="#0DD168"/>
<path d="M156.717 57.4197H113.333V62.7023H156.717V57.4197Z" fill="#0DD168"/>
<path d="M156.717 70.7746H113.333V76.0573H156.717V70.7746Z" fill="#0DD168"/>
<path d="M156.717 84.1148H113.333V89.3974H156.717V84.1148Z" fill="#0DD168"/>
<path d="M156.717 97.4697H113.333V102.752H156.717V97.4697Z" fill="#0DD168"/>
<path d="M106.915 57.4197H69.9343V102.752H106.915V57.4197Z" fill="#0DD168"/>
</g>
<path d="M68.3594 88.1064H0V139.122H68.3594V88.1064Z" fill="#3B4DB3"/>
<path d="M0 88.1064L34.1871 121.85L68.3594 88.1064H0Z" fill="#A1B1FF"/>
<path d="M0 139.122L25.8521 113.614L0 88.1064V139.122Z" fill="#5167C4"/>
<path d="M68.3594 139.122L42.5222 113.614L68.3594 88.1064V139.122Z" fill="#5167C4"/>
</g>
<defs>
<clipPath id="clip0_1_31">
<rect width="232" height="128" fill="white" transform="translate(0 27)"/>
</clipPath>
</defs>
</svg>
