<svg width="24" height="24" viewBox="0 0 24 24" fill="none" xmlns="http://www.w3.org/2000/svg">
<path fill-rule="evenodd" clip-rule="evenodd" d="M11.25 3.01001C11.25 2.5958 11.5858 2.26001 12 2.26001C16.4083 2.26001 20.2766 5.21698 21.4146 9.48637C22.5519 13.7433 20.6896 18.2497 16.8646 20.4498C13.04 22.6596 8.21839 22.0198 5.09876 18.8894C4.80637 18.596 4.80719 18.1211 5.10059 17.8287C5.394 17.5363 5.86887 17.5372 6.16123 17.8306C8.80147 20.4799 12.8794 21.0203 16.1147 19.1506L16.1161 19.1499C19.3506 17.2898 20.928 13.4765 19.9654 9.87361C19.0033 6.26323 15.7315 3.76001 12 3.76001C11.5858 3.76001 11.25 3.42423 11.25 3.01001Z" fill="#1D1D1D"/>
<path fill-rule="evenodd" clip-rule="evenodd" d="M2.25 12C2.25 11.5858 2.58578 11.25 3 11.25H3.01C3.42421 11.25 3.76 11.5858 3.76 12C3.76 12.4142 3.42421 12.75 3.01 12.75H3C2.58578 12.75 2.25 12.4142 2.25 12Z" fill="#1D1D1D"/>
<path fill-rule="evenodd" clip-rule="evenodd" d="M7.74994 3.5C7.74994 3.08578 8.08576 2.75 8.49994 2.75H8.50996C8.9242 2.75 9.25996 3.08578 9.25996 3.5C9.25996 3.91421 8.9242 4.25 8.50996 4.25H8.49994C8.08576 4.25 7.74994 3.91421 7.74994 3.5Z" fill="#1D1D1D"/>
<path fill-rule="evenodd" clip-rule="evenodd" d="M2.92999 15.38C2.92999 14.9658 3.26578 14.63 3.67999 14.63H3.68999C4.1042 14.63 4.43999 14.9658 4.43999 15.38C4.43999 15.7942 4.1042 16.13 3.68999 16.13H3.67999C3.26578 16.13 2.92999 15.7942 2.92999 15.38Z" fill="#1D1D1D"/>
<path fill-rule="evenodd" clip-rule="evenodd" d="M2.92999 8.53003C2.92999 8.11585 3.26578 7.78003 3.67999 7.78003H3.68999C4.1042 7.78003 4.43999 8.11585 4.43999 8.53003C4.43999 8.94427 4.1042 9.28003 3.68999 9.28003H3.67999C3.26578 9.28003 2.92999 8.94427 2.92999 8.53003Z" fill="#1D1D1D"/>
<path fill-rule="evenodd" clip-rule="evenodd" d="M4.87 5.62C4.87 5.20578 5.20578 4.87 5.62 4.87H5.63C6.04422 4.87 6.37998 5.20578 6.37998 5.62C6.37998 6.03421 6.04422 6.36997 5.63 6.36997H5.62C5.20578 6.36997 4.87 6.03421 4.87 5.62Z" fill="#1D1D1D"/>
<path fill-rule="evenodd" clip-rule="evenodd" d="M11.32 7.65002C11.7342 7.65002 12.07 7.98578 12.07 8.40002V12.1386L14.5593 14.6187C14.8527 14.911 14.8536 15.3859 14.5613 15.6793C14.2689 15.9728 13.794 15.9736 13.5006 15.6813L10.7906 12.9813C10.6494 12.8406 10.57 12.6494 10.57 12.45V8.40002C10.57 7.98578 10.9058 7.65002 11.32 7.65002Z" fill="#1D1D1D"/>
</svg>
