<svg width="20" height="17" viewBox="0 0 20 17" fill="none" xmlns="http://www.w3.org/2000/svg">
<path d="M4.60448 16.4993C4.22948 16.4993 3.89615 16.3848 3.60448 16.1556C3.31282 15.9264 3.11143 15.6313 3.00032 15.2702L0.875316 7.56185C0.805871 7.29796 0.85101 7.0549 1.01073 6.83268C1.17045 6.61046 1.3892 6.49935 1.66698 6.49935H5.62532L9.29198 1.04102C9.36143 0.929905 9.45865 0.839627 9.58365 0.770182C9.70865 0.700738 9.84059 0.666016 9.97948 0.666016C10.1184 0.666016 10.2503 0.700738 10.3753 0.770182C10.5003 0.839627 10.5975 0.929905 10.667 1.04102L14.3336 6.49935H18.3336C18.6114 6.49935 18.8302 6.61046 18.9899 6.83268C19.1496 7.0549 19.1948 7.29796 19.1253 7.56185L17.0003 15.2702C16.8892 15.6313 16.6878 15.9264 16.3961 16.1556C16.1045 16.3848 15.7711 16.4993 15.3961 16.4993H4.60448ZM4.58365 14.8327H15.417L17.2503 8.16602H2.75032L4.58365 14.8327ZM10.0003 13.166C10.4586 13.166 10.851 13.0028 11.1774 12.6764C11.5038 12.35 11.667 11.9577 11.667 11.4993C11.667 11.041 11.5038 10.6487 11.1774 10.3223C10.851 9.99588 10.4586 9.83268 10.0003 9.83268C9.54198 9.83268 9.14962 9.99588 8.82323 10.3223C8.49684 10.6487 8.33365 11.041 8.33365 11.4993C8.33365 11.9577 8.49684 12.35 8.82323 12.6764C9.14962 13.0028 9.54198 13.166 10.0003 13.166ZM7.64615 6.49935H12.3336L9.97948 2.99935L7.64615 6.49935Z" fill="#20B4E3"/>
</svg>
