<svg width="224" height="168" viewBox="0 0 224 168" fill="none" xmlns="http://www.w3.org/2000/svg">
<path d="M86.614 153.142L81.9178 156.538L69.8302 165.284L68.0711 166.562L42.5241 168.001C36.8434 154.112 31.6308 115.568 28.8066 91.8177C27.4509 80.2738 26.6602 72.2384 26.6602 72.2384L38.8285 64.3809L55.1766 78.7541L59.3725 82.4565L67.4578 89.5704L86.614 153.142Z" fill="url(#paint0_linear_332_5385)"/>
<path d="M86.614 153.142L81.9178 156.537L69.8302 165.284C62.2775 146.772 45.3968 102.973 44.5898 79.4492L59.3726 82.4564L67.4579 89.5703L86.614 153.142Z" fill="url(#paint1_linear_332_5385)"/>
<path d="M202.616 94.1137C191.271 104.025 87.8564 166.562 87.8564 166.562C87.8564 166.562 85.5324 162.746 81.9175 156.538C72.4443 140.338 54.0304 107.84 44.6379 84.4454C41.3457 76.2968 39.167 69.2476 38.8281 64.3811C71.9924 42.1018 162.851 5.5625 162.851 5.5625C162.851 5.5625 165.611 13.6464 169.839 25.0124C178.312 47.7929 192.707 83.7825 202.616 94.1137Z" fill="url(#paint2_linear_332_5385)"/>
<path d="M169.839 25.0124C131.123 35.8287 74.2193 67.744 55.1761 78.7543C51.0447 81.1471 48.7046 82.5537 48.7046 82.5537L44.6377 84.4454L28.8222 91.8179C27.4666 80.2741 26.6758 72.2387 26.6758 72.2387L36.617 65.82L38.8441 64.3811C71.9922 42.1018 162.851 5.5625 162.851 5.5625C162.851 5.5625 165.611 13.6464 169.839 25.0124Z" fill="url(#paint3_linear_332_5385)"/>
<path d="M44.6377 84.4457L28.8222 91.8182C27.4666 80.2744 26.6758 72.2389 26.6758 72.2389L36.617 65.8203L44.6539 84.4457H44.6377Z" fill="url(#paint4_linear_332_5385)"/>
<path d="M53.9663 64.6889C54.9992 55.8289 41.0557 53.2905 40.0551 63.5571L37.1179 65.4811C37.1179 65.4811 35.6493 53.2259 47.8338 53.9211C57.5168 54.4708 57.2263 62.1828 56.5485 65.1416C56.3871 65.8529 55.677 66.2733 54.9669 66.1116C54.3214 65.9661 53.8856 65.3517 53.9663 64.705V64.6889Z" fill="url(#paint5_linear_332_5385)"/>
<path d="M78.4651 52.2226C80.4663 43.5404 66.8939 39.4662 64.7637 49.5549L61.6328 51.1393C61.6328 51.1393 61.536 38.8033 73.5591 40.8404C83.1291 42.4572 81.9671 50.1046 80.9827 52.9663C80.7406 53.6453 79.9821 54.001 79.3043 53.7585C78.6749 53.5322 78.3037 52.8855 78.4651 52.2387V52.2226Z" fill="url(#paint6_linear_332_5385)"/>
<path d="M107.239 38.1562C109.24 29.474 95.6674 25.3997 93.5371 35.4885L90.4063 37.0729C90.4063 37.0729 90.3094 24.7369 102.332 26.774C111.903 28.3908 110.741 36.0382 109.756 38.8999C109.514 39.5789 108.756 39.9346 108.078 39.6921C107.448 39.4658 107.077 38.8191 107.239 38.1723V38.1562Z" fill="url(#paint7_linear_332_5385)"/>
<path d="M133.981 26.1288C135.982 17.4467 122.41 13.3724 120.279 23.4611L117.148 25.0456C117.148 25.0456 117.052 12.7095 129.075 14.7467C138.645 16.3635 137.483 24.0108 136.498 26.8725C136.256 27.5516 135.498 27.9073 134.82 27.6648C134.191 27.4384 133.819 26.7917 133.981 26.145V26.1288Z" fill="url(#paint8_linear_332_5385)"/>
<path d="M159.012 15.3925C161.013 6.71037 147.441 2.63608 145.311 12.7248L142.18 14.3093C142.18 14.3093 142.083 1.97319 154.106 4.01034C163.676 5.62713 162.514 13.2745 161.53 16.1362C161.287 16.8153 160.529 17.171 159.851 16.9284C159.222 16.7021 158.851 16.0554 159.012 15.4087V15.3925Z" fill="url(#paint9_linear_332_5385)"/>
<path opacity="0.25" d="M63.7617 86.2247C72.9444 79.127 97.1196 69.1191 97.1196 69.1191" stroke="url(#paint10_linear_332_5385)" stroke-width="3" stroke-miterlimit="10" stroke-linecap="round"/>
<path opacity="0.15" d="M76.9184 91.7292L66.3734 97.5489C64.9526 98.3331 64.4353 100.123 65.218 101.546L70.1316 110.482C70.9144 111.905 72.7007 112.423 74.1215 111.639L84.6665 105.82C86.0873 105.035 86.6046 103.246 85.8219 101.822L80.9082 92.8867C80.1255 91.4632 78.3392 90.945 76.9184 91.7292Z" fill="url(#paint11_linear_332_5385)"/>
<path opacity="0.15" d="M98.3852 79.8581L87.8402 85.6778C86.4194 86.462 85.9021 88.2516 86.6848 89.675L91.5984 98.6107C92.3812 100.034 94.1675 100.552 95.5883 99.7682L106.133 93.9484C107.554 93.1643 108.071 91.3747 107.289 89.9513L102.375 81.0156C101.592 79.5921 99.806 79.0739 98.3852 79.8581Z" fill="url(#paint12_linear_332_5385)"/>
<path opacity="0.15" d="M119.854 68.0124L109.309 73.8321C107.888 74.6163 107.371 76.4059 108.154 77.8293L113.067 86.765C113.85 88.1884 115.636 88.7066 117.057 87.9225L127.602 82.1027C129.023 81.3186 129.54 79.529 128.757 78.1056L123.844 69.1699C123.061 67.7464 121.275 67.2282 119.854 68.0124Z" fill="url(#paint13_linear_332_5385)"/>
<path opacity="0.15" d="M141.321 56.1647L130.776 61.9845C129.355 62.7686 128.838 64.5582 129.62 65.9816L134.534 74.9173C135.317 76.3408 137.103 76.859 138.524 76.0748L149.069 70.2551C150.49 69.4709 151.007 67.6813 150.224 66.2579L145.311 57.3222C144.528 55.8988 142.742 55.3806 141.321 56.1647Z" fill="url(#paint14_linear_332_5385)"/>
<path opacity="0.15" d="M162.78 44.3307L152.235 50.1505C150.814 50.9346 150.297 52.7242 151.079 54.1476L155.993 63.0834C156.776 64.5068 158.562 65.025 159.983 64.2409L170.528 58.4211C171.949 57.6369 172.466 55.8474 171.683 54.4239L166.77 45.4882C165.987 44.0648 164.201 43.5466 162.78 44.3307Z" fill="url(#paint15_linear_332_5385)"/>
<path opacity="0.15" d="M88.0277 109.844L77.4828 115.664C76.062 116.448 75.5447 118.238 76.3274 119.661L81.241 128.597C82.0237 130.02 83.8101 130.539 85.2309 129.755L95.7758 123.935C97.1967 123.151 97.714 121.361 96.9312 119.938L92.0176 111.002C91.2349 109.578 89.4486 109.06 88.0277 109.844Z" fill="url(#paint16_linear_332_5385)"/>
<path opacity="0.15" d="M109.496 97.9967L98.9515 103.816C97.5307 104.601 97.0134 106.39 97.7961 107.814L102.71 116.749C103.492 118.173 105.279 118.691 106.7 117.907L117.245 112.087C118.665 111.303 119.183 109.513 118.4 108.09L113.486 99.1542C112.704 97.7308 110.917 97.2126 109.496 97.9967Z" fill="url(#paint17_linear_332_5385)"/>
<path opacity="0.15" d="M130.948 86.1491L120.403 91.9688C118.982 92.753 118.465 94.5426 119.247 95.966L124.161 104.902C124.944 106.325 126.73 106.843 128.151 106.059L138.696 100.239C140.117 99.4553 140.634 97.6657 139.851 96.2423L134.938 87.3066C134.155 85.8832 132.368 85.3649 130.948 86.1491Z" fill="url(#paint18_linear_332_5385)"/>
<path d="M152.438 74.3092L141.893 80.129C140.472 80.9131 139.955 82.7027 140.738 84.1262L145.651 93.0619C146.434 94.4853 148.22 95.0035 149.641 94.2194L160.186 88.3996C161.607 87.6155 162.124 85.8259 161.341 84.4025L156.428 75.4667C155.645 74.0433 153.859 73.5251 152.438 74.3092Z" fill="url(#paint19_linear_332_5385)"/>
<path opacity="0.15" d="M173.907 62.4616L163.362 68.2813C161.941 69.0655 161.424 70.8551 162.206 72.2785L167.12 81.2142C167.903 82.6376 169.689 83.1559 171.11 82.3717L181.655 76.552C183.076 75.7678 183.593 73.9782 182.81 72.5548L177.897 63.6191C177.114 62.1957 175.327 61.6774 173.907 62.4616Z" fill="url(#paint20_linear_332_5385)"/>
<path opacity="0.15" d="M98.0824 128.116L87.5375 133.936C86.1166 134.72 85.5994 136.509 86.3821 137.933L91.2957 146.869C92.0784 148.292 93.8648 148.81 95.2856 148.026L105.831 142.206C107.251 141.422 107.769 139.633 106.986 138.209L102.072 129.273C101.29 127.85 99.5033 127.332 98.0824 128.116Z" fill="url(#paint21_linear_332_5385)"/>
<path opacity="0.15" d="M119.557 116.284L109.012 122.104C107.591 122.888 107.074 124.677 107.857 126.101L112.77 135.036C113.553 136.46 115.339 136.978 116.76 136.194L127.305 130.374C128.726 129.59 129.243 127.8 128.461 126.377L123.547 117.441C122.764 116.018 120.978 115.5 119.557 116.284Z" fill="url(#paint22_linear_332_5385)"/>
<path opacity="0.15" d="M141.008 104.436L130.463 110.256C129.042 111.04 128.525 112.83 129.308 114.253L134.221 123.189C135.004 124.612 136.791 125.13 138.211 124.346L148.756 118.527C150.177 117.742 150.694 115.953 149.912 114.529L144.998 105.594C144.215 104.17 142.429 103.652 141.008 104.436Z" fill="url(#paint23_linear_332_5385)"/>
<path opacity="0.15" d="M162.477 92.5885L151.932 98.4083C150.511 99.1924 149.994 100.982 150.777 102.405L155.69 111.341C156.473 112.765 158.259 113.283 159.68 112.499L170.225 106.679C171.646 105.895 172.163 104.105 171.38 102.682L166.467 93.746C165.684 92.3226 163.898 91.8044 162.477 92.5885Z" fill="url(#paint24_linear_332_5385)"/>
<path opacity="0.15" d="M183.959 80.7331L173.414 86.5528C171.994 87.337 171.476 89.1266 172.259 90.55L177.173 99.4857C177.955 100.909 179.742 101.427 181.163 100.643L191.707 94.8234C193.128 94.0393 193.646 92.2497 192.863 90.8263L187.949 81.8906C187.167 80.4672 185.38 79.9489 183.959 80.7331Z" fill="url(#paint25_linear_332_5385)"/>
<path d="M147.391 85.0271L151.925 86.9834L153.894 79.4492" stroke="white" stroke-linecap="round" stroke-linejoin="round"/>
<path d="M88.9394 1.48808C93.4581 7.43785 86.7446 14.1637 80.8057 9.63667C76.287 3.68691 83.0005 -3.03891 88.9394 1.48808Z" fill="url(#paint26_linear_332_5385)"/>
<path d="M223.387 75.327C218.756 81.1959 210.59 76.3618 213.495 69.4581C218.126 63.5892 226.292 68.4234 223.387 75.327Z" fill="url(#paint27_linear_332_5385)"/>
<path d="M1.8881 76.8311C-3.16319 71.3341 2.88868 64.0101 9.23104 67.9712C14.2823 73.4682 8.23047 80.7923 1.8881 76.8311Z" fill="url(#paint28_linear_332_5385)"/>
<defs>
<linearGradient id="paint0_linear_332_5385" x1="30.9207" y1="-20.4518" x2="72.8185" y2="210.123" gradientUnits="userSpaceOnUse">
<stop stop-color="#4D64DE"/>
<stop offset="1" stop-color="#F9F7ED"/>
</linearGradient>
<linearGradient id="paint1_linear_332_5385" x1="53.1916" y1="82.5049" x2="91.7766" y2="201.637" gradientUnits="userSpaceOnUse">
<stop stop-color="#4D64DE"/>
<stop offset="1" stop-color="#A1B1FF"/>
</linearGradient>
<linearGradient id="paint2_linear_332_5385" x1="202.051" y1="396.355" x2="105.294" y2="21.6218" gradientUnits="userSpaceOnUse">
<stop stop-color="#EFF2FF"/>
<stop offset="1" stop-color="white"/>
</linearGradient>
<linearGradient id="paint3_linear_332_5385" x1="90.5513" y1="11.3021" x2="111.233" y2="121.909" gradientUnits="userSpaceOnUse">
<stop stop-color="#B1BDFF"/>
<stop offset="1" stop-color="#7288FE"/>
</linearGradient>
<linearGradient id="paint4_linear_332_5385" x1="35.4712" y1="22.5228" x2="35.6655" y2="84.2355" gradientUnits="userSpaceOnUse">
<stop stop-color="#B1BDFF"/>
<stop offset="1" stop-color="#7288FE"/>
</linearGradient>
<linearGradient id="paint5_linear_332_5385" x1="33.9548" y1="40.8251" x2="54.0526" y2="74.3249" gradientUnits="userSpaceOnUse">
<stop stop-color="#6D5EB7"/>
<stop offset="1" stop-color="#453777"/>
</linearGradient>
<linearGradient id="paint6_linear_332_5385" x1="61.2294" y1="26.2741" x2="77.4503" y2="61.8114" gradientUnits="userSpaceOnUse">
<stop stop-color="#6D5EB7"/>
<stop offset="1" stop-color="#453777"/>
</linearGradient>
<linearGradient id="paint7_linear_332_5385" x1="90.0055" y1="12.1971" x2="106.242" y2="47.7361" gradientUnits="userSpaceOnUse">
<stop stop-color="#6D5EB7"/>
<stop offset="1" stop-color="#453777"/>
</linearGradient>
<linearGradient id="paint8_linear_332_5385" x1="116.734" y1="0.185539" x2="132.971" y2="35.7246" gradientUnits="userSpaceOnUse">
<stop stop-color="#6D5EB7"/>
<stop offset="1" stop-color="#453777"/>
</linearGradient>
<linearGradient id="paint9_linear_332_5385" x1="141.775" y1="-10.5375" x2="157.997" y2="24.9837" gradientUnits="userSpaceOnUse">
<stop stop-color="#6D5EB7"/>
<stop offset="1" stop-color="#453777"/>
</linearGradient>
<linearGradient id="paint10_linear_332_5385" x1="81.9271" y1="85.0059" x2="78.9574" y2="70.3127" gradientUnits="userSpaceOnUse">
<stop stop-color="#6D5EB7"/>
<stop offset="1" stop-color="#453777"/>
</linearGradient>
<linearGradient id="paint11_linear_332_5385" x1="71.5562" y1="97.1278" x2="140.394" y2="175.969" gradientUnits="userSpaceOnUse">
<stop stop-color="#6D5EB7"/>
<stop offset="1" stop-color="#453777"/>
</linearGradient>
<linearGradient id="paint12_linear_332_5385" x1="89.6043" y1="81.3417" x2="158.457" y2="160.167" gradientUnits="userSpaceOnUse">
<stop stop-color="#6D5EB7"/>
<stop offset="1" stop-color="#453777"/>
</linearGradient>
<linearGradient id="paint13_linear_332_5385" x1="107.671" y1="65.5803" x2="176.507" y2="144.406" gradientUnits="userSpaceOnUse">
<stop stop-color="#6D5EB7"/>
<stop offset="1" stop-color="#453777"/>
</linearGradient>
<linearGradient id="paint14_linear_332_5385" x1="125.74" y1="49.8079" x2="194.577" y2="128.65" gradientUnits="userSpaceOnUse">
<stop stop-color="#6D5EB7"/>
<stop offset="1" stop-color="#453777"/>
</linearGradient>
<linearGradient id="paint15_linear_332_5385" x1="143.772" y1="34.0448" x2="212.61" y2="112.886" gradientUnits="userSpaceOnUse">
<stop stop-color="#6D5EB7"/>
<stop offset="1" stop-color="#453777"/>
</linearGradient>
<linearGradient id="paint16_linear_332_5385" x1="82.6758" y1="115.251" x2="151.512" y2="194.076" gradientUnits="userSpaceOnUse">
<stop stop-color="#6D5EB7"/>
<stop offset="1" stop-color="#453777"/>
</linearGradient>
<linearGradient id="paint17_linear_332_5385" x1="100.726" y1="99.488" x2="169.562" y2="178.313" gradientUnits="userSpaceOnUse">
<stop stop-color="#6D5EB7"/>
<stop offset="1" stop-color="#453777"/>
</linearGradient>
<linearGradient id="paint18_linear_332_5385" x1="118.772" y1="83.7014" x2="187.625" y2="162.542" gradientUnits="userSpaceOnUse">
<stop stop-color="#6D5EB7"/>
<stop offset="1" stop-color="#453777"/>
</linearGradient>
<linearGradient id="paint19_linear_332_5385" x1="151.828" y1="121.429" x2="150.597" y2="64.0493" gradientUnits="userSpaceOnUse">
<stop stop-color="#51C991"/>
<stop offset="1" stop-color="#C5FFC3"/>
</linearGradient>
<linearGradient id="paint20_linear_332_5385" x1="154.91" y1="52.1832" x2="223.747" y2="131.025" gradientUnits="userSpaceOnUse">
<stop stop-color="#6D5EB7"/>
<stop offset="1" stop-color="#453777"/>
</linearGradient>
<linearGradient id="paint21_linear_332_5385" x1="92.7276" y1="133.528" x2="161.581" y2="212.369" gradientUnits="userSpaceOnUse">
<stop stop-color="#6D5EB7"/>
<stop offset="1" stop-color="#453777"/>
</linearGradient>
<linearGradient id="paint22_linear_332_5385" x1="110.792" y1="117.766" x2="179.628" y2="196.591" gradientUnits="userSpaceOnUse">
<stop stop-color="#6D5EB7"/>
<stop offset="1" stop-color="#453777"/>
</linearGradient>
<linearGradient id="paint23_linear_332_5385" x1="128.838" y1="101.995" x2="197.675" y2="180.821" gradientUnits="userSpaceOnUse">
<stop stop-color="#6D5EB7"/>
<stop offset="1" stop-color="#453777"/>
</linearGradient>
<linearGradient id="paint24_linear_332_5385" x1="146.889" y1="86.2327" x2="215.725" y2="165.058" gradientUnits="userSpaceOnUse">
<stop stop-color="#6D5EB7"/>
<stop offset="1" stop-color="#453777"/>
</linearGradient>
<linearGradient id="paint25_linear_332_5385" x1="164.952" y1="70.4461" x2="233.805" y2="149.287" gradientUnits="userSpaceOnUse">
<stop stop-color="#6D5EB7"/>
<stop offset="1" stop-color="#453777"/>
</linearGradient>
<linearGradient id="paint26_linear_332_5385" x1="86.5025" y1="16.4272" x2="83.7168" y2="-1.97033" gradientUnits="userSpaceOnUse">
<stop stop-color="#B0BCFF"/>
<stop offset="1" stop-color="#B0BCFF" stop-opacity="0"/>
</linearGradient>
<linearGradient id="paint27_linear_332_5385" x1="208.317" y1="76.6903" x2="225.425" y2="69.4436" gradientUnits="userSpaceOnUse">
<stop stop-color="#B0BCFF"/>
<stop offset="1" stop-color="#B0BCFF" stop-opacity="0"/>
</linearGradient>
<linearGradient id="paint28_linear_332_5385" x1="2.91373" y1="61.7223" x2="7.40208" y2="79.7788" gradientUnits="userSpaceOnUse">
<stop stop-color="#B0BCFF"/>
<stop offset="1" stop-color="#B0BCFF" stop-opacity="0"/>
</linearGradient>
</defs>
</svg>
