<svg width="156" height="158" viewBox="0 0 156 158" fill="none" xmlns="http://www.w3.org/2000/svg">
<g clip-path="url(#clip0_435_1262)">
<ellipse cx="76" cy="144.5" rx="61" ry="7.5" fill="#EFF2FF"/>
<path d="M117.382 44.5312C117.382 44.5312 111.599 103.548 105.823 138.088C84.788 148.295 56.5377 145.992 35.7435 138.81C34.9064 132.484 23.8698 49.0443 23.46 45.9683L117.383 44.5312H117.382Z" fill="url(#paint0_linear_435_1262)"/>
<path d="M117.382 44.5312C117.382 44.5312 111.599 103.548 105.823 138.088C105.21 138.38 104.597 138.655 103.98 138.926C111.423 28.6287 104.351 76.5556 24.9185 56.9797L23.46 45.9683L117.383 44.5312H117.382Z" fill="url(#paint1_linear_435_1262)"/>
<g style="mix-blend-mode:screen" opacity="0.5">
<path d="M54.2347 143.446C49.5116 142.661 45.4489 141.7 42.3451 140.858C40.4767 126.557 34.6774 80.2457 37.0209 74.4269C39.6294 67.9184 46.8191 68.5706 49.7578 75.079C52.2867 80.6699 53.8465 129.719 54.2362 143.446H54.2347Z" fill="#546FFF"/>
</g>
<g style="mix-blend-mode:screen" opacity="0.5">
<path d="M98.6232 140.996C94.6721 142.327 90.6731 143.271 86.7061 143.907C87.1058 129.931 88.6599 81.2897 91.1786 75.7262C94.1173 69.2178 101.679 68.4488 103.591 73.7741C105.833 80.0272 100.455 126.022 98.6232 140.996Z" fill="#546FFF"/>
</g>
<g style="mix-blend-mode:screen" opacity="0.5">
<path d="M77.5262 84.1926C77.5262 90.2927 76.2213 130.356 75.7419 144.949C71.5517 145.087 67.4934 144.943 63.6712 144.626C63.2352 130.192 61.8984 86.931 62.175 82.5651C62.4995 77.3566 64.1347 71.8234 69.6877 71.5003C75.2407 71.1713 77.5262 76.7044 77.5262 84.194V84.1926Z" fill="#546FFF"/>
</g>
<path d="M136.423 33.7714L114.458 27L75.3513 47.1132L102.916 55.6132L132.819 40.2339L136.423 33.7714Z" fill="#E2F5FB"/>
<path d="M102.881 44.1831L112.476 42.233L107.713 50.7388L127.906 40.3558L134.309 37.0648L130.424 35.8638L112.603 30.3633L95.1315 39.3472L106.931 36.9482L102.881 44.1831Z" fill="#A1E9FF"/>
<path d="M112.477 42.2321L102.882 44.1822L106.933 36.9473L95.1319 39.3463L83.069 45.5464L104.777 52.2479L107.715 50.7379L112.477 42.2321Z" fill="#4B8E6D"/>
<path d="M127.216 38.5083L132.819 40.2339L136.423 33.7715L127.216 38.5083Z" fill="#6FDDFF"/>
<path d="M116.522 37.2892C114.022 38.5747 110.763 39.2364 109.244 38.7671C107.724 38.2977 108.52 36.8752 111.02 35.5898C113.52 34.3043 116.779 33.6426 118.298 34.1119C119.817 34.5812 119.022 36.0037 116.522 37.2892Z" fill="#FFE87E"/>
<path d="M114.521 13.4879C115.276 16.4203 116.937 22.9539 117.204 25.491C85.8371 53.3931 49.8824 58.1782 24.0105 59.3047L18.6102 47.46C23.1731 31.5542 101.693 2.69391 114.521 13.4879Z" fill="url(#paint2_linear_435_1262)"/>
<g style="mix-blend-mode:screen">
<path d="M21.012 48.4688C40.6562 52.3783 99.1879 33.1122 112.391 15.856C91.7119 32.5734 45.8998 48.1223 21.012 48.4688Z" fill="#546FFF"/>
</g>
<path d="M48.5062 31.8982C50.6684 30.9411 50.0358 25.0807 49.5521 22.3199C49.0684 19.559 49.7386 18.2071 53.7915 16.1596C57.8435 14.1139 67.0995 10.0819 70.284 10.8037C75.5497 12.8415 73.1882 19.7045 83.3756 18.7477L74.6589 22.3719C74.6589 22.3719 69.2827 14.5163 66.9152 14.8683C64.5473 15.219 53.8731 19.7325 53.6076 20.9474C53.3422 22.1623 54.9942 29.7026 54.9942 29.7026L48.5062 31.8982Z" fill="#3B4DB3"/>
<path d="M114.98 15.2939C115.319 16.6223 115.788 18.5139 116.211 20.3605C116.948 23.576 115.809 26.852 113.283 28.9787C91.432 47.3753 64.0179 54.6188 45.3759 57.4681C40.7385 58.1769 35.6959 53.2528 38.9243 49.8534C39.4745 49.2741 40.0241 49.1997 40.8059 49.0319C58.1614 45.3072 99.012 35.4452 114.978 15.2936C114.979 15.2931 114.98 15.2933 114.98 15.2939Z" fill="#6D84FF"/>
</g>
<defs>
<linearGradient id="paint0_linear_435_1262" x1="23.46" y1="89.3392" x2="61.3638" y2="89.3392" gradientUnits="userSpaceOnUse">
<stop stop-color="#A2B1FF"/>
<stop offset="1" stop-color="#4D64DE"/>
</linearGradient>
<linearGradient id="paint1_linear_435_1262" x1="23.46" y1="86.6375" x2="63.3147" y2="86.6375" gradientUnits="userSpaceOnUse">
<stop stop-color="#A2B1FF"/>
<stop offset="1" stop-color="#546FFF"/>
</linearGradient>
<linearGradient id="paint2_linear_435_1262" x1="19.5925" y1="50.3559" x2="60.4765" y2="36.4883" gradientUnits="userSpaceOnUse">
<stop stop-color="#A2B1FF"/>
<stop offset="1" stop-color="#546FFF"/>
</linearGradient>
<clipPath id="clip0_435_1262">
<rect width="156" height="158" fill="white"/>
</clipPath>
</defs>
</svg>
