<svg width="26" height="16" viewBox="0 0 26 16" fill="none" xmlns="http://www.w3.org/2000/svg">
<path d="M5.71082 16C4.8072 16 4.03914 15.6794 3.40661 15.0381C2.77409 14.3969 2.45783 13.6183 2.45783 12.7023H0V1.90532C0 1.38137 0.184027 0.93283 0.55208 0.559698C0.920154 0.186566 1.36262 0 1.87946 0H18.8434L26 7.05956V12.7023H23.735C23.735 13.6183 23.4187 14.3969 22.7862 15.0381C22.1536 15.6794 21.3856 16 20.482 16C19.5783 16 18.8103 15.6794 18.1778 15.0381C17.5452 14.3969 17.229 13.6183 17.229 12.7023H8.96381C8.96381 13.6143 8.64755 14.3918 8.01502 15.0351C7.3825 15.6784 6.61443 16 5.71082 16ZM16.2891 6.08247H22.2169L17.9518 1.90532H16.2891V6.08247ZM9.08432 6.08247H14.4096V1.90532H9.08432V6.08247ZM1.87946 6.08247H7.20482V1.90532H1.87946V6.08247ZM5.71082 14.2901C6.14937 14.2901 6.52006 14.1366 6.82287 13.8296C7.12568 13.5227 7.27709 13.1469 7.27709 12.7023C7.27709 12.2577 7.12568 11.8819 6.82287 11.575C6.52006 11.268 6.14937 11.1145 5.71082 11.1145C5.27226 11.1145 4.90158 11.268 4.59876 11.575C4.29595 11.8819 4.14455 12.2577 4.14455 12.7023C4.14455 13.1469 4.29595 13.5227 4.59876 13.8296C4.90158 14.1366 5.27226 14.2901 5.71082 14.2901ZM20.482 14.2901C20.9205 14.2901 21.2912 14.1366 21.594 13.8296C21.8968 13.5227 22.0482 13.1469 22.0482 12.7023C22.0482 12.2577 21.8968 11.8819 21.594 11.575C21.2912 11.268 20.9205 11.1145 20.482 11.1145C20.0434 11.1145 19.6727 11.268 19.3699 11.575C19.0671 11.8819 18.9157 12.2577 18.9157 12.7023C18.9157 13.1469 19.0671 13.5227 19.3699 13.8296C19.6727 14.1366 20.0434 14.2901 20.482 14.2901ZM1.87946 10.797H3.12287C3.38953 10.4159 3.74656 10.0886 4.19395 9.81499C4.64134 9.54141 5.14696 9.40461 5.71082 9.40461C6.27468 9.40461 6.77428 9.5353 7.20962 9.79667C7.64496 10.058 8.00801 10.3915 8.29877 10.797H17.894C18.1607 10.4159 18.5177 10.0886 18.9651 9.81499C19.4125 9.54141 19.9181 9.40461 20.482 9.40461C21.0458 9.40461 21.5454 9.5353 21.9808 9.79667C22.4161 10.058 22.7791 10.3915 23.0699 10.797H24.1205V7.98779H1.87946V10.797Z" fill="#787878"/>
</svg>
