<svg width="75" height="93" viewBox="0 0 75 93" fill="none" xmlns="http://www.w3.org/2000/svg">
<path d="M58.8117 44.6398L48.3013 40.8608C46.6479 40.5065 44.286 38.617 44.286 37.3179V35.1922C49.3641 30.4684 52.5527 21.6112 52.5527 16.0608L51.4898 11.8093L56.686 7.9122L51.9622 3.18839L44.7584 1.41696C39.7984 0.236012 34.6022 0.236012 29.7603 1.41696L22.5565 3.18839L17.8327 7.9122L23.0289 11.8093L22.0841 15.8246C21.966 21.4932 25.2727 30.4684 30.2327 35.1922V37.3179C30.2327 38.617 27.8708 40.5065 26.2174 40.8608L15.707 44.6398C9.56602 46.8836 5.55078 52.6703 5.55078 59.0474V73.8093H68.9679V59.0474C68.8498 52.6703 64.8346 46.8836 58.8117 44.6398ZM21.3755 7.79411L23.7374 5.4322L30.2327 3.77887C34.7203 2.59792 39.5622 2.59792 44.1679 3.77887L50.6632 5.4322L53.0251 7.79411L48.7736 10.9827L49.9546 15.8246C41.4517 14.7617 32.8308 14.7617 24.3279 15.8246L25.5089 10.9827L21.3755 7.79411ZM48.8917 17.9503C41.2155 20.1941 33.1851 20.1941 25.5089 17.9503C33.3032 17.1236 41.0975 17.1236 48.8917 17.9503ZM24.8003 20.1941C28.9336 21.3751 33.067 21.9655 37.2003 21.9655C41.3336 21.9655 45.5851 21.3751 49.6003 20.1941C48.0651 27.3979 42.8689 36.0189 37.2003 36.0189C31.4136 36.137 26.3355 27.3979 24.8003 20.1941ZM37.2003 38.3808C38.8536 38.3808 40.3889 37.9084 41.9241 36.9636C41.9241 36.9636 41.6879 38.9712 43.6955 40.7427L41.4517 42.9865H33.067L30.7051 40.8608C32.7127 38.9712 32.4765 37.0817 32.4765 37.0817C34.0117 37.9084 35.547 38.3808 37.2003 38.3808ZM66.606 71.4474H56.0955V64.2436H53.7336V71.4474H20.7851V64.2436H18.4232V71.4474H7.79459V59.0474C7.79459 53.6151 11.2194 48.7732 16.4155 46.8836L26.6898 43.2227C27.3984 43.1046 28.107 42.7503 28.8155 42.2779L32.0041 45.4665H42.3965L45.5851 42.2779C46.2936 42.7503 47.0022 42.9865 47.7108 43.2227L57.9851 46.8836C63.0632 48.7732 66.606 53.6151 66.606 59.0474V71.4474Z" fill="#A2A3A3"/>
<path d="M24.3275 54.9141H14.8799V57.276H24.3275V54.9141Z" fill="#A2A3A3"/>
<path d="M50.0732 57.867L54.7971 61.0556L59.5209 57.867V52.5527H50.0732V57.867ZM52.4351 54.9146H57.159V56.6861L54.7971 58.2213L52.4351 56.6861V54.9146Z" fill="#A2A3A3"/>
<path d="M41.9242 9.68411V5.55078H32.4766V9.68411L37.2004 12.8727L41.9242 9.68411ZM34.8385 7.91269H39.5623V8.50316L37.2004 10.0384L34.8385 8.50316V7.91269Z" fill="#A2A3A3"/>
</svg>
