<svg width="84" height="51" viewBox="0 0 84 51" fill="none" xmlns="http://www.w3.org/2000/svg">
<path d="M18.7306 50.3843C15.846 50.3843 13.3941 49.3747 11.3749 47.3554C9.3557 45.3362 8.3461 42.8843 8.3461 39.9998H0.5V5.9999C0.5 4.34997 1.08747 2.9375 2.2624 1.7625C3.4374 0.5875 4.84987 0 6.4998 0H60.6535L83.4996 22.2307V39.9998H76.2689C76.2689 42.8843 75.2593 45.3362 73.2401 47.3554C71.2209 49.3747 68.769 50.3843 65.8844 50.3843C62.9998 50.3843 60.5479 49.3747 58.5287 47.3554C56.5095 45.3362 55.4999 42.8843 55.4999 39.9998H29.1151C29.1151 42.8715 28.1055 45.3202 26.0863 47.3458C24.0671 49.3715 21.6152 50.3843 18.7306 50.3843ZM52.4997 19.1538H71.423L57.8075 5.9999H52.4997V19.1538ZM29.4998 19.1538H46.4998V5.9999H29.4998V19.1538ZM6.4998 19.1538H23.4999V5.9999H6.4998V19.1538ZM18.7306 44.9998C20.1306 44.9998 21.3139 44.5165 22.2806 43.5498C23.2473 42.5831 23.7306 41.3998 23.7306 39.9998C23.7306 38.5998 23.2473 37.4165 22.2806 36.4498C21.3139 35.4831 20.1306 34.9998 18.7306 34.9998C17.3306 34.9998 16.1473 35.4831 15.1806 36.4498C14.2139 37.4165 13.7306 38.5998 13.7306 39.9998C13.7306 41.3998 14.2139 42.5831 15.1806 43.5498C16.1473 44.5165 17.3306 44.9998 18.7306 44.9998ZM65.8844 44.9998C67.2844 44.9998 68.4677 44.5165 69.4344 43.5498C70.4011 42.5831 70.8844 41.3998 70.8844 39.9998C70.8844 38.5998 70.4011 37.4165 69.4344 36.4498C68.4677 35.4831 67.2844 34.9998 65.8844 34.9998C64.4844 34.9998 63.3011 35.4831 62.3344 36.4498C61.3677 37.4165 60.8844 38.5998 60.8844 39.9998C60.8844 41.3998 61.3677 42.5831 62.3344 43.5498C63.3011 44.5165 64.4844 44.9998 65.8844 44.9998ZM6.4998 33.9999H10.4691C11.3204 32.7999 12.4601 31.7691 13.8883 30.9076C15.3165 30.0461 16.9306 29.6153 18.7306 29.6153C20.5306 29.6153 22.1255 30.0268 23.5152 30.8499C24.9049 31.673 26.0639 32.723 26.9921 33.9999H57.6229C58.4742 32.7999 59.6139 31.7691 61.0421 30.9076C62.4703 30.0461 64.0844 29.6153 65.8844 29.6153C67.6844 29.6153 69.2793 30.0268 70.669 30.8499C72.0587 31.673 73.2177 32.723 74.1459 33.9999H77.4998V25.1537H6.4998V33.9999Z" fill="#263C51"/>
</svg>
