<svg width="18" height="19" viewBox="0 0 18 19" fill="none" xmlns="http://www.w3.org/2000/svg">
<path d="M6.12891 10.965V11.6601C6.12891 12.9446 7.03212 14.061 8.2181 14.3829V15.8665H9.61089V14.3854C10.0854 14.2598 10.523 14.0063 10.8831 13.6413C11.41 13.1072 11.7001 12.4078 11.7001 11.6719C11.7001 10.9698 11.4051 10.3541 10.8233 9.84173C10.373 9.44517 9.8019 9.14806 9.24963 8.86068L9.23637 8.85375C8.26736 8.34953 7.83506 7.99598 7.83506 7.23353C7.83506 6.66569 8.31931 6.20369 8.91449 6.20369C9.50968 6.20369 9.99393 6.67147 9.99393 7.24645V7.94162H11.3867V7.24645C11.3867 6.14281 10.636 5.20905 9.61089 4.9123V3.35352H8.2181V4.91181C7.19302 5.20696 6.44227 6.13578 6.44227 7.23357C6.44227 8.96784 7.78835 9.66823 8.59262 10.0867L8.60588 10.0936C9.66075 10.6425 10.3073 11.0123 10.3073 11.6719C10.3073 12.4384 9.66947 13.0859 8.91449 13.0859C8.17253 13.0859 7.5217 12.4196 7.5217 11.6602V10.965L6.12891 10.965Z" fill="#1E1E1E"/>
<path d="M8.94871 17.1191C6.23792 17.1191 3.80822 15.706 2.47146 13.4348H4.87478V12.0444H0V16.9106H1.39279V14.3363C2.02754 15.3479 2.86276 16.2247 3.86045 16.9182C5.35805 17.9592 7.11758 18.5094 8.94871 18.5094C11.3283 18.5094 13.5611 17.5833 15.2358 15.9018C16.9072 14.2235 17.8278 11.9895 17.8278 9.61133H16.435C16.435 13.7511 13.0766 17.1191 8.94871 17.1191Z" fill="#1E1E1E"/>
<path d="M16.4698 2.31176V4.886C15.835 3.87448 14.9998 2.99766 14.0021 2.30417C12.5045 1.26314 10.745 0.712891 8.91389 0.712891C6.5329 0.712891 4.29445 1.63847 2.61083 3.31907C0.927215 4.99975 0 7.23423 0 9.61101H1.39279C1.39279 5.47119 4.76673 2.10322 8.91389 2.10322C11.6247 2.10322 14.0544 3.51626 15.3911 5.78758H12.9878V7.17791H17.8626V2.31176H16.4698Z" fill="#1E1E1E"/>
</svg>
