<svg width="27" height="23" viewBox="0 0 27 23" fill="none" xmlns="http://www.w3.org/2000/svg">
<path d="M25.875 0H1.125C0.45 0 0 0.45 0 1.125V4.5C0 4.95 0.225 5.2875 0.5625 5.5125L12.9375 12.2625C13.1625 12.375 13.275 12.375 13.5 12.375C13.725 12.375 13.8375 12.375 14.0625 12.2625L26.4375 5.5125C26.775 5.2875 27 4.95 27 4.5V1.125C27 0.45 26.55 0 25.875 0Z" fill="#07AAF6"/>
<path d="M15.075 14.2385C14.625 14.5735 14.0625 14.6851 13.5 14.6851C12.9375 14.6851 12.375 14.5735 11.925 14.2385L0 7.875V21.3836C0 22.0534 0.45 22.5 1.125 22.5H25.875C26.55 22.5 27 22.0534 27 21.3836V7.875L15.075 14.2385Z" fill="#07AAF6"/>
</svg>
