<svg width="15" height="15" viewBox="0 0 15 15" fill="none" xmlns="http://www.w3.org/2000/svg">
<g clip-path="url(#clip0_267_1392)">
<mask id="mask0_267_1392" style="mask-type:alpha" maskUnits="userSpaceOnUse" x="0" y="0" width="15" height="15">
<path d="M7.5 15C11.6421 15 15 11.6421 15 7.5C15 3.35787 11.6421 0 7.5 0C3.35787 0 0 3.35787 0 7.5C0 11.6421 3.35787 15 7.5 15Z" fill="#231D9A"/>
</mask>
<g mask="url(#mask0_267_1392)">
<path d="M15 0H0V15H15V0Z" fill="#231D9A"/>
<path d="M6.32812 6.32812V-0.234375H5.625V4.80469L0.585938 1.40625L-0.9375 3.39844L2.46094 5.625H-0.585938V6.32812H6.32812Z" fill="white"/>
<path d="M6.32812 8.67188V15.2344H5.625V10.1953L0.585938 13.5938L-0.9375 11.6016L2.46094 9.375H-0.585938V8.67188H6.32812Z" fill="white"/>
<path d="M8.67188 6.32812V-0.234375H9.375V4.80469L14.4141 1.40625L15.9375 3.39844L12.5391 5.625H15.5859V6.32812H8.67188Z" fill="white"/>
<path d="M8.67188 8.67188V15.2344H9.375V10.1953L14.4141 13.5938L15.9375 11.6016L12.5391 9.375H15.5859V8.67188H8.67188Z" fill="white"/>
<path d="M5.625 5.625V5.50781L0.703125 2.22656L-0.117188 3.16406L3.51562 5.625H5.625Z" fill="#F0263C"/>
<path d="M5.625 9.375V9.49219L0.703125 12.7734L-0.117188 11.8359L3.51562 9.375H5.625Z" fill="#F0263C"/>
<path d="M9.375 5.625V5.50781L14.2969 2.22656L15.1172 3.16406L11.4844 5.625H9.375Z" fill="#F0263C"/>
<path d="M9.375 9.375V9.49219L14.2969 12.7734L15.1172 11.8359L11.4844 9.375H9.375Z" fill="#F0263C"/>
<path fill-rule="evenodd" clip-rule="evenodd" d="M8.67188 6.32812V-0.46875H6.32812V6.32812H-0.46875V8.67188H6.32812V15.4688H8.67188V8.67188H15.4688V6.32812H8.67188Z" fill="#F0263C"/>
</g>
</g>
<defs>
<clipPath id="clip0_267_1392">
<rect width="15" height="15" rx="7.5" fill="white"/>
</clipPath>
</defs>
</svg>
