<svg width="15" height="15" viewBox="0 0 15 15" fill="none" xmlns="http://www.w3.org/2000/svg">
<mask id="mask0_310_464" style="mask-type:luminance" maskUnits="userSpaceOnUse" x="0" y="0" width="15" height="15">
<path d="M15 0H0V15H15V0Z" fill="white"/>
</mask>
<g mask="url(#mask0_310_464)">
<path d="M0 7.50001C0 8.375 0.15625 9.21875 0.421875 9.99999H14.5625C14.8437 9.21875 15 8.375 15 7.50001C15 6.62499 14.8437 5.78124 14.5781 5H0.421875C0.15625 5.78124 0 6.62499 0 7.50001Z" fill="#F0263C"/>
<path d="M0.421875 4.99999H14.5625C13.5469 2.09375 10.7656 0 7.5 0C4.23436 0 1.45312 2.09375 0.421875 4.99999Z" fill="black"/>
<path d="M14.5781 10H0.421875C1.45312 12.9062 4.23436 15 7.5 15C10.7656 15 13.5469 12.9062 14.5781 10Z" fill="#FFD400"/>
</g>
</svg>
