<svg width="25" height="24" viewBox="0 0 25 24" fill="none" xmlns="http://www.w3.org/2000/svg">
<path fill-rule="evenodd" clip-rule="evenodd" d="M4.29658 11.7866C4.26345 11.8197 4.25 11.8577 4.25 11.89V15.19C4.25 15.7658 4.72421 16.24 5.29999 16.24H6.59996C6.68576 16.24 6.75002 16.1757 6.75002 16.09V11.89C6.75002 11.8088 6.68036 11.74 6.59996 11.74H4.40002C4.36767 11.74 4.32971 11.7534 4.29658 11.7866ZM2.75 11.89C2.75 10.9857 3.49584 10.24 4.40002 10.24H6.59996C7.51958 10.24 8.25002 10.9911 8.25002 11.89V16.09C8.25002 17.0042 7.51418 17.74 6.59996 17.74H5.29999C3.89577 17.74 2.75 16.5942 2.75 15.19V11.89Z" fill="#1D1D1D"/>
<path fill-rule="evenodd" clip-rule="evenodd" d="M12.5 3.73999C9.04424 3.73999 6.25 6.53423 6.25 9.98999V11C6.25 11.4142 5.91422 11.75 5.5 11.75C5.08579 11.75 4.75 11.4142 4.75 11V9.98999C4.75 5.70578 8.21576 2.23999 12.5 2.23999C16.7842 2.23999 20.25 5.70578 20.25 9.98999V10.99C20.25 11.4042 19.9142 11.74 19.5 11.74C19.0858 11.74 18.75 11.4042 18.75 10.99V9.98999C18.75 6.53423 15.9558 3.73999 12.5 3.73999Z" fill="#1D1D1D"/>
<path fill-rule="evenodd" clip-rule="evenodd" d="M19.5477 16.2546C19.9538 16.3361 20.2169 16.7315 20.1353 17.1375C19.6063 19.7711 17.2841 21.7499 14.5 21.7499H13.5C13.0858 21.7499 12.75 21.4141 12.75 20.9999C12.75 20.5856 13.0858 20.2499 13.5 20.2499H14.5C16.5559 20.2499 18.2737 18.7886 18.6647 16.8422C18.7463 16.4361 19.1416 16.173 19.5477 16.2546Z" fill="#1D1D1D"/>
<path fill-rule="evenodd" clip-rule="evenodd" d="M18.2966 11.7866C18.2635 11.8197 18.25 11.8577 18.25 11.89V16.09C18.25 16.1712 18.3197 16.24 18.4001 16.24H19.65C20.2558 16.24 20.75 15.7458 20.75 15.1399V11.89C20.75 11.8088 20.6804 11.74 20.6 11.74H18.4001C18.3677 11.74 18.3297 11.7534 18.2966 11.7866ZM16.75 11.89C16.75 10.9857 17.4959 10.24 18.4001 10.24H20.6C21.5196 10.24 22.25 10.9911 22.25 11.89V15.1399C22.25 16.5742 21.0843 17.74 19.65 17.74H18.4001C17.4804 17.74 16.75 16.9888 16.75 16.09V11.89Z" fill="#1D1D1D"/>
</svg>
