<svg width="22" height="22" viewBox="0 0 22 22" fill="none" xmlns="http://www.w3.org/2000/svg">
<path d="M11 2.97913C7.27303 2.97913 4.16164 5.76144 4.044 9.32402C2.32908 10.1366 1.14581 11.8973 1.14581 13.9333C1.14581 16.6751 3.06509 19.0208 5.90738 19.0208C6.28708 19.0208 6.59488 18.713 6.59488 18.3333C6.59488 17.9536 6.28708 17.6458 5.90738 17.6458C3.95353 17.6458 2.52081 16.0515 2.52081 13.9333C2.52081 12.3104 3.5448 10.9355 4.9645 10.4292L5.44299 10.2587L5.42039 9.75109C5.41718 9.67895 5.41555 9.60635 5.41555 9.53329C5.41555 6.71545 7.87181 4.35413 11 4.35413C13.935 4.35413 16.2843 6.43772 16.5575 9.02112L16.5996 9.41972L16.9673 9.5794C18.4417 10.2198 19.4791 11.7071 19.4791 13.4444C19.4791 15.8472 17.9149 17.6458 15.7076 17.6458C15.3279 17.6458 15.0201 17.9536 15.0201 18.3333C15.0201 18.713 15.3279 19.0208 15.7076 19.0208C18.8294 19.0208 20.8541 16.4417 20.8541 13.4444C20.8541 11.2896 19.6452 9.41697 17.8715 8.48867C17.3361 5.33367 14.4318 2.97913 11 2.97913Z" fill="#1D1D1D"/>
<path d="M10.4037 15.0103C10.5935 14.6815 10.4809 14.2611 10.1521 14.0712C9.82325 13.8814 9.40277 13.994 9.21293 14.3228L8.29626 15.9106C8.10641 16.2394 8.21908 16.6599 8.54791 16.8497C8.87672 17.0396 9.29717 16.9269 9.48701 16.5981L10.4037 15.0103Z" fill="#1D1D1D"/>
<path d="M13.5791 16.8437C13.769 16.5149 13.6563 16.0944 13.3275 15.9046C12.9987 15.7148 12.5782 15.8274 12.3883 16.1562L11.4717 17.744C11.2818 18.0728 11.3945 18.4933 11.7233 18.6831C12.0521 18.8729 12.4726 18.7603 12.6624 18.4315L13.5791 16.8437Z" fill="#1D1D1D"/>
<path d="M10.6164 18.3087C10.8063 17.9799 10.6936 17.5594 10.3648 17.3696C10.036 17.1797 9.61552 17.2924 9.42568 17.6212L8.50897 19.2089C8.31913 19.5378 8.43178 19.9581 8.76061 20.1481C9.08944 20.3379 9.50992 20.2253 9.69976 19.8964L10.6164 18.3087Z" fill="#1D1D1D"/>
</svg>
