<svg width="199" height="165" viewBox="0 0 199 165" fill="none" xmlns="http://www.w3.org/2000/svg">
<circle cx="89.5" cy="82.5" r="82.5" fill="#EFF2FF"/>
<mask id="mask0_266_2039" style="mask-type:alpha" maskUnits="userSpaceOnUse" x="11" y="4" width="157" height="157">
<circle cx="89.4998" cy="82.4998" r="77.658" fill="white"/>
</mask>
<g mask="url(#mask0_266_2039)">
<path fill-rule="evenodd" clip-rule="evenodd" d="M80.2315 53.54L80.2315 49.4965C80.2315 44.5829 84.2148 40.5996 89.1284 40.5996C94.042 40.5996 98.0253 44.5829 98.0253 49.4965V53.54H102.393C107.306 53.54 111.29 57.5233 111.29 62.4369C111.29 67.3506 107.306 71.3339 102.393 71.3339H75.8637C70.9501 71.3339 66.9668 67.3506 66.9668 62.4369C66.9668 57.5233 70.9501 53.54 75.8637 53.54H80.2315Z" fill="url(#paint0_linear_266_2039)"/>
<path fill-rule="evenodd" clip-rule="evenodd" d="M63.9029 62.2012H39.0322C34.9181 62.2012 31.583 65.5363 31.583 69.6504V169.47C31.583 173.584 34.9181 176.919 39.0322 176.919H140.341C144.456 176.919 147.791 173.584 147.791 169.47V69.6504C147.791 65.5363 144.456 62.2012 140.341 62.2012H114.354C114.542 62.9774 114.642 63.7883 114.642 64.6224C114.642 70.2793 110.056 74.8651 104.399 74.8651H73.8577C68.2008 74.8651 63.615 70.2793 63.615 64.6224C63.615 63.7883 63.7148 62.9774 63.9029 62.2012Z" fill="url(#paint1_linear_266_2039)"/>
<rect x="52.8125" y="86.0391" width="73.0023" height="16.0158" rx="3.7246" fill="white"/>
<rect x="59.5176" y="116.207" width="55.1242" height="4.46953" rx="2.23476" fill="white"/>
<circle cx="55.0482" cy="118.442" r="2.23476" fill="white"/>
<rect x="59.5176" y="134.832" width="37.991" height="4.46953" rx="2.23476" fill="white"/>
<circle cx="55.0482" cy="137.067" r="2.23476" fill="white"/>
<circle cx="117.248" cy="29.0525" r="6.33183" fill="url(#paint2_linear_266_2039)"/>
<circle cx="50.3913" cy="42.6458" r="3.91084" transform="rotate(-90 50.3913 42.6458)" fill="url(#paint3_linear_266_2039)"/>
<circle cx="140.154" cy="53.4466" r="3.91084" transform="rotate(-90 140.154 53.4466)" fill="url(#paint4_linear_266_2039)"/>
</g>
<g filter="url(#filter0_f_266_2039)">
<circle cx="165.653" cy="34.5266" r="17.7883" fill="#0DD168" fill-opacity="0.33"/>
</g>
<circle cx="161.618" cy="30.4915" r="17.7883" fill="#0DD168"/>
<path d="M154.94 30.418L159.359 35.5103L170.959 25.5938" stroke="white" stroke-width="3.81406" stroke-linecap="round" stroke-linejoin="round"/>
<defs>
<filter id="filter0_f_266_2039" x="133.193" y="2.06749" width="64.9187" height="64.9177" filterUnits="userSpaceOnUse" color-interpolation-filters="sRGB">
<feFlood flood-opacity="0" result="BackgroundImageFix"/>
<feBlend mode="normal" in="SourceGraphic" in2="BackgroundImageFix" result="shape"/>
<feGaussianBlur stdDeviation="7.33539" result="effect1_foregroundBlur_266_2039"/>
</filter>
<linearGradient id="paint0_linear_266_2039" x1="89.1282" y1="40.5996" x2="89.1282" y2="71.3339" gradientUnits="userSpaceOnUse">
<stop stop-color="#4D64DE"/>
<stop offset="1" stop-color="#B5C0FF"/>
</linearGradient>
<linearGradient id="paint1_linear_266_2039" x1="40.5221" y1="70.7678" x2="112.593" y2="194.052" gradientUnits="userSpaceOnUse">
<stop stop-color="#B5C0FF"/>
<stop offset="1" stop-color="#5464DA"/>
</linearGradient>
<linearGradient id="paint2_linear_266_2039" x1="117.248" y1="22.7207" x2="117.248" y2="35.3844" gradientUnits="userSpaceOnUse">
<stop stop-color="#B0BCFF"/>
<stop offset="1" stop-color="#B0BCFF" stop-opacity="0"/>
</linearGradient>
<linearGradient id="paint3_linear_266_2039" x1="50.3913" y1="38.735" x2="50.3913" y2="46.5566" gradientUnits="userSpaceOnUse">
<stop stop-color="#B0BCFF"/>
<stop offset="1" stop-color="#B0BCFF" stop-opacity="0"/>
</linearGradient>
<linearGradient id="paint4_linear_266_2039" x1="140.154" y1="49.5358" x2="140.154" y2="57.3574" gradientUnits="userSpaceOnUse">
<stop stop-color="#B0BCFF" stop-opacity="0.53"/>
<stop offset="1" stop-color="#B0BCFF" stop-opacity="0"/>
</linearGradient>
</defs>
</svg>
