<svg width="18" height="18" viewBox="0 0 18 18" fill="none" xmlns="http://www.w3.org/2000/svg">
<path d="M2.33268 17.3327C1.87435 17.3327 1.48199 17.1695 1.1556 16.8431C0.82921 16.5167 0.666016 16.1243 0.666016 15.666V6.49935C0.666016 6.04102 0.82921 5.64865 1.1556 5.32227C1.48199 4.99588 1.87435 4.83268 2.33268 4.83268H6.49935V2.33268C6.49935 1.87435 6.66254 1.48199 6.98893 1.1556C7.31532 0.82921 7.70768 0.666016 8.16602 0.666016H9.83268C10.291 0.666016 10.6834 0.82921 11.0098 1.1556C11.3362 1.48199 11.4993 1.87435 11.4993 2.33268V4.83268H15.666C16.1243 4.83268 16.5167 4.99588 16.8431 5.32227C17.1695 5.64865 17.3327 6.04102 17.3327 6.49935V15.666C17.3327 16.1243 17.1695 16.5167 16.8431 16.8431C16.5167 17.1695 16.1243 17.3327 15.666 17.3327H2.33268ZM2.33268 15.666H15.666V6.49935H11.4993C11.4993 6.95768 11.3362 7.35004 11.0098 7.67643C10.6834 8.00282 10.291 8.16602 9.83268 8.16602H8.16602C7.70768 8.16602 7.31532 8.00282 6.98893 7.67643C6.66254 7.35004 6.49935 6.95768 6.49935 6.49935H2.33268V15.666ZM3.99935 13.9993H8.99935V13.6243C8.99935 13.3882 8.93338 13.1695 8.80143 12.9681C8.66949 12.7667 8.48546 12.6105 8.24935 12.4993C7.97157 12.3743 7.69032 12.2806 7.4056 12.2181C7.12088 12.1556 6.81879 12.1243 6.49935 12.1243C6.1799 12.1243 5.87782 12.1556 5.5931 12.2181C5.30838 12.2806 5.02713 12.3743 4.74935 12.4993C4.51324 12.6105 4.32921 12.7667 4.19727 12.9681C4.06532 13.1695 3.99935 13.3882 3.99935 13.6243V13.9993ZM10.666 12.7493H13.9993V11.4993H10.666V12.7493ZM6.49935 11.4993C6.84657 11.4993 7.14171 11.3778 7.38477 11.1348C7.62782 10.8917 7.74935 10.5966 7.74935 10.2493C7.74935 9.90213 7.62782 9.60699 7.38477 9.36393C7.14171 9.12088 6.84657 8.99935 6.49935 8.99935C6.15213 8.99935 5.85699 9.12088 5.61393 9.36393C5.37088 9.60699 5.24935 9.90213 5.24935 10.2493C5.24935 10.5966 5.37088 10.8917 5.61393 11.1348C5.85699 11.3778 6.15213 11.4993 6.49935 11.4993ZM10.666 10.2493H13.9993V8.99935H10.666V10.2493ZM8.16602 6.49935H9.83268V2.33268H8.16602V6.49935Z" fill="#20B4E3"/>
</svg>
