<svg width="32" height="28" viewBox="0 0 32 28" fill="none" xmlns="http://www.w3.org/2000/svg">
<path fill-rule="evenodd" clip-rule="evenodd" d="M24.251 0.937896C24.3385 0.931646 24.4885 1.0004 24.5885 1.0754C24.7197 1.18165 25.0572 1.80665 26.851 5.46915L31.5947 6.15039L31.7947 6.35665C31.9322 6.4879 32.001 6.6254 32.001 6.7379C31.9947 6.83165 31.9635 6.9629 31.9197 7.0379C31.876 7.10665 31.101 7.89415 30.1885 8.78165C29.276 9.6754 28.526 10.4316 28.5135 10.4629C28.501 10.5004 28.6635 11.5316 28.8697 12.7504C29.0822 13.9691 29.251 15.0629 29.251 15.1754C29.251 15.3129 29.1947 15.4316 29.0697 15.5629C28.9322 15.7004 28.826 15.7504 28.6635 15.7504C28.4947 15.7504 27.9822 15.5066 26.6072 14.7879C25.6072 14.2566 24.6572 13.7629 24.2197 13.5504L22.126 14.6504C20.501 15.5004 19.9822 15.7504 19.7947 15.7504C19.6322 15.7504 19.5197 15.7066 19.4072 15.5941C19.3197 15.5066 19.2385 15.3754 19.2135 15.3004C19.1947 15.2191 19.3635 14.1004 19.9947 10.4691L18.276 8.78165C17.1197 7.64415 16.5385 7.03165 16.501 6.90665C16.4635 6.76915 16.476 6.6629 16.551 6.5004C16.6072 6.38165 16.726 6.2504 16.8135 6.20665C16.901 6.16915 18.0072 5.9879 21.5947 5.46915L22.6635 3.3129C23.5197 1.58165 23.7635 1.1379 23.9135 1.0504C24.0135 0.987896 24.1635 0.937896 24.251 0.937896ZM22.426 6.4879C22.301 6.6129 22.0572 6.65665 20.376 6.90665C19.326 7.0629 18.4635 7.1879 18.451 7.1879C18.4447 7.1879 19.076 7.8129 19.851 8.58165L21.2635 9.96914C21.2572 10.4066 21.1135 11.3066 20.951 12.2504C20.7822 13.1941 20.651 13.9754 20.651 13.9816C20.6572 13.9941 21.401 13.6066 22.3135 13.1254C23.226 12.6504 24.0572 12.2379 24.1572 12.2191C24.3135 12.1879 24.6197 12.3254 26.0135 13.0629C26.9385 13.5441 27.7135 13.9379 27.751 13.9379C27.7822 13.9379 27.801 13.8879 27.7885 13.8316C27.7697 13.7691 27.626 12.9316 27.4635 11.9691C27.301 11.0066 27.1822 10.1504 27.2072 10.0629C27.226 9.96914 27.7822 9.37539 28.6197 8.5629C29.3822 7.8254 29.9947 7.2129 29.9885 7.20665C29.976 7.19415 29.126 7.0629 28.0947 6.90665C26.9447 6.7379 26.1635 6.5879 26.076 6.53165C25.9947 6.4754 25.6135 5.76915 25.0947 4.71915C24.6322 3.7754 24.2385 3.0004 24.226 3.0004C24.2135 3.0004 23.8385 3.7504 23.3885 4.6754C22.9447 5.59415 22.5072 6.40665 22.426 6.4879ZM4.98223 10.8129C8.91348 10.8129 9.63223 10.8254 10.0447 10.9129C10.3135 10.9629 10.7447 11.0941 11.001 11.1941C11.2572 11.3004 11.6822 11.5129 11.9385 11.6691C12.326 11.9066 13.0322 12.5816 15.8947 15.4316C17.8135 17.3441 19.476 19.0504 19.5885 19.2191C19.7072 19.3941 19.851 19.7004 19.9072 19.9066C19.9697 20.1129 20.0135 20.4754 20.0135 20.7191C20.0135 20.9879 19.9697 21.2879 19.8947 21.5004C19.826 21.6879 19.751 21.8941 19.7322 21.9566C19.6885 22.0566 19.8697 22.0629 26.0322 22.0941L26.4385 22.2941C26.6635 22.4066 26.976 22.6316 27.1385 22.7941C27.2947 22.9566 27.501 23.2379 27.5885 23.4066C27.676 23.5816 27.7822 23.9129 27.826 24.1566C27.876 24.4879 27.876 24.6879 27.826 24.9691C27.7822 25.1754 27.676 25.4941 27.5822 25.6816C27.4822 25.8629 27.2822 26.1441 27.126 26.3004C26.9697 26.4566 26.676 26.6629 26.4697 26.7629C26.2572 26.8629 25.8885 26.9691 25.626 27.0066C25.3135 27.0504 23.4885 27.0629 20.251 27.0504C15.4572 27.0254 15.3322 27.0191 14.9072 26.8941C14.6697 26.8191 14.3572 26.7066 14.2197 26.6441C14.0822 26.5816 13.8572 26.4629 13.7197 26.3754C13.5822 26.2941 11.851 25.0879 9.87598 23.6941C7.90098 22.3004 6.15723 21.0879 5.71973 20.8441L3.09473 20.8129C0.594727 20.7816 0.463477 20.7754 0.294727 20.6566C0.200977 20.5879 0.0947266 20.4441 0.0572266 20.3441C0.0197266 20.2316 0.000976562 18.4441 0.000976562 15.7629C0.000976562 12.9879 0.0259766 11.3191 0.0634766 11.2191C0.100977 11.1316 0.188477 11.0066 0.263477 10.9379C0.394727 10.8129 0.488476 10.8129 4.98223 10.8129ZM1.25098 19.5629H4.12598V12.0629H1.25098V19.5629ZM5.37598 19.5316C5.98223 19.6504 6.32598 19.7691 6.53223 19.8754C6.73848 19.9754 8.51348 21.1941 10.4697 22.5754C12.4322 23.9629 14.176 25.1816 14.3447 25.2941C14.5197 25.4004 14.8385 25.5566 15.0635 25.6379L15.4697 25.7816C23.576 25.8129 25.3947 25.7941 25.6135 25.7504C25.8322 25.7066 26.0135 25.6191 26.1697 25.4816C26.2947 25.3754 26.4447 25.1691 26.5072 25.0316C26.5697 24.8941 26.626 24.6754 26.626 24.5441C26.626 24.4191 26.5822 24.2066 26.526 24.0754C26.476 23.9504 26.3697 23.7754 26.2947 23.7004C26.2197 23.6191 26.051 23.4941 25.9197 23.4316C25.701 23.3191 25.4947 23.3129 21.4822 23.3129C18.1885 23.3129 17.1947 23.2941 16.876 23.2254C16.651 23.1816 16.3447 23.0754 16.1885 23.0004C16.0322 22.9191 15.7947 22.7691 15.6572 22.6629C15.5197 22.5566 14.7885 21.9254 14.0385 21.2504C13.2822 20.5816 12.5697 19.9379 12.4572 19.8254C12.2947 19.6629 12.251 19.5754 12.251 19.3754C12.251 19.1816 12.2947 19.0816 12.4322 18.9379C12.5572 18.8066 12.676 18.7504 12.8072 18.7504C12.9135 18.7504 13.0635 18.7816 13.1385 18.8254C13.2197 18.8629 13.9697 19.5191 14.8135 20.2691C15.6572 21.0254 16.4322 21.6941 16.5322 21.7629C16.6322 21.8254 16.876 21.9254 17.0635 21.9754C17.3572 22.0629 17.4572 22.0691 17.751 21.9941C17.9697 21.9441 18.176 21.8441 18.3072 21.7254C18.4197 21.6191 18.576 21.4191 18.6447 21.2816C18.7197 21.1316 18.7697 20.9004 18.7697 20.7191C18.776 20.5441 18.7385 20.2941 18.6947 20.1566C18.626 19.9566 18.0072 19.3004 15.4447 16.7254C13.7072 14.9816 12.0697 13.3691 11.8135 13.1441C11.5447 12.9129 11.1322 12.6316 10.8447 12.4941C10.5697 12.3629 10.1447 12.2129 9.90723 12.1566C9.56973 12.0879 9.00098 12.0629 7.41973 12.0629H5.37598V19.5316ZM10.9885 17.0629C11.101 17.0629 11.2447 17.0879 11.3135 17.1254C11.3822 17.1629 11.4822 17.2816 11.5385 17.3879C11.6072 17.5191 11.626 17.6691 11.601 17.7941C11.5822 17.9191 11.4947 18.0504 11.3947 18.1254C11.2947 18.2004 11.126 18.2566 11.001 18.2566C10.8822 18.2566 10.7072 18.2004 10.6135 18.1254C10.5135 18.0504 10.426 17.9191 10.401 17.7941C10.376 17.6608 10.401 17.5275 10.476 17.3941C10.5322 17.2816 10.626 17.1629 10.6822 17.1316C10.7385 17.0941 10.876 17.0629 10.9885 17.0629Z" fill="#FDFDFD"/>
</svg>
