<svg width="182" height="120" viewBox="0 0 182 120" fill="none" xmlns="http://www.w3.org/2000/svg">
<ellipse cx="90.5" cy="107.5" rx="81.5" ry="7.5" fill="#EFF2FF"/>
<path d="M181.984 64.9244V86.2414C181.984 89.2571 179.552 91.6983 176.548 91.6983H5.43616C2.44786 91.6983 0 89.2571 0 86.2414V7.8822C0 3.5422 3.52873 0 7.86812 0H137.207C140.688 0 143.724 2.26573 144.726 5.60051L155.328 40.48C155.916 42.4107 157.156 44.118 158.857 45.2189L178.074 57.7283C178.408 57.9676 178.741 58.207 179.028 58.4623C179.314 58.6697 179.552 58.9409 179.791 59.1962C181.189 60.744 181.984 62.7863 181.984 64.9404V64.9244Z" fill="url(#paint0_linear_266_2908)"/>
<g style="mix-blend-mode:screen" opacity="0.5">
<path d="M151.641 42.3154H149.543V83.6411H151.641V42.3154Z" fill="#EFF2FF"/>
</g>
<path d="M182.001 73.6207H174.069C173.481 73.6207 173.004 73.2059 173.004 72.7112C173.004 72.2007 173.481 71.8018 174.069 71.8018H182.001V73.6207Z" fill="#EFF2FF"/>
<path d="M182.001 77.0826H174.069C173.481 77.0826 173.004 76.6678 173.004 76.1732C173.004 75.6626 173.481 75.2637 174.069 75.2637H182.001V77.0826Z" fill="#EFF2FF"/>
<path d="M182.001 80.5612H174.069C173.481 80.5612 173.004 80.1463 173.004 79.6517C173.004 79.1411 173.481 78.7422 174.069 78.7422H182.001V80.5612Z" fill="#EFF2FF"/>
<path d="M56 91.6987H20.3789C20.3789 81.838 28.3583 73.8281 38.1974 73.8281C48.0365 73.8281 56 81.838 56 91.6987Z" fill="#3B4DB3"/>
<path d="M38.1966 107C29.7881 107 22.9531 100.139 22.9531 91.6982C22.9531 83.2575 29.7881 76.3965 38.1966 76.3965C46.6052 76.3965 53.4401 83.2575 53.4401 91.6982C53.4401 100.139 46.6052 107 38.1966 107Z" fill="url(#paint1_linear_266_2908)"/>
<path d="M38.1962 97.6339C34.9377 97.6339 32.2832 94.9692 32.2832 91.6983C32.2832 88.4273 34.9377 85.7627 38.1962 85.7627C41.4547 85.7627 44.1092 88.4273 44.1092 91.6983C44.1092 94.9692 41.4547 97.6339 38.1962 97.6339Z" fill="#EFF2FF"/>
<g style="mix-blend-mode:screen">
<g style="mix-blend-mode:screen" opacity="0.5">
<path d="M107.865 48.0752H0V51.1547H107.865V48.0752Z" fill="#EFF2FF"/>
</g>
</g>
<path d="M181.984 64.9247V68.8658C178.964 68.2754 176.723 65.8501 176.723 62.9781C176.723 61.1591 177.629 59.5157 179.027 58.4307C179.314 58.6381 179.552 58.9093 179.79 59.1646C181.189 60.7124 181.984 62.7547 181.984 64.9087V64.9247Z" fill="url(#paint2_linear_266_2908)"/>
<path d="M159.572 91.6987H123.967C123.967 81.838 131.93 73.8281 141.769 73.8281C151.609 73.8281 159.572 81.838 159.572 91.6987Z" fill="#3B4DB3"/>
<path d="M151.64 41.0542V44.4049H119.834V16.3066H139.91C140.927 16.3066 141.897 16.5779 142.691 17.0725C143.55 17.5831 144.185 18.333 144.503 19.2266L144.964 20.5509L146.411 24.6037L151.084 37.7034C151.465 38.7884 151.656 39.9213 151.656 41.0542H151.64Z" fill="url(#paint3_linear_266_2908)"/>
<path d="M142.676 17.0725L122.377 44.4049H119.818V41.8679L138.797 16.3066H139.894C140.911 16.3066 141.881 16.5779 142.676 17.0725Z" fill="white"/>
<path d="M146.396 24.5876L131.677 44.4048H127.242L144.949 20.5508L146.396 24.5876Z" fill="white"/>
<path d="M141.769 107C133.36 107 126.525 100.139 126.525 91.6982C126.525 83.2575 133.36 76.3965 141.769 76.3965C150.177 76.3965 157.012 83.2575 157.012 91.6982C157.012 100.139 150.177 107 141.769 107Z" fill="url(#paint4_linear_266_2908)"/>
<path d="M141.768 97.6339C138.51 97.6339 135.855 94.9692 135.855 91.6983C135.855 88.4273 138.51 85.7627 141.768 85.7627C145.027 85.7627 147.681 88.4273 147.681 91.6983C147.681 94.9692 145.027 97.6339 141.768 97.6339Z" fill="#EFF2FF"/>
<g style="mix-blend-mode:screen" opacity="0.5">
<path d="M109.852 0H107.865V91.6983H109.852V0Z" fill="#EFF2FF"/>
</g>
<path d="M127.973 51.0267H121.233C120.454 51.0267 119.818 50.3884 119.818 49.6066C119.818 48.8248 120.454 48.1865 121.233 48.1865H127.973C128.751 48.1865 129.387 48.8248 129.387 49.6066C129.387 50.3884 128.751 51.0267 127.973 51.0267Z" fill="#3B4DB3"/>
<defs>
<linearGradient id="paint0_linear_266_2908" x1="91" y1="-1.75514" x2="91" y2="94.5544" gradientUnits="userSpaceOnUse">
<stop stop-color="#A1B1FF"/>
<stop offset="0.22" stop-color="#9DADFD"/>
<stop offset="0.44" stop-color="#91A2F8"/>
<stop offset="0.65" stop-color="#7D90F0"/>
<stop offset="0.87" stop-color="#6176E6"/>
<stop offset="1" stop-color="#4D64DE"/>
</linearGradient>
<linearGradient id="paint1_linear_266_2908" x1="22.9531" y1="91.6982" x2="53.4242" y2="91.6982" gradientUnits="userSpaceOnUse">
<stop stop-color="#B5C0FF"/>
<stop offset="0.2" stop-color="#B1BCFD"/>
<stop offset="0.39" stop-color="#A5B1F9"/>
<stop offset="0.59" stop-color="#91A0F3"/>
<stop offset="0.78" stop-color="#7587EA"/>
<stop offset="0.98" stop-color="#5167DF"/>
<stop offset="1" stop-color="#4D64DE"/>
</linearGradient>
<linearGradient id="paint2_linear_266_2908" x1="176.723" y1="63.6482" x2="181.984" y2="63.6482" gradientUnits="userSpaceOnUse">
<stop stop-color="#B3E3F8"/>
<stop offset="1" stop-color="white"/>
</linearGradient>
<linearGradient id="paint3_linear_266_2908" x1="119.818" y1="30.3638" x2="151.64" y2="30.3638" gradientUnits="userSpaceOnUse">
<stop stop-color="#B3E3F8"/>
<stop offset="1" stop-color="white"/>
</linearGradient>
<linearGradient id="paint4_linear_266_2908" x1="126.525" y1="-0.000158242" x2="156.996" y2="-0.000158242" gradientUnits="userSpaceOnUse">
<stop stop-color="#B5C0FF"/>
<stop offset="0.2" stop-color="#B1BCFD"/>
<stop offset="0.39" stop-color="#A5B1F9"/>
<stop offset="0.59" stop-color="#91A0F3"/>
<stop offset="0.78" stop-color="#7587EA"/>
<stop offset="0.98" stop-color="#5167DF"/>
<stop offset="1" stop-color="#4D64DE"/>
</linearGradient>
</defs>
</svg>
