<svg width="34" height="34" viewBox="0 0 34 34" fill="none" xmlns="http://www.w3.org/2000/svg">
<rect x="33" y="33" width="32" height="32" rx="16" transform="rotate(-180 33 33)" fill="#F9FAF9"/>
<rect x="33.25" y="33.25" width="32.5" height="32.5" rx="16.25" transform="rotate(-180 33.25 33.25)" stroke="#1D1D1D" stroke-opacity="0.05" stroke-width="0.5"/>
<path fill-rule="evenodd" clip-rule="evenodd" d="M16.6031 14.2349C15.7989 14.2349 15.1448 14.889 15.1448 15.694C15.1448 16.4982 15.7989 17.1515 16.6031 17.1515C17.4073 17.1515 18.0614 16.4982 18.0614 15.694C18.0614 14.889 17.4073 14.2349 16.6031 14.2349ZM16.6031 18.4015C15.1098 18.4015 13.8948 17.1874 13.8948 15.694C13.8948 14.1999 15.1098 12.9849 16.6031 12.9849C18.0964 12.9849 19.3114 14.1999 19.3114 15.694C19.3114 17.1874 18.0964 18.4015 16.6031 18.4015Z" fill="#1D1D1D"/>
<path fill-rule="evenodd" clip-rule="evenodd" d="M16.6023 10.0682C13.5006 10.0682 10.9773 12.6157 10.9773 15.7457C10.9773 19.7282 15.664 23.6082 16.6023 23.8149C17.5406 23.6074 22.2273 19.7274 22.2273 15.7457C22.2273 12.6157 19.704 10.0682 16.6023 10.0682ZM16.6023 25.0682C15.1073 25.0682 9.72729 20.4416 9.72729 15.7457C9.72729 11.9257 12.8115 8.81824 16.6023 8.81824C20.3931 8.81824 23.4773 11.9257 23.4773 15.7457C23.4773 20.4416 18.0973 25.0682 16.6023 25.0682Z" fill="#1D1D1D"/>
</svg>
