<svg width="25" height="24" viewBox="0 0 25 24" fill="none" xmlns="http://www.w3.org/2000/svg">
<path d="M9.41919 2.25C8.56717 2.24994 8.04819 2.2499 7.60051 2.3208C5.14013 2.71049 3.21049 4.64013 2.8208 7.10051C2.7499 7.54819 2.74994 8.06717 2.75 8.91919V15.0808C2.74994 15.9328 2.7499 16.4518 2.8208 16.8995C3.21049 19.3599 5.14013 21.2895 7.60051 21.6792C8.04819 21.7501 8.56718 21.7501 9.41921 21.75H10.5C11.7936 21.75 12.9894 21.3219 13.9504 20.6C14.2816 20.3513 14.3485 19.8811 14.0997 19.5499C13.8509 19.2188 13.3808 19.1519 13.0496 19.4007C12.3393 19.9342 11.4576 20.25 10.5 20.25H9.50001C8.54234 20.25 8.15083 20.2477 7.83516 20.1977C6.01662 19.9097 4.59036 18.4834 4.30233 16.6649C4.25234 16.3492 4.25001 15.9577 4.25001 15V9.00001C4.25001 8.04234 4.25234 7.65083 4.30233 7.33516C4.59036 5.51662 6.01662 4.09036 7.83516 3.80233C8.15083 3.75234 8.54234 3.75001 9.50001 3.75001H10.5C11.4576 3.75001 12.3393 4.06583 13.0496 4.59932C13.3808 4.84808 13.8509 4.78127 14.0997 4.45008C14.3485 4.11888 14.2816 3.64874 13.9504 3.39997C12.9894 2.67807 11.7936 2.25001 10.5 2.25001L9.41919 2.25Z" fill="#FF1616"/>
<path d="M17.966 7.41234C17.6414 7.155 17.1697 7.20949 16.9123 7.53406C16.655 7.85863 16.7095 8.33036 17.034 8.58771L18.797 9.98556C19.501 10.5438 19.983 10.9274 20.3105 11.25H7.5C7.08578 11.25 6.75 11.5858 6.75 12C6.75 12.4142 7.08578 12.75 7.5 12.75H20.3105C19.983 13.0727 19.501 13.4563 18.797 14.0145L17.034 15.4123C16.7095 15.6697 16.655 16.1414 16.9123 16.466C17.1697 16.7905 17.6414 16.845 17.966 16.5877L19.7648 15.1615C20.4372 14.6283 20.9922 14.1883 21.3875 13.7945C21.7932 13.3904 22.1295 12.9419 22.2208 12.3687C22.2402 12.2466 22.25 12.1234 22.25 12C22.25 11.8766 22.2402 11.7534 22.2208 11.6313C22.1295 11.0582 21.7932 10.6096 21.3875 10.2055C20.9922 9.81175 20.4373 9.37178 19.7648 8.8386L17.966 7.41234Z" fill="#FF1616"/>
</svg>
