<svg width="22" height="20" viewBox="0 0 22 20" fill="none" xmlns="http://www.w3.org/2000/svg">
<path d="M2.73749 17.3333V19C2.73749 19.2833 2.64447 19.5208 2.45844 19.7125C2.27243 19.9042 2.04193 20 1.76693 20H0.970591C0.69559 20 0.465075 19.9042 0.279045 19.7125C0.093015 19.5208 0 19.2833 0 19V8.76923L2.64302 1C2.73923 0.694024 2.91592 0.450869 3.17309 0.270535C3.43025 0.090179 3.71645 0 4.03167 0H18.0181C18.321 0 18.5959 0.091667 18.843 0.275001C19.09 0.458335 19.2613 0.700002 19.357 1L22 8.76923V19C22 19.2833 21.907 19.5208 21.721 19.7125C21.5349 19.9042 21.3044 20 21.0294 20H20.2331C19.9581 20 19.7276 19.9042 19.5415 19.7125C19.3555 19.5208 19.2625 19.2833 19.2625 19V17.3333H2.73749ZM2.72756 6.76929H19.2724L17.6398 1.99997H4.36015L2.72756 6.76929ZM5.12961 13.7949C5.60049 13.7949 5.99977 13.6251 6.32744 13.2854C6.65514 12.9458 6.81898 12.5334 6.81898 12.0483C6.81898 11.5631 6.65417 11.1517 6.32453 10.8141C5.9949 10.4765 5.59464 10.3077 5.12375 10.3077C4.65286 10.3077 4.25357 10.4775 3.92588 10.8171C3.59821 11.1568 3.43437 11.5691 3.43437 12.0543C3.43437 12.5395 3.59919 12.9509 3.92882 13.2885C4.25846 13.6261 4.65872 13.7949 5.12961 13.7949ZM16.8763 13.7949C17.3471 13.7949 17.7464 13.6251 18.0741 13.2854C18.4018 12.9458 18.5656 12.5334 18.5656 12.0483C18.5656 11.5631 18.4008 11.1517 18.0712 10.8141C17.7415 10.4765 17.3413 10.3077 16.8704 10.3077C16.3995 10.3077 16.0002 10.4775 15.6726 10.8171C15.3449 11.1568 15.181 11.5691 15.181 12.0543C15.181 12.5395 15.3458 12.9509 15.6755 13.2885C16.0051 13.6261 16.4054 13.7949 16.8763 13.7949ZM1.94115 15.3334H20.0588V8.76923H1.94115V15.3334Z" fill="#263C51"/>
</svg>
