<svg width="25" height="24" viewBox="0 0 25 24" fill="none" xmlns="http://www.w3.org/2000/svg">
<g clip-path="url(#clip0_12_2072)">
<path fill-rule="evenodd" clip-rule="evenodd" d="M18.7871 2.20342C18.8527 2.19873 18.9652 2.2503 19.0402 2.30655C19.1387 2.38623 19.3918 2.85498 20.7371 5.60186L24.2949 6.1128L24.4449 6.26748C24.548 6.36592 24.5996 6.46905 24.5996 6.55342C24.5949 6.62373 24.5715 6.72217 24.5387 6.77842C24.5059 6.82998 23.9246 7.42061 23.2402 8.08623C22.5559 8.75655 21.9934 9.32373 21.984 9.34717C21.9746 9.3753 22.0965 10.1487 22.2512 11.0628C22.4105 11.9769 22.5371 12.7972 22.5371 12.8815C22.5371 12.9847 22.4949 13.0737 22.4012 13.1722C22.298 13.2753 22.2184 13.3128 22.0965 13.3128C21.9699 13.3128 21.5855 13.13 20.5543 12.5909C19.8043 12.1925 19.0918 11.8222 18.7637 11.6628L17.1934 12.4878C15.9746 13.1253 15.5855 13.3128 15.4449 13.3128C15.323 13.3128 15.2387 13.28 15.1543 13.1956C15.0887 13.13 15.0277 13.0315 15.009 12.9753C14.9949 12.9144 15.1215 12.0753 15.5949 9.35186L14.3059 8.08623C13.4387 7.23311 13.0027 6.77373 12.9746 6.67998C12.9465 6.57686 12.9559 6.49717 13.0121 6.3753C13.0543 6.28623 13.1434 6.1878 13.209 6.15498C13.2746 6.12686 14.1043 5.99092 16.7949 5.60186L17.5965 3.98467C18.2387 2.68623 18.4215 2.35342 18.534 2.2878C18.609 2.24092 18.7215 2.20342 18.7871 2.20342ZM17.4184 6.36592C17.3246 6.45967 17.1418 6.49248 15.8809 6.67998C15.0934 6.79717 14.4465 6.89092 14.4371 6.89092C14.4324 6.89092 14.9059 7.35967 15.4871 7.93623L16.5465 8.97686C16.5418 9.30498 16.434 9.97998 16.3121 10.6878C16.1855 11.3956 16.0871 11.9815 16.0871 11.9862C16.0918 11.9956 16.6496 11.705 17.334 11.344C18.0184 10.9878 18.6418 10.6784 18.7168 10.6644C18.834 10.6409 19.0637 10.744 20.109 11.2972C20.8027 11.6581 21.384 11.9534 21.4121 11.9534C21.4355 11.9534 21.4496 11.9159 21.4402 11.8737C21.4262 11.8269 21.3184 11.1987 21.1965 10.4769C21.0746 9.75498 20.9855 9.1128 21.0043 9.04717C21.0184 8.97686 21.4355 8.53155 22.0637 7.92217C22.6355 7.36905 23.0949 6.90967 23.0902 6.90498C23.0809 6.89561 22.4434 6.79717 21.6699 6.67998C20.8074 6.55342 20.2215 6.44092 20.1559 6.39873C20.0949 6.35655 19.809 5.82686 19.4199 5.03936C19.073 4.33155 18.7777 3.7503 18.7684 3.7503C18.759 3.7503 18.4777 4.3128 18.1402 5.00655C17.8074 5.69561 17.4793 6.30498 17.4184 6.36592ZM4.33555 9.60967C7.28398 9.60967 7.82305 9.61905 8.13242 9.68467C8.33398 9.72217 8.65742 9.82061 8.84961 9.89561C9.0418 9.9753 9.36055 10.1347 9.55273 10.2519C9.84336 10.43 10.373 10.9362 12.5199 13.0737C13.959 14.5081 15.2059 15.7878 15.2902 15.9144C15.3793 16.0456 15.4871 16.2753 15.5293 16.43C15.5762 16.5847 15.609 16.8565 15.609 17.0394C15.609 17.2409 15.5762 17.4659 15.5199 17.6253C15.4684 17.7659 15.4121 17.9206 15.398 17.9675C15.3652 18.0425 15.5012 18.0472 20.123 18.0706L20.4277 18.2206C20.5965 18.305 20.8309 18.4737 20.9527 18.5956C21.0699 18.7175 21.2246 18.9284 21.2902 19.055C21.3559 19.1862 21.4355 19.4347 21.4684 19.6175C21.5059 19.8659 21.5059 20.0159 21.4684 20.2269C21.4355 20.3815 21.3559 20.6206 21.2855 20.7612C21.2105 20.8972 21.0605 21.1081 20.9434 21.2253C20.8262 21.3425 20.6059 21.4972 20.4512 21.5722C20.2918 21.6472 20.0152 21.7269 19.8184 21.755C19.584 21.7878 18.2152 21.7972 15.7871 21.7878C12.1918 21.769 12.098 21.7644 11.7793 21.6706C11.6012 21.6144 11.3668 21.53 11.2637 21.4831C11.1605 21.4362 10.9918 21.3472 10.8887 21.2815C10.7855 21.2206 9.48711 20.3159 8.00586 19.2706C6.52461 18.2253 5.2168 17.3159 4.88867 17.1331L2.91992 17.1097C1.04492 17.0862 0.946484 17.0815 0.819922 16.9925C0.749609 16.9409 0.669922 16.8331 0.641797 16.7581C0.613672 16.6737 0.599609 15.3331 0.599609 13.3222C0.599609 11.2409 0.618359 9.98936 0.646484 9.91436C0.674609 9.84873 0.740234 9.75498 0.796484 9.70342C0.894922 9.60967 0.965234 9.60967 4.33555 9.60967ZM1.53711 16.1722H3.69336V10.5472H1.53711V16.1722ZM4.63086 16.1487C5.08555 16.2378 5.34336 16.3269 5.49805 16.4065C5.65273 16.4815 6.98398 17.3956 8.45117 18.4315C9.92305 19.4722 11.2309 20.3862 11.3574 20.4706C11.4887 20.5503 11.7277 20.6675 11.8965 20.7284L12.2012 20.8362C18.2809 20.8597 19.6449 20.8456 19.809 20.8128C19.973 20.78 20.109 20.7144 20.2262 20.6112C20.3199 20.5315 20.4324 20.3769 20.4793 20.2737C20.5262 20.1706 20.5684 20.0065 20.5684 19.9081C20.5684 19.8144 20.5355 19.655 20.4934 19.5565C20.4559 19.4628 20.3762 19.3315 20.3199 19.2753C20.2637 19.2144 20.1371 19.1206 20.0387 19.0737C19.8746 18.9894 19.7199 18.9847 16.7105 18.9847C14.2402 18.9847 13.4949 18.9706 13.2559 18.919C13.0871 18.8862 12.8574 18.8065 12.7402 18.7503C12.623 18.6894 12.4449 18.5769 12.3418 18.4972C12.2387 18.4175 11.6902 17.944 11.1277 17.4378C10.5605 16.9362 10.0262 16.4534 9.9418 16.369C9.81992 16.2472 9.78711 16.1815 9.78711 16.0315C9.78711 15.8862 9.81992 15.8112 9.92305 15.7034C10.0168 15.605 10.1059 15.5628 10.2043 15.5628C10.284 15.5628 10.3965 15.5862 10.4527 15.619C10.5137 15.6472 11.0762 16.1394 11.709 16.7019C12.3418 17.269 12.923 17.7706 12.998 17.8222C13.073 17.869 13.2559 17.944 13.3965 17.9815C13.6168 18.0472 13.6918 18.0519 13.9121 17.9956C14.0762 17.9581 14.2309 17.8831 14.3293 17.794C14.4137 17.7144 14.5309 17.5644 14.5824 17.4612C14.6387 17.3487 14.6762 17.1753 14.6762 17.0394C14.6809 16.9081 14.6527 16.7206 14.6199 16.6175C14.5684 16.4675 14.1043 15.9753 12.1824 14.044C10.8793 12.7362 9.65117 11.5269 9.45898 11.3581C9.25742 11.1847 8.94805 10.9737 8.73242 10.8706C8.52617 10.7722 8.20742 10.6597 8.0293 10.6175C7.77617 10.5659 7.34961 10.5472 6.16367 10.5472H4.63086V16.1487ZM8.84023 14.2972C8.92461 14.2972 9.03242 14.3159 9.08398 14.344C9.13555 14.3722 9.21055 14.4612 9.25274 14.5409C9.3043 14.6394 9.31836 14.7519 9.29961 14.8456C9.28555 14.9394 9.21992 15.0378 9.14492 15.094C9.06992 15.1503 8.94336 15.1925 8.84961 15.1925C8.76055 15.1925 8.6293 15.1503 8.55898 15.094C8.48398 15.0378 8.41836 14.9394 8.39961 14.8456C8.38086 14.7456 8.39961 14.6456 8.45586 14.5456C8.49805 14.4612 8.56836 14.3722 8.61055 14.3487C8.65273 14.3206 8.75586 14.2972 8.84023 14.2972Z" fill="#263C51"/>
</g>
<defs>
<clipPath id="clip0_12_2072">
<rect width="24" height="24" fill="white" transform="translate(0.599609)"/>
</clipPath>
</defs>
</svg>
