<svg width="8" height="14" viewBox="0 0 8 14" fill="none" xmlns="http://www.w3.org/2000/svg">
<path d="M3.26719 13.75V12.1375C2.60469 11.9875 2.03281 11.7 1.55156 11.275C1.07031 10.85 0.717188 10.25 0.492188 9.475L1.87969 8.9125C2.06719 9.5125 2.34531 9.96875 2.71406 10.2812C3.08281 10.5938 3.56719 10.75 4.16719 10.75C4.67969 10.75 5.11406 10.6344 5.47031 10.4031C5.82656 10.1719 6.00469 9.8125 6.00469 9.325C6.00469 8.8875 5.86719 8.54063 5.59219 8.28438C5.31719 8.02813 4.67969 7.7375 3.67969 7.4125C2.60469 7.075 1.86719 6.67188 1.46719 6.20312C1.06719 5.73438 0.867188 5.1625 0.867188 4.4875C0.867188 3.675 1.12969 3.04375 1.65469 2.59375C2.17969 2.14375 2.71719 1.8875 3.26719 1.825V0.25H4.76719V1.825C5.39219 1.925 5.90781 2.15313 6.31406 2.50938C6.72031 2.86563 7.01719 3.3 7.20469 3.8125L5.81719 4.4125C5.66719 4.0125 5.45469 3.7125 5.17969 3.5125C4.90469 3.3125 4.52969 3.2125 4.05469 3.2125C3.50469 3.2125 3.08594 3.33437 2.79844 3.57812C2.51094 3.82188 2.36719 4.125 2.36719 4.4875C2.36719 4.9 2.55469 5.225 2.92969 5.4625C3.30469 5.7 3.95469 5.95 4.87969 6.2125C5.74219 6.4625 6.39531 6.85938 6.83906 7.40313C7.28281 7.94688 7.50469 8.575 7.50469 9.2875C7.50469 10.175 7.24219 10.85 6.71719 11.3125C6.19219 11.775 5.54219 12.0625 4.76719 12.175V13.75H3.26719Z" fill="#FDFDFD"/>
</svg>
