<svg width="22" height="22" viewBox="0 0 22 22" fill="none" xmlns="http://www.w3.org/2000/svg">
<path d="M5.16667 14.3507V7.41072C5.16667 6.77456 5.39514 6.22996 5.85208 5.77693C6.30903 5.3239 6.85833 5.09738 7.5 5.09738H17.0083L14.0042 2.11896L15.6667 0.470703L21.5 6.25405L15.6667 12.0374L14.0042 10.4181L17.0083 7.41072H7.5V14.3507H5.16667ZM2.83333 21.2908C2.19167 21.2908 1.64236 21.0643 1.18542 20.6112C0.728472 20.1582 0.5 19.6136 0.5 18.9774V1.62737H2.83333V18.9774H16.8333V14.3507H19.1667V18.9774C19.1667 19.6136 18.9382 20.1582 18.4813 20.6112C18.0243 21.0643 17.475 21.2908 16.8333 21.2908H2.83333Z" fill="#FDFDFD"/>
</svg>
