<svg width="22" height="21" viewBox="0 0 22 21" fill="none" xmlns="http://www.w3.org/2000/svg">
<path d="M0.5 2.69048C0.5 2.06447 0.728472 1.52856 1.18542 1.08276C1.64236 0.636961 2.19167 0.414062 2.83333 0.414062L7.5 0.414062L7.5 2.69048L2.83333 2.69048L2.83333 18.6254L19.1667 18.6254L19.1667 2.69048L14.5 2.69048L14.5 0.414062L19.1667 0.414062C19.8083 0.414062 20.3576 0.636962 20.8146 1.08276C21.2715 1.52856 21.5 2.06447 21.5 2.69048L21.5 18.6254C21.5 19.2514 21.2715 19.7873 20.8146 20.2331C20.3576 20.6789 19.8083 20.9018 19.1667 20.9018L2.83333 20.9018C2.19167 20.9018 1.64236 20.6789 1.18542 20.2331C0.728471 19.7873 0.499999 19.2514 0.499999 18.6254L0.5 2.69048ZM5.16667 8.95063L6.85833 7.35714L9.83333 10.2596L9.83333 0.414062L12.1667 0.414062L12.1667 10.2596L15.1417 7.35714L16.8333 8.95063L11 14.6417L5.16667 8.95063Z" fill="#FDFDFD"/>
</svg>
