<svg width="22" height="22" viewBox="0 0 22 22" fill="none" xmlns="http://www.w3.org/2000/svg">
<path d="M2.83333 21.5C2.19167 21.5 1.64236 21.2715 1.18542 20.8146C0.728472 20.3576 0.5 19.8083 0.5 19.1667V14.5H2.83333V19.1667H19.1667V2.83333H2.83333V7.5H0.5V2.83333C0.5 2.19167 0.728472 1.64236 1.18542 1.18542C1.64236 0.728472 2.19167 0.5 2.83333 0.5H19.1667C19.8083 0.5 20.3576 0.728472 20.8146 1.18542C21.2715 1.64236 21.5 2.19167 21.5 2.83333V19.1667C21.5 19.8083 21.2715 20.3576 20.8146 20.8146C20.3576 21.2715 19.8083 21.5 19.1667 21.5H2.83333ZM9.25 16.8333L7.61667 15.1417L10.5917 12.1667H0.5V9.83333H10.5917L7.61667 6.85833L9.25 5.16667L15.0833 11L9.25 16.8333Z" fill="#FDFDFD"/>
</svg>
