<svg width="274" height="273" viewBox="0 0 274 273" fill="none" xmlns="http://www.w3.org/2000/svg">
<path d="M23.2355 149.559C33.3217 133.057 37.5124 113.699 35.9587 94.4254C34.0355 70.5998 36.2778 37.5531 57.416 13.9459C94.1831 -27.1043 133.394 35.8566 177.484 32.6485C221.575 29.4405 299.358 45.968 265.808 163.517C223.372 312.181 133.268 230.476 96.6522 260.633C62.7824 288.532 -36.6769 247.557 23.2355 149.559Z" fill="url(#paint0_linear_470_6759)"/>
<mask id="mask0_470_6759" style="mask-type:luminance" maskUnits="userSpaceOnUse" x="73" y="25" width="113" height="230">
<path d="M175.797 25.6406H83.2073C77.5904 25.6406 73.0371 30.194 73.0371 35.8108V244.051C73.0371 249.668 77.5904 254.222 83.2073 254.222H175.797C181.414 254.222 185.967 249.668 185.967 244.051V35.8108C185.967 30.194 181.414 25.6406 175.797 25.6406Z" fill="white"/>
</mask>
<g mask="url(#mask0_470_6759)">
<path d="M190.258 25.6406H73.4648V255.196H190.258V25.6406Z" fill="#B7B7B7"/>
</g>
<path d="M174.503 51.5391H86.2972C85.6525 51.5391 85.1299 52.0617 85.1299 52.7064V61.6001C85.1299 62.2448 85.6525 62.7674 86.2972 62.7674H174.503C175.148 62.7674 175.67 62.2448 175.67 61.6001V52.7064C175.67 52.0617 175.148 51.5391 174.503 51.5391Z" fill="white" fill-opacity="0.3"/>
<path d="M174.503 69.6172H86.2972C85.6525 69.6172 85.1299 70.1398 85.1299 70.7845V112.028C85.1299 112.673 85.6525 113.195 86.2972 113.195H174.503C175.148 113.195 175.67 112.673 175.67 112.028V70.7845C175.67 70.1398 175.148 69.6172 174.503 69.6172Z" fill="white" fill-opacity="0.4"/>
<path d="M193.088 71.5518H192.542V33.9784C192.542 26.2605 186.286 20.0039 178.568 20.0039H80.7377C73.0198 20.0039 66.7632 26.2605 66.7632 33.9784V72.7695H66.4944C65.1507 72.7695 64.0674 73.8529 64.0674 75.1966V91.7074C64.0674 93.0511 65.1507 94.1344 66.4944 94.1344H66.7632V99.8116H66.4944C65.1507 99.8116 64.0674 100.895 64.0674 102.239V118.749C64.0674 120.093 65.1507 121.176 66.4944 121.176H66.7632V245.494C66.7632 253.212 73.0198 259.469 80.7377 259.469H178.568C186.286 259.469 192.542 253.212 192.542 245.494V92.9167H193.088C194.432 92.9167 195.515 91.8333 195.515 90.4896V73.9789C195.515 72.6351 194.432 71.5518 193.088 71.5518ZM185.967 241.917C185.967 248.711 180.457 254.22 173.663 254.22H85.3483C78.5542 254.22 73.045 248.711 73.045 241.917V37.9508C73.045 31.1567 78.5542 25.6475 85.3483 25.6475H97.6516V28.9899C97.6516 31.585 99.7595 33.6929 102.355 33.6929H156.649C159.244 33.6929 161.352 31.585 161.352 28.9899V25.6475H173.655C180.449 25.6475 185.958 31.1567 185.958 37.9508V241.917H185.967Z" fill="#263C51"/>
<path d="M175.082 120H86.8763C86.2316 120 85.709 120.523 85.709 121.167V130.061C85.709 130.706 86.2316 131.228 86.8763 131.228H175.082C175.727 131.228 176.25 130.706 176.25 130.061V121.167C176.25 120.523 175.727 120 175.082 120Z" fill="white" fill-opacity="0.4"/>
<path d="M175.082 138.082H86.8763C86.2316 138.082 85.709 138.605 85.709 139.249V180.493C85.709 181.137 86.2316 181.66 86.8763 181.66H175.082C175.727 181.66 176.25 181.137 176.25 180.493V139.249C176.25 138.605 175.727 138.082 175.082 138.082Z" fill="white" fill-opacity="0.3"/>
<path d="M50.8739 237.783C52.5703 237.783 54.1324 236.775 54.7454 235.196C54.8462 234.928 54.9554 234.667 55.073 234.407C55.7616 232.853 55.3753 231.031 54.166 229.822C52.5283 228.176 52.5283 225.522 54.166 223.876L54.863 223.179C56.5006 221.541 59.1629 221.541 60.8089 223.179C62.0098 224.38 63.8322 224.766 65.3943 224.086C65.6546 223.968 65.915 223.859 66.1837 223.758C67.7626 223.145 68.7704 221.583 68.7704 219.887C68.7704 217.569 70.6515 215.688 72.9694 215.688H73.952C76.2699 215.688 78.1511 217.569 78.1511 219.887C78.1511 221.583 79.1589 223.145 80.7377 223.758C81.0065 223.859 81.2668 223.968 81.5272 224.086C83.0808 224.774 84.9032 224.388 86.1125 223.187C87.7502 221.541 90.4124 221.541 92.0584 223.187L92.7555 223.884C94.3931 225.522 94.3931 228.184 92.7555 229.83C91.5546 231.031 91.1682 232.853 91.8485 234.415C91.9661 234.676 92.0752 234.936 92.176 235.205C92.7891 236.784 94.3511 237.791 96.0476 237.791C98.3655 237.791 100.247 239.673 100.247 241.991V242.973C100.247 245.291 98.3655 247.172 96.0476 247.172C94.3511 247.172 92.7891 248.18 92.176 249.759C92.0752 250.028 91.9661 250.288 91.8485 250.548C91.1598 252.102 91.5462 253.924 92.7555 255.134C94.3931 256.78 94.3931 259.434 92.7555 261.08L92.0584 261.777C90.4208 263.414 87.7586 263.414 86.1125 261.777C84.9116 260.576 83.0892 260.189 81.5272 260.87C81.2668 260.987 81.0065 261.096 80.7377 261.197C79.1589 261.81 78.1511 263.372 78.1511 265.069C78.1511 267.387 76.2699 269.268 73.952 269.268H72.9694C70.6515 269.268 68.7704 267.387 68.7704 265.069C68.7704 263.372 67.7626 261.81 66.1837 261.197C65.915 261.096 65.6546 260.987 65.3943 260.87C63.8322 260.181 62.0182 260.567 60.8089 261.777C59.1713 263.423 56.509 263.423 54.863 261.777L54.166 261.08C52.5283 259.442 52.5283 256.78 54.166 255.134C55.3669 253.933 55.7532 252.11 55.073 250.548C54.9554 250.288 54.8462 250.028 54.7454 249.759C54.1324 248.18 52.5703 247.172 50.8739 247.172C48.556 247.172 46.6748 245.291 46.6748 242.973V241.991C46.6748 239.673 48.556 237.791 50.8739 237.791V237.783ZM73.4565 253.824C79.7215 253.824 84.8024 248.743 84.8024 242.478C84.8024 236.213 79.7215 231.132 73.4565 231.132C67.1915 231.132 62.1106 236.213 62.1106 242.478C62.1106 248.743 67.1915 253.824 73.4565 253.824Z" fill="#20B4E3"/>
<path d="M90.7478 249.245C91.8227 249.245 92.8221 248.607 93.2084 247.599C93.2756 247.431 93.3428 247.263 93.4184 247.096C93.8551 246.105 93.6115 244.946 92.8473 244.181C91.8059 243.14 91.8059 241.444 92.8473 240.402L93.284 239.965C94.3254 238.924 96.0218 238.924 97.0632 239.965C97.8274 240.73 98.9864 240.973 99.9773 240.537C100.145 240.461 100.313 240.394 100.481 240.327C101.489 239.932 102.127 238.941 102.127 237.866C102.127 236.388 103.32 235.195 104.798 235.195H105.419C106.897 235.195 108.09 236.388 108.09 237.866C108.09 238.941 108.728 239.94 109.736 240.327C109.904 240.394 110.072 240.461 110.24 240.537C111.231 240.973 112.39 240.73 113.154 239.965C114.195 238.924 115.892 238.924 116.933 239.965L117.37 240.402C118.411 241.444 118.411 243.14 117.37 244.181C116.606 244.946 116.362 246.105 116.799 247.096C116.874 247.263 116.942 247.431 117.009 247.599C117.404 248.607 118.394 249.245 119.469 249.245C120.948 249.245 122.14 250.438 122.14 251.916V252.538C122.14 254.016 120.948 255.208 119.469 255.208C118.394 255.208 117.395 255.846 117.009 256.854C116.942 257.022 116.874 257.19 116.799 257.358C116.362 258.349 116.606 259.508 117.37 260.272C118.411 261.314 118.411 263.01 117.37 264.051L116.933 264.488C115.892 265.529 114.195 265.529 113.154 264.488C112.39 263.724 111.231 263.48 110.24 263.917C110.072 263.993 109.904 264.06 109.736 264.127C108.728 264.522 108.09 265.513 108.09 266.588C108.09 268.066 106.897 269.258 105.419 269.258H104.798C103.32 269.258 102.127 268.066 102.127 266.588C102.127 265.513 101.489 264.513 100.481 264.127C100.313 264.06 100.145 263.993 99.9773 263.917C98.9864 263.48 97.8274 263.724 97.0632 264.488C96.0218 265.529 94.3254 265.529 93.284 264.488L92.8473 264.051C91.8059 263.01 91.8059 261.314 92.8473 260.272C93.6115 259.508 93.8551 258.349 93.4184 257.358C93.3428 257.19 93.2756 257.022 93.2084 256.854C92.8137 255.846 91.8227 255.208 90.7478 255.208C89.2697 255.208 88.0771 254.016 88.0771 252.538V251.916C88.0771 250.438 89.2697 249.245 90.7478 249.245ZM105.109 259.441C109.089 259.441 112.323 256.207 112.323 252.227C112.323 248.246 109.089 245.013 105.109 245.013C101.128 245.013 97.8946 248.246 97.8946 252.227C97.8946 256.207 101.128 259.441 105.109 259.441Z" fill="url(#paint1_linear_470_6759)"/>
<path d="M26.4697 128.001C10.5216 127.649 4.73532 145.604 12.8815 154.447C21.0361 163.291 21.0361 169.228 21.0361 169.228V174.191C21.0361 175.627 22.2035 176.795 23.6396 176.795H29.3083C30.7444 176.795 31.9118 175.627 31.9118 174.191V169.228C31.9118 169.228 31.9118 163.291 40.0664 154.447C48.221 145.604 42.4262 127.64 26.4781 128.001H26.4697Z" fill="#20B4E3"/>
<path d="M23.4204 168.588C23.4204 168.588 21.7828 154.588 17.9029 147.5C17.0294 145.904 20.8086 155.403 22.2951 152.841C23.7816 150.271 25.8055 145.879 23.3113 146.013C20.8086 146.148 22.7738 152.564 25.9483 153.849C29.1228 155.134 31.4239 146.685 29.6603 145.468C27.9051 144.25 26.7545 152.698 30.9452 153.101C35.1359 153.505 34.5228 149.524 35.4718 150.599C36.4208 151.682 28.3166 168.428 28.3166 168.428" stroke="white" stroke-miterlimit="10"/>
<path d="M6.76719 138.732L1.03125 137.816" stroke="#5761BC" stroke-miterlimit="10" stroke-linecap="round"/>
<path d="M46.5664 139.646L52.3023 138.73" stroke="#5761BC" stroke-miterlimit="10" stroke-linecap="round"/>
<path d="M12.6462 127.993L9.09375 124.566" stroke="#5761BC" stroke-miterlimit="10" stroke-linecap="round"/>
<path d="M40.5527 127.967L43.7356 124.355" stroke="#5761BC" stroke-miterlimit="10" stroke-linecap="round"/>
<path d="M26.5115 124.354L26.4443 118.543" stroke="#5761BC" stroke-miterlimit="10" stroke-linecap="round"/>
<path d="M20.9268 168.242C21.0359 168.88 21.0443 169.233 21.0443 169.233V174.196C21.0443 175.633 22.2117 176.8 23.6478 176.8H29.3165C30.7526 176.8 31.9199 175.633 31.9199 174.196V169.233C31.9199 169.233 31.9199 168.88 32.0375 168.242H20.9352H20.9268Z" fill="url(#paint2_linear_470_6759)"/>
<path d="M181.314 135.297H216.83C229.116 135.297 239.085 145.265 239.085 157.552V166.773C239.085 179.06 229.116 189.028 216.83 189.028H181.314C169.027 189.028 159.059 179.06 159.059 166.773V157.552C159.059 145.265 169.027 135.297 181.314 135.297Z" fill="url(#paint3_linear_470_6759)"/>
<path d="M199.067 272.622C179.752 272.622 162.938 249.67 162.938 230.354V220.016C162.938 206.344 174.024 195.25 187.705 195.25H210.447C224.119 195.25 235.213 206.336 235.213 220.016V228.036C235.213 248.629 219.676 272.622 199.084 272.622H199.067Z" fill="url(#paint4_linear_470_6759)"/>
<path d="M187.697 195.25C187.319 195.25 186.949 195.258 186.571 195.275C183.834 195.712 182.146 196.291 182.146 196.921C182.146 198.273 189.721 199.373 199.068 199.373C208.415 199.373 215.99 198.273 215.99 196.921C215.99 196.283 214.302 195.712 211.564 195.275C211.195 195.258 210.817 195.25 210.439 195.25H187.697Z" fill="url(#paint5_linear_470_6759)"/>
<path d="M211.681 222.001C203.174 240.057 189.208 253.285 167.364 248.582C173.612 261.699 185.748 272.625 199.067 272.625C219.66 272.625 235.196 248.632 235.196 228.04V220.019C235.196 215.459 233.953 211.185 231.803 207.515C226.412 207.078 217.871 208.867 211.673 222.01L211.681 222.001Z" fill="url(#paint6_linear_470_6759)"/>
<path d="M239.085 162.162C239.085 158.686 239.58 155.377 238.379 152.328C227.982 156.317 192.861 166.529 159.663 152.429C158.488 155.452 159.059 158.728 159.059 162.162V167.017C159.059 179.169 168.91 189.028 181.07 189.028H212.227C226.412 189.658 232.652 184.107 236.49 177.237C240.176 170.645 239.211 163.338 239.211 163.338C239.211 163.221 239.085 162.272 239.085 162.162Z" fill="url(#paint7_linear_470_6759)"/>
<path d="M221.063 151.297H177.073C172.101 151.297 168.07 155.328 168.07 160.3V164.037C168.07 169.009 172.101 173.04 177.073 173.04H221.063C226.035 173.04 230.066 169.009 230.066 164.037V160.3C230.066 155.328 226.035 151.297 221.063 151.297Z" fill="#263C51"/>
<path d="M157.521 173.399C160.513 173.399 162.938 168.368 162.938 162.163C162.938 155.957 160.513 150.926 157.521 150.926C154.53 150.926 152.104 155.957 152.104 162.163C152.104 168.368 154.53 173.399 157.521 173.399Z" fill="url(#paint8_radial_470_6759)"/>
<path d="M152.878 169.704C155.442 169.704 157.522 166.328 157.522 162.163C157.522 157.998 155.442 154.621 152.878 154.621C150.313 154.621 148.233 157.998 148.233 162.163C148.233 166.328 150.313 169.704 152.878 169.704Z" fill="url(#paint9_radial_470_6759)"/>
<path d="M240.613 173.399C243.605 173.399 246.03 168.368 246.03 162.163C246.03 155.957 243.605 150.926 240.613 150.926C237.621 150.926 235.196 155.957 235.196 162.163C235.196 168.368 237.621 173.399 240.613 173.399Z" fill="url(#paint10_radial_470_6759)"/>
<path d="M245.266 169.704C247.831 169.704 249.91 166.328 249.91 162.163C249.91 157.998 247.831 154.621 245.266 154.621C242.701 154.621 240.622 157.998 240.622 162.163C240.622 166.328 242.701 169.704 245.266 169.704Z" fill="url(#paint11_radial_470_6759)"/>
<circle cx="186.109" cy="162.16" r="4.19908" fill="url(#paint12_linear_470_6759)"/>
<circle cx="211.682" cy="162.16" r="4.19908" fill="url(#paint13_linear_470_6759)"/>
<path d="M252.682 248.097C254.017 247.266 254.126 246.367 253.681 245.729L235.256 216.848C235.037 216.537 234.005 216.999 233.358 217.411C232.711 217.814 231.729 218.46 231.913 218.788L249.776 248.198C250.163 248.878 251.347 248.937 252.682 248.106V248.097Z" fill="#97A2B0"/>
<path opacity="0.6" d="M241.87 204.421C242.121 196.42 235.837 189.73 227.835 189.48C219.834 189.23 213.144 195.514 212.894 203.516C212.644 211.517 218.928 218.207 226.93 218.457C234.931 218.707 241.62 212.423 241.87 204.421Z" fill="white"/>
<path d="M211.337 192.81C217.501 183.95 229.679 181.758 238.539 187.922C247.399 194.086 249.591 206.264 243.427 215.124C237.262 223.984 225.085 226.176 216.225 220.012C207.365 213.847 205.173 201.67 211.337 192.81ZM219.106 215.863C225.681 220.431 234.709 218.811 239.278 212.235C243.846 205.659 242.226 196.631 235.65 192.062C229.074 187.494 220.046 189.115 215.478 195.69C210.909 202.266 212.53 211.294 219.106 215.863Z" fill="#97A2B0"/>
<path d="M83.8026 32.0117H27.1571C24.722 32.0117 22.748 33.9857 22.748 36.4208V79.5621C22.748 81.9971 24.722 83.9711 27.1571 83.9711H83.8026C86.2377 83.9711 88.2117 81.9971 88.2117 79.5621V36.4208C88.2117 33.9857 86.2377 32.0117 83.8026 32.0117Z" fill="#20B4E3"/>
<path d="M86.7085 32.0117H83.5928C85.9695 32.0117 87.901 34.2204 87.901 36.933V79.0498C87.901 81.7708 85.9695 83.9711 83.5928 83.9711H86.7085C89.0852 83.9711 91.0167 81.7624 91.0167 79.0498V36.933C91.0167 34.212 89.0852 32.0117 86.7085 32.0117Z" fill="#122760"/>
<path d="M39.8887 61.9534L46.7752 51.8672" stroke="white" stroke-miterlimit="10"/>
<path d="M63.1094 62.3635L69.9959 52.2773" stroke="white" stroke-miterlimit="10"/>
<path d="M58.6922 61.9534L51.8057 51.8672" stroke="white" stroke-miterlimit="10"/>
<path d="M42.2155 65.6939C41.8628 65.6939 41.5352 65.9039 41.4093 66.2314C41.3841 66.2902 41.3673 66.3406 41.3421 66.391C41.1993 66.7101 41.2833 67.088 41.5268 67.34C41.8712 67.6843 41.8712 68.2302 41.5268 68.5745L41.3841 68.7173C41.0397 69.0616 40.4939 69.0616 40.1495 68.7173C39.8976 68.4653 39.5197 68.3897 39.2005 68.5325C39.1502 68.5577 39.0914 68.5829 39.041 68.5997C38.7134 68.7257 38.5035 69.0532 38.5035 69.4059C38.5035 69.8846 38.1172 70.2793 37.6301 70.2793H37.4285C36.9498 70.2793 36.5551 69.893 36.5551 69.4059C36.5551 69.0532 36.3452 68.7257 36.0176 68.5997C35.9589 68.5745 35.9085 68.5577 35.8581 68.5325C35.5389 68.3897 35.161 68.4737 34.9091 68.7173C34.5648 69.0616 34.0189 69.0616 33.6746 68.7173L33.5318 68.5745C33.1875 68.2302 33.1875 67.6843 33.5318 67.34C33.7837 67.088 33.8593 66.7101 33.7165 66.391C33.6913 66.3406 33.6662 66.2818 33.6494 66.2314C33.5234 65.9039 33.1959 65.6939 32.8431 65.6939C32.3644 65.6939 31.9697 65.3076 31.9697 64.8205V64.619C31.9697 64.1403 32.356 63.7456 32.8431 63.7456C33.1959 63.7456 33.5234 63.5356 33.6494 63.2081C33.6746 63.1493 33.6913 63.0989 33.7165 63.0485C33.8593 62.7294 33.7753 62.3515 33.5318 62.0995C33.1875 61.7552 33.1875 61.2093 33.5318 60.865L33.6746 60.7222C34.0189 60.3779 34.5648 60.3779 34.9091 60.7222C35.161 60.9742 35.5389 61.0497 35.8581 60.907C35.9085 60.8818 35.9672 60.8566 36.0176 60.8398C36.3452 60.7138 36.5551 60.3863 36.5551 60.0336C36.5551 59.5549 36.9414 59.1602 37.4285 59.1602H37.6301C38.1088 59.1602 38.5035 59.5465 38.5035 60.0336C38.5035 60.3863 38.7134 60.7138 39.041 60.8398C39.0998 60.865 39.1502 60.8818 39.2005 60.907C39.5197 61.0497 39.8976 60.9658 40.1495 60.7222C40.4939 60.3779 41.0397 60.3779 41.3841 60.7222L41.5268 60.865C41.8712 61.2093 41.8712 61.7552 41.5268 62.0995C41.2749 62.3515 41.1993 62.7294 41.3421 63.0485C41.3673 63.0989 41.3925 63.1577 41.4093 63.2081C41.5352 63.5356 41.8628 63.7456 42.2155 63.7456C42.6942 63.7456 43.0889 64.1319 43.0889 64.619V64.8205C43.0889 65.2992 42.7026 65.6939 42.2155 65.6939ZM37.5293 62.3683C36.2276 62.3683 35.1778 63.418 35.1778 64.7197C35.1778 66.0215 36.2276 67.0712 37.5293 67.0712C38.831 67.0712 39.8808 66.0215 39.8808 64.7197C39.8808 63.418 38.831 62.3683 37.5293 62.3683Z" fill="url(#paint14_linear_470_6759)"/>
<path d="M64.6383 65.6939C64.2856 65.6939 63.9665 65.9039 63.8321 66.2314C63.8069 66.2902 63.7901 66.3406 63.7649 66.391C63.6221 66.7101 63.7061 67.088 63.9497 67.34C64.294 67.6843 64.294 68.2302 63.9497 68.5745L63.8069 68.7173C63.4626 69.0616 62.9167 69.0616 62.5724 68.7173C62.3204 68.4653 61.9425 68.3897 61.6234 68.5325C61.573 68.5577 61.5142 68.5829 61.4638 68.5997C61.1363 68.7257 60.9263 69.0532 60.9263 69.4059C60.9263 69.8846 60.54 70.2793 60.0529 70.2793H59.8514C59.3727 70.2793 58.978 69.893 58.978 69.4059C58.978 69.0532 58.768 68.7257 58.4405 68.5997C58.3817 68.5745 58.3313 68.5577 58.2809 68.5325C57.9618 68.3897 57.5839 68.4737 57.3319 68.7173C56.9876 69.0616 56.4417 69.0616 56.0974 68.7173L55.9546 68.5745C55.6103 68.2302 55.6103 67.6843 55.9546 67.34C56.2066 67.088 56.2822 66.7101 56.1394 66.391C56.1142 66.3406 56.089 66.2818 56.0722 66.2314C55.9462 65.9039 55.6187 65.6939 55.266 65.6939C54.7873 65.6939 54.3926 65.3076 54.3926 64.8205V64.619C54.3926 64.1403 54.7789 63.7456 55.266 63.7456C55.6187 63.7456 55.9378 63.5356 56.0722 63.2081C56.0974 63.1493 56.1142 63.0989 56.1394 63.0485C56.2822 62.7294 56.1982 62.3515 55.9546 62.0995C55.6103 61.7552 55.6103 61.2093 55.9546 60.865L56.0974 60.7222C56.4417 60.3779 56.9876 60.3779 57.3319 60.7222C57.5839 60.9742 57.9618 61.0497 58.2809 60.907C58.3313 60.8818 58.3901 60.8566 58.4405 60.8398C58.768 60.7138 58.978 60.3863 58.978 60.0336C58.978 59.5549 59.3643 59.1602 59.8514 59.1602H60.0529C60.5316 59.1602 60.9263 59.5465 60.9263 60.0336C60.9263 60.3863 61.1363 60.7138 61.4638 60.8398C61.5226 60.865 61.573 60.8818 61.6234 60.907C61.9425 61.0497 62.3204 60.9658 62.5724 60.7222C62.9167 60.3779 63.4626 60.3779 63.8069 60.7222L63.9497 60.865C64.294 61.2093 64.294 61.7552 63.9497 62.0995C63.6977 62.3515 63.6221 62.7294 63.7649 63.0485C63.7901 63.0989 63.8153 63.1577 63.8321 63.2081C63.9581 63.5356 64.2856 63.7456 64.6383 63.7456C65.117 63.7456 65.5117 64.1319 65.5117 64.619V64.8205C65.5117 65.2992 65.1254 65.6939 64.6383 65.6939ZM59.9522 62.3683C58.6504 62.3683 57.6007 63.418 57.6007 64.7197C57.6007 66.0215 58.6504 67.0712 59.9522 67.0712C61.2539 67.0712 62.3036 66.0215 62.3036 64.7197C62.3036 63.418 61.2539 62.3683 59.9522 62.3683Z" fill="url(#paint15_linear_470_6759)"/>
<path d="M54.3756 50.4791C54.0229 50.4791 53.7038 50.689 53.5694 51.0166C53.5442 51.0753 53.5274 51.1257 53.5022 51.1761C53.3595 51.4953 53.4434 51.8732 53.687 52.1251C54.0313 52.4694 54.0313 53.0153 53.687 53.3596L53.5442 53.5024C53.1999 53.8467 52.654 53.8467 52.3097 53.5024C52.0577 53.2505 51.6798 53.1749 51.3607 53.3177C51.3103 53.3428 51.2515 53.368 51.2011 53.3848C50.8736 53.5108 50.6636 53.8383 50.6636 54.1911C50.6636 54.6698 50.2773 55.0645 49.7902 55.0645H49.5887C49.11 55.0645 48.7153 54.6782 48.7153 54.1911C48.7153 53.8383 48.5053 53.5192 48.1778 53.3848C48.119 53.3596 48.0686 53.3428 48.0182 53.3177C47.6991 53.1749 47.3212 53.2589 47.0692 53.5024C46.7249 53.8467 46.179 53.8467 45.8347 53.5024L45.6919 53.3596C45.3476 53.0153 45.3476 52.4694 45.6919 52.1251C45.9439 51.8732 46.0195 51.4953 45.8767 51.1761C45.8515 51.1257 45.8263 51.0669 45.8095 51.0166C45.6835 50.689 45.356 50.4791 45.0033 50.4791C44.5246 50.4791 44.1299 50.0928 44.1299 49.6057V49.4041C44.1299 48.9254 44.5162 48.5307 45.0033 48.5307C45.356 48.5307 45.6751 48.3208 45.8095 47.9932C45.8347 47.9344 45.8515 47.884 45.8767 47.8337C46.0195 47.5145 45.9355 47.1366 45.6919 46.8847C45.3476 46.5403 45.3476 45.9945 45.6919 45.6501L45.8347 45.5074C46.179 45.163 46.7249 45.163 47.0692 45.5074C47.3212 45.7593 47.6991 45.8349 48.0182 45.6921C48.0686 45.6669 48.1274 45.6417 48.1778 45.6249C48.5053 45.499 48.7153 45.1714 48.7153 44.8187C48.7153 44.34 49.1016 43.9453 49.5887 43.9453H49.7902C50.2689 43.9453 50.6636 44.3316 50.6636 44.8187C50.6636 45.1714 50.8736 45.499 51.2011 45.6249C51.2599 45.6501 51.3103 45.6669 51.3607 45.6921C51.6798 45.8349 52.0577 45.7509 52.3097 45.5074C52.654 45.163 53.1999 45.163 53.5442 45.5074L53.687 45.6501C54.0313 45.9945 54.0313 46.5403 53.687 46.8847C53.435 47.1366 53.3595 47.5145 53.5022 47.8337C53.5274 47.884 53.5442 47.9428 53.5694 47.9932C53.6954 48.3208 54.0229 48.5307 54.3756 48.5307C54.8543 48.5307 55.249 48.917 55.249 49.4041V49.6057C55.249 50.0844 54.8627 50.4791 54.3756 50.4791ZM49.6895 47.1534C48.3877 47.1534 47.338 48.2032 47.338 49.5049C47.338 50.8066 48.3877 51.8564 49.6895 51.8564C50.9912 51.8564 52.0409 50.8066 52.0409 49.5049C52.0409 48.2032 50.9912 47.1534 49.6895 47.1534Z" fill="url(#paint16_linear_470_6759)"/>
<path d="M76.7985 50.4791C76.4458 50.4791 76.1266 50.689 75.9923 51.0166C75.9671 51.0753 75.9503 51.1257 75.9251 51.1761C75.7823 51.4953 75.8663 51.8732 76.1098 52.1251C76.4542 52.4694 76.4542 53.0153 76.1098 53.3596L75.9671 53.5024C75.6227 53.8467 75.0769 53.8467 74.7325 53.5024C74.4806 53.2505 74.1027 53.1749 73.7835 53.3177C73.7332 53.3428 73.6744 53.368 73.624 53.3848C73.2965 53.5108 73.0865 53.8383 73.0865 54.1911C73.0865 54.6698 72.7002 55.0645 72.2131 55.0645H72.0115C71.5328 55.0645 71.1381 54.6782 71.1381 54.1911C71.1381 53.8383 70.9282 53.5192 70.6006 53.3848C70.5419 53.3596 70.4915 53.3428 70.4411 53.3177C70.122 53.1749 69.744 53.2589 69.4921 53.5024C69.1478 53.8467 68.6019 53.8467 68.2576 53.5024L68.1148 53.3596C67.7705 53.0153 67.7705 52.4694 68.1148 52.1251C68.3667 51.8732 68.4423 51.4953 68.2996 51.1761C68.2744 51.1257 68.2576 51.0669 68.2324 51.0166C68.1064 50.689 67.7789 50.4791 67.4261 50.4791C66.9474 50.4791 66.5527 50.0928 66.5527 49.6057V49.4041C66.5527 48.9254 66.9391 48.5307 67.4261 48.5307C67.7789 48.5307 68.1064 48.3208 68.2324 47.9932C68.2576 47.9344 68.2744 47.884 68.2996 47.8337C68.4423 47.5145 68.3583 47.1366 68.1148 46.8847C67.7705 46.5403 67.7705 45.9945 68.1148 45.6501L68.2576 45.5074C68.6019 45.163 69.1478 45.163 69.4921 45.5074C69.744 45.7593 70.122 45.8349 70.4411 45.6921C70.4915 45.6669 70.5503 45.6417 70.6006 45.6249C70.9282 45.499 71.1381 45.1714 71.1381 44.8187C71.1381 44.34 71.5244 43.9453 72.0115 43.9453H72.2131C72.6918 43.9453 73.0865 44.3316 73.0865 44.8187C73.0865 45.1714 73.2965 45.499 73.624 45.6249C73.6828 45.6501 73.7332 45.6669 73.7835 45.6921C74.1027 45.8349 74.4806 45.7509 74.7325 45.5074C75.0769 45.163 75.6227 45.163 75.9671 45.5074L76.1098 45.6501C76.4542 45.9945 76.4542 46.5403 76.1098 46.8847C75.8579 47.1366 75.7823 47.5145 75.9251 47.8337C75.9503 47.884 75.9755 47.9428 75.9923 47.9932C76.1182 48.3208 76.4458 48.5307 76.7985 48.5307C77.2772 48.5307 77.6719 48.917 77.6719 49.4041V49.6057C77.6719 50.0844 77.2856 50.4791 76.7985 50.4791ZM72.1123 47.1534C70.8106 47.1534 69.7608 48.2032 69.7608 49.5049C69.7608 50.8066 70.8106 51.8564 72.1123 51.8564C73.414 51.8564 74.4638 50.8066 74.4638 49.5049C74.4638 48.2032 73.414 47.1534 72.1123 47.1534Z" fill="url(#paint17_linear_470_6759)"/>
<path d="M220.912 61.875H217.133C220.013 61.875 222.356 63.8906 222.356 66.3848V104.932C222.356 107.418 220.022 109.442 217.133 109.442H220.912C223.793 109.442 226.136 107.427 226.136 104.932V66.3848C226.136 63.899 223.801 61.875 220.912 61.875Z" fill="#122760"/>
<path d="M220.08 61.875H179.735C177.917 61.875 176.443 63.3489 176.443 65.1671V106.15C176.443 107.968 177.917 109.442 179.735 109.442H220.08C221.898 109.442 223.372 107.968 223.372 106.15V65.1671C223.372 63.3489 221.898 61.875 220.08 61.875Z" fill="#20B4E3"/>
<path d="M199.689 98.0039C192.895 98.0039 187.395 92.4947 187.395 85.709C187.395 78.9233 192.904 73.4141 199.689 73.4141" stroke="white" stroke-miterlimit="10"/>
<path d="M199.874 98.0039C196.423 98.0039 193.626 92.4947 193.626 85.709C193.626 78.9233 196.423 73.4141 199.874 73.4141" stroke="white" stroke-miterlimit="10"/>
<path d="M187.395 85.7109H199.874" stroke="white" stroke-miterlimit="10"/>
<path d="M199.564 79.9898C195.844 79.9898 192.509 79.15 190.259 77.8231C192.518 75.1273 195.902 73.4141 199.69 73.4141V98.0039C196.003 98.0039 192.703 96.383 190.444 93.8132C192.694 92.5535 195.944 91.7556 199.564 91.7556" stroke="white" stroke-miterlimit="10"/>
<path d="M189.419 85.8265V85.3814M201.865 90.7647C204.72 90.7647 206.77 88.4636 206.77 85.6082C206.77 82.7528 204.771 80.4433 201.924 80.4433L201.831 73.4141C202.89 73.4141 203.746 74.2707 203.746 75.3288C203.746 76.1015 204.208 76.8153 204.922 77.0925C205.04 77.1428 205.165 77.1848 205.283 77.2436C205.989 77.5544 206.82 77.378 207.366 76.8321C208.113 76.0847 209.323 76.0847 210.07 76.8321L210.389 77.1512C211.137 77.8987 211.137 79.108 210.389 79.8554C209.843 80.4013 209.667 81.2327 209.978 81.9382C210.028 82.0558 210.078 82.1733 210.129 82.2993C210.406 83.0216 211.12 83.4751 211.892 83.4751C212.951 83.4751 213.807 84.3317 213.807 85.3898V85.8349C213.807 86.8931 212.951 87.7497 211.892 87.7497C211.12 87.7497 210.406 88.2116 210.129 88.9255C210.078 89.043 210.036 89.169 209.978 89.2866C209.667 89.992 209.843 90.8234 210.389 91.3693C211.137 92.1168 211.137 93.3261 210.389 94.0735L210.07 94.3927C209.323 95.1401 208.113 95.1401 207.366 94.3927C206.82 93.8468 205.989 93.6704 205.283 93.9812C205.165 94.0315 205.048 94.0819 204.922 94.1323C204.2 94.4095 203.746 95.1233 203.746 95.8959C203.746 96.9541 202.89 97.8107 201.831 97.8107L201.865 90.773V90.7647Z" stroke="white" stroke-miterlimit="10"/>
<defs>
<linearGradient id="paint0_linear_470_6759" x1="194.458" y1="22.5371" x2="70.488" y2="277.165" gradientUnits="userSpaceOnUse">
<stop stop-color="#EFF5FF"/>
<stop offset="1" stop-color="#EFF5FF"/>
</linearGradient>
<linearGradient id="paint1_linear_470_6759" x1="84.0124" y1="264.681" x2="113.339" y2="247.364" gradientUnits="userSpaceOnUse">
<stop stop-color="#A7A9AC"/>
<stop offset="0.09" stop-color="#B4B6B8"/>
<stop offset="0.31" stop-color="#CED0D1"/>
<stop offset="0.53" stop-color="#E1E3E3"/>
<stop offset="0.76" stop-color="#EDEEEE"/>
<stop offset="1" stop-color="#F1F2F2"/>
</linearGradient>
<linearGradient id="paint2_linear_470_6759" x1="20.9268" y1="172.517" x2="32.0207" y2="172.517" gradientUnits="userSpaceOnUse">
<stop stop-color="#004D8A"/>
<stop offset="0.98" stop-color="#0E1B5E"/>
</linearGradient>
<linearGradient id="paint3_linear_470_6759" x1="159.059" y1="162.163" x2="239.085" y2="162.163" gradientUnits="userSpaceOnUse">
<stop offset="0.26" stop-color="#D7EBF4"/>
<stop offset="1" stop-color="#97CBDD"/>
</linearGradient>
<linearGradient id="paint4_linear_470_6759" x1="162.938" y1="233.932" x2="235.205" y2="233.932" gradientUnits="userSpaceOnUse">
<stop offset="0.26" stop-color="#D7EBF4"/>
<stop offset="1" stop-color="#97CBDD"/>
</linearGradient>
<linearGradient id="paint5_linear_470_6759" x1="182.154" y1="197.308" x2="215.99" y2="197.308" gradientUnits="userSpaceOnUse">
<stop stop-color="white" stop-opacity="0.5"/>
<stop offset="0.96" stop-color="#ABBFCE"/>
</linearGradient>
<linearGradient id="paint6_linear_470_6759" x1="169.237" y1="249.304" x2="235.734" y2="235.9" gradientUnits="userSpaceOnUse">
<stop offset="0.02" stop-color="white" stop-opacity="0.3"/>
<stop offset="0.97" stop-color="#B2D8EA"/>
</linearGradient>
<linearGradient id="paint7_linear_470_6759" x1="201.511" y1="206.799" x2="197.203" y2="126.369" gradientUnits="userSpaceOnUse">
<stop offset="0.02" stop-color="white" stop-opacity="0.3"/>
<stop offset="0.97" stop-color="#B2D8EA"/>
</linearGradient>
<radialGradient id="paint8_radial_470_6759" cx="0" cy="0" r="1" gradientUnits="userSpaceOnUse" gradientTransform="translate(151.424 161.529) scale(10.8924 15.3583)">
<stop offset="0.21" stop-color="#87C2D6"/>
<stop offset="0.43" stop-color="#8CC3D6"/>
<stop offset="0.7" stop-color="#9BC6D8"/>
<stop offset="1" stop-color="#B4CCDB"/>
</radialGradient>
<radialGradient id="paint9_radial_470_6759" cx="0" cy="0" r="1" gradientUnits="userSpaceOnUse" gradientTransform="translate(148.737 161.903) scale(8.43175 13.3222)">
<stop stop-color="#87C2D6"/>
<stop offset="0.56" stop-color="#9EC7D8"/>
<stop offset="1" stop-color="#B4CCDB"/>
</radialGradient>
<radialGradient id="paint10_radial_470_6759" cx="0" cy="0" r="1" gradientUnits="userSpaceOnUse" gradientTransform="translate(245.182 162.138) scale(8.81808 12.6098)">
<stop stop-color="#87C2D6"/>
<stop offset="0.56" stop-color="#9EC7D8"/>
<stop offset="1" stop-color="#B4CCDB"/>
</radialGradient>
<radialGradient id="paint11_radial_470_6759" cx="0" cy="0" r="1" gradientUnits="userSpaceOnUse" gradientTransform="translate(251.607 162.003) scale(8.6417 8.64171)">
<stop stop-color="#87C2D6"/>
<stop offset="0.56" stop-color="#9EC7D8"/>
<stop offset="1" stop-color="#B4CCDB"/>
</radialGradient>
<linearGradient id="paint12_linear_470_6759" x1="181.91" y1="162.16" x2="190.308" y2="162.16" gradientUnits="userSpaceOnUse">
<stop stop-color="white"/>
<stop offset="1" stop-color="#DFE9ED"/>
</linearGradient>
<linearGradient id="paint13_linear_470_6759" x1="207.482" y1="-0.00839152" x2="215.881" y2="-0.00839152" gradientUnits="userSpaceOnUse">
<stop stop-color="white"/>
<stop offset="1" stop-color="#DFE9ED"/>
</linearGradient>
<linearGradient id="paint14_linear_470_6759" x1="43.0889" y1="64.7197" x2="31.9781" y2="64.7197" gradientUnits="userSpaceOnUse">
<stop offset="0.02" stop-color="#F1F2F2"/>
<stop offset="1" stop-color="white"/>
</linearGradient>
<linearGradient id="paint15_linear_470_6759" x1="65.5117" y1="292.965" x2="54.401" y2="292.965" gradientUnits="userSpaceOnUse">
<stop offset="0.02" stop-color="#F1F2F2"/>
<stop offset="1" stop-color="white"/>
</linearGradient>
<linearGradient id="paint16_linear_470_6759" x1="55.249" y1="49.5049" x2="44.1383" y2="49.5049" gradientUnits="userSpaceOnUse">
<stop offset="0.02" stop-color="#F1F2F2"/>
<stop offset="1" stop-color="white"/>
</linearGradient>
<linearGradient id="paint17_linear_470_6759" x1="77.6719" y1="49.5049" x2="66.5527" y2="49.5049" gradientUnits="userSpaceOnUse">
<stop offset="0.02" stop-color="#F1F2F2"/>
<stop offset="1" stop-color="white"/>
</linearGradient>
</defs>
</svg>
