<svg width="297" height="152" viewBox="0 0 297 152" fill="none" xmlns="http://www.w3.org/2000/svg">
<path d="M235.449 0.826605C224.474 -1.53845 211.043 1.4218 201.365 6.52666C181.582 16.9631 170.122 48.7102 150.216 58.9168C129.409 69.5832 104.436 55.3299 81.4467 51.0627C50.2192 45.2682 12.8948 66.7835 1.57028 104.804C-1.6797 115.716 0.10905 128.206 6.99321 137.275C8.41665 139.149 10.1046 140.919 12.2713 141.842C14.3749 142.736 16.7337 142.752 19.02 142.752C109.22 142.752 190.015 140.088 280.174 142.752C295.615 143.208 301.422 124.168 290.324 111.842C274.742 94.5312 271.92 50.2534 268.024 38.0376C263.162 22.7923 250.893 4.16161 235.449 0.832904V0.826605Z" fill="#EFF5FF"/>
<path opacity="0.62" d="M266.954 151.659H4.30436C3.18324 151.659 2.26367 150.743 2.26367 149.619C2.26367 148.498 3.18009 147.578 4.30436 147.578H266.954C268.075 147.578 268.995 148.498 268.995 149.619C268.995 150.74 268.075 151.659 266.954 151.659Z" fill="#E8F7FF"/>
<path d="M244.563 119.641H170.104V128.802H244.563V119.641Z" fill="#254F68"/>
<path d="M244.566 122.258H174.115V128.799H244.566V122.258Z" stroke="#5CCDF1" stroke-width="0.81" stroke-miterlimit="10"/>
<path d="M242.04 132.392H138.018C136.91 132.392 136.006 131.485 136.006 130.38C136.006 129.271 136.913 128.367 138.018 128.367H242.04C243.148 128.367 244.052 129.274 244.052 130.38C244.052 131.488 243.145 132.392 242.04 132.392Z" fill="#20B4E3"/>
<path d="M157.632 150.909C161.089 150.909 163.892 146.008 163.892 139.962C163.892 133.917 161.089 129.016 157.632 129.016C154.174 129.016 151.371 133.917 151.371 139.962C151.371 146.008 154.174 150.909 157.632 150.909Z" fill="#254F68"/>
<path d="M160.2 150.887C163.658 150.887 166.461 145.999 166.461 139.969C166.461 133.939 163.658 129.051 160.2 129.051C156.742 129.051 153.939 133.939 153.939 139.969C153.939 145.999 156.742 150.887 160.2 150.887Z" fill="#254F68"/>
<path d="M157.622 150.911H160.009C160.453 150.911 160.809 150.47 160.803 149.929L160.513 129.012H157.115C157.115 129.012 149.711 142.078 156.592 150.398C156.866 150.729 157.238 150.911 157.622 150.911Z" fill="#254F68"/>
<path opacity="0.43" d="M160.2 150.887C163.658 150.887 166.461 145.999 166.461 139.969C166.461 133.939 163.658 129.051 160.2 129.051C156.742 129.051 153.939 133.939 153.939 139.969C153.939 145.999 156.742 150.887 160.2 150.887Z" fill="#50BFE3"/>
<path d="M163.577 124.211H105.604V140.543H163.577V124.211Z" fill="#20B4E3"/>
<path d="M261.947 31.1484H74.2266V113.743H261.947V31.1484Z" fill="#20B4E3"/>
<path d="M116.555 31.1484H74.2266V113.743H116.555V31.1484Z" fill="#CBE2EF"/>
<path d="M262.072 102.355H99.457V120.763H262.072V102.355Z" fill="#254F68"/>
<path d="M42.4036 134.461H35.6202C34.3662 134.461 33.3496 135.478 33.3496 136.732V144.428C33.3496 145.682 34.3662 146.699 35.6202 146.699H42.4036C43.6576 146.699 44.6741 145.682 44.6741 144.428V136.732C44.6741 135.478 43.6576 134.461 42.4036 134.461Z" fill="#254F68"/>
<path d="M102.703 135.52H96.2726C95.0412 135.52 94.043 136.518 94.043 137.749V145.528C94.043 146.759 95.0412 147.757 96.2726 147.757H102.703C103.935 147.757 104.933 146.759 104.933 145.528V137.749C104.933 136.518 103.935 135.52 102.703 135.52Z" fill="#254F68"/>
<path d="M36.5745 138.89C36.5745 144.14 33.7213 148.398 30.2036 148.398C26.686 148.398 23.2691 144.112 23.8328 138.89C24.3997 133.672 26.686 129.383 30.2036 129.383C33.7213 129.383 36.5745 133.641 36.5745 138.89Z" fill="#254F68"/>
<path d="M32.8162 148.375C36.3347 148.375 39.187 144.129 39.187 138.892C39.187 133.656 36.3347 129.41 32.8162 129.41C29.2976 129.41 26.4453 133.656 26.4453 138.892C26.4453 144.129 29.2976 148.375 32.8162 148.375Z" fill="#254F68"/>
<path d="M30.183 148.379H32.419C32.9827 148.379 33.4362 147.9 33.4267 147.314L33.137 129.383H29.6792C29.6792 129.383 22.14 140.726 29.1564 147.944C29.4272 148.224 29.7988 148.379 30.183 148.379Z" fill="#254F68"/>
<path opacity="0.43" d="M32.8162 148.375C36.3347 148.375 39.187 144.129 39.187 138.892C39.187 133.656 36.3347 129.41 32.8162 129.41C29.2976 129.41 26.4453 133.656 26.4453 138.892C26.4453 144.129 29.2976 148.375 32.8162 148.375Z" fill="#50BFE3"/>
<path d="M87.4456 138.125C87.4456 143.374 84.5924 147.632 81.0747 147.632C77.5571 147.632 74.1402 143.346 74.7039 138.125C75.2708 132.906 77.5571 128.617 81.0747 128.617C84.5924 128.617 87.4456 132.875 87.4456 138.125Z" fill="#254F68"/>
<path d="M83.6853 147.613C87.2038 147.613 90.0561 143.368 90.0561 138.131C90.0561 132.894 87.2038 128.648 83.6853 128.648C80.1668 128.648 77.3145 132.894 77.3145 138.131C77.3145 143.368 80.1668 147.613 83.6853 147.613Z" fill="#254F68"/>
<path d="M81.0561 147.613H83.292C83.8557 147.613 84.3092 147.135 84.2998 146.549L84.01 128.617H80.5522C80.5522 128.617 73.013 139.961 80.0294 147.179C80.3003 147.459 80.6719 147.613 81.0561 147.613Z" fill="#254F68"/>
<path opacity="0.43" d="M83.6853 147.613C87.2038 147.613 90.0561 143.368 90.0561 138.131C90.0561 132.894 87.2038 128.648 83.6853 128.648C80.1668 128.648 77.3145 132.894 77.3145 138.131C77.3145 143.368 80.1668 147.613 83.6853 147.613Z" fill="#50BFE3"/>
<path d="M64.5949 138.514H15.9491C15.7193 132.354 15.5177 126.162 15.6531 119.999C15.8137 112.81 16.4341 105.667 18.0119 98.673C18.0119 98.673 18.4118 96.8906 19.3629 94.113C20.1659 91.7857 21.3595 88.7593 23.0349 85.4936C23.6552 84.2875 24.3323 83.1097 25.0598 81.9665C29.0467 75.7122 34.583 70.579 40.9916 67.1338C48.3954 63.15 59.0491 60.8448 67.2024 60.1992C67.6055 85.374 64.2138 113.301 64.5917 138.51L64.5949 138.514Z" fill="#20B4E3"/>
<path d="M67.2074 60.2031H107.93V138.514H24.7436C24.7436 138.514 16.3635 67.6164 67.2074 60.2031Z" fill="#20B4E3"/>
<path d="M108.417 138.512C108.042 112.714 108.332 86.0027 107.929 60.2422L96.4376 61.1744C83.8282 63.7819 72.913 72.2123 66.8571 84.2612C63.1725 91.5862 61.831 97.7461 61.831 97.7461C58.9022 111.039 59.2707 124.861 59.7714 138.516H108.417V138.512Z" fill="#263C51"/>
<path d="M54.4096 121.751H15.6807L15.6523 120C15.813 112.81 16.4333 105.668 18.0111 98.6733C18.0111 98.6733 18.411 96.8909 19.3621 94.1133L57.8044 95.3887C53.2759 105.979 54.4064 121.751 54.4064 121.751H54.4096Z" fill="#254F68"/>
<path d="M23.791 94.2578C22.9218 96.1883 22.3613 98.2856 21.9424 100.348C21.2401 103.787 20.9504 107.292 20.7079 110.794C20.456 114.419 20.2292 118.082 20.1348 121.747H24.6539C27.8031 118.214 31.9285 115.505 36.2933 114.177V94.6735L23.791 94.2578Z" fill="#50BFE3"/>
<path d="M19.4223 84.8711H52.8921C56.4601 84.8711 59.3574 87.7684 59.3574 91.3364V97.8899C59.3574 98.3024 59.0236 98.6394 58.6079 98.6394H13.4546C13.1806 98.6394 12.957 98.4158 12.957 98.1418V91.3396C12.957 87.7715 15.8543 84.8742 19.4223 84.8742V84.8711Z" fill="#263C51"/>
<path d="M19.0295 89.6673C26.3672 93.6133 35.0369 93.2669 42.91 91.6482C47.9455 90.6152 52.6945 88.8422 57.1569 86.4866C56.0421 85.482 54.5935 84.8711 53.0126 84.8711H19.3004C17.6596 84.8711 16.1606 85.5261 15.0332 86.5969C16.1386 87.8313 17.5179 88.8517 19.0295 89.6642V89.6673Z" fill="#CBE2EF"/>
<path d="M101.97 97.5039V109.036C93.2028 109.348 80.2438 115.017 72.5913 118.752C71.1962 119.432 69.9743 120.049 68.9917 120.559C68.8815 120.613 68.7776 120.666 68.6737 120.723C68.4753 120.824 68.2895 120.925 68.1163 121.016C68.0092 121.069 67.9084 121.123 67.8108 121.176C67.2723 121.46 66.8629 121.68 66.6046 121.822C66.5574 121.847 66.5133 121.872 66.4787 121.891C66.3496 121.961 66.2803 121.998 66.2803 121.998C65.9307 118.229 65.9748 114.491 66.3433 110.765C66.7558 106.624 67.5651 102.502 68.6768 98.3699L101.967 97.5071L101.97 97.5039Z" fill="#254F68"/>
<path d="M97.0819 97.5664C96.5245 98.7788 95.7088 99.8622 94.5531 100.741C91.8636 102.785 88.4499 103.622 85.3165 104.621C81.7673 105.754 78.426 107.203 75.9539 110.22C73.9856 112.62 72.7952 115.608 72.5874 118.748C71.1923 119.431 69.9704 120.049 68.9878 120.562C68.8776 120.615 68.7737 120.669 68.6698 120.726C68.4714 120.826 68.2856 120.927 68.1123 121.019C68.0053 121.072 67.9045 121.126 67.8069 121.179C67.2684 121.463 66.859 121.683 66.6007 121.825C66.5535 121.85 66.5094 121.875 66.4748 121.894C66.3456 121.963 66.2764 122.001 66.2764 122.001C65.9268 118.219 65.9709 114.468 66.3394 110.73C71.1639 106.488 76.2373 102.287 81.0367 98.0199L97.0787 97.5664H97.0819Z" fill="#50BFE3"/>
<path d="M86.2308 124.337C85.1727 124.337 84.3066 123.471 84.3066 122.413V92.8421C84.3066 91.784 85.1727 90.918 86.2308 90.918C87.2889 90.918 88.155 91.784 88.155 92.8421V122.413C88.155 123.471 87.2889 124.337 86.2308 124.337Z" fill="#CBE2EF"/>
<path d="M68.2241 89.0312C68.2241 89.0312 61.2045 105.741 63.9223 133.281C63.9223 133.281 84.5307 117.513 104.689 117.04L104.462 89.2674L68.2273 89.0312H68.2241Z" stroke="#EFF2FF" stroke-width="2.2" stroke-linecap="round" stroke-linejoin="round"/>
<path d="M86.0039 89.5078V120.811" stroke="#EFF2FF" stroke-width="2.2" stroke-linecap="round" stroke-linejoin="round"/>
<path d="M14.7022 129.047H59.0146C60.098 129.047 60.9766 129.926 60.9766 131.009V131.084C60.9766 132.168 60.098 133.046 59.0146 133.046H14.7022C13.6189 133.046 12.7402 132.168 12.7402 131.084V131.009C12.7402 129.926 13.6189 129.047 14.7022 129.047Z" fill="#254F68"/>
<path d="M23.7773 124.645C24.3757 125.442 24.9772 126.236 25.5755 127.033H43.715C44.1936 126.321 44.8644 125.345 45.3431 124.633L23.7773 124.645Z" fill="#254F68"/>
<path d="M51.8695 124.34H47.9771C47.2379 124.34 46.6387 124.939 46.6387 125.678V125.732C46.6387 126.471 47.2379 127.07 47.9771 127.07H51.8695C52.6087 127.07 53.2079 126.471 53.2079 125.732V125.678C53.2079 124.939 52.6087 124.34 51.8695 124.34Z" fill="#FEFEFE"/>
<path d="M52.055 134.742H48.1626C47.4234 134.742 46.8242 135.341 46.8242 136.081V136.134C46.8242 136.873 47.4234 137.473 48.1626 137.473H52.055C52.7942 137.473 53.3935 136.873 53.3935 136.134V136.081C53.3935 135.341 52.7942 134.742 52.055 134.742Z" fill="#FEFEFE"/>
<path d="M23.4515 134.316H19.5591C18.8199 134.316 18.2207 134.916 18.2207 135.655V135.708C18.2207 136.448 18.8199 137.047 19.5591 137.047H23.4515C24.1907 137.047 24.7899 136.448 24.7899 135.708V135.655C24.7899 134.916 24.1907 134.316 23.4515 134.316Z" fill="#FEFEFE"/>
<path d="M22.0472 124.551H18.1548C17.4156 124.551 16.8164 125.15 16.8164 125.889V125.943C16.8164 126.682 17.4156 127.281 18.1548 127.281H22.0472C22.7864 127.281 23.3856 126.682 23.3856 125.943V125.889C23.3856 125.15 22.7864 124.551 22.0472 124.551Z" fill="#FEFEFE"/>
<path d="M41.8164 134.223H28.5016C27.8006 134.223 27.2324 134.791 27.2324 135.492V135.542C27.2324 136.243 27.8006 136.811 28.5016 136.811H41.8164C42.5173 136.811 43.0855 136.243 43.0855 135.542V135.492C43.0855 134.791 42.5173 134.223 41.8164 134.223Z" fill="#20B4E3"/>
<path d="M108.189 76.3789H82.7119C81.216 76.3789 79.9941 77.6512 79.9941 79.2037V79.9092C79.9941 81.4617 81.216 82.734 82.7119 82.734H108.189V76.3789Z" fill="#20B4E3"/>
<path d="M104.543 63.668C104.543 63.668 78.7545 65.0253 69.584 86.2068L104.883 86.1438L104.543 63.668Z" stroke="#EFF2FF" stroke-width="2.2" stroke-linecap="round" stroke-linejoin="round"/>
<path d="M108.309 119.794C88.1543 119.394 82.7187 124.807 80.127 140.717H108.536L108.309 119.794Z" fill="#254F68"/>
<path d="M108.402 138.465H16.0484C15.3475 138.465 14.7793 139.033 14.7793 139.734V139.784C14.7793 140.485 15.3475 141.053 16.0484 141.053H108.402C109.103 141.053 109.671 140.485 109.671 139.784V139.734C109.671 139.033 109.103 138.465 108.402 138.465Z" fill="#263C51"/>
<path d="M106.423 141.003C106.08 131.842 101.448 124.586 95.7791 124.586C90.1105 124.586 85.478 131.842 85.1348 141.003H106.423Z" fill="#50BFE3"/>
<path d="M104.916 141.051C104.62 132.646 100.645 125.988 95.7831 125.988C90.9207 125.988 86.9464 132.646 86.6504 141.051H104.916Z" fill="#254F68"/>
<path d="M94.9032 151.167C98.3608 151.167 101.164 146.266 101.164 140.22C101.164 134.174 98.3608 129.273 94.9032 129.273C91.4455 129.273 88.6426 134.174 88.6426 140.22C88.6426 146.266 91.4455 151.167 94.9032 151.167Z" fill="#254F68"/>
<path d="M97.4696 151.141C100.927 151.141 103.73 146.253 103.73 140.223C103.73 134.193 100.927 129.305 97.4696 129.305C94.012 129.305 91.209 134.193 91.209 140.223C91.209 146.253 94.012 151.141 97.4696 151.141Z" fill="#254F68"/>
<path d="M94.8937 151.169H97.2808C97.7248 151.169 98.0807 150.728 98.0744 150.187L97.7846 129.27H94.3867C94.3867 129.27 86.9829 142.336 93.8639 150.656C94.1379 150.986 94.5095 151.169 94.8937 151.169Z" fill="#254F68"/>
<path d="M98.155 148.374C100.451 148.374 102.312 144.764 102.312 140.312C102.312 135.859 100.451 132.25 98.155 132.25C95.8592 132.25 93.998 135.859 93.998 140.312C93.998 144.764 95.8592 148.374 98.155 148.374Z" fill="#CBE2EF"/>
<path d="M98.4354 146.642C100.082 146.642 101.418 143.809 101.418 140.315C101.418 136.821 100.082 133.988 98.4354 133.988C96.7883 133.988 95.4531 136.821 95.4531 140.315C95.4531 143.809 96.7883 146.642 98.4354 146.642Z" stroke="#254F68" stroke-width="1.59" stroke-linecap="round" stroke-linejoin="round"/>
<path d="M100.581 140.469C100.581 142.649 99.7499 144.415 98.7233 144.415C97.6966 144.415 96.8652 142.649 96.8652 140.469C96.8652 138.29 97.6966 136.523 98.7233 136.523C99.7499 136.523 100.581 138.29 100.581 140.469Z" fill="#50BFE3"/>
<path d="M100.126 140.255C100.126 141.591 99.6156 142.671 98.9857 142.671C98.3559 142.671 97.8457 141.587 97.8457 140.255C97.8457 138.923 98.3559 137.84 98.9857 137.84C99.6156 137.84 100.126 138.923 100.126 140.255Z" fill="#254F68"/>
<path d="M11.7602 101.363H13.5521C14.0906 101.363 14.5252 101.798 14.5252 102.336V114.747C14.5252 115.286 14.0906 115.72 13.5521 115.72H11.7602C11.2217 115.72 10.7871 115.286 10.7871 114.747V102.34C10.7871 101.801 11.2217 101.366 11.7602 101.366V101.363Z" fill="#254F68"/>
<path d="M18.1732 100.098H13.8809C13.2069 100.098 12.6621 100.665 12.6621 101.364V118.621C12.6621 119.654 13.4683 120.495 14.4635 120.495H17.3418" stroke="#254F68" stroke-width="1.47" stroke-linecap="round" stroke-linejoin="round"/>
<path d="M13.6014 116.418H11.6521C11.252 116.418 10.9277 116.742 10.9277 117.142V118.518C10.9277 118.919 11.252 119.243 11.6521 119.243H13.6014C14.0014 119.243 14.3257 118.919 14.3257 118.518V117.142C14.3257 116.742 14.0014 116.418 13.6014 116.418Z" fill="#254F68"/>
<path d="M57.5903 102.336H59.3822C59.9207 102.336 60.3553 102.771 60.3553 103.309V115.717C60.3553 116.255 59.9207 116.69 59.3822 116.69H57.5903C57.0518 116.69 56.6172 116.255 56.6172 115.717V103.309C56.6172 102.771 57.0518 102.336 57.5903 102.336Z" fill="#254F68"/>
<path d="M64.0033 101.062H59.7109C59.037 101.062 58.4922 101.629 58.4922 102.328V119.586C58.4922 120.619 59.2984 121.46 60.2935 121.46H63.1719" stroke="#254F68" stroke-width="1.47" stroke-linecap="round" stroke-linejoin="round"/>
<path d="M59.4315 117.383H57.4821C57.0821 117.383 56.7578 117.707 56.7578 118.107V119.483C56.7578 119.883 57.0821 120.208 57.4821 120.208H59.4315C59.8315 120.208 60.1558 119.883 60.1558 119.483V118.107C60.1558 117.707 59.8315 117.383 59.4315 117.383Z" fill="#254F68"/>
<path d="M83.9255 96.0162L69.5273 95.9752L70.6611 91.7994L83.9255 91.7773V96.0162Z" fill="#254F68"/>
<path d="M101.743 91.8047H88.2676V95.927H101.743V91.8047Z" fill="#254F68"/>
<path d="M178.064 31.1484L152.193 102.352H142.881L168.752 31.1484H178.064Z" fill="#CBE2EF"/>
<path d="M210.432 31.1484L184.561 102.352H161.496L187.367 31.1484H210.432Z" fill="#CBE2EF"/>
<path d="M148.046 126.016H112.949C111.561 126.016 110.436 127.141 110.436 128.529V138.801C110.436 140.189 111.561 141.314 112.949 141.314H148.046C149.434 141.314 150.56 140.189 150.56 138.801V128.529C150.56 127.141 149.434 126.016 148.046 126.016Z" fill="#50BFE3"/>
<path d="M118.393 126.016H148.228C149.513 126.016 150.559 127.058 150.559 128.346V138.987C150.559 140.272 149.516 141.318 148.228 141.318H118.393C117.108 141.318 116.062 140.275 116.062 138.987V128.346C116.062 127.061 117.105 126.016 118.393 126.016Z" fill="#CBE2EF"/>
<path d="M146.736 127.113H139.852C139.44 127.113 139.105 127.447 139.105 127.86V128.367C139.105 128.779 139.44 129.113 139.852 129.113H146.736C147.148 129.113 147.482 128.779 147.482 128.367V127.86C147.482 127.447 147.148 127.113 146.736 127.113Z" fill="#FEFEFE"/>
<path d="M135.259 127.113H128.375C127.963 127.113 127.629 127.447 127.629 127.86V128.367C127.629 128.779 127.963 129.113 128.375 129.113H135.259C135.672 129.113 136.006 128.779 136.006 128.367V127.86C136.006 127.447 135.672 127.113 135.259 127.113Z" fill="#FEFEFE"/>
<path d="M170.787 135.004H164.357C163.125 135.004 162.127 136.002 162.127 137.234V145.012C162.127 146.243 163.125 147.242 164.357 147.242H170.787C172.019 147.242 173.017 146.243 173.017 145.012V137.234C173.017 136.002 172.019 135.004 170.787 135.004Z" fill="#254F68"/>
<path d="M174.509 140.495C174.166 131.334 169.534 124.078 163.865 124.078C158.196 124.078 153.564 131.334 153.221 140.495H174.509Z" fill="#50BFE3"/>
<path d="M172.998 140.539C172.702 132.134 168.727 125.477 163.865 125.477C159.003 125.477 155.028 132.134 154.732 140.539H172.998Z" fill="#254F68"/>
<path d="M162.985 151.167C166.443 151.167 169.246 146.266 169.246 140.22C169.246 134.174 166.443 129.273 162.985 129.273C159.528 129.273 156.725 134.174 156.725 140.22C156.725 146.266 159.528 151.167 162.985 151.167Z" fill="#254F68"/>
<path d="M165.554 151.141C169.011 151.141 171.814 146.253 171.814 140.223C171.814 134.193 169.011 129.305 165.554 129.305C162.096 129.305 159.293 134.193 159.293 140.223C159.293 146.253 162.096 151.141 165.554 151.141Z" fill="#254F68"/>
<path d="M162.98 151.169H165.367C165.811 151.169 166.167 150.728 166.16 150.187L165.871 129.27H162.473C162.473 129.27 155.069 142.336 161.95 150.656C162.224 150.986 162.595 151.169 162.98 151.169Z" fill="#254F68"/>
<path opacity="0.43" d="M165.554 151.141C169.011 151.141 171.814 146.253 171.814 140.223C171.814 134.193 169.011 129.305 165.554 129.305C162.096 129.305 159.293 134.193 159.293 140.223C159.293 146.253 162.096 151.141 165.554 151.141Z" fill="#50BFE3"/>
<path d="M166.243 148.374C168.539 148.374 170.4 144.764 170.4 140.312C170.4 135.859 168.539 132.25 166.243 132.25C163.947 132.25 162.086 135.859 162.086 140.312C162.086 144.764 163.947 148.374 166.243 148.374Z" fill="#CBE2EF"/>
<path d="M166.523 146.642C168.17 146.642 169.506 143.809 169.506 140.315C169.506 136.821 168.17 133.988 166.523 133.988C164.876 133.988 163.541 136.821 163.541 140.315C163.541 143.809 164.876 146.642 166.523 146.642Z" stroke="#254F68" stroke-width="1.59" stroke-linecap="round" stroke-linejoin="round"/>
<path d="M168.663 140.469C168.663 142.649 167.832 144.415 166.805 144.415C165.779 144.415 164.947 142.649 164.947 140.469C164.947 138.29 165.779 136.523 166.805 136.523C167.832 136.523 168.663 138.29 168.663 140.469Z" fill="#50BFE3"/>
<path d="M168.007 140.717C168.007 141.744 167.616 142.575 167.131 142.575C166.646 142.575 166.256 141.744 166.256 140.717C166.256 139.691 166.646 138.859 167.131 138.859C167.616 138.859 168.007 139.691 168.007 140.717Z" fill="#254F68"/>
<path d="M135.295 121.172H117.446C115.833 121.172 114.514 119.853 114.514 118.241C114.514 116.628 115.833 115.309 117.446 115.309H135.295C136.908 115.309 138.227 116.628 138.227 118.241C138.227 119.853 136.908 121.172 135.295 121.172Z" fill="#20B4E3"/>
<path d="M131.086 119.641H121.906V124.232H131.086V119.641Z" fill="#20B4E3"/>
<path d="M120.887 106.129V106.365C120.887 109.335 123.293 111.741 126.262 111.741H262.157" stroke="#5CCDF1" stroke-width="0.81" stroke-miterlimit="10"/>
<path d="M129.031 107.689C129.031 108.108 128.691 108.445 128.275 108.445C127.86 108.445 127.52 108.105 127.52 107.689C127.52 107.274 127.86 106.934 128.275 106.934C128.691 106.934 129.031 107.274 129.031 107.689Z" stroke="#5CCDF1" stroke-width="0.6" stroke-miterlimit="10"/>
<path d="M133.383 109.959C133.383 110.378 133.043 110.715 132.627 110.715C132.211 110.715 131.871 110.375 131.871 109.959C131.871 109.543 132.211 109.203 132.627 109.203C133.043 109.203 133.383 109.543 133.383 109.959Z" stroke="#5CCDF1" stroke-width="0.6" stroke-miterlimit="10"/>
<path d="M108.395 105.871H262.158" stroke="#5CCDF1" stroke-width="0.81" stroke-miterlimit="10"/>
<path d="M246.132 150.28C249.589 150.28 252.392 145.379 252.392 139.333C252.392 133.288 249.589 128.387 246.132 128.387C242.674 128.387 239.871 133.288 239.871 139.333C239.871 145.379 242.674 150.28 246.132 150.28Z" fill="#254F68"/>
<path d="M248.698 150.258C252.156 150.258 254.959 145.37 254.959 139.34C254.959 133.31 252.156 128.422 248.698 128.422C245.24 128.422 242.438 133.31 242.438 139.34C242.438 145.37 245.24 150.258 248.698 150.258Z" fill="#254F68"/>
<path d="M246.124 150.282H248.511C248.955 150.282 249.311 149.841 249.305 149.3L249.015 128.383H245.617C245.617 128.383 238.213 141.449 245.094 149.769C245.368 150.1 245.74 150.282 246.124 150.282Z" fill="#254F68"/>
<path opacity="0.43" d="M248.698 150.258C252.156 150.258 254.959 145.37 254.959 139.34C254.959 133.31 252.156 128.422 248.698 128.422C245.24 128.422 242.438 133.31 242.438 139.34C242.438 145.37 245.24 150.258 248.698 150.258Z" fill="#50BFE3"/>
<path d="M241.099 123.578C237.893 123.78 235.745 127.014 234.476 129.65C232.722 133.29 232.797 139.91 232.797 139.91H252.077V123.578C252.077 123.578 241.099 123.578 241.096 123.578H241.099Z" fill="#20B4E3"/>
<path d="M259.289 134.383H252.859C251.627 134.383 250.629 135.381 250.629 136.612V144.391C250.629 145.622 251.627 146.621 252.859 146.621H259.289C260.521 146.621 261.519 145.622 261.519 144.391V136.612C261.519 135.381 260.521 134.383 259.289 134.383Z" fill="#254F68"/>
<path d="M263.007 139.866C262.664 130.705 258.032 123.449 252.363 123.449C246.694 123.449 242.062 130.705 241.719 139.866H263.007Z" fill="#50BFE3"/>
<path d="M261.5 139.91C261.204 131.505 257.229 124.848 252.367 124.848C247.505 124.848 243.53 131.505 243.234 139.91H261.5Z" fill="#254F68"/>
<path d="M251.487 150.534C254.945 150.534 257.748 145.633 257.748 139.587C257.748 133.542 254.945 128.641 251.487 128.641C248.03 128.641 245.227 133.542 245.227 139.587C245.227 145.633 248.03 150.534 251.487 150.534Z" fill="#254F68"/>
<path d="M254.054 150.508C257.511 150.508 260.314 145.62 260.314 139.59C260.314 133.56 257.511 128.672 254.054 128.672C250.596 128.672 247.793 133.56 247.793 139.59C247.793 145.62 250.596 150.508 254.054 150.508Z" fill="#254F68"/>
<path d="M251.478 150.536H253.865C254.309 150.536 254.665 150.095 254.658 149.554L254.369 128.637H250.971C250.971 128.637 243.567 141.703 250.448 150.023C250.722 150.354 251.093 150.536 251.478 150.536Z" fill="#254F68"/>
<path opacity="0.43" d="M254.054 150.508C257.511 150.508 260.314 145.62 260.314 139.59C260.314 133.56 257.511 128.672 254.054 128.672C250.596 128.672 247.793 133.56 247.793 139.59C247.793 145.62 250.596 150.508 254.054 150.508Z" fill="#50BFE3"/>
<path d="M254.741 147.749C257.037 147.749 258.898 144.139 258.898 139.687C258.898 135.234 257.037 131.625 254.741 131.625C252.445 131.625 250.584 135.234 250.584 139.687C250.584 144.139 252.445 147.749 254.741 147.749Z" fill="#CBE2EF"/>
<path d="M255.021 146.013C256.668 146.013 258.004 143.18 258.004 139.686C258.004 136.192 256.668 133.359 255.021 133.359C253.374 133.359 252.039 136.192 252.039 139.686C252.039 143.18 253.374 146.013 255.021 146.013Z" stroke="#254F68" stroke-width="1.59" stroke-linecap="round" stroke-linejoin="round"/>
<path d="M256.639 139.685C256.639 142.182 255.848 144.21 254.872 144.21C254.538 144.21 254.223 143.971 253.959 143.558C253.446 142.765 253.105 141.329 253.105 139.685C253.105 137.83 253.54 136.24 254.16 135.537C254.381 135.292 254.62 135.156 254.872 135.156C255.848 135.156 256.639 137.184 256.639 139.685Z" fill="#50BFE3"/>
<path d="M255.012 139.416C255.012 141.267 254.577 142.861 253.957 143.56C253.444 142.766 253.104 141.33 253.104 139.687C253.104 137.832 253.538 136.241 254.158 135.539C254.672 136.333 255.012 137.772 255.012 139.416Z" fill="#254F68"/>
<path d="M223.567 150.401C227.025 150.401 229.828 145.5 229.828 139.454C229.828 133.409 227.025 128.508 223.567 128.508C220.11 128.508 217.307 133.409 217.307 139.454C217.307 145.5 220.11 150.401 223.567 150.401Z" fill="#254F68"/>
<path d="M226.13 150.383C229.587 150.383 232.39 145.495 232.39 139.465C232.39 133.435 229.587 128.547 226.13 128.547C222.672 128.547 219.869 133.435 219.869 139.465C219.869 145.495 222.672 150.383 226.13 150.383Z" fill="#254F68"/>
<path d="M223.558 150.407H225.945C226.389 150.407 226.745 149.966 226.738 149.425L226.449 128.508H223.051C223.051 128.508 215.647 141.574 222.528 149.894C222.802 150.225 223.174 150.407 223.558 150.407Z" fill="#254F68"/>
<path opacity="0.43" d="M226.13 150.383C229.587 150.383 232.39 145.495 232.39 139.465C232.39 133.435 229.587 128.547 226.13 128.547C222.672 128.547 219.869 133.435 219.869 139.465C219.869 145.495 222.672 150.383 226.13 150.383Z" fill="#50BFE3"/>
<path d="M218.532 123.703C215.326 123.905 213.179 127.139 211.909 129.775C210.155 133.415 210.231 140.035 210.231 140.035H229.51V123.703C229.51 123.703 218.532 123.703 218.529 123.703H218.532Z" fill="#20B4E3"/>
<path d="M236.721 134.508H230.29C229.059 134.508 228.061 135.506 228.061 136.737V144.516C228.061 145.747 229.059 146.746 230.29 146.746H236.721C237.952 146.746 238.95 145.747 238.95 144.516V136.737C238.95 135.506 237.952 134.508 236.721 134.508Z" fill="#254F68"/>
<path d="M240.441 139.991C240.098 130.83 235.465 123.574 229.797 123.574C224.128 123.574 219.496 130.83 219.152 139.991H240.441Z" fill="#50BFE3"/>
<path d="M238.931 140.035C238.635 131.63 234.661 124.973 229.799 124.973C224.936 124.973 220.962 131.63 220.666 140.035H238.931Z" fill="#254F68"/>
<path d="M228.921 150.659C232.378 150.659 235.181 145.758 235.181 139.712C235.181 133.667 232.378 128.766 228.921 128.766C225.463 128.766 222.66 133.667 222.66 139.712C222.66 145.758 225.463 150.659 228.921 150.659Z" fill="#254F68"/>
<path d="M231.487 150.637C234.945 150.637 237.748 145.749 237.748 139.719C237.748 133.689 234.945 128.801 231.487 128.801C228.03 128.801 225.227 133.689 225.227 139.719C225.227 145.749 228.03 150.637 231.487 150.637Z" fill="#254F68"/>
<path d="M228.911 150.665H231.298C231.742 150.665 232.098 150.224 232.092 149.683L231.802 128.766H228.404C228.404 128.766 221 141.832 227.881 150.152C228.155 150.483 228.527 150.665 228.911 150.665Z" fill="#254F68"/>
<path opacity="0.43" d="M231.487 150.637C234.945 150.637 237.748 145.749 237.748 139.719C237.748 133.689 234.945 128.801 231.487 128.801C228.03 128.801 225.227 133.689 225.227 139.719C225.227 145.749 228.03 150.637 231.487 150.637Z" fill="#50BFE3"/>
<path d="M232.178 147.874C234.474 147.874 236.335 144.264 236.335 139.812C236.335 135.359 234.474 131.75 232.178 131.75C229.883 131.75 228.021 135.359 228.021 139.812C228.021 144.264 229.883 147.874 232.178 147.874Z" fill="#CBE2EF"/>
<path d="M232.459 146.134C234.106 146.134 235.441 143.301 235.441 139.807C235.441 136.313 234.106 133.48 232.459 133.48C230.812 133.48 229.477 136.313 229.477 139.807C229.477 143.301 230.812 146.134 232.459 146.134Z" stroke="#254F68" stroke-width="1.59" stroke-linecap="round" stroke-linejoin="round"/>
<path d="M234.264 139.974C234.264 142.471 233.473 144.499 232.497 144.499C232.163 144.499 231.848 144.26 231.584 143.847C231.071 143.054 230.73 141.618 230.73 139.974C230.73 138.119 231.165 136.529 231.785 135.826C232.006 135.581 232.245 135.445 232.497 135.445C233.473 135.445 234.264 137.473 234.264 139.974Z" fill="#50BFE3"/>
<path d="M232.639 139.697C232.639 141.549 232.204 143.142 231.584 143.841C231.071 143.048 230.73 141.612 230.73 139.968C230.73 138.113 231.165 136.523 231.785 135.82C232.299 136.614 232.639 138.053 232.639 139.697Z" fill="#254F68"/>
<path d="M200.382 150.401C203.839 150.401 206.642 145.5 206.642 139.454C206.642 133.409 203.839 128.508 200.382 128.508C196.924 128.508 194.121 133.409 194.121 139.454C194.121 145.5 196.924 150.401 200.382 150.401Z" fill="#254F68"/>
<path d="M202.95 150.383C206.408 150.383 209.211 145.495 209.211 139.465C209.211 133.435 206.408 128.547 202.95 128.547C199.492 128.547 196.689 133.435 196.689 139.465C196.689 145.495 199.492 150.383 202.95 150.383Z" fill="#254F68"/>
<path d="M200.374 150.407H202.761C203.205 150.407 203.561 149.966 203.555 149.425L203.265 128.508H199.867C199.867 128.508 192.463 141.574 199.344 149.894C199.618 150.225 199.99 150.407 200.374 150.407Z" fill="#254F68"/>
<path opacity="0.43" d="M202.95 150.383C206.408 150.383 209.211 145.495 209.211 139.465C209.211 133.435 206.408 128.547 202.95 128.547C199.492 128.547 196.689 133.435 196.689 139.465C196.689 145.495 199.492 150.383 202.95 150.383Z" fill="#50BFE3"/>
<path d="M195.347 123.703C192.141 123.905 189.993 127.139 188.724 129.775C186.97 133.415 187.045 140.035 187.045 140.035H206.325V123.703C206.325 123.703 195.347 123.703 195.344 123.703H195.347Z" fill="#20B4E3"/>
<path d="M213.537 134.508H207.107C205.875 134.508 204.877 135.506 204.877 136.737V144.516C204.877 145.747 205.875 146.746 207.107 146.746H213.537C214.769 146.746 215.767 145.747 215.767 144.516V136.737C215.767 135.506 214.769 134.508 213.537 134.508Z" fill="#254F68"/>
<path d="M217.255 139.991C216.912 130.83 212.28 123.574 206.611 123.574C200.943 123.574 196.31 130.83 195.967 139.991H217.255Z" fill="#50BFE3"/>
<path d="M215.748 140.035C215.452 131.63 211.477 124.973 206.615 124.973C201.753 124.973 197.778 131.63 197.482 140.035H215.748Z" fill="#254F68"/>
<path d="M205.737 150.659C209.195 150.659 211.998 145.758 211.998 139.712C211.998 133.667 209.195 128.766 205.737 128.766C202.28 128.766 199.477 133.667 199.477 139.712C199.477 145.758 202.28 150.659 205.737 150.659Z" fill="#254F68"/>
<path d="M208.304 150.637C211.761 150.637 214.564 145.749 214.564 139.719C214.564 133.689 211.761 128.801 208.304 128.801C204.846 128.801 202.043 133.689 202.043 139.719C202.043 145.749 204.846 150.637 208.304 150.637Z" fill="#254F68"/>
<path d="M205.73 150.665H208.117C208.561 150.665 208.917 150.224 208.91 149.683L208.621 128.766H205.223C205.223 128.766 197.819 141.832 204.7 150.152C204.974 150.483 205.345 150.665 205.73 150.665Z" fill="#254F68"/>
<path opacity="0.43" d="M208.304 150.637C211.761 150.637 214.564 145.749 214.564 139.719C214.564 133.689 211.761 128.801 208.304 128.801C204.846 128.801 202.043 133.689 202.043 139.719C202.043 145.749 204.846 150.637 208.304 150.637Z" fill="#50BFE3"/>
<path d="M208.993 147.874C211.289 147.874 213.15 144.264 213.15 139.812C213.15 135.359 211.289 131.75 208.993 131.75C206.697 131.75 204.836 135.359 204.836 139.812C204.836 144.264 206.697 147.874 208.993 147.874Z" fill="#CBE2EF"/>
<path d="M209.273 146.134C210.92 146.134 212.256 143.301 212.256 139.807C212.256 136.313 210.92 133.48 209.273 133.48C207.626 133.48 206.291 136.313 206.291 139.807C206.291 143.301 207.626 146.134 209.273 146.134Z" stroke="#254F68" stroke-width="1.59" stroke-linecap="round" stroke-linejoin="round"/>
<path d="M209.187 144.499C210.162 144.499 210.953 142.471 210.953 139.97C210.953 137.469 210.162 135.441 209.187 135.441C208.211 135.441 207.42 137.469 207.42 139.97C207.42 142.471 208.211 144.499 209.187 144.499Z" fill="#50BFE3"/>
<path d="M210.957 139.974C210.957 142.471 210.167 144.499 209.191 144.499C208.857 144.499 208.542 144.26 208.277 143.847C207.764 143.054 207.424 141.618 207.424 139.974C207.424 138.119 207.858 136.529 208.479 135.826C208.699 135.581 208.939 135.445 209.191 135.445C210.167 135.445 210.957 137.473 210.957 139.974Z" fill="#50BFE3"/>
<path d="M209.328 139.697C209.328 141.549 208.894 143.142 208.273 143.841C207.76 143.048 207.42 141.612 207.42 139.968C207.42 138.113 207.855 136.523 208.475 135.82C208.988 136.614 209.328 138.053 209.328 139.697Z" fill="#254F68"/>
<path d="M213.405 113.434H203.305C202.526 113.434 201.895 114.065 201.895 114.844V117.291C201.895 118.071 202.526 118.702 203.305 118.702H213.405C214.184 118.702 214.816 118.071 214.816 117.291V114.844C214.816 114.065 214.184 113.434 213.405 113.434Z" stroke="#5CCDF1" stroke-width="0.81" stroke-miterlimit="10"/>
<path opacity="0.62" d="M205.341 114.504H211.365C211.828 114.504 212.206 114.882 212.206 115.345V116.806C212.206 117.269 211.828 117.647 211.365 117.647H205.341C204.878 117.647 204.5 117.269 204.5 116.806V115.345C204.5 114.882 204.878 114.504 205.341 114.504Z" fill="#EFF2FF"/>
<path opacity="0.62" d="M222.513 114.504H228.537C229 114.504 229.378 114.882 229.378 115.345V116.806C229.378 117.269 229 117.647 228.537 117.647H222.513C222.05 117.647 221.672 117.269 221.672 116.806V115.345C221.672 114.882 222.05 114.504 222.513 114.504Z" fill="#EFF2FF"/>
<path opacity="0.62" d="M245.4 114.508H239.376C238.912 114.508 238.535 114.884 238.535 115.349V116.81C238.535 117.274 238.912 117.651 239.376 117.651H245.4C245.865 117.651 246.241 117.274 246.241 116.81V115.349C246.241 114.884 245.865 114.508 245.4 114.508Z" fill="#EFF2FF"/>
<path d="M230.575 113.434H220.475C219.696 113.434 219.064 114.065 219.064 114.844V117.291C219.064 118.071 219.696 118.702 220.475 118.702H230.575C231.354 118.702 231.986 118.071 231.986 117.291V114.844C231.986 114.065 231.354 113.434 230.575 113.434Z" stroke="#5CCDF1" stroke-width="0.81" stroke-miterlimit="10"/>
<path d="M248.338 113.434H238.239C237.46 113.434 236.828 114.065 236.828 114.844V117.291C236.828 118.071 237.46 118.702 238.239 118.702H248.338C249.118 118.702 249.749 118.071 249.749 117.291V114.844C249.749 114.065 249.118 113.434 248.338 113.434Z" stroke="#5CCDF1" stroke-width="0.81" stroke-miterlimit="10"/>
<path d="M255.519 115.478C255.519 115.897 255.179 116.234 254.764 116.234C254.348 116.234 254.008 115.894 254.008 115.478C254.008 115.063 254.348 114.723 254.764 114.723C255.179 114.723 255.519 115.063 255.519 115.478Z" stroke="#5CCDF1" stroke-width="0.6" stroke-miterlimit="10"/>
<path d="M259.871 117.748C259.871 118.167 259.531 118.504 259.115 118.504C258.699 118.504 258.359 118.164 258.359 117.748C258.359 117.332 258.699 116.992 259.115 116.992C259.531 116.992 259.871 117.332 259.871 117.748Z" stroke="#5CCDF1" stroke-width="0.6" stroke-miterlimit="10"/>
<path d="M187.953 102.55L189.276 98.7804C191.553 92.2962 197.237 88.0195 203.576 88.0195H261.393" stroke="#CBE2EF" stroke-width="0.85" stroke-linecap="round" stroke-linejoin="round"/>
<path d="M254.763 43.2072H226.713C225.305 43.2072 224.162 42.064 224.162 40.6563C224.162 39.2486 225.305 38.1055 226.713 38.1055H254.763C256.171 38.1055 257.314 39.2486 257.314 40.6563C257.314 42.064 256.171 43.2072 254.763 43.2072Z" stroke="#CBE2EF" stroke-width="0.81" stroke-miterlimit="10"/>
<path d="M215.603 57.863L189.039 72.6327L221.088 70.3968L255.9 54.1406L215.603 57.863Z" fill="#263C51"/>
<path d="M195.992 54.4401L216.733 60.8172L256.038 53.8984L195.992 54.4401Z" fill="#FEFEFE"/>
<path d="M216.951 62.7663L255.9 54.1406L196.67 83.5731L216.951 62.7663Z" fill="#FEFEFE"/>
<path opacity="0.84" d="M120.809 102.42C120.809 102.42 126.691 77.5195 186.857 73.457C186.857 73.457 154.414 90.9036 153.06 102.285L120.809 102.42Z" fill="#263C51"/>
<path d="M259.299 35.1875H119.455V99.9572H259.299V35.1875Z" stroke="#CBE2EF" stroke-width="0.96" stroke-linecap="round" stroke-linejoin="round"/>
</svg>
