<svg width="251" height="250" viewBox="0 0 251 250" fill="none" xmlns="http://www.w3.org/2000/svg">
<g clip-path="url(#clip0_470_7523)">
<path d="M201.903 197.735C197.548 202.242 193.426 205.148 190.169 207.445C151.893 234.437 106.601 226.569 96.9759 224.648C82.7618 221.81 55.2861 216.326 35.4219 193.366C5.36868 158.631 10.0486 103.906 33.3597 67.7816C37.6236 61.1741 60.1472 24.4987 105.927 18.6172C133.632 15.0577 165.927 22.2365 189.315 41.494C238.407 81.9177 234.912 163.581 201.904 197.734L201.903 197.735Z" fill="#FDFDFD"/>
<path d="M174.836 208.246C174.793 212.476 171.151 215.903 166.701 215.913L59.1186 216.147C54.6364 216.156 50.9154 212.73 50.8087 208.485L45.7957 8.57504C45.6765 3.82152 49.4387 -0.0222661 54.198 9.70892e-05L168.394 0.544865C173.118 0.567228 176.906 4.43069 176.857 9.16364L174.835 208.246H174.836Z" fill="#20B4E3"/>
<path d="M165.138 20.7011C165.17 16.1336 161.414 12.4061 156.747 12.3855L66.1106 11.9884C61.415 11.9678 57.6887 15.6756 57.7891 20.2592L61.5154 190.231C61.6069 194.394 65.2974 197.757 69.7581 197.75L155.867 197.614C160.302 197.606 163.918 194.244 163.948 190.094L165.14 20.702L165.138 20.7011Z" fill="#CBE2EF"/>
<path d="M125.085 5.91909C125.087 6.80557 124.373 7.52029 123.489 7.51582L99.9003 7.40937C99.0145 7.40579 98.2882 6.68302 98.2775 5.79564C98.2667 4.90738 98.9768 4.19086 99.8636 4.19533L123.479 4.30536C124.364 4.30983 125.083 5.03172 125.085 5.91909Z" fill="#263C51"/>
<g opacity="0.59">
<path d="M145.771 141.263L159.359 127.805L158.855 156.199L145.8 141.295L145.771 141.263Z" fill="#91B3FA"/>
<path d="M139.207 147.766L158.412 169.704L158.607 169.928L158.053 187.312C158.009 188.979 157.115 190.584 155.698 191.77C154.449 192.813 152.828 193.453 151.132 193.59L123.996 162.838L139.207 147.766Z" fill="#91B3FA"/>
<path d="M155.312 119.03L139.801 134.457L133.257 140.965L118.044 156.095L93.0332 127.756L93.0368 127.752L108.191 112.427L108.148 112.426L108.065 112.383V112.38L114.67 105.78L114.731 105.787L114.748 105.793L114.758 105.788L114.769 105.78L130.287 90.1014L161.213 58.8984L160.046 110.084L155.312 119.03Z" fill="#91B3FA"/>
<path d="M139.166 193.628L92.8828 193.662L117.552 169.223L139.166 193.628Z" fill="#91B3FA"/>
<path d="M111.605 162.506L80.2683 193.673L77.4053 193.675C75.4982 193.677 73.6485 193.033 72.2605 191.881C70.8681 190.728 70.0504 189.161 69.9912 187.523L68.6875 152.381L86.5993 134.266L111.606 162.506H111.605Z" fill="#91B3FA"/>
<path d="M80.5519 127.426L68.2458 139.935L67.2461 112.414L80.5403 127.426H80.5519Z" fill="#91B3FA"/>
<path d="M130.816 76.3834L105.945 47.5295L132.148 20.4826L153.776 20.3439C158.381 20.3144 161.978 23.9507 161.866 28.4967L161.454 45.2753L130.815 76.3834H130.816Z" fill="#91B3FA"/>
<path d="M82.9023 20.7972L118.883 20.5664L99.7768 40.3695L82.9023 20.7972Z" fill="#91B3FA"/>
<path d="M99.3369 54.3516L124.203 83.0954L108.703 98.8346L102.18 105.459L87.2218 120.87L67.1814 97.8686V97.865L66.5206 88.4411L66.4668 88.3892L99.3369 54.3516Z" fill="#91B3FA"/>
<path d="M70.5257 21.0469L93.1653 47.2217L65.8301 75.5478L64.1095 29.2658C63.9579 25.2449 66.7195 21.852 70.5257 21.0469Z" fill="#91B3FA"/>
</g>
<path d="M110.529 29.2695H71.0847C70.3875 29.2695 69.8223 29.8334 69.8223 30.529V30.5371C69.8223 31.2327 70.3875 31.7966 71.0847 31.7966H110.529C111.226 31.7966 111.791 31.2327 111.791 30.5371V30.529C111.791 29.8334 111.226 29.2695 110.529 29.2695Z" fill="white"/>
<path d="M110.529 36.125H71.0847C70.3875 36.125 69.8223 36.6889 69.8223 37.3845V37.3925C69.8223 38.0881 70.3875 38.652 71.0847 38.652H110.529C111.226 38.652 111.791 38.0881 111.791 37.3925V37.3845C111.791 36.6889 111.226 36.125 110.529 36.125Z" fill="white"/>
<path d="M110.529 42.9844H71.0847C70.3875 42.9844 69.8223 43.5483 69.8223 44.2439V44.2519C69.8223 44.9475 70.3875 45.5114 71.0847 45.5114H110.529C111.226 45.5114 111.791 44.9475 111.791 44.2519V44.2439C111.791 43.5483 111.226 42.9844 110.529 42.9844Z" fill="white"/>
<path d="M138.988 42.7355C137.562 42.7355 136.302 41.9904 135.616 40.7434C132.051 34.2563 127.801 25.7135 127.801 21.8563C127.801 15.702 132.819 10.6953 138.988 10.6953C145.157 10.6953 150.175 15.702 150.175 21.8563C150.175 25.7144 145.925 34.2572 142.36 40.7434C141.674 41.9913 140.414 42.7355 138.988 42.7355ZM138.988 12.4835C133.808 12.4835 129.593 16.6878 129.593 21.8554C129.593 24.5301 132.361 31.1013 137.188 39.8829C137.553 40.5493 138.227 40.9465 138.988 40.9465C139.749 40.9465 140.423 40.5484 140.788 39.8829C145.615 31.1013 148.383 24.531 148.383 21.8554C148.383 16.6878 144.169 12.4835 138.989 12.4835H138.988Z" fill="white"/>
<path d="M138.988 28.8701C135.248 28.8701 132.205 25.8341 132.205 22.103C132.205 18.372 135.248 15.3359 138.988 15.3359C142.728 15.3359 145.771 18.372 145.771 22.103C145.771 25.8341 142.728 28.8701 138.988 28.8701ZM138.988 17.1241C136.236 17.1241 133.997 19.3577 133.997 22.103C133.997 24.8483 136.236 27.082 138.988 27.082C141.74 27.082 143.979 24.8483 143.979 22.103C143.979 19.3577 141.74 17.1241 138.988 17.1241Z" fill="white"/>
<path d="M138.923 54.9554C141.274 54.9554 143.18 53.0538 143.18 50.7082C143.18 48.3625 141.274 46.4609 138.923 46.4609C136.572 46.4609 134.666 48.3625 134.666 50.7082C134.666 53.0538 136.572 54.9554 138.923 54.9554Z" fill="white"/>
<path d="M146.676 196.773C146.388 196.773 146.101 196.656 145.892 196.426L143.861 194.19C143.468 193.758 143.501 193.09 143.934 192.699C144.367 192.307 145.037 192.34 145.43 192.773L147.461 195.008C147.853 195.44 147.82 196.108 147.387 196.499C147.185 196.682 146.93 196.773 146.677 196.773H146.676ZM141.6 191.184C141.311 191.184 141.024 191.067 140.815 190.837L138.784 188.601C138.391 188.169 138.425 187.501 138.858 187.11C139.292 186.718 139.961 186.751 140.353 187.184L142.384 189.419C142.777 189.851 142.744 190.519 142.311 190.91C142.108 191.093 141.853 191.184 141.6 191.184H141.6ZM136.523 185.595C136.234 185.595 135.947 185.478 135.738 185.248L133.708 183.012C133.315 182.58 133.348 181.912 133.781 181.521C134.215 181.129 134.884 181.162 135.277 181.594L137.307 183.83C137.7 184.262 137.667 184.93 137.234 185.321C137.031 185.504 136.777 185.595 136.524 185.595H136.523ZM131.446 180.006C131.158 180.006 130.871 179.889 130.662 179.659L128.631 177.423C128.238 176.991 128.271 176.323 128.704 175.932C129.138 175.54 129.807 175.573 130.2 176.005L132.231 178.241C132.623 178.673 132.59 179.341 132.157 179.732C131.955 179.915 131.7 180.006 131.447 180.006H131.446ZM126.37 174.417C126.081 174.417 125.794 174.3 125.585 174.07L123.554 171.834C123.161 171.402 123.195 170.734 123.628 170.343C124.062 169.951 124.731 169.984 125.123 170.416L127.154 172.652C127.547 173.084 127.514 173.752 127.081 174.143C126.878 174.326 126.623 174.417 126.37 174.417H126.37ZM121.293 168.827C121.004 168.827 120.717 168.71 120.508 168.48L118.478 166.244C118.085 165.812 118.118 165.144 118.551 164.753C118.985 164.361 119.654 164.395 120.047 164.827L122.077 167.062C122.47 167.494 122.437 168.162 122.004 168.553C121.801 168.737 121.547 168.827 121.294 168.827H121.293ZM116.216 163.238C115.928 163.238 115.641 163.121 115.432 162.891L113.401 160.655C113.008 160.223 113.041 159.555 113.474 159.164C113.908 158.772 114.577 158.805 114.97 159.238L117.001 161.473C117.393 161.905 117.36 162.573 116.927 162.964C116.725 163.148 116.47 163.238 116.217 163.238H116.216ZM111.14 157.649C110.851 157.649 110.564 157.532 110.355 157.302L108.324 155.066C107.931 154.634 107.965 153.966 108.398 153.575C108.832 153.183 109.501 153.216 109.893 153.649L111.924 155.884C112.317 156.316 112.284 156.984 111.851 157.375C111.648 157.559 111.393 157.649 111.14 157.649H111.14ZM106.063 152.06C105.774 152.06 105.487 151.943 105.278 151.713L103.248 149.477C102.855 149.045 102.888 148.377 103.321 147.986C103.755 147.594 104.424 147.627 104.817 148.06L106.847 150.295C107.24 150.727 107.207 151.395 106.774 151.786C106.571 151.97 106.317 152.06 106.064 152.06H106.063ZM100.986 146.471C100.698 146.471 100.411 146.354 100.202 146.124L98.1708 143.888C97.7781 143.456 97.8113 142.788 98.2444 142.397C98.6783 142.005 99.3472 142.038 99.7399 142.471L101.771 144.706C102.163 145.138 102.13 145.806 101.697 146.197C101.495 146.381 101.24 146.471 100.987 146.471H100.986ZM95.9096 140.882C95.6209 140.882 95.3339 140.765 95.125 140.535L93.0951 138.299C92.7024 137.867 92.7355 137.199 93.1686 136.808C93.6026 136.416 94.2714 136.449 94.6633 136.882L96.6932 139.117C97.0859 139.549 97.0528 140.217 96.6197 140.608C96.4171 140.791 96.1624 140.882 95.9096 140.882ZM90.8329 135.293C90.5442 135.293 90.2573 135.176 90.0484 134.946L88.8899 133.67C88.5402 133.286 88.239 132.86 87.9942 132.405C87.7171 131.892 87.9108 131.251 88.4255 130.975C88.941 130.699 89.5821 130.892 89.8592 131.405C90.0224 131.708 90.2241 131.993 90.459 132.251L91.6174 133.527C92.0102 133.959 91.977 134.627 91.5439 135.018C91.3413 135.202 91.0866 135.292 90.8338 135.292L90.8329 135.293ZM88.6254 128.581C88.5026 128.581 88.3789 128.56 88.2569 128.515C87.7091 128.312 87.4293 127.705 87.6329 127.157C87.9395 126.335 88.4049 125.595 89.0172 124.959L89.5974 124.356C90.0026 123.935 90.6733 123.922 91.0938 124.327C91.5152 124.731 91.5287 125.399 91.1243 125.82L90.5442 126.422C90.1335 126.848 89.8224 127.342 89.618 127.891C89.4593 128.317 89.0558 128.58 88.6254 128.58V128.581ZM93.503 122.881C93.2394 122.881 92.9749 122.784 92.7696 122.587C92.3482 122.183 92.3347 121.514 92.7391 121.094L94.8345 118.918C95.2398 118.498 95.9096 118.485 96.331 118.889C96.7524 119.293 96.7658 119.962 96.3615 120.382L94.2661 122.557C94.058 122.773 93.781 122.882 93.503 122.882V122.881ZM98.7402 117.442C98.4766 117.442 98.2121 117.344 98.0068 117.147C97.5854 116.743 97.5719 116.075 97.9763 115.654L100.072 113.479C100.477 113.058 101.147 113.045 101.568 113.449C101.99 113.854 102.003 114.522 101.599 114.942L99.5032 117.118C99.2952 117.333 99.0182 117.443 98.7402 117.443V117.442ZM103.977 112.002C103.714 112.002 103.449 111.905 103.244 111.708C102.823 111.303 102.809 110.635 103.213 110.215L105.309 108.039C105.714 107.618 106.385 107.605 106.805 108.01C107.227 108.414 107.24 109.082 106.836 109.503L104.74 111.678C104.532 111.894 104.255 112.003 103.977 112.003V112.002ZM109.215 106.562C108.951 106.562 108.686 106.465 108.481 106.268C108.06 105.864 108.046 105.196 108.451 104.775L110.546 102.6C110.951 102.179 111.622 102.166 112.042 102.57C112.464 102.974 112.477 103.643 112.073 104.063L109.978 106.239C109.77 106.454 109.492 106.563 109.215 106.563V106.562ZM114.452 101.123C114.188 101.123 113.924 101.025 113.718 100.828C113.297 100.424 113.283 99.7559 113.688 99.3355L115.783 97.16C116.188 96.7387 116.858 96.7261 117.28 97.1305C117.701 97.5348 117.714 98.203 117.31 98.6234L115.215 100.799C115.007 101.015 114.73 101.124 114.452 101.124V101.123ZM119.689 95.6831C119.425 95.6831 119.161 95.5856 118.955 95.3888C118.534 94.9845 118.521 94.3163 118.925 93.8959L121.02 91.7204C121.426 91.299 122.095 91.2865 122.517 91.6909C122.938 92.0952 122.952 92.7634 122.547 93.1838L120.452 95.3593C120.244 95.5749 119.967 95.684 119.689 95.684V95.6831ZM124.926 90.2435C124.662 90.2435 124.398 90.146 124.193 89.9492C123.771 89.5449 123.758 88.8767 124.162 88.4562L126.257 86.2807C126.663 85.8594 127.333 85.8469 127.754 86.2512C128.175 86.6556 128.189 87.3238 127.784 87.7442L125.689 89.9197C125.481 90.1353 125.204 90.2444 124.926 90.2444V90.2435ZM130.164 84.8039C129.9 84.8039 129.636 84.7064 129.431 84.5096C129.009 84.1053 128.996 83.437 129.4 83.0166L131.496 80.8411C131.901 80.4207 132.571 80.4073 132.992 80.8116C133.413 81.2159 133.427 81.8841 133.022 82.3046L130.927 84.4801C130.719 84.6956 130.441 84.8048 130.164 84.8048V84.8039ZM135.401 79.3643C135.138 79.3643 134.873 79.2668 134.668 79.07C134.246 78.6656 134.233 77.9974 134.637 77.577L136.733 75.4015C137.138 74.9802 137.808 74.9677 138.229 75.372C138.651 75.7763 138.664 76.4445 138.26 76.8649L136.164 79.0404C135.956 79.256 135.679 79.3651 135.401 79.3651V79.3643ZM140.638 73.9246C140.375 73.9246 140.11 73.8271 139.905 73.6303C139.484 73.226 139.47 72.5578 139.874 72.1374L141.97 69.9619C142.375 69.5405 143.045 69.528 143.466 69.9324C143.888 70.3367 143.901 71.0049 143.497 71.4253L141.401 73.6008C141.193 73.8164 140.916 73.9255 140.638 73.9255V73.9246ZM145.876 68.485C145.612 68.485 145.347 68.3875 145.142 68.1907C144.721 67.7864 144.707 67.1182 145.112 66.6977L146.005 65.7701C146.329 65.4338 146.594 65.0509 146.793 64.6323C147.043 64.1054 147.673 63.88 148.202 64.1295C148.73 64.3791 148.956 65.0089 148.706 65.5357C148.409 66.161 148.015 66.7317 147.532 67.2336L146.639 68.1612C146.431 68.3768 146.154 68.4859 145.876 68.4859V68.485ZM147.837 61.7483C147.426 61.7483 147.035 61.5077 146.864 61.106C146.687 60.6928 146.446 60.3099 146.148 59.9682L145.268 58.9601C144.884 58.52 144.931 57.8535 145.371 57.4707C145.812 57.0869 146.48 57.1343 146.865 57.5736L147.745 58.5826C148.189 59.0916 148.547 59.6623 148.811 60.2786C149.041 60.8153 148.79 61.4352 148.252 61.6642C148.117 61.7215 147.976 61.7492 147.838 61.7492L147.837 61.7483Z" fill="white"/>
<path d="M249.198 133.129C249.178 132.068 248.31 131.195 247.246 131.195H207.033C205.955 131.195 204.896 132.114 204.896 133.19V229.328C204.896 229.845 205.195 230.341 205.563 230.707C205.93 231.072 206.474 231.277 206.993 231.276L249.037 231.161C249.56 231.16 250.073 230.95 250.439 230.576C250.804 230.203 251.011 229.688 251.001 229.166L249.198 133.13V133.129Z" fill="#20B4E3"/>
<g opacity="0.44">
<path d="M219.584 142.521L208.128 142.506L208.037 136.648H219.504L219.584 142.521Z" fill="#BDD0FB"/>
<path d="M232.425 142.518L220.98 142.503L220.902 136.648H232.358L232.425 142.518Z" fill="#BDD0FB"/>
<path d="M245.252 142.516L233.819 142.5L233.754 136.648H245.197L245.252 142.516Z" fill="#BDD0FB"/>
<path d="M219.727 153.036L208.292 153.043L208.201 147.223L219.648 147.219L219.727 153.036Z" fill="#BDD0FB"/>
<path d="M232.545 153.029L221.121 153.036L221.043 147.219L232.478 147.215L232.545 153.029Z" fill="#BDD0FB"/>
<path d="M245.35 153.019L233.937 153.026L233.871 147.211L245.295 147.207L245.35 153.019Z" fill="#BDD0FB"/>
<path d="M219.87 163.477L208.454 163.489L208.363 157.69L219.79 157.68L219.87 163.477Z" fill="#BDD0FB"/>
<path d="M232.666 163.466L221.261 163.477L221.184 157.681L232.598 157.672L232.666 163.466Z" fill="#BDD0FB"/>
<path d="M245.448 163.451L234.056 163.463L233.99 157.669L245.394 157.66L245.448 163.451Z" fill="#BDD0FB"/>
<path d="M220.011 173.886L208.615 173.903L208.525 168.124L219.932 168.109L220.011 173.886Z" fill="#BDD0FB"/>
<path d="M232.784 173.868L221.399 173.884L221.322 168.107L232.717 168.094L232.784 173.868Z" fill="#BDD0FB"/>
<path d="M245.547 173.85L234.173 173.866L234.107 168.092L245.492 168.078L245.547 173.85Z" fill="#BDD0FB"/>
<path d="M220.153 184.257L208.777 184.278L208.688 178.519L220.075 178.5L220.153 184.257Z" fill="#BDD0FB"/>
<path d="M232.906 184.23L221.541 184.252L221.463 178.494L232.839 178.477L232.906 184.23Z" fill="#BDD0FB"/>
<path d="M245.643 184.209L234.29 184.229L234.225 178.476L245.589 178.457L245.643 184.209Z" fill="#BDD0FB"/>
<path d="M220.294 194.589L208.937 194.615L208.848 188.875L220.215 188.852L220.294 194.589Z" fill="#BDD0FB"/>
<path d="M233.024 194.563L221.678 194.588L221.602 188.851L232.957 188.828L233.024 194.563Z" fill="#BDD0FB"/>
<path d="M245.741 194.532L234.406 194.558L234.342 188.824L245.686 188.801L245.741 194.532Z" fill="#BDD0FB"/>
<path d="M220.436 204.889L209.099 204.919L209.01 199.2L220.357 199.172L220.436 204.889Z" fill="#BDD0FB"/>
<path d="M233.143 204.855L221.817 204.885L221.74 199.168L233.077 199.141L233.143 204.855Z" fill="#BDD0FB"/>
<path d="M245.837 204.822L234.524 204.851L234.459 199.137L245.784 199.109L245.837 204.822Z" fill="#BDD0FB"/>
<path d="M220.576 215.154L209.259 215.189L209.17 209.489L220.498 209.457L220.576 215.154Z" fill="#BDD0FB"/>
<path d="M233.262 215.113L221.955 215.147L221.879 209.45L233.196 209.418L233.262 215.113Z" fill="#BDD0FB"/>
<path d="M245.934 215.075L234.639 215.11L234.574 209.415L245.88 209.383L245.934 215.075Z" fill="#BDD0FB"/>
<path d="M220.716 225.382L209.418 225.421L209.33 219.74L220.638 219.703L220.716 225.382Z" fill="#BDD0FB"/>
<path d="M233.379 225.34L222.092 225.378L222.016 219.701L233.313 219.664L233.379 225.34Z" fill="#BDD0FB"/>
<path d="M246.029 225.293L234.754 225.333L234.689 219.658L245.976 219.621L246.029 225.293Z" fill="#BDD0FB"/>
</g>
<path d="M208.712 123.618C208.698 122.873 208.089 122.273 207.341 122.273H162.028C161.271 122.273 160.467 122.892 160.467 123.647V229.152C160.467 229.715 160.787 230.256 161.187 230.654C161.587 231.052 162.177 231.275 162.742 231.274L208.552 231.15C209.122 231.148 209.679 230.918 210.078 230.512C210.477 230.106 210.701 229.555 210.69 228.987L208.711 123.619L208.712 123.618Z" fill="#4D657D"/>
<g opacity="0.71">
<g style="mix-blend-mode:overlay">
<path d="M182.69 129.749L167.867 129.698L167.873 127.848L182.678 127.894L182.69 129.749Z" fill="#BDD0FB"/>
</g>
<g style="mix-blend-mode:overlay">
<path d="M182.732 136.566L167.848 136.498L167.853 134.633L182.72 134.695L182.732 136.566Z" fill="#BDD0FB"/>
</g>
<g style="mix-blend-mode:overlay">
<path d="M182.772 143.435L167.826 143.35L167.832 141.469L182.76 141.549L182.772 143.435Z" fill="#BDD0FB"/>
</g>
<g style="mix-blend-mode:overlay">
<path d="M182.814 150.366L167.807 150.264L167.812 148.367L182.803 148.465L182.814 150.366Z" fill="#BDD0FB"/>
</g>
<g style="mix-blend-mode:overlay">
<path d="M182.855 157.352L167.785 157.232L167.791 155.32L182.843 155.434L182.855 157.352Z" fill="#BDD0FB"/>
</g>
<g style="mix-blend-mode:overlay">
<path d="M182.938 171.502L167.742 171.347L167.748 169.402L182.926 169.552L182.938 171.502Z" fill="#BDD0FB"/>
</g>
<g style="mix-blend-mode:overlay">
<path d="M183.067 193.174L167.678 192.964L167.683 190.969L183.056 191.174L183.067 193.174Z" fill="#BDD0FB"/>
</g>
<g style="mix-blend-mode:overlay">
<path d="M182.897 164.398L167.764 164.261L167.77 162.332L182.885 162.464L182.897 164.398Z" fill="#BDD0FB"/>
</g>
<g style="mix-blend-mode:overlay">
<path d="M182.981 178.665L167.721 178.492L167.727 176.531L182.97 176.699L182.981 178.665Z" fill="#BDD0FB"/>
</g>
<g style="mix-blend-mode:overlay">
<path d="M183.024 185.888L167.699 185.697L167.706 183.719L183.013 183.906L183.024 185.888Z" fill="#BDD0FB"/>
</g>
<g style="mix-blend-mode:overlay">
<path d="M183.112 200.522L167.656 200.292L167.663 198.281L183.101 198.506L183.112 200.522Z" fill="#BDD0FB"/>
</g>
<g style="mix-blend-mode:overlay">
<path d="M183.157 207.935L167.635 207.685L167.641 205.656L183.145 205.9L183.157 207.935Z" fill="#BDD0FB"/>
</g>
<g style="mix-blend-mode:overlay">
<path d="M183.2 215.41L167.611 215.14L167.618 213.094L183.188 213.358L183.2 215.41Z" fill="#BDD0FB"/>
</g>
<g style="mix-blend-mode:overlay">
<path d="M183.247 222.951L167.59 222.661L167.596 220.598L183.234 220.881L183.247 222.951Z" fill="#BDD0FB"/>
</g>
<g style="mix-blend-mode:overlay">
<path d="M202.125 129.818L187.209 129.766L187.193 127.91L202.092 127.958L202.125 129.818Z" fill="#BDD0FB"/>
</g>
<g style="mix-blend-mode:overlay">
<path d="M202.245 136.654L187.268 136.586L187.252 134.715L202.212 134.778L202.245 136.654Z" fill="#BDD0FB"/>
</g>
<g style="mix-blend-mode:overlay">
<path d="M202.367 143.547L187.327 143.461L187.311 141.574L202.333 141.655L202.367 143.547Z" fill="#BDD0FB"/>
</g>
<g style="mix-blend-mode:overlay">
<path d="M202.491 150.498L187.388 150.395L187.371 148.492L202.457 148.59L202.491 150.498Z" fill="#BDD0FB"/>
</g>
<g style="mix-blend-mode:overlay">
<path d="M202.614 157.507L187.448 157.388L187.432 155.469L202.58 155.584L202.614 157.507Z" fill="#BDD0FB"/>
</g>
<g style="mix-blend-mode:overlay">
<path d="M202.865 171.705L187.572 171.549L187.555 169.598L202.83 169.749L202.865 171.705Z" fill="#BDD0FB"/>
</g>
<g style="mix-blend-mode:overlay">
<path d="M203.25 193.451L187.76 193.239L187.742 191.238L203.215 191.445L203.25 193.451Z" fill="#BDD0FB"/>
</g>
<g style="mix-blend-mode:overlay">
<path d="M202.738 164.577L187.509 164.439L187.492 162.504L202.704 162.636L202.738 164.577Z" fill="#BDD0FB"/>
</g>
<g style="mix-blend-mode:overlay">
<path d="M202.993 178.891L187.634 178.717L187.617 176.75L202.958 176.919L202.993 178.891Z" fill="#BDD0FB"/>
</g>
<g style="mix-blend-mode:overlay">
<path d="M203.121 186.142L187.697 185.949L187.68 183.965L203.086 184.153L203.121 186.142Z" fill="#BDD0FB"/>
</g>
<g style="mix-blend-mode:overlay">
<path d="M203.381 200.824L187.824 200.593L187.807 198.574L203.345 198.801L203.381 200.824Z" fill="#BDD0FB"/>
</g>
<g style="mix-blend-mode:overlay">
<path d="M203.514 208.263L187.889 208.012L187.871 205.977L203.477 206.223L203.514 208.263Z" fill="#BDD0FB"/>
</g>
<g style="mix-blend-mode:overlay">
<path d="M203.645 215.765L187.953 215.494L187.936 213.441L203.608 213.707L203.645 215.765Z" fill="#BDD0FB"/>
</g>
<g style="mix-blend-mode:overlay">
<path d="M203.78 223.331L188.02 223.04L188.002 220.969L203.743 221.255L203.78 223.331Z" fill="#BDD0FB"/>
</g>
</g>
<path d="M165.892 137.307C165.884 136.735 165.645 136.19 165.229 135.796C164.812 135.403 164.254 135.193 163.68 135.217L120.115 136.959C119.367 136.989 118.781 137.611 118.799 138.358L121.01 231.275L165.061 230.739C165.626 230.732 166.165 230.501 166.559 230.097C166.953 229.694 167.17 229.15 167.162 228.587L165.892 137.308L165.892 137.307Z" fill="#BDD0FB"/>
<path d="M130.688 151.789L124.25 151.787L123.93 142.504H130.409L130.688 151.789Z" fill="#91B3FA"/>
<path d="M140.718 151.765L134.594 151.762L134.34 142.504H140.502L140.718 151.765Z" fill="#91B3FA"/>
<path d="M150.972 151.739L144.604 151.737L144.414 142.504H150.822L150.972 151.739Z" fill="#91B3FA"/>
<path d="M161.171 151.714L154.838 151.712L154.713 142.504H161.086L161.171 151.714Z" fill="#91B3FA"/>
<path d="M131.14 166.891L124.77 166.932L124.457 157.858L130.867 157.832L131.14 166.891Z" fill="#91B3FA"/>
<path d="M141.068 166.825L135.008 166.864L134.76 157.814L140.859 157.789L141.068 166.825Z" fill="#91B3FA"/>
<path d="M151.216 166.761L144.914 166.802L144.729 157.776L151.069 157.75L151.216 166.761Z" fill="#91B3FA"/>
<path d="M161.309 166.693L155.041 166.735L154.918 157.732L161.225 157.707L161.309 166.693Z" fill="#91B3FA"/>
<path d="M131.585 181.648L125.281 181.713L124.975 172.824L131.318 172.773L131.585 181.648Z" fill="#91B3FA"/>
<path d="M141.411 181.547L135.413 181.609L135.17 172.744L141.205 172.695L141.411 181.547Z" fill="#91B3FA"/>
<path d="M151.455 181.441L145.218 181.507L145.035 172.663L151.312 172.613L151.455 181.441Z" fill="#91B3FA"/>
<path d="M161.445 181.336L155.241 181.401L155.121 172.581L161.363 172.531L161.445 181.336Z" fill="#91B3FA"/>
<path d="M132.023 196.11L125.784 196.199L125.482 187.489L131.761 187.414L132.023 196.11Z" fill="#91B3FA"/>
<path d="M141.748 195.97L135.811 196.055L135.572 187.368L141.546 187.297L141.748 195.97Z" fill="#91B3FA"/>
<path d="M151.688 195.828L145.514 195.915L145.336 187.25L151.548 187.176L151.688 195.828Z" fill="#91B3FA"/>
<path d="M161.58 195.688L155.439 195.776L155.32 187.133L161.5 187.059L161.58 195.688Z" fill="#91B3FA"/>
<path d="M132.45 210.28L126.273 210.391L125.979 201.856L132.193 201.758L132.45 210.28Z" fill="#91B3FA"/>
<path d="M142.076 210.106L136.199 210.213L135.965 201.699L141.878 201.605L142.076 210.106Z" fill="#91B3FA"/>
<path d="M151.918 209.928L145.806 210.039L145.631 201.546L151.78 201.449L151.918 209.928Z" fill="#91B3FA"/>
<path d="M161.709 209.751L155.629 209.861L155.514 201.39L161.63 201.293L161.709 209.751Z" fill="#91B3FA"/>
<path d="M132.869 224.17L126.754 224.303L126.465 215.937L132.617 215.816L132.869 224.17Z" fill="#91B3FA"/>
<path d="M142.399 223.962L136.581 224.089L136.352 215.743L142.206 215.629L142.399 223.962Z" fill="#91B3FA"/>
<path d="M152.143 223.75L146.092 223.882L145.92 215.556L152.008 215.438L152.143 223.75Z" fill="#91B3FA"/>
<path d="M161.838 223.538L155.818 223.669L155.705 215.364L161.761 215.246L161.838 223.538Z" fill="#91B3FA"/>
<path d="M191.542 237.165H8.41367C7.26959 237.165 7.13151 232.527 7.47671 225.898C7.57264 224.045 7.70714 222.02 7.86674 219.906C7.88288 219.695 7.89901 219.475 7.91426 219.262C8.06758 217.307 8.24063 215.269 8.42264 213.199C9.65011 199.492 11.4111 184.19 11.1529 179.952C10.657 171.803 16.1013 167.408 16.1013 167.408C16.1013 167.408 122.012 162.455 133.397 167.395C144.78 172.332 181.402 208.62 188.33 212.571C195.26 216.523 191.542 237.166 191.542 237.166V237.165Z" fill="#20B4E3"/>
<path d="M193.789 224.842C193.384 224.465 192.758 224.272 192.205 224.309L171.658 225.7V238.665C171.658 238.665 181.801 238.819 189.329 238.724C190.924 238.703 192.345 237.575 192.649 236.012C193.005 234.183 193.697 232.347 194.108 231.42C194.296 230.994 194.339 230.53 194.339 230.065V226.301C194.339 225.748 194.195 225.219 193.789 224.842V224.842Z" fill="#CBE2EF"/>
<path d="M7.9152 226.301C6.64199 226.301 5.33203 227.058 5.33203 228.328V234.836C5.33203 236.006 6.3757 236.99 7.5413 237.122L34.3637 240.12V226.302H7.9152V226.301Z" fill="#CBE2EF"/>
<path d="M42.8941 250C51.6075 250 58.6711 242.953 58.6711 234.26C58.6711 225.567 51.6075 218.52 42.8941 218.52C34.1808 218.52 27.1172 225.567 27.1172 234.26C27.1172 242.953 34.1808 250 42.8941 250Z" fill="#263C51"/>
<path d="M51.9553 243.297C56.9589 238.305 56.9589 230.211 51.9553 225.219C46.9516 220.227 38.839 220.227 33.8353 225.219C28.8317 230.211 28.8317 238.305 33.8354 243.297C38.839 248.289 46.9516 248.289 51.9553 243.297Z" fill="#20B4E3"/>
<path opacity="0.7" d="M53.6569 238.968C53.6174 238.968 53.5771 238.959 53.5394 238.943C53.3852 238.879 53.3135 238.702 53.3789 238.548C53.9546 237.19 54.2469 235.747 54.2469 234.26C54.2469 228.185 49.293 223.244 43.205 223.244C41.3158 223.244 39.4526 223.727 37.8154 224.643C37.6692 224.724 37.4845 224.672 37.4038 224.527C37.3223 224.382 37.3743 224.198 37.5195 224.117C39.2473 223.151 41.2127 222.641 43.205 222.641C49.6275 222.641 54.8521 227.853 54.8521 234.261C54.8521 235.829 54.5436 237.351 53.9366 238.783C53.8882 238.899 53.7761 238.968 53.6578 238.968H53.6569Z" fill="white"/>
<path d="M48.3239 236.504C49.5659 233.513 48.142 230.083 45.1436 228.844C42.1451 227.605 38.7076 229.026 37.4656 232.017C36.2236 235.009 37.6475 238.438 40.6459 239.677C43.6444 240.916 47.0819 239.496 48.3239 236.504Z" fill="#CBE2EF"/>
<path d="M161.185 250C169.899 250 176.962 242.953 176.962 234.26C176.962 225.567 169.899 218.52 161.185 218.52C152.472 218.52 145.408 225.567 145.408 234.26C145.408 242.953 152.472 250 161.185 250Z" fill="#263C51"/>
<path d="M170.246 243.297C175.25 238.305 175.25 230.211 170.246 225.219C165.243 220.227 157.13 220.227 152.126 225.219C147.123 230.211 147.123 238.305 152.126 243.297C157.13 248.289 165.243 248.289 170.246 243.297Z" fill="#20B4E3"/>
<path opacity="0.7" d="M171.947 238.968C171.907 238.968 171.867 238.959 171.829 238.943C171.675 238.879 171.603 238.702 171.669 238.548C172.245 237.19 172.536 235.748 172.536 234.26C172.536 228.185 167.582 223.244 161.494 223.244C159.606 223.244 157.742 223.727 156.104 224.643C155.957 224.724 155.774 224.672 155.693 224.527C155.611 224.381 155.663 224.198 155.809 224.117C157.536 223.151 159.503 222.641 161.494 222.641C167.917 222.641 173.141 227.853 173.141 234.261C173.141 235.83 172.833 237.351 172.226 238.783C172.177 238.899 172.065 238.968 171.947 238.968Z" fill="white"/>
<path d="M165.341 238.403C167.636 236.114 167.636 232.402 165.341 230.112C163.046 227.823 159.325 227.823 157.03 230.112C154.735 232.402 154.735 236.114 157.03 238.403C159.325 240.693 163.046 240.693 165.341 238.403Z" fill="#CBE2EF"/>
<path d="M160.25 195.4L136.977 176.445C135.775 175.462 134.27 175.012 132.717 175.012H122.039C118.329 175.012 115.107 177.84 115.107 181.543V193.248C115.107 194.878 116.139 196.412 117.6 197.141L125.88 201.26H158.181C159.56 201.26 160.79 200.353 161.255 199.057C161.719 197.761 161.317 196.272 160.25 195.399V195.4Z" fill="#CBE2EF"/>
<path opacity="0.7" d="M68.2338 233.543C68.067 233.543 67.9316 233.408 67.9316 233.241V176.52C67.9316 176.354 68.067 176.219 68.2338 176.219C68.4006 176.219 68.536 176.354 68.536 176.52V233.241C68.536 233.408 68.4006 233.543 68.2338 233.543Z" fill="white"/>
<path opacity="0.7" d="M110.572 233.543C110.405 233.543 110.27 233.408 110.27 233.241V176.52C110.27 176.354 110.405 176.219 110.572 176.219C110.738 176.219 110.874 176.354 110.874 176.52V233.241C110.874 233.408 110.738 233.543 110.572 233.543Z" fill="white"/>
<path opacity="0.7" d="M109.665 178.029H70.0483C69.8815 178.029 69.7461 177.894 69.7461 177.727C69.7461 177.561 69.8815 177.426 70.0483 177.426H109.665C109.831 177.426 109.967 177.561 109.967 177.727C109.967 177.894 109.831 178.029 109.665 178.029Z" fill="white"/>
<path opacity="0.7" d="M66.7201 178.029H15.6127C15.4459 178.029 15.3105 177.894 15.3105 177.727C15.3105 177.561 15.4459 177.426 15.6127 177.426H66.7201C66.8869 177.426 67.0223 177.561 67.0223 177.727C67.0223 177.894 66.8869 178.029 66.7201 178.029Z" fill="white"/>
<path opacity="0.7" d="M65.2084 213.63H15.6127C15.4459 213.63 15.3105 213.495 15.3105 213.329C15.3105 213.162 15.4459 213.027 15.6127 213.027H65.2084C65.3752 213.027 65.5105 213.162 65.5105 213.329C65.5105 213.495 65.3752 213.63 65.2084 213.63Z" fill="white"/>
<path opacity="0.7" d="M105.732 213.63H71.2572C71.0905 213.63 70.9551 213.495 70.9551 213.329C70.9551 213.162 71.0905 213.027 71.2572 213.027H105.732C105.899 213.027 106.034 213.162 106.034 213.329C106.034 213.495 105.899 213.63 105.732 213.63Z" fill="white"/>
<path opacity="0.7" d="M117.857 234.548C117.711 234.548 117.583 234.442 117.559 234.295L113.599 209.947C113.597 209.93 113.596 209.914 113.596 209.898V197.036C113.596 196.869 113.731 196.734 113.898 196.734C114.065 196.734 114.2 196.869 114.2 197.036V209.874L118.156 234.198C118.183 234.363 118.071 234.517 117.906 234.544C117.89 234.547 117.873 234.548 117.857 234.548Z" fill="white"/>
<path d="M189.095 213.448C189.095 213.448 187.582 215.139 184.832 215.139H183.091C182.555 215.139 182.051 215.158 181.73 215.586C181.409 216.015 181.311 216.452 181.462 216.965L182.789 221.38C183.042 222.233 183.827 222.786 184.719 222.785C187.477 222.778 193.039 222.668 192.916 221.058C192.751 218.918 190.939 212.813 189.095 213.448Z" fill="#4D657D"/>
<path d="M163.493 200.598C163.493 201.038 163.03 201.395 162.435 201.395C161.839 201.395 161.377 201.038 161.377 200.598V197.09C161.377 196.65 161.84 196.293 162.435 196.293C163.031 196.293 163.493 196.65 163.493 197.09V200.598Z" fill="#20B4E3"/>
<path d="M159.286 191.605H159.231C157.576 191.605 156.234 192.944 156.234 194.595V202.193C156.234 203.844 157.576 205.183 159.231 205.183H159.286C160.941 205.183 162.283 203.844 162.283 202.193V194.595C162.283 192.944 160.941 191.605 159.286 191.605Z" fill="#20B4E3"/>
<path opacity="0.7" d="M159.259 213.63H120.247C120.081 213.63 119.945 213.495 119.945 213.329C119.945 213.162 120.081 213.027 120.247 213.027H159.259C159.425 213.027 159.561 213.162 159.561 213.329C159.561 213.495 159.425 213.63 159.259 213.63Z" fill="white"/>
<path d="M104.908 196.434H104.742C103.952 196.434 103.312 197.072 103.312 197.859V204.059C103.312 204.846 103.952 205.484 104.742 205.484H104.908C105.697 205.484 106.337 204.846 106.337 204.059V197.859C106.337 197.072 105.697 196.434 104.908 196.434Z" fill="#20B4E3"/>
<path d="M127.891 204.277H121.677C120.888 204.277 120.248 204.916 120.248 205.703V205.869C120.248 206.656 120.888 207.295 121.677 207.295H127.891C128.68 207.295 129.32 206.656 129.32 205.869V205.703C129.32 204.916 128.68 204.277 127.891 204.277Z" fill="#787878"/>
<path d="M11.0774 214.55V224.596C11.0774 225.345 10.7564 226.302 10.005 226.302H7.92756C7.77065 226.302 7.61733 226.098 7.47656 226.047C7.5725 224.194 7.70699 222.094 7.86659 219.979C7.88273 219.769 7.89887 219.578 7.91411 219.364C8.06744 217.41 8.24048 215.44 8.4225 213.328H10.005C10.7564 213.328 11.0774 213.8 11.0774 214.549V214.55Z" fill="#4D657D"/>
<path d="M11.078 219.363V220.269H7.86719C7.88333 219.967 7.89947 219.363 7.91471 219.363H11.0771H11.078Z" fill="url(#paint0_linear_470_7523)"/>
</g>
<defs>
<linearGradient id="paint0_linear_470_7523" x1="7.86719" y1="219.816" x2="11.078" y2="219.816" gradientUnits="userSpaceOnUse">
<stop stop-color="#FE7062"/>
<stop offset="1" stop-color="#FF928E"/>
</linearGradient>
<clipPath id="clip0_470_7523">
<rect width="251" height="250" fill="white"/>
</clipPath>
</defs>
</svg>
