<svg width="18" height="14" viewBox="0 0 18 14" fill="none" xmlns="http://www.w3.org/2000/svg">
<path d="M10.666 11.1673H14.8327V7.00065H13.166V9.50065H10.666V11.1673ZM3.16602 7.00065H4.83268V4.50065H7.33268V2.83398H3.16602V7.00065ZM2.33268 13.6673C1.87435 13.6673 1.48199 13.5041 1.1556 13.1777C0.82921 12.8513 0.666016 12.459 0.666016 12.0007V2.00065C0.666016 1.54232 0.82921 1.14996 1.1556 0.823568C1.48199 0.497179 1.87435 0.333984 2.33268 0.333984H15.666C16.1243 0.333984 16.5167 0.497179 16.8431 0.823568C17.1695 1.14996 17.3327 1.54232 17.3327 2.00065V12.0007C17.3327 12.459 17.1695 12.8513 16.8431 13.1777C16.5167 13.5041 16.1243 13.6673 15.666 13.6673H2.33268ZM2.33268 12.0007H15.666V2.00065H2.33268V12.0007Z" fill="#20B4E3"/>
</svg>
