<svg width="64" height="77" viewBox="0 0 64 77" fill="none" xmlns="http://www.w3.org/2000/svg">
<path d="M47.0346 25.3336C47.0375 25.3144 47.0475 25.2986 47.0492 25.279C47.1166 24.5357 47.1472 23.835 47.1408 23.1963C48.6087 16.4525 49.5001 8.72058 43.1974 7.28434C43.0752 5.76115 42.1897 4.36086 40.6428 3.27647C37.3144 0.94572 30.9438 0.239267 26.4538 3.16849C26.4138 3.19491 26.3759 3.22477 26.3401 3.25694L22.6273 6.75133C16.3375 8.73439 16.5698 15.7844 18.2637 22.6737V25.1813C18.2637 31.4427 21.7122 37.1082 26.0968 40.3784V47.1539H13.0345C6.3691 47.1539 0.947266 53.0687 0.947266 60.34V75.0436C0.947266 75.5307 1.3095 75.9258 1.75596 75.9258C20.6197 75.9258 43.7341 75.9258 62.6451 75.9258C63.0915 75.9258 63.4538 75.5307 63.4538 75.0436V60.34C63.4538 52.9789 58.0016 47.1539 51.3886 47.1539C47.1159 47.1539 43.981 47.1539 39.1918 47.1539V40.372C43.5061 37.1604 46.9847 31.5538 47.0346 25.3336ZM27.7142 41.5884C29.4401 42.7611 32.0593 44.0241 32.1684 44.0616C32.6833 44.3051 32.8876 44.1776 33.134 44.0651C33.2426 44.0277 36.1436 42.5727 37.5744 41.5965V47.6666L32.2463 53.3593L27.7142 47.7096L27.7142 41.5884ZM23.2285 8.40089C23.3464 8.36643 23.4549 8.30325 23.5476 8.2171L27.3425 4.64459C31.1754 2.18635 36.8489 2.71475 39.7689 4.76176C40.6776 5.39816 41.7295 6.46531 41.581 7.93452C41.5326 8.41239 41.8443 8.84545 42.2834 8.90633C46.6187 9.50431 46.9873 13.5491 46.369 18.3361C45.0729 14.6218 42.1797 12.5479 38.6243 12.3835C38.2968 12.3341 37.9956 12.5684 37.8566 12.8912C36.1645 16.8405 33.6173 18.9243 30.0898 19.2356C30.2393 18.3109 30.194 17.4171 29.5706 16.9404C28.7304 16.2983 27.5763 16.9944 26.6149 17.7514C22.9579 18.0087 20.7898 19.6215 20.1727 22.5427C20.1538 22.63 20.1359 22.7196 20.119 22.8092L19.8273 22.2349C18.3255 16.1383 17.8712 9.97108 23.2285 8.40089ZM19.9032 26.0176L20.199 26.5977C20.6145 27.413 21.8333 27.037 21.7069 26.0475C21.5511 24.8287 21.5648 23.7868 21.7469 22.9448C22.0386 21.5675 22.8937 19.7123 26.9403 19.4986C27.1014 19.4906 27.2572 19.4297 27.3857 19.324C27.9617 18.853 28.3281 18.6359 28.5429 18.536C28.5282 18.7807 28.4671 19.2034 28.2723 19.9007C28.1986 20.1672 28.2439 20.4567 28.3945 20.6807C28.5461 20.9047 28.7851 21.0379 29.041 21.0402C33.5278 21.0436 36.9395 18.7692 39.077 14.1858C42.951 14.6097 45.3192 17.7124 45.5013 22.6197C45.3699 22.9249 45.449 23.001 45.4255 25.1928C45.4255 33.3817 38.763 39.8678 32.6528 42.3764C26.5902 40.0043 20.3133 33.7273 19.9032 26.0176ZM10.5326 63.9746C10.0862 63.9746 9.72393 64.3698 9.72393 64.8568V74.1614H2.56466V60.3401C2.56466 54.0417 7.26099 48.9184 13.0345 48.9184H26.5349L31.5924 55.2237C31.7388 55.4063 31.9473 55.5143 32.1694 55.5235C32.4022 55.5499 32.6085 55.4431 32.7665 55.2731L38.7138 48.9184H47.4841L24.3447 74.1614H11.3413V64.8568C11.3413 64.3698 10.9791 63.9746 10.5326 63.9746ZM61.8363 60.3401V74.1614H54.6771V64.8568C54.6771 64.3698 54.3148 63.9746 53.8684 63.9746C53.4219 63.9746 53.0597 64.3698 53.0597 64.8568V74.1614H34.8277L56.5727 50.4492C59.8247 52.4849 61.8363 56.2066 61.8363 60.3401ZM51.3886 48.9184C52.5704 48.9184 53.9262 49.1873 55.0306 49.6355L32.5401 74.1614H26.6318L49.7712 48.9184L51.3886 48.9184Z" fill="url(#paint0_linear_10_366)" stroke="url(#paint1_linear_10_366)" stroke-width="0.5"/>
<defs>
<linearGradient id="paint0_linear_10_366" x1="32.2005" y1="1.23828" x2="32.2005" y2="75.9258" gradientUnits="userSpaceOnUse">
<stop stop-color="#ABDAE9"/>
<stop offset="1" stop-color="#7DE0FF"/>
</linearGradient>
<linearGradient id="paint1_linear_10_366" x1="32.2005" y1="1.23828" x2="32.2005" y2="75.9258" gradientUnits="userSpaceOnUse">
<stop stop-color="#ABDAE9"/>
<stop offset="1" stop-color="#7DE0FF"/>
</linearGradient>
</defs>
</svg>
