<svg width="64" height="77" viewBox="0 0 64 77" fill="none" xmlns="http://www.w3.org/2000/svg">
<path d="M47.0874 25.3336C47.0903 25.3144 47.1003 25.2986 47.102 25.279C47.1694 24.5357 47.1999 23.835 47.1936 23.1963C48.6615 16.4525 49.5528 8.72058 43.2501 7.28434C43.128 5.76115 42.2424 4.36086 40.6956 3.27647C37.3671 0.94572 30.9965 0.239267 26.5065 3.16849C26.4665 3.19491 26.4286 3.22477 26.3928 3.25694L22.68 6.75133C16.3902 8.73439 16.6226 15.7844 18.3164 22.6737V25.1813C18.3164 31.4427 21.765 37.1082 26.1496 40.3784V47.1539H13.0873C6.42184 47.1539 1 53.0687 1 60.34V75.0436C1 75.5307 1.36223 75.9258 1.8087 75.9258C20.6725 75.9258 43.7868 75.9258 62.6978 75.9258C63.1443 75.9258 63.5065 75.5307 63.5065 75.0436V60.34C63.5065 52.9789 58.0543 47.1539 51.4413 47.1539C47.1686 47.1539 44.0338 47.1539 39.2446 47.1539V40.372C43.5588 37.1604 47.0374 31.5538 47.0874 25.3336ZM27.767 41.5884C29.4928 42.7611 32.112 44.0241 32.2211 44.0616C32.736 44.3051 32.9403 44.1776 33.1867 44.0651C33.2954 44.0277 36.1963 42.5727 37.6272 41.5965V47.6666L32.299 53.3593L27.767 47.7096L27.767 41.5884ZM23.2812 8.40089C23.3992 8.36643 23.5076 8.30325 23.6003 8.2171L27.3953 4.64459C31.2282 2.18635 36.9017 2.71475 39.8216 4.76176C40.7303 5.39816 41.7823 6.46531 41.6338 7.93452C41.5853 8.41239 41.897 8.84545 42.3361 8.90633C46.6715 9.50431 47.04 13.5491 46.4217 18.3361C45.1257 14.6218 42.2324 12.5479 38.677 12.3835C38.3495 12.3341 38.0484 12.5684 37.9094 12.8912C36.2172 16.8405 33.67 18.9243 30.1425 19.2356C30.292 18.3109 30.2468 17.4171 29.6234 16.9404C28.7831 16.2983 27.629 16.9944 26.6676 17.7514C23.0106 18.0087 20.8425 19.6215 20.2255 22.5427C20.2065 22.63 20.1886 22.7196 20.1718 22.8092L19.8801 22.2349C18.3782 16.1383 17.9239 9.97108 23.2812 8.40089ZM19.9559 26.0176L20.2518 26.5977C20.6672 27.413 21.8861 27.037 21.7597 26.0475C21.6038 24.8287 21.6175 23.7868 21.7997 22.9448C22.0914 21.5675 22.9464 19.7123 26.993 19.4986C27.1541 19.4906 27.31 19.4297 27.4384 19.324C28.0144 18.853 28.3809 18.6359 28.5957 18.536C28.5809 18.7807 28.5199 19.2034 28.3251 19.9007C28.2513 20.1672 28.2966 20.4567 28.4472 20.6807C28.5988 20.9047 28.8379 21.0379 29.0937 21.0402C33.5805 21.0436 36.9922 18.7692 39.1298 14.1858C43.0037 14.6097 45.3719 17.7124 45.5541 22.6197C45.4226 22.9249 45.5017 23.001 45.4783 25.1928C45.4783 33.3817 38.8157 39.8678 32.7055 42.3764C26.6429 40.0043 20.366 33.7273 19.9559 26.0176ZM10.5854 63.9746C10.1389 63.9746 9.77667 64.3698 9.77667 64.8568V74.1614H2.61739V60.3401C2.61739 54.0417 7.31372 48.9184 13.0873 48.9184H26.5876L31.6451 55.2237C31.7915 55.4063 32 55.5143 32.2222 55.5235C32.4549 55.5499 32.6613 55.4431 32.8192 55.2731L38.7665 48.9184H47.5369L24.3974 74.1614H11.3941V64.8568C11.3941 64.3698 11.0318 63.9746 10.5854 63.9746ZM61.8891 60.3401V74.1614H54.7298V64.8568C54.7298 64.3698 54.3676 63.9746 53.9211 63.9746C53.4747 63.9746 53.1124 64.3698 53.1124 64.8568V74.1614H34.8804L56.6254 50.4492C59.8775 52.4849 61.8891 56.2066 61.8891 60.3401ZM51.4413 48.9184C52.6232 48.9184 53.9789 49.1873 55.0833 49.6355L32.5928 74.1614H26.6845L49.8239 48.9184L51.4413 48.9184Z" fill="#263C51" stroke="#263C51" stroke-width="0.5"/>
</svg>
