<svg width="18" height="19" viewBox="0 0 18 19" fill="none" xmlns="http://www.w3.org/2000/svg">
<path d="M8 2.33268L3.0625 5.18685L8 8.04102L12.9375 5.18685L8 2.33268ZM0.5 12.3118V5.68685C0.5 5.38129 0.572917 5.10352 0.71875 4.85352C0.864583 4.60352 1.06944 4.40213 1.33333 4.24935L7.16667 0.895182C7.30556 0.825738 7.44097 0.770182 7.57292 0.728516C7.70486 0.686849 7.84722 0.666016 8 0.666016C8.15278 0.666016 8.29861 0.686849 8.4375 0.728516C8.57639 0.770182 8.70833 0.825738 8.83333 0.895182L14.6667 4.24935C14.9306 4.40213 15.1354 4.60352 15.2813 4.85352C15.4271 5.10352 15.5 5.38129 15.5 5.68685V8.99935H13.8333V6.58268L7.97917 9.95768L2.16667 6.58268V12.291L7.16667 15.1869V17.1035L1.33333 13.7493C1.06944 13.5966 0.864583 13.3952 0.71875 13.1452C0.572917 12.8952 0.5 12.6174 0.5 12.3118ZM13 17.3327C13.1111 17.3327 13.2083 17.291 13.2917 17.2077C13.375 17.1243 13.4167 17.0271 13.4167 16.916C13.4167 16.8049 13.375 16.7077 13.2917 16.6243C13.2083 16.541 13.1111 16.4993 13 16.4993C12.8889 16.4993 12.7917 16.541 12.7083 16.6243C12.625 16.7077 12.5833 16.8049 12.5833 16.916C12.5833 17.0271 12.625 17.1243 12.7083 17.2077C12.7917 17.291 12.8889 17.3327 13 17.3327ZM12.5833 15.666H13.4167V12.3327H12.5833V15.666ZM13 18.9993C11.8472 18.9993 10.8646 18.5931 10.0521 17.7806C9.23958 16.9681 8.83333 15.9855 8.83333 14.8327C8.83333 13.6799 9.23958 12.6973 10.0521 11.8848C10.8646 11.0723 11.8472 10.666 13 10.666C14.1528 10.666 15.1354 11.0723 15.9479 11.8848C16.7604 12.6973 17.1667 13.6799 17.1667 14.8327C17.1667 15.9855 16.7604 16.9681 15.9479 17.7806C15.1354 18.5931 14.1528 18.9993 13 18.9993Z" fill="#20B4E3"/>
</svg>
