<svg width="27" height="26" viewBox="0 0 27 26" fill="none" xmlns="http://www.w3.org/2000/svg">
<path d="M18.498 11.2641V7.52148" stroke="#263C51" stroke-width="1.74182" stroke-miterlimit="10" stroke-linecap="round" stroke-linejoin="round"/>
<path d="M20.3594 8.5508L18.499 6.58594L16.6387 8.5508" stroke="#263C51" stroke-width="1.74182" stroke-miterlimit="10" stroke-linecap="round" stroke-linejoin="round"/>
<path d="M1.75586 19.6844L4.17433 15.7547C5.56959 13.6027 7.89504 12.1992 10.4995 12.1992H16.6387C16.6387 14.2577 14.9644 15.9418 12.918 15.9418H11.0577" stroke="#263C51" stroke-width="1.74182" stroke-miterlimit="10" stroke-linecap="round" stroke-linejoin="round"/>
<path d="M12.9185 15.9418H20.3599L21.4761 14.4448C22.4993 13.0413 24.1737 12.1992 25.941 12.1992L23.4295 16.6903C22.1273 19.123 19.5228 20.6201 16.8252 20.6201C12.4534 20.6201 8.17457 21.93 4.54688 24.3627" stroke="#263C51" stroke-width="1.74182" stroke-miterlimit="10" stroke-linecap="round" stroke-linejoin="round"/>
<path d="M23.1504 12.949V1.90831C23.1504 1.34692 22.7784 0.972656 22.2203 0.972656H17.5694V3.77961H13.8487V0.972656H9.19776C8.63965 0.972656 8.26758 1.34692 8.26758 1.90831V12.2005" stroke="#263C51" stroke-width="1.74182" stroke-miterlimit="10" stroke-linecap="round" stroke-linejoin="round"/>
<path d="M13.8477 0.972656H17.5684" stroke="#263C51" stroke-width="1.74182" stroke-miterlimit="10" stroke-linecap="round" stroke-linejoin="round"/>
</svg>
