<svg width="34" height="34" viewBox="0 0 34 34" fill="none" xmlns="http://www.w3.org/2000/svg">
<rect x="33" y="33" width="32" height="32" rx="16" transform="rotate(-180 33 33)" fill="#F9FAF9"/>
<rect x="33.25" y="33.25" width="32.5" height="32.5" rx="16.25" transform="rotate(-180 33.25 33.25)" stroke="#1D1D1D" stroke-opacity="0.05" stroke-width="0.5"/>
<path d="M17.2278 24.5178C13.0816 24.5178 9.71002 21.1462 9.71002 17C9.71002 12.8538 13.0816 9.48218 17.2278 9.48218C21.374 9.48218 24.7456 12.8538 24.7456 17C24.7456 21.1462 21.374 24.5178 17.2278 24.5178ZM17.2278 10.8491C13.838 10.8491 11.0769 13.6101 11.0769 17C11.0769 20.3898 13.838 23.1509 17.2278 23.1509C20.6177 23.1509 23.3787 20.3898 23.3787 17C23.3787 13.6101 20.6177 10.8491 17.2278 10.8491Z" fill="#1D1D1D"/>
<path d="M17 20.4885C15.1137 20.4885 13.5828 18.9257 13.5828 17.0001C13.5828 15.0745 15.1137 13.5117 17 13.5117C18.8863 13.5117 20.4172 15.0745 20.4172 17.0001C20.4172 18.9257 18.8863 20.4885 17 20.4885ZM17 14.9071C15.8701 14.9071 14.9497 15.8466 14.9497 17.0001C14.9497 18.1536 15.8701 19.0931 17 19.0931C18.13 19.0931 19.0503 18.1536 19.0503 17.0001C19.0503 15.8466 18.13 14.9071 17 14.9071Z" fill="#1D1D1D"/>
<path d="M17 10.2558C16.6264 10.2558 16.3166 9.93953 16.3166 9.55814V7.69767C16.3166 7.31628 16.6264 7 17 7C17.3736 7 17.6835 7.31628 17.6835 7.69767V9.55814C17.6835 9.93953 17.3736 10.2558 17 10.2558Z" fill="#1D1D1D"/>
<path d="M9.71003 17.6978H7.88754C7.51393 17.6978 7.2041 17.3816 7.2041 17.0002C7.2041 16.6188 7.51393 16.3025 7.88754 16.3025H9.71003C10.0836 16.3025 10.3935 16.6188 10.3935 17.0002C10.3935 17.3816 10.0836 17.6978 9.71003 17.6978Z" fill="#1D1D1D"/>
<path d="M17 27.0001C16.6264 27.0001 16.3166 26.6838 16.3166 26.3024V24.4419C16.3166 24.0605 16.6264 23.7443 17 23.7443C17.3736 23.7443 17.6835 24.0605 17.6835 24.4419V26.3024C17.6835 26.6838 17.3736 27.0001 17 27.0001Z" fill="#1D1D1D"/>
<path d="M26.1125 17.6978H24.29C23.9164 17.6978 23.6066 17.3816 23.6066 17.0002C23.6066 16.6188 23.9164 16.3025 24.29 16.3025H26.1125C26.4861 16.3025 26.7959 16.6188 26.7959 17.0002C26.7959 17.3816 26.4861 17.6978 26.1125 17.6978Z" fill="#1D1D1D"/>
</svg>
