<svg width="165" height="175" viewBox="0 0 165 175" fill="none" xmlns="http://www.w3.org/2000/svg">
<g clip-path="url(#clip0_266_2931)">
<path opacity="0.81" d="M82.17 164.34C127.551 164.34 164.34 127.551 164.34 82.17C164.34 36.7888 127.551 0 82.17 0C36.7888 0 0 36.7888 0 82.17C0 127.551 36.7888 164.34 82.17 164.34Z" fill="#AEF4B5"/>
<path d="M54.7947 48.2916C54.7947 41.559 49.3363 36.1006 42.6037 36.1006C35.8711 36.1006 30.4127 41.559 30.4127 48.2916V83.8631L20.0254 96.0384L54.501 95.9335L54.7947 83.8684V48.2968V48.2916Z" fill="#3B4DB3"/>
<path d="M109.226 36.1009V16.632C109.226 15.8927 108.628 15.2949 107.889 15.2949H11.3624C10.6284 15.2949 10.0306 15.8874 10.0254 16.6268C9.98342 24.6073 9.75271 65.9676 9.93099 85.6043C9.93623 86.3751 10.0306 87.1459 10.2036 87.8957C10.3714 88.6298 10.6231 89.3376 10.943 90.0193C11.2628 90.6852 11.6508 91.3196 12.0965 91.9069C12.5422 92.4889 13.0508 93.0238 13.6119 93.5009C14.1729 93.9781 14.7812 94.4028 15.4314 94.7541C16.0868 95.1107 16.7789 95.399 17.4973 95.6088C18.3467 95.8552 19.2276 96.0073 20.1085 96.0387C20.9317 96.0702 21.755 96.002 22.5624 95.8395C23.286 95.6927 23.9992 95.4672 24.6756 95.1736C25.3415 94.8852 25.9759 94.5234 26.5684 94.0987C27.1557 93.6792 27.701 93.202 28.1939 92.6725C28.6868 92.1429 29.122 91.5608 29.4943 90.9421C29.8718 90.3181 30.1812 89.6522 30.4224 88.9601C30.6688 88.2522 30.8366 87.5234 30.9257 86.7788C30.9782 86.3593 30.9991 85.9346 30.9991 85.5151V48.5908C30.9991 41.9788 36.1377 36.3526 42.7445 36.1166C49.6815 35.8702 55.3812 41.4178 55.3812 48.2972" fill="url(#paint0_linear_266_2931)"/>
<g style="mix-blend-mode:multiply" opacity="0.12">
<path d="M48.7585 83.8583L49.0522 48.2867C49.0522 41.5541 50.3263 36.0957 43.5938 36.0957H124.128C133.325 36.0957 140.776 43.5519 140.776 52.7436V103.658C140.776 128.338 136.214 151.247 157.733 175H64.4364C48.575 162.861 48.7638 144.027 48.7638 124.055V83.8583H48.7585Z" fill="#5B5B5B"/>
</g>
<path d="M146.517 103.662V52.7485C146.517 43.5515 139.061 36.1006 129.869 36.1006H42.6025C49.3351 36.1006 54.7936 41.559 54.7936 48.2916L54.4999 83.8631V124.059C54.4999 144.032 54.3112 162.866 70.1726 175.005H163.469C141.95 151.252 146.512 128.343 146.512 103.662H146.517Z" fill="url(#paint1_linear_266_2931)"/>
<path d="M73.0223 65.1225L70.7206 69.5317V72.2119H69.7896V69.5317L67.4777 65.1225H68.5007L70.25 68.6723L71.9891 65.1225H73.0223ZM77.1886 65.0509C77.8502 65.0509 78.4537 65.2044 78.9993 65.5113C79.5517 65.8182 79.9882 66.2478 80.3088 66.8003C80.6293 67.3459 80.7896 67.9665 80.7896 68.6621C80.7896 69.3509 80.6293 69.9716 80.3088 70.524C79.9882 71.0764 79.5517 71.5095 78.9993 71.8232C78.4537 72.1301 77.8502 72.2835 77.1886 72.2835C76.5271 72.2835 75.9201 72.1301 75.3677 71.8232C74.8153 71.5095 74.3788 71.0764 74.0583 70.524C73.7377 69.9716 73.5774 69.3509 73.5774 68.6621C73.5774 67.9665 73.7377 67.3459 74.0583 66.8003C74.3788 66.2478 74.8153 65.8182 75.3677 65.5113C75.9201 65.2044 76.5271 65.0509 77.1886 65.0509ZM77.1886 65.8796C76.6839 65.8796 76.227 65.9955 75.8178 66.2274C75.4154 66.4524 75.0983 66.7764 74.8664 67.1992C74.6345 67.6221 74.5186 68.1097 74.5186 68.6621C74.5186 69.2145 74.6345 69.7022 74.8664 70.125C75.0983 70.5478 75.4154 70.8752 75.8178 71.1071C76.227 71.339 76.6839 71.4549 77.1886 71.4549C77.6933 71.4549 78.1468 71.339 78.5492 71.1071C78.9516 70.8752 79.2653 70.5478 79.4904 70.125C79.7222 69.7022 79.8382 69.2145 79.8382 68.6621C79.8382 68.1097 79.7222 67.6221 79.4904 67.1992C79.2653 66.7764 78.9516 66.4524 78.5492 66.2274C78.1468 65.9955 77.6933 65.8796 77.1886 65.8796ZM82.8788 65.1225V69.726C82.8788 70.3126 83.0322 70.7524 83.3391 71.0457C83.6529 71.3321 84.0825 71.4754 84.6281 71.4754C85.1737 71.4754 85.6034 71.3321 85.9171 71.0457C86.2308 70.7524 86.3877 70.3126 86.3877 69.726V65.1225H87.3186V69.726C87.3186 70.2853 87.1993 70.7593 86.9606 71.148C86.7219 71.5299 86.3979 71.8164 85.9887 72.0073C85.5795 72.1915 85.126 72.2835 84.6281 72.2835C84.1234 72.2835 83.6665 72.1915 83.2573 72.0073C82.8549 71.8164 82.5344 71.5299 82.2957 71.148C82.057 70.7593 81.9376 70.2853 81.9376 69.726V65.1225H82.8788ZM92.5344 72.2119L90.6725 69.2861H89.762V72.2119H88.8311V65.1225H91.1329C91.6648 65.1225 92.1149 65.2146 92.4832 65.3988C92.8515 65.5761 93.1277 65.825 93.3118 66.1455C93.496 66.4593 93.588 66.8139 93.588 67.2095C93.588 67.721 93.4346 68.1643 93.1277 68.5394C92.8208 68.9145 92.3605 69.1497 91.7467 69.2452L93.7006 72.2119H92.5344ZM89.762 68.5496H91.1329C91.6444 68.5496 92.0229 68.4336 92.2684 68.2018C92.5207 67.9631 92.6469 67.6323 92.6469 67.2095C92.6469 66.7866 92.5241 66.4593 92.2786 66.2274C92.0331 65.9887 91.6512 65.8693 91.1329 65.8693H89.762V68.5496ZM99.1428 65.1225V72.2119H98.2119V65.1225H99.1428ZM106.286 72.2119H105.355L101.61 66.5854V72.2119H100.679V65.1225H101.61L105.355 70.749V65.1225H106.286V72.2119ZM108.293 65.1225L110.523 71.2196L112.774 65.1225H113.766L111.035 72.2119H110.032L107.301 65.1225H108.293ZM118.019 65.0509C118.68 65.0509 119.284 65.2044 119.829 65.5113C120.382 65.8182 120.818 66.2478 121.139 66.8003C121.459 67.3459 121.62 67.9665 121.62 68.6621C121.62 69.3509 121.459 69.9716 121.139 70.524C120.818 71.0764 120.382 71.5095 119.829 71.8232C119.284 72.1301 118.68 72.2835 118.019 72.2835C117.357 72.2835 116.75 72.1301 116.198 71.8232C115.645 71.5095 115.209 71.0764 114.888 70.524C114.568 69.9716 114.407 69.3509 114.407 68.6621C114.407 67.9665 114.568 67.3459 114.888 66.8003C115.209 66.2478 115.645 65.8182 116.198 65.5113C116.75 65.2044 117.357 65.0509 118.019 65.0509ZM118.019 65.8796C117.514 65.8796 117.057 65.9955 116.648 66.2274C116.245 66.4524 115.928 66.7764 115.696 67.1992C115.464 67.6221 115.349 68.1097 115.349 68.6621C115.349 69.2145 115.464 69.7022 115.696 70.125C115.928 70.5478 116.245 70.8752 116.648 71.1071C117.057 71.339 117.514 71.4549 118.019 71.4549C118.523 71.4549 118.977 71.339 119.379 71.1071C119.782 70.8752 120.095 70.5478 120.32 70.125C120.552 69.7022 120.668 69.2145 120.668 68.6621C120.668 68.1097 120.552 67.6221 120.32 67.1992C120.095 66.7764 119.782 66.4524 119.379 66.2274C118.977 65.9955 118.523 65.8796 118.019 65.8796ZM123.709 65.1225V72.2119H122.778V65.1225H123.709ZM128.488 65.0509C129.225 65.0509 129.88 65.2248 130.452 65.5727C131.032 65.9205 131.458 66.4218 131.731 67.0765H130.606C130.401 66.6877 130.115 66.3911 129.747 66.1865C129.378 65.9819 128.959 65.8796 128.488 65.8796C127.984 65.8796 127.527 65.9955 127.117 66.2274C126.715 66.4524 126.398 66.7764 126.166 67.1992C125.941 67.6221 125.828 68.1097 125.828 68.6621C125.828 69.2145 125.941 69.7022 126.166 70.125C126.398 70.5478 126.715 70.8752 127.117 71.1071C127.527 71.339 127.984 71.4549 128.488 71.4549C128.959 71.4549 129.378 71.3526 129.747 71.148C130.115 70.9366 130.401 70.6365 130.606 70.2478H131.731C131.458 70.9025 131.032 71.4037 130.452 71.7516C129.88 72.0994 129.225 72.2733 128.488 72.2733C127.827 72.2733 127.22 72.1198 126.667 71.8129C126.115 71.4992 125.678 71.0696 125.358 70.524C125.037 69.9716 124.877 69.3509 124.877 68.6621C124.877 67.9665 125.037 67.3459 125.358 66.8003C125.678 66.2478 126.115 65.8182 126.667 65.5113C127.22 65.2044 127.827 65.0509 128.488 65.0509ZM134.129 65.8591V68.2734H136.645V68.9997H134.129V71.4754H136.952V72.2119H133.198V65.1225H136.952V65.8591H134.129Z" fill="#3B4DB3"/>
<path d="M70.1523 138.312H73.2984" stroke="#3B4DB3" stroke-width="1.04869" stroke-miterlimit="10"/>
<path d="M79.0869 138.312H134.049" stroke="#3B4DB3" stroke-width="1.04869" stroke-miterlimit="10"/>
<path d="M136.943 138.312H140.089" stroke="#3B4DB3" stroke-width="1.04869" stroke-miterlimit="10"/>
<path d="M70.2217 83.5659V88.7803H69.537V83.5659H70.2217ZM74.5573 83.5659V84.1152H73.1804V88.7803H72.4956V84.1152H71.1187V83.5659H74.5573ZM76.1442 84.1077V85.8834H77.9952V86.4176H76.1442V88.2385H78.2209V88.7803H75.4595V83.5659H78.2209V84.1077H76.1442ZM84.5781 83.5659V88.7803H83.8859V84.9805L82.1402 88.7803H81.6963L79.9431 84.9805V88.7803H79.2584V83.5659H79.9581L81.922 87.8397L83.8783 83.5659H84.5781ZM87.7927 84.0475V83.438H89.0794V88.7803H88.4097V84.0475H87.7927Z" fill="#858CE8"/>
<path d="M117.607 87.3206C117.607 87.5613 117.547 87.7921 117.426 88.0128C117.306 88.2335 117.128 88.4191 116.892 88.5696C116.661 88.7151 116.38 88.8003 116.049 88.8254V89.4349H115.628V88.8254C115.177 88.7903 114.808 88.6549 114.522 88.4191C114.236 88.1783 114.093 87.8648 114.093 87.4786H114.823C114.838 87.6842 114.911 87.8573 115.041 87.9977C115.177 88.1382 115.372 88.2235 115.628 88.2536V86.4101C115.302 86.3349 115.036 86.2546 114.83 86.1693C114.625 86.079 114.449 85.9411 114.304 85.7555C114.163 85.5649 114.093 85.3065 114.093 84.9805C114.093 84.5742 114.231 84.2381 114.507 83.9722C114.783 83.7064 115.157 83.5559 115.628 83.5208V82.9113H116.049V83.5208C116.471 83.5559 116.812 83.6888 117.073 83.9195C117.334 84.1453 117.487 84.4488 117.532 84.83H116.779C116.764 84.6645 116.691 84.514 116.561 84.3785C116.436 84.2431 116.265 84.1528 116.049 84.1077V85.9135C116.375 85.9837 116.644 86.0615 116.854 86.1468C117.065 86.232 117.243 86.37 117.389 86.5606C117.534 86.7462 117.607 86.9995 117.607 87.3206ZM114.763 84.9579C114.763 85.1987 114.835 85.3818 114.981 85.5072C115.131 85.6276 115.347 85.7279 115.628 85.8082V84.0926C115.367 84.1177 115.157 84.203 114.996 84.3484C114.84 84.4939 114.763 84.6971 114.763 84.9579ZM116.049 88.2536C116.325 88.2185 116.541 88.1206 116.696 87.9601C116.857 87.7946 116.937 87.5939 116.937 87.3582C116.937 87.1174 116.86 86.9368 116.704 86.8164C116.554 86.691 116.335 86.5907 116.049 86.5154V88.2536ZM118.971 88.2159C119.212 88.0053 119.393 87.8498 119.513 87.7494C120.02 87.313 120.419 86.9544 120.71 86.6735C121.006 86.3925 121.251 86.0991 121.447 85.7931C121.643 85.4821 121.74 85.1786 121.74 84.8827C121.74 84.5666 121.658 84.3133 121.492 84.1227C121.332 83.9321 121.073 83.8368 120.717 83.8368C120.376 83.8368 120.113 83.9446 119.927 84.1603C119.741 84.371 119.641 84.6519 119.626 85.0031H118.971C118.991 84.4412 119.16 84.0098 119.476 83.7089C119.797 83.4029 120.208 83.2499 120.71 83.2499C121.226 83.2499 121.638 83.3954 121.944 83.6863C122.255 83.9722 122.41 84.3635 122.41 84.8601C122.41 85.2213 122.31 85.5749 122.109 85.921C121.913 86.2621 121.678 86.5731 121.402 86.854C121.131 87.1299 120.792 87.446 120.386 87.8021C120.115 88.0379 119.992 88.1457 120.017 88.1257H122.576V88.705H118.971V88.2159ZM123.818 88.0429C123.542 87.5563 123.404 86.8841 123.404 86.0264C123.404 85.1686 123.542 84.4964 123.818 84.0098C124.094 83.5233 124.585 83.28 125.293 83.28C126 83.28 126.492 83.5233 126.767 84.0098C127.043 84.4914 127.181 85.1636 127.181 86.0264C127.181 86.8841 127.043 87.5563 126.767 88.0429C126.492 88.5295 126 88.7727 125.293 88.7727C124.585 88.7727 124.094 88.5295 123.818 88.0429ZM126.429 87.1324C126.489 86.8265 126.519 86.4578 126.519 86.0264C126.519 85.59 126.489 85.2213 126.429 84.9203C126.374 84.6143 126.256 84.366 126.075 84.1754C125.9 83.9848 125.639 83.8894 125.293 83.8894C124.947 83.8894 124.683 83.9848 124.503 84.1754C124.327 84.366 124.212 84.6143 124.156 84.9203C124.101 85.2213 124.074 85.59 124.074 86.0264C124.074 86.4628 124.101 86.8315 124.156 87.1324C124.212 87.4334 124.327 87.6817 124.503 87.8774C124.683 88.068 124.947 88.1633 125.293 88.1633C125.639 88.1633 125.9 88.068 126.075 87.8774C126.256 87.6817 126.374 87.4334 126.429 87.1324ZM128.105 88.3439C128.105 88.2185 128.147 88.1131 128.233 88.0278C128.318 87.9426 128.421 87.8999 128.541 87.8999C128.662 87.8999 128.764 87.9426 128.85 88.0278C128.935 88.1131 128.978 88.2185 128.978 88.3439C128.978 88.4643 128.935 88.5671 128.85 88.6524C128.764 88.7376 128.662 88.7803 128.541 88.7803C128.421 88.7803 128.318 88.7376 128.233 88.6524C128.147 88.5671 128.105 88.4643 128.105 88.3439ZM130.299 88.0429C130.023 87.5563 129.885 86.8841 129.885 86.0264C129.885 85.1686 130.023 84.4964 130.299 84.0098C130.575 83.5233 131.066 83.28 131.774 83.28C132.481 83.28 132.972 83.5233 133.248 84.0098C133.524 84.4914 133.662 85.1636 133.662 86.0264C133.662 86.8841 133.524 87.5563 133.248 88.0429C132.972 88.5295 132.481 88.7727 131.774 88.7727C131.066 88.7727 130.575 88.5295 130.299 88.0429ZM132.91 87.1324C132.97 86.8265 133 86.4578 133 86.0264C133 85.59 132.97 85.2213 132.91 84.9203C132.855 84.6143 132.737 84.366 132.556 84.1754C132.381 83.9848 132.12 83.8894 131.774 83.8894C131.427 83.8894 131.164 83.9848 130.984 84.1754C130.808 84.366 130.693 84.6143 130.637 84.9203C130.582 85.2213 130.555 85.59 130.555 86.0264C130.555 86.4628 130.582 86.8315 130.637 87.1324C130.693 87.4334 130.808 87.6817 130.984 87.8774C131.164 88.068 131.427 88.1633 131.774 88.1633C132.12 88.1633 132.381 88.068 132.556 87.8774C132.737 87.6817 132.855 87.4334 132.91 87.1324ZM135.082 88.0429C134.806 87.5563 134.669 86.8841 134.669 86.0264C134.669 85.1686 134.806 84.4964 135.082 84.0098C135.358 83.5233 135.85 83.28 136.557 83.28C137.264 83.28 137.756 83.5233 138.032 84.0098C138.308 84.4914 138.446 85.1636 138.446 86.0264C138.446 86.8841 138.308 87.5563 138.032 88.0429C137.756 88.5295 137.264 88.7727 136.557 88.7727C135.85 88.7727 135.358 88.5295 135.082 88.0429ZM137.693 87.1324C137.753 86.8265 137.784 86.4578 137.784 86.0264C137.784 85.59 137.753 85.2213 137.693 84.9203C137.638 84.6143 137.52 84.366 137.34 84.1754C137.164 83.9848 136.903 83.8894 136.557 83.8894C136.211 83.8894 135.948 83.9848 135.767 84.1754C135.591 84.366 135.476 84.6143 135.421 84.9203C135.366 85.2213 135.338 85.59 135.338 86.0264C135.338 86.4628 135.366 86.8315 135.421 87.1324C135.476 87.4334 135.591 87.6817 135.767 87.8774C135.948 88.068 136.211 88.1633 136.557 88.1633C136.903 88.1633 137.164 88.068 137.34 87.8774C137.52 87.6817 137.638 87.4334 137.693 87.1324Z" fill="#858CE8"/>
<path d="M70.2217 95.7466V100.961H69.537V95.7466H70.2217ZM74.5573 95.7466V96.2958H73.1804V100.961H72.4956V96.2958H71.1187V95.7466H74.5573ZM76.1442 96.2883V98.0641H77.9952V98.5983H76.1442V100.419H78.2209V100.961H75.4595V95.7466H78.2209V96.2883H76.1442ZM84.5781 95.7466V100.961H83.8859V97.1611L82.1402 100.961H81.6963L79.9431 97.1611V100.961H79.2584V95.7466H79.9581L81.922 100.02L83.8783 95.7466H84.5781ZM87.7927 96.2281V95.6187H89.0794V100.961H88.4097V96.2281H87.7927Z" fill="#858CE8"/>
<path d="M117.607 99.5012C117.607 99.742 117.547 99.9727 117.426 100.193C117.306 100.414 117.128 100.6 116.892 100.75C116.661 100.896 116.38 100.981 116.049 101.006V101.616H115.628V101.006C115.177 100.971 114.808 100.836 114.522 100.6C114.236 100.359 114.093 100.045 114.093 99.6592H114.823C114.838 99.8649 114.911 100.038 115.041 100.178C115.177 100.319 115.372 100.404 115.628 100.434V98.5908C115.302 98.5155 115.036 98.4353 114.83 98.35C114.625 98.2597 114.449 98.1218 114.304 97.9362C114.163 97.7455 114.093 97.4872 114.093 97.1611C114.093 96.7548 114.231 96.4187 114.507 96.1529C114.783 95.887 115.157 95.7365 115.628 95.7014V95.0919H116.049V95.7014C116.471 95.7365 116.812 95.8695 117.073 96.1002C117.334 96.3259 117.487 96.6294 117.532 97.0107H116.779C116.764 96.8451 116.691 96.6946 116.561 96.5592C116.436 96.4238 116.265 96.3335 116.049 96.2883V98.0942C116.375 98.1644 116.644 98.2421 116.854 98.3274C117.065 98.4127 117.243 98.5506 117.389 98.7413C117.534 98.9269 117.607 99.1802 117.607 99.5012ZM114.763 97.1386C114.763 97.3793 114.835 97.5624 114.981 97.6878C115.131 97.8082 115.347 97.9086 115.628 97.9888V96.2733C115.367 96.2984 115.157 96.3836 114.996 96.5291C114.84 96.6746 114.763 96.8777 114.763 97.1386ZM116.049 100.434C116.325 100.399 116.541 100.301 116.696 100.141C116.857 99.9752 116.937 99.7746 116.937 99.5388C116.937 99.2981 116.86 99.1175 116.704 98.9971C116.554 98.8717 116.335 98.7714 116.049 98.6961V100.434ZM118.971 100.397C119.212 100.186 119.393 100.03 119.513 99.9301C120.02 99.4937 120.419 99.135 120.71 98.8541C121.006 98.5732 121.251 98.2798 121.447 97.9738C121.643 97.6628 121.74 97.3593 121.74 97.0633C121.74 96.7473 121.658 96.494 121.492 96.3034C121.332 96.1128 121.073 96.0174 120.717 96.0174C120.376 96.0174 120.113 96.1253 119.927 96.341C119.741 96.5517 119.641 96.8326 119.626 97.1837H118.971C118.991 96.6219 119.16 96.1905 119.476 95.8895C119.797 95.5835 120.208 95.4305 120.71 95.4305C121.226 95.4305 121.638 95.576 121.944 95.867C122.255 96.1529 122.41 96.5441 122.41 97.0408C122.41 97.4019 122.31 97.7556 122.109 98.1017C121.913 98.4428 121.678 98.7538 121.402 99.0347C121.131 99.3106 120.792 99.6266 120.386 99.9828C120.115 100.219 119.992 100.326 120.017 100.306H122.576V100.886H118.971V100.397ZM123.818 100.224C123.542 99.737 123.404 99.0648 123.404 98.207C123.404 97.3493 123.542 96.6771 123.818 96.1905C124.094 95.7039 124.585 95.4606 125.293 95.4606C126 95.4606 126.492 95.7039 126.767 96.1905C127.043 96.6721 127.181 97.3442 127.181 98.207C127.181 99.0648 127.043 99.737 126.767 100.224C126.492 100.71 126 100.953 125.293 100.953C124.585 100.953 124.094 100.71 123.818 100.224ZM126.429 99.3131C126.489 99.0071 126.519 98.6384 126.519 98.207C126.519 97.7706 126.489 97.4019 126.429 97.1009C126.374 96.795 126.256 96.5467 126.075 96.356C125.9 96.1654 125.639 96.0701 125.293 96.0701C124.947 96.0701 124.683 96.1654 124.503 96.356C124.327 96.5467 124.212 96.795 124.156 97.1009C124.101 97.4019 124.074 97.7706 124.074 98.207C124.074 98.6434 124.101 99.0121 124.156 99.3131C124.212 99.6141 124.327 99.8624 124.503 100.058C124.683 100.249 124.947 100.344 125.293 100.344C125.639 100.344 125.9 100.249 126.075 100.058C126.256 99.8624 126.374 99.6141 126.429 99.3131ZM128.105 100.525C128.105 100.399 128.147 100.294 128.233 100.209C128.318 100.123 128.421 100.081 128.541 100.081C128.662 100.081 128.764 100.123 128.85 100.209C128.935 100.294 128.978 100.399 128.978 100.525C128.978 100.645 128.935 100.748 128.85 100.833C128.764 100.918 128.662 100.961 128.541 100.961C128.421 100.961 128.318 100.918 128.233 100.833C128.147 100.748 128.105 100.645 128.105 100.525ZM130.299 100.224C130.023 99.737 129.885 99.0648 129.885 98.207C129.885 97.3493 130.023 96.6771 130.299 96.1905C130.575 95.7039 131.066 95.4606 131.774 95.4606C132.481 95.4606 132.972 95.7039 133.248 96.1905C133.524 96.6721 133.662 97.3442 133.662 98.207C133.662 99.0648 133.524 99.737 133.248 100.224C132.972 100.71 132.481 100.953 131.774 100.953C131.066 100.953 130.575 100.71 130.299 100.224ZM132.91 99.3131C132.97 99.0071 133 98.6384 133 98.207C133 97.7706 132.97 97.4019 132.91 97.1009C132.855 96.795 132.737 96.5467 132.556 96.356C132.381 96.1654 132.12 96.0701 131.774 96.0701C131.427 96.0701 131.164 96.1654 130.984 96.356C130.808 96.5467 130.693 96.795 130.637 97.1009C130.582 97.4019 130.555 97.7706 130.555 98.207C130.555 98.6434 130.582 99.0121 130.637 99.3131C130.693 99.6141 130.808 99.8624 130.984 100.058C131.164 100.249 131.427 100.344 131.774 100.344C132.12 100.344 132.381 100.249 132.556 100.058C132.737 99.8624 132.855 99.6141 132.91 99.3131ZM135.082 100.224C134.806 99.737 134.669 99.0648 134.669 98.207C134.669 97.3493 134.806 96.6771 135.082 96.1905C135.358 95.7039 135.85 95.4606 136.557 95.4606C137.264 95.4606 137.756 95.7039 138.032 96.1905C138.308 96.6721 138.446 97.3442 138.446 98.207C138.446 99.0648 138.308 99.737 138.032 100.224C137.756 100.71 137.264 100.953 136.557 100.953C135.85 100.953 135.358 100.71 135.082 100.224ZM137.693 99.3131C137.753 99.0071 137.784 98.6384 137.784 98.207C137.784 97.7706 137.753 97.4019 137.693 97.1009C137.638 96.795 137.52 96.5467 137.34 96.356C137.164 96.1654 136.903 96.0701 136.557 96.0701C136.211 96.0701 135.948 96.1654 135.767 96.356C135.591 96.5467 135.476 96.795 135.421 97.1009C135.366 97.4019 135.338 97.7706 135.338 98.207C135.338 98.6434 135.366 99.0121 135.421 99.3131C135.476 99.6141 135.591 99.8624 135.767 100.058C135.948 100.249 136.211 100.344 136.557 100.344C136.903 100.344 137.164 100.249 137.34 100.058C137.52 99.8624 137.638 99.6141 137.693 99.3131Z" fill="#858CE8"/>
<path d="M70.2217 107.283V112.497H69.537V107.283H70.2217ZM74.5573 107.283V107.832H73.1804V112.497H72.4956V107.832H71.1187V107.283H74.5573ZM76.1442 107.824V109.6H77.9952V110.134H76.1442V111.955H78.2209V112.497H75.4595V107.283H78.2209V107.824H76.1442ZM84.5781 107.283V112.497H83.8859V108.697L82.1402 112.497H81.6963L79.9431 108.697V112.497H79.2584V107.283H79.9581L81.922 111.557L83.8783 107.283H84.5781ZM87.7927 107.764V107.155H89.0794V112.497H88.4097V107.764H87.7927Z" fill="#858CE8"/>
<path d="M117.607 111.037C117.607 111.278 117.547 111.509 117.426 111.73C117.306 111.95 117.128 112.136 116.892 112.286C116.661 112.432 116.38 112.517 116.049 112.542V113.152H115.628V112.542C115.177 112.507 114.808 112.372 114.522 112.136C114.236 111.895 114.093 111.582 114.093 111.195H114.823C114.838 111.401 114.911 111.574 115.041 111.715C115.177 111.855 115.372 111.94 115.628 111.97V110.127C115.302 110.052 115.036 109.971 114.83 109.886C114.625 109.796 114.449 109.658 114.304 109.472C114.163 109.282 114.093 109.023 114.093 108.697C114.093 108.291 114.231 107.955 114.507 107.689C114.783 107.423 115.157 107.273 115.628 107.238V106.628H116.049V107.238C116.471 107.273 116.812 107.406 117.073 107.636C117.334 107.862 117.487 108.166 117.532 108.547H116.779C116.764 108.381 116.691 108.231 116.561 108.095C116.436 107.96 116.265 107.87 116.049 107.824V109.63C116.375 109.701 116.644 109.778 116.854 109.864C117.065 109.949 117.243 110.087 117.389 110.277C117.534 110.463 117.607 110.716 117.607 111.037ZM114.763 108.675C114.763 108.915 114.835 109.099 114.981 109.224C115.131 109.344 115.347 109.445 115.628 109.525V107.809C115.367 107.834 115.157 107.92 114.996 108.065C114.84 108.211 114.763 108.414 114.763 108.675ZM116.049 111.97C116.325 111.935 116.541 111.837 116.696 111.677C116.857 111.511 116.937 111.311 116.937 111.075C116.937 110.834 116.86 110.654 116.704 110.533C116.554 110.408 116.335 110.307 116.049 110.232V111.97ZM118.971 111.933C119.212 111.722 119.393 111.567 119.513 111.466C120.02 111.03 120.419 110.671 120.71 110.39C121.006 110.109 121.251 109.816 121.447 109.51C121.643 109.199 121.74 108.895 121.74 108.599C121.74 108.283 121.658 108.03 121.492 107.84C121.332 107.649 121.073 107.554 120.717 107.554C120.376 107.554 120.113 107.661 119.927 107.877C119.741 108.088 119.641 108.369 119.626 108.72H118.971C118.991 108.158 119.16 107.727 119.476 107.426C119.797 107.12 120.208 106.967 120.71 106.967C121.226 106.967 121.638 107.112 121.944 107.403C122.255 107.689 122.41 108.08 122.41 108.577C122.41 108.938 122.31 109.292 122.109 109.638C121.913 109.979 121.678 110.29 121.402 110.571C121.131 110.847 120.792 111.163 120.386 111.519C120.115 111.755 119.992 111.863 120.017 111.842H122.576V112.422H118.971V111.933ZM123.818 111.76C123.542 111.273 123.404 110.601 123.404 109.743C123.404 108.885 123.542 108.213 123.818 107.727C124.094 107.24 124.585 106.997 125.293 106.997C126 106.997 126.492 107.24 126.767 107.727C127.043 108.208 127.181 108.88 127.181 109.743C127.181 110.601 127.043 111.273 126.767 111.76C126.492 112.246 126 112.49 125.293 112.49C124.585 112.49 124.094 112.246 123.818 111.76ZM126.429 110.849C126.489 110.543 126.519 110.175 126.519 109.743C126.519 109.307 126.489 108.938 126.429 108.637C126.374 108.331 126.256 108.083 126.075 107.892C125.9 107.702 125.639 107.606 125.293 107.606C124.947 107.606 124.683 107.702 124.503 107.892C124.327 108.083 124.212 108.331 124.156 108.637C124.101 108.938 124.074 109.307 124.074 109.743C124.074 110.18 124.101 110.548 124.156 110.849C124.212 111.15 124.327 111.399 124.503 111.594C124.683 111.785 124.947 111.88 125.293 111.88C125.639 111.88 125.9 111.785 126.075 111.594C126.256 111.399 126.374 111.15 126.429 110.849ZM128.105 112.061C128.105 111.935 128.147 111.83 128.233 111.745C128.318 111.659 128.421 111.617 128.541 111.617C128.662 111.617 128.764 111.659 128.85 111.745C128.935 111.83 128.978 111.935 128.978 112.061C128.978 112.181 128.935 112.284 128.85 112.369C128.764 112.454 128.662 112.497 128.541 112.497C128.421 112.497 128.318 112.454 128.233 112.369C128.147 112.284 128.105 112.181 128.105 112.061ZM130.299 111.76C130.023 111.273 129.885 110.601 129.885 109.743C129.885 108.885 130.023 108.213 130.299 107.727C130.575 107.24 131.066 106.997 131.774 106.997C132.481 106.997 132.972 107.24 133.248 107.727C133.524 108.208 133.662 108.88 133.662 109.743C133.662 110.601 133.524 111.273 133.248 111.76C132.972 112.246 132.481 112.49 131.774 112.49C131.066 112.49 130.575 112.246 130.299 111.76ZM132.91 110.849C132.97 110.543 133 110.175 133 109.743C133 109.307 132.97 108.938 132.91 108.637C132.855 108.331 132.737 108.083 132.556 107.892C132.381 107.702 132.12 107.606 131.774 107.606C131.427 107.606 131.164 107.702 130.984 107.892C130.808 108.083 130.693 108.331 130.637 108.637C130.582 108.938 130.555 109.307 130.555 109.743C130.555 110.18 130.582 110.548 130.637 110.849C130.693 111.15 130.808 111.399 130.984 111.594C131.164 111.785 131.427 111.88 131.774 111.88C132.12 111.88 132.381 111.785 132.556 111.594C132.737 111.399 132.855 111.15 132.91 110.849ZM135.082 111.76C134.806 111.273 134.669 110.601 134.669 109.743C134.669 108.885 134.806 108.213 135.082 107.727C135.358 107.24 135.85 106.997 136.557 106.997C137.264 106.997 137.756 107.24 138.032 107.727C138.308 108.208 138.446 108.88 138.446 109.743C138.446 110.601 138.308 111.273 138.032 111.76C137.756 112.246 137.264 112.49 136.557 112.49C135.85 112.49 135.358 112.246 135.082 111.76ZM137.693 110.849C137.753 110.543 137.784 110.175 137.784 109.743C137.784 109.307 137.753 108.938 137.693 108.637C137.638 108.331 137.52 108.083 137.34 107.892C137.164 107.702 136.903 107.606 136.557 107.606C136.211 107.606 135.948 107.702 135.767 107.892C135.591 108.083 135.476 108.331 135.421 108.637C135.366 108.938 135.338 109.307 135.338 109.743C135.338 110.18 135.366 110.548 135.421 110.849C135.476 111.15 135.591 111.399 135.767 111.594C135.948 111.785 136.211 111.88 136.557 111.88C136.903 111.88 137.164 111.785 137.34 111.594C137.52 111.399 137.638 111.15 137.693 110.849Z" fill="#858CE8"/>
<path d="M90.6103 152.053V152.675H89.0501V157.961H88.2742V152.675H86.714V152.053H90.6103ZM94.3352 151.993C94.8866 151.993 95.3896 152.121 95.8443 152.377C96.3047 152.632 96.6685 152.99 96.9356 153.451C97.2028 153.905 97.3363 154.423 97.3363 155.002C97.3363 155.577 97.2028 156.094 96.9356 156.554C96.6685 157.015 96.3047 157.375 95.8443 157.637C95.3896 157.893 94.8866 158.021 94.3352 158.021C93.7839 158.021 93.278 157.893 92.8176 157.637C92.3572 157.375 91.9935 157.015 91.7263 156.554C91.4592 156.094 91.3256 155.577 91.3256 155.002C91.3256 154.423 91.4592 153.905 91.7263 153.451C91.9935 152.99 92.3572 152.632 92.8176 152.377C93.278 152.121 93.7839 151.993 94.3352 151.993ZM94.3352 152.683C93.9146 152.683 93.5338 152.78 93.1928 152.973C92.8574 153.161 92.5931 153.431 92.3999 153.783C92.2066 154.136 92.11 154.542 92.11 155.002C92.11 155.463 92.2066 155.869 92.3999 156.222C92.5931 156.574 92.8574 156.847 93.1928 157.04C93.5338 157.233 93.9146 157.33 94.3352 157.33C94.7559 157.33 95.1338 157.233 95.4692 157.04C95.8045 156.847 96.066 156.574 96.2536 156.222C96.4468 155.869 96.5434 155.463 96.5434 155.002C96.5434 154.542 96.4468 154.136 96.2536 153.783C96.066 153.431 95.8045 153.161 95.4692 152.973C95.1338 152.78 94.7559 152.683 94.3352 152.683ZM101.934 152.053V152.675H100.373V157.961H99.5976V152.675H98.0374V152.053H101.934ZM106.571 156.665H103.945L103.485 157.961H102.692L104.84 152.053H105.693L107.833 157.961H107.031L106.571 156.665ZM106.349 156.051L105.258 152.999L104.167 156.051H106.349ZM109.627 157.364H111.698V157.961H108.851V152.053H109.627V157.364ZM112.591 153.826C112.591 153.689 112.639 153.573 112.736 153.476C112.833 153.38 112.949 153.331 113.086 153.331C113.228 153.331 113.347 153.38 113.444 153.476C113.54 153.573 113.589 153.689 113.589 153.826C113.589 153.962 113.54 154.079 113.444 154.175C113.347 154.272 113.228 154.32 113.086 154.32C112.949 154.32 112.833 154.272 112.736 154.175C112.639 154.079 112.591 153.962 112.591 153.826ZM112.591 157.466C112.591 157.324 112.639 157.205 112.736 157.108C112.833 157.012 112.949 156.963 113.086 156.963C113.228 156.963 113.347 157.012 113.444 157.108C113.54 157.205 113.589 157.324 113.589 157.466C113.589 157.603 113.54 157.719 113.444 157.816C113.347 157.913 113.228 157.961 113.086 157.961C112.949 157.961 112.833 157.913 112.736 157.816C112.639 157.719 112.591 157.603 112.591 157.466ZM121.488 156.307C121.488 156.58 121.42 156.841 121.284 157.091C121.147 157.341 120.946 157.552 120.678 157.722C120.417 157.887 120.099 157.984 119.724 158.012V158.703H119.246V158.012C118.735 157.972 118.317 157.819 117.993 157.552C117.669 157.279 117.507 156.924 117.507 156.486H118.334C118.351 156.719 118.433 156.915 118.581 157.074C118.735 157.233 118.956 157.33 119.246 157.364V155.275C118.877 155.19 118.575 155.099 118.342 155.002C118.109 154.9 117.91 154.744 117.746 154.534C117.586 154.318 117.507 154.025 117.507 153.655C117.507 153.195 117.663 152.814 117.976 152.513C118.288 152.212 118.712 152.041 119.246 152.001V151.311H119.724V152.001C120.201 152.041 120.587 152.192 120.883 152.453C121.179 152.709 121.352 153.053 121.403 153.485H120.551C120.533 153.297 120.451 153.127 120.303 152.973C120.161 152.82 119.968 152.718 119.724 152.666V154.713C120.093 154.792 120.397 154.88 120.636 154.977C120.875 155.074 121.076 155.23 121.241 155.446C121.406 155.656 121.488 155.943 121.488 156.307ZM118.266 153.63C118.266 153.903 118.348 154.11 118.513 154.252C118.683 154.389 118.928 154.502 119.246 154.593V152.649C118.951 152.678 118.712 152.774 118.53 152.939C118.354 153.104 118.266 153.334 118.266 153.63ZM119.724 157.364C120.036 157.324 120.281 157.214 120.457 157.032C120.639 156.844 120.73 156.617 120.73 156.35C120.73 156.077 120.641 155.872 120.465 155.736C120.295 155.594 120.048 155.48 119.724 155.395V157.364ZM126.573 153.118C126.499 152.823 126.371 152.604 126.189 152.462C126.007 152.32 125.749 152.249 125.413 152.249C125.072 152.249 124.791 152.328 124.569 152.487C124.353 152.646 124.188 152.908 124.075 153.272C123.961 153.63 123.898 154.113 123.887 154.721C124.041 154.443 124.268 154.227 124.569 154.073C124.87 153.914 125.206 153.834 125.575 153.834C125.95 153.834 126.28 153.917 126.564 154.082C126.854 154.247 127.079 154.482 127.238 154.789C127.403 155.096 127.485 155.463 127.485 155.889C127.485 156.281 127.408 156.634 127.255 156.946C127.107 157.259 126.882 157.506 126.581 157.688C126.28 157.87 125.911 157.961 125.473 157.961C124.876 157.961 124.413 157.825 124.083 157.552C123.759 157.279 123.538 156.907 123.418 156.435C123.299 155.963 123.239 155.378 123.239 154.678C123.239 153.701 123.415 152.942 123.768 152.402C124.12 151.862 124.669 151.592 125.413 151.592C125.783 151.592 126.101 151.663 126.368 151.805C126.635 151.942 126.843 152.126 126.99 152.359C127.144 152.587 127.238 152.84 127.272 153.118H126.573ZM123.998 155.855C123.998 156.298 124.12 156.651 124.365 156.912C124.609 157.174 124.967 157.304 125.439 157.304C125.842 157.304 126.161 157.182 126.394 156.938C126.632 156.688 126.752 156.352 126.752 155.932C126.752 155.483 126.638 155.133 126.411 154.883C126.189 154.627 125.857 154.499 125.413 154.499C125.169 154.499 124.939 154.551 124.723 154.653C124.507 154.75 124.33 154.9 124.194 155.105C124.063 155.304 123.998 155.554 123.998 155.855ZM129.076 157.125C128.763 156.574 128.607 155.812 128.607 154.84C128.607 153.869 128.763 153.107 129.076 152.556C129.388 152.004 129.945 151.729 130.747 151.729C131.548 151.729 132.105 152.004 132.418 152.556C132.73 153.101 132.887 153.863 132.887 154.84C132.887 155.812 132.73 156.574 132.418 157.125C132.105 157.677 131.548 157.952 130.747 157.952C129.945 157.952 129.388 157.677 129.076 157.125ZM132.034 156.094C132.102 155.747 132.136 155.329 132.136 154.84C132.136 154.346 132.102 153.928 132.034 153.587C131.971 153.24 131.838 152.959 131.633 152.743C131.434 152.527 131.139 152.419 130.747 152.419C130.354 152.419 130.056 152.527 129.851 152.743C129.652 152.959 129.522 153.24 129.459 153.587C129.397 153.928 129.365 154.346 129.365 154.84C129.365 155.335 129.397 155.753 129.459 156.094C129.522 156.435 129.652 156.716 129.851 156.938C130.056 157.154 130.354 157.262 130.747 157.262C131.139 157.262 131.434 157.154 131.633 156.938C131.838 156.716 131.971 156.435 132.034 156.094ZM133.933 157.466C133.933 157.324 133.981 157.205 134.078 157.108C134.175 157.012 134.291 156.963 134.428 156.963C134.564 156.963 134.68 157.012 134.777 157.108C134.874 157.205 134.922 157.324 134.922 157.466C134.922 157.603 134.874 157.719 134.777 157.816C134.68 157.913 134.564 157.961 134.428 157.961C134.291 157.961 134.175 157.913 134.078 157.816C133.981 157.719 133.933 157.603 133.933 157.466ZM136.419 157.125C136.106 156.574 135.95 155.812 135.95 154.84C135.95 153.869 136.106 153.107 136.419 152.556C136.732 152.004 137.289 151.729 138.09 151.729C138.892 151.729 139.449 152.004 139.761 152.556C140.074 153.101 140.23 153.863 140.23 154.84C140.23 155.812 140.074 156.574 139.761 157.125C139.449 157.677 138.892 157.952 138.09 157.952C137.289 157.952 136.732 157.677 136.419 157.125ZM139.378 156.094C139.446 155.747 139.48 155.329 139.48 154.84C139.48 154.346 139.446 153.928 139.378 153.587C139.315 153.24 139.181 152.959 138.977 152.743C138.778 152.527 138.482 152.419 138.09 152.419C137.698 152.419 137.4 152.527 137.195 152.743C136.996 152.959 136.865 153.24 136.803 153.587C136.74 153.928 136.709 154.346 136.709 154.84C136.709 155.335 136.74 155.753 136.803 156.094C136.865 156.435 136.996 156.716 137.195 156.938C137.4 157.154 137.698 157.262 138.09 157.262C138.482 157.262 138.778 157.154 138.977 156.938C139.181 156.716 139.315 156.435 139.378 156.094ZM141.839 157.125C141.527 156.574 141.37 155.812 141.37 154.84C141.37 153.869 141.527 153.107 141.839 152.556C142.152 152.004 142.709 151.729 143.51 151.729C144.312 151.729 144.869 152.004 145.181 152.556C145.494 153.101 145.65 153.863 145.65 154.84C145.65 155.812 145.494 156.574 145.181 157.125C144.869 157.677 144.312 157.952 143.51 157.952C142.709 157.952 142.152 157.677 141.839 157.125ZM144.798 156.094C144.866 155.747 144.9 155.329 144.9 154.84C144.9 154.346 144.866 153.928 144.798 153.587C144.735 153.24 144.602 152.959 144.397 152.743C144.198 152.527 143.903 152.419 143.51 152.419C143.118 152.419 142.82 152.527 142.615 152.743C142.416 152.959 142.285 153.24 142.223 153.587C142.16 153.928 142.129 154.346 142.129 154.84C142.129 155.335 142.16 155.753 142.223 156.094C142.285 156.435 142.416 156.716 142.615 156.938C142.82 157.154 143.118 157.262 143.51 157.262C143.903 157.262 144.198 157.154 144.397 156.938C144.602 156.716 144.735 156.435 144.798 156.094Z" fill="#5852A0"/>
<path d="M65.4492 122.419H140.955" stroke="#3B4DB3" stroke-width="3.14607" stroke-miterlimit="10"/>
<path d="M65.4492 131.327H140.955" stroke="#3B4DB3" stroke-width="3.14607" stroke-miterlimit="10"/>
</g>
<defs>
<linearGradient id="paint0_linear_266_2931" x1="59.5445" y1="-2.45939" x2="59.5445" y2="119.744" gradientUnits="userSpaceOnUse">
<stop stop-color="#ECEAF4"/>
<stop offset="0.12" stop-color="#E2E2F2"/>
<stop offset="0.32" stop-color="#C9CCEF"/>
<stop offset="0.58" stop-color="#9FA9E9"/>
<stop offset="0.88" stop-color="#6679E1"/>
<stop offset="1" stop-color="#4D64DE"/>
</linearGradient>
<linearGradient id="paint1_linear_266_2931" x1="103.038" y1="94.544" x2="103.038" y2="269.691" gradientUnits="userSpaceOnUse">
<stop stop-color="#ECEAF4"/>
<stop offset="0.12" stop-color="#E2E2F2"/>
<stop offset="0.32" stop-color="#C9CCEF"/>
<stop offset="0.58" stop-color="#9FA9E9"/>
<stop offset="0.88" stop-color="#6679E1"/>
<stop offset="1" stop-color="#4D64DE"/>
</linearGradient>
<clipPath id="clip0_266_2931">
<rect width="164.345" height="175" fill="white"/>
</clipPath>
</defs>
</svg>
