<svg width="22" height="22" viewBox="0 0 22 22" fill="none" xmlns="http://www.w3.org/2000/svg">
<path d="M16.9583 20.8542C14.8133 20.8542 13.0625 19.1033 13.0625 16.9583V16.5C13.0625 16.1242 13.3741 15.8125 13.75 15.8125C14.1258 15.8125 14.4375 16.1242 14.4375 16.5V16.9583C14.4375 18.3517 15.565 19.4792 16.9583 19.4792C18.3516 19.4792 19.4791 18.3517 19.4791 16.9583C19.4791 15.565 18.3516 14.4375 16.9583 14.4375H1.83331C1.45748 14.4375 1.14581 14.1258 1.14581 13.75C1.14581 13.3742 1.45748 13.0625 1.83331 13.0625H16.9583C19.1033 13.0625 20.8541 14.8133 20.8541 16.9583C20.8541 19.1033 19.1033 20.8542 16.9583 20.8542Z" fill="#1D1D1D"/>
<path d="M16.9583 11.6875H1.83331C1.45748 11.6875 1.14581 11.3759 1.14581 11C1.14581 10.6242 1.45748 10.3125 1.83331 10.3125H16.9583C18.3516 10.3125 19.4791 9.18504 19.4791 7.79171C19.4791 6.39837 18.3516 5.27087 16.9583 5.27087C15.565 5.27087 14.4375 6.39837 14.4375 7.79171V8.25004C14.4375 8.62587 14.1258 8.93754 13.75 8.93754C13.3741 8.93754 13.0625 8.62587 13.0625 8.25004V7.79171C13.0625 5.64671 14.8133 3.89587 16.9583 3.89587C19.1033 3.89587 20.8541 5.64671 20.8541 7.79171C20.8541 9.93671 19.1033 11.6875 16.9583 11.6875Z" fill="#1D1D1D"/>
<path d="M8.53415 8.93765H1.83331C1.45748 8.93765 1.14581 8.62598 1.14581 8.25015C1.14581 7.87432 1.45748 7.56265 1.83331 7.56265H8.53415C9.51498 7.56265 10.3125 6.76515 10.3125 5.78432C10.3125 4.80348 9.51498 4.00598 8.53415 4.00598C7.55331 4.00598 6.75581 4.80348 6.75581 5.78432V6.13265C6.75581 6.50848 6.44414 6.82015 6.06831 6.82015C5.69248 6.82015 5.38081 6.50848 5.38081 6.13265V5.78432C5.38081 4.04265 6.79248 2.63098 8.53415 2.63098C10.2758 2.63098 11.6875 4.04265 11.6875 5.78432C11.6875 7.52598 10.2758 8.93765 8.53415 8.93765Z" fill="#1D1D1D"/>
</svg>
