<svg width="25" height="24" viewBox="0 0 25 24" fill="none" xmlns="http://www.w3.org/2000/svg">
<path d="M19.3181 8.27243C19.7199 8.17197 20.1271 8.41629 20.2276 8.81813C20.3281 9.21998 20.0837 9.62718 19.6819 9.72764L15.6819 10.7276C15.2801 10.8281 14.8729 10.5838 14.7724 10.1819C14.6719 9.78009 14.9163 9.37289 15.3181 9.27243L19.3181 8.27243Z" fill="#1D1D1D"/>
<path d="M19.3181 12.2724C19.7199 12.172 20.1271 12.4163 20.2276 12.8181C20.3281 13.22 20.0837 13.6272 19.6819 13.7276L15.6819 14.7276C15.2801 14.8281 14.8729 14.5838 14.7724 14.1819C14.6719 13.7801 14.9163 13.3729 15.3181 13.2724L19.3181 12.2724Z" fill="#1D1D1D"/>
<path d="M4.77239 8.81813C4.87285 8.41629 5.28006 8.17197 5.6819 8.27243L9.6819 9.27243C10.0837 9.37289 10.3281 9.78009 10.2276 10.1819C10.1271 10.5838 9.71994 10.8281 9.3181 10.7276L5.3181 9.72764C4.91625 9.62718 4.67193 9.21998 4.77239 8.81813Z" fill="#1D1D1D"/>
<path d="M4.77239 12.8181C4.87285 12.4163 5.28006 12.172 5.6819 12.2724L9.6819 13.2724C10.0837 13.3729 10.3281 13.7801 10.2276 14.1819C10.1271 14.5838 9.71994 14.8281 9.3181 14.7276L5.3181 13.7276C4.91625 13.6272 4.67193 13.22 4.77239 12.8181Z" fill="#1D1D1D"/>
<path fill-rule="evenodd" clip-rule="evenodd" d="M23.25 4.93323C23.25 3.46992 22.0847 2.21498 20.5559 2.26824C19.4175 2.30789 17.9296 2.4263 16.7849 2.76899C15.7899 3.06687 14.6706 3.64872 13.7982 4.15366C12.9801 4.62712 11.9617 4.65074 11.1328 4.21248C10.1374 3.68609 8.82766 3.06215 7.69136 2.7623C6.73055 2.50876 5.51517 2.38698 4.52841 2.32634C2.97017 2.23057 1.75 3.49868 1.75 4.99784V16.1436C1.75 17.6798 2.99378 18.8792 4.46804 18.9714C5.4268 19.0314 6.50566 19.1467 7.30864 19.3586C8.3012 19.6205 9.5286 20.2029 10.5196 20.7311C11.7529 21.3885 13.2471 21.3885 14.4804 20.7311C15.4714 20.2029 16.6988 19.6205 17.6914 19.3586C18.4943 19.1467 19.5732 19.0314 20.532 18.9714C22.0062 18.8792 23.25 17.6798 23.25 16.1436V4.93323ZM20.6081 3.76733C21.2229 3.74591 21.75 4.25164 21.75 4.93323V16.1436C21.75 16.8294 21.1817 17.4278 20.4383 17.4743C19.4582 17.5356 18.2591 17.6574 17.3086 17.9082C16.1383 18.2171 14.7827 18.8701 13.7748 19.4074C13.6065 19.4971 13.4305 19.5678 13.25 19.6194V5.94207C13.7023 5.85153 14.1421 5.68771 14.5495 5.45191C15.4 4.95972 16.3949 4.45152 17.2151 4.20597C18.1643 3.92182 19.4892 3.8063 20.6081 3.76733ZM11.75 5.97501C11.295 5.90426 10.849 5.75918 10.4317 5.53851C9.45486 5.022 8.27076 4.46654 7.30864 4.21266C6.49643 3.99833 5.40238 3.88288 4.43639 3.82351C3.80243 3.78455 3.25 4.30065 3.25 4.99784V16.1436C3.25 16.8294 3.81831 17.4278 4.56168 17.4743C5.54176 17.5356 6.74092 17.6574 7.69136 17.9082C8.8617 18.2171 10.2173 18.8701 11.2252 19.4074C11.3935 19.4971 11.5695 19.5678 11.75 19.6194V5.97501Z" fill="#1D1D1D"/>
</svg>
