<svg width="18" height="18" viewBox="0 0 18 18" fill="none" xmlns="http://www.w3.org/2000/svg">
<path d="M11.7077 3.16602C11.416 3.16602 11.1695 3.06532 10.9681 2.86393C10.7667 2.66254 10.666 2.41602 10.666 2.12435C10.666 1.83268 10.7667 1.58615 10.9681 1.38477C11.1695 1.18338 11.416 1.08268 11.7077 1.08268C11.9993 1.08268 12.2459 1.18338 12.4473 1.38477C12.6487 1.58615 12.7493 1.83268 12.7493 2.12435C12.7493 2.41602 12.6487 2.66254 12.4473 2.86393C12.2459 3.06532 11.9993 3.16602 11.7077 3.16602ZM11.7077 16.916C11.416 16.916 11.1695 16.8153 10.9681 16.6139C10.7667 16.4125 10.666 16.166 10.666 15.8743C10.666 15.5827 10.7667 15.3362 10.9681 15.1348C11.1695 14.9334 11.416 14.8327 11.7077 14.8327C11.9993 14.8327 12.2459 14.9334 12.4473 15.1348C12.6487 15.3362 12.7493 15.5827 12.7493 15.8743C12.7493 16.166 12.6487 16.4125 12.4473 16.6139C12.2459 16.8153 11.9993 16.916 11.7077 16.916ZM15.041 6.08268C14.7493 6.08268 14.5028 5.98199 14.3014 5.7806C14.1 5.57921 13.9993 5.33268 13.9993 5.04102C13.9993 4.74935 14.1 4.50282 14.3014 4.30143C14.5028 4.10004 14.7493 3.99935 15.041 3.99935C15.3327 3.99935 15.5792 4.10004 15.7806 4.30143C15.982 4.50282 16.0827 4.74935 16.0827 5.04102C16.0827 5.33268 15.982 5.57921 15.7806 5.7806C15.5792 5.98199 15.3327 6.08268 15.041 6.08268ZM15.041 13.9993C14.7493 13.9993 14.5028 13.8987 14.3014 13.6973C14.1 13.4959 13.9993 13.2493 13.9993 12.9577C13.9993 12.666 14.1 12.4195 14.3014 12.2181C14.5028 12.0167 14.7493 11.916 15.041 11.916C15.3327 11.916 15.5792 12.0167 15.7806 12.2181C15.982 12.4195 16.0827 12.666 16.0827 12.9577C16.0827 13.2493 15.982 13.4959 15.7806 13.6973C15.5792 13.8987 15.3327 13.9993 15.041 13.9993ZM16.291 10.041C15.9993 10.041 15.7528 9.94032 15.5514 9.73893C15.35 9.53754 15.2493 9.29102 15.2493 8.99935C15.2493 8.70768 15.35 8.46115 15.5514 8.25977C15.7528 8.05838 15.9993 7.95768 16.291 7.95768C16.5827 7.95768 16.8292 8.05838 17.0306 8.25977C17.232 8.46115 17.3327 8.70768 17.3327 8.99935C17.3327 9.29102 17.232 9.53754 17.0306 9.73893C16.8292 9.94032 16.5827 10.041 16.291 10.041ZM8.99935 17.3327C7.84657 17.3327 6.76324 17.1139 5.74935 16.6764C4.73546 16.2389 3.85352 15.6452 3.10352 14.8952C2.35352 14.1452 1.75977 13.2632 1.32227 12.2493C0.884766 11.2355 0.666016 10.1521 0.666016 8.99935C0.666016 7.84657 0.884766 6.76324 1.32227 5.74935C1.75977 4.73546 2.35352 3.85352 3.10352 3.10352C3.85352 2.35352 4.73546 1.75977 5.74935 1.32227C6.76324 0.884766 7.84657 0.666016 8.99935 0.666016V2.33268C7.13824 2.33268 5.56185 2.97852 4.27018 4.27018C2.97852 5.56185 2.33268 7.13824 2.33268 8.99935C2.33268 10.8605 2.97852 12.4368 4.27018 13.7285C5.56185 15.0202 7.13824 15.666 8.99935 15.666V17.3327ZM8.99935 10.666C8.54102 10.666 8.14865 10.5028 7.82227 10.1764C7.49588 9.85004 7.33268 9.45768 7.33268 8.99935C7.33268 8.9299 7.33615 8.85699 7.3431 8.7806C7.35004 8.70421 7.3674 8.63129 7.39518 8.56185L5.66602 6.83268L6.83268 5.66602L8.56185 7.39518C8.6174 7.38129 8.76324 7.36046 8.99935 7.33268C9.45768 7.33268 9.85004 7.49588 10.1764 7.82227C10.5028 8.14865 10.666 8.54102 10.666 8.99935C10.666 9.45768 10.5028 9.85004 10.1764 10.1764C9.85004 10.5028 9.45768 10.666 8.99935 10.666Z" fill="#20B4E3"/>
</svg>
