<svg width="81" height="56" viewBox="0 0 81 56" fill="none" xmlns="http://www.w3.org/2000/svg">
<path d="M16.0401 55.0722C13.2201 55.0722 10.8289 54.0869 8.86659 52.1162C6.90422 50.1456 5.92304 47.7527 5.92304 44.9375H0.557617V6.63458C0.557617 4.85111 1.15501 3.36198 2.3498 2.16719C3.5446 0.972396 5.03376 0.375 6.81729 0.375H58.0865V14.3846H67.0288L80.4423 32.4182V44.9375H74.1826C74.1826 47.7527 73.1956 50.1456 71.2216 52.1162C69.2476 54.0869 66.8505 55.0722 64.0305 55.0722C61.2105 55.0722 58.8193 54.0869 56.8569 52.1162C54.8946 50.1456 53.9134 47.7527 53.9134 44.9375H26.1923C26.1923 47.7692 25.2053 50.1663 23.2312 52.1286C21.2572 54.091 18.8602 55.0722 16.0401 55.0722ZM16.0576 51.1971C17.8014 51.1971 19.2806 50.5898 20.4953 49.3751C21.71 48.1605 22.3173 46.6813 22.3173 44.9375C22.3173 43.1937 21.71 41.7146 20.4953 40.4999C19.2806 39.2853 17.8014 38.6779 16.0576 38.6779C14.3139 38.6779 12.8347 39.2853 11.6201 40.4999C10.4054 41.7146 9.79804 43.1937 9.79804 44.9375C9.79804 46.6813 10.4054 48.1605 11.6201 49.3751C12.8347 50.5898 14.3139 51.1971 16.0576 51.1971ZM4.43262 41.0625H6.93655C7.48796 39.3535 8.61071 37.883 10.3048 36.651C11.9989 35.419 13.9165 34.8029 16.0576 34.8029C18.0995 34.8029 19.9923 35.4065 21.736 36.6137C23.4798 37.8209 24.6274 39.3038 25.1788 41.0625H54.2115V4.25H6.81729C6.22112 4.25 5.67465 4.49839 5.17788 4.99516C4.68104 5.492 4.43262 6.03847 4.43262 6.63458V41.0625ZM64.048 51.1971C65.7918 51.1971 67.271 50.5898 68.4857 49.3751C69.7003 48.1605 70.3076 46.6813 70.3076 44.9375C70.3076 43.1937 69.7003 41.7146 68.4857 40.4999C67.271 39.2853 65.7918 38.6779 64.048 38.6779C62.3043 38.6779 60.8251 39.2853 59.6104 40.4999C58.3958 41.7146 57.7885 43.1937 57.7885 44.9375C57.7885 46.6813 58.3958 48.1605 59.6104 49.3751C60.8251 50.5898 62.3043 51.1971 64.048 51.1971ZM58.0865 33.3125H76.3437L64.9423 18.2596H58.0865V33.3125Z" fill="#CBE2EF"/>
</svg>
