<svg width="232" height="183" viewBox="0 0 232 183" fill="none" xmlns="http://www.w3.org/2000/svg">
<circle cx="114.5" cy="89.5" r="86.5" fill="#0DD168"/>
<circle cx="113.5" cy="91.5" r="91.5" fill="#EFF2FF"/>
<g clip-path="url(#clip0_18_1319)">
<path opacity="0.1" d="M73.4844 88.1094H5.125V139.125H73.4844V88.1094Z" fill="#020202"/>
<path opacity="0.1" d="M232 88.1094H163.641V139.125H232V88.1094Z" fill="#020202"/>
<path d="M226.875 88.1094H158.516V139.125H226.875V88.1094Z" fill="#3B4DB3"/>
<path d="M158.516 88.1094L192.703 121.853L226.875 88.1094H158.516Z" fill="#A1B1FF"/>
<path d="M158.516 139.125L184.368 113.617L158.516 88.1094V139.125Z" fill="#5167C4"/>
<path d="M226.876 139.125L201.039 113.617L226.876 88.1094V139.125Z" fill="#5167C4"/>
<path opacity="0.1" d="M172.091 62.7171V27H120.016H67.9254V62.7171H58.1641V155H181.853V62.7171H172.091Z" fill="#020202"/>
<path d="M175.174 62.7188H51.5V155.016H175.174V62.7188Z" fill="#293F8E"/>
<path d="M175.174 155.001L113.337 93.2266L51.5 155.001H175.174Z" fill="#A1B1FF"/>
<path d="M51.5 155.002L98.2566 108.853L51.5 62.7188V155.002Z" fill="#3B4DB3"/>
<path d="M175.171 155.002L128.414 108.853L175.171 62.7188V155.002Z" fill="#5167C4"/>
<path d="M113.333 27H61.2422V72.3476L98.2522 108.851L113.333 93.2258L128.413 108.851L165.408 72.3476V27H113.333Z" fill="#AFF2D6"/>
<mask id="mask0_18_1319" style="mask-type:luminance" maskUnits="userSpaceOnUse" x="61" y="27" width="105" height="82">
<path d="M113.333 27H61.2422V72.3476L98.2522 108.851L113.333 93.2258L128.413 108.851L165.408 72.3476V27H113.333Z" fill="white"/>
</mask>
<g mask="url(#mask0_18_1319)">
<path d="M156.72 39.1953H69.9375V51.749H156.72V39.1953Z" fill="#0DD168"/>
<path d="M156.72 57.4141H113.336V62.6967H156.72V57.4141Z" fill="#0DD168"/>
<path d="M156.72 70.7734H113.336V76.0561H156.72V70.7734Z" fill="#0DD168"/>
<path d="M156.72 84.1094H113.336V89.392H156.72V84.1094Z" fill="#0DD168"/>
<path d="M156.72 97.4688H113.336V102.751H156.72V97.4688Z" fill="#0DD168"/>
<path d="M106.918 57.4141H69.9375V102.747H106.918V57.4141Z" fill="#0DD168"/>
</g>
<path d="M68.3594 88.1094H0V139.125H68.3594V88.1094Z" fill="#3B4DB3"/>
<path d="M0 88.1094L34.1871 121.853L68.3594 88.1094H0Z" fill="#A1B1FF"/>
<path d="M0 139.125L25.8521 113.617L0 88.1094V139.125Z" fill="#5167C4"/>
<path d="M68.3606 139.125L42.5234 113.617L68.3606 88.1094V139.125Z" fill="#5167C4"/>
</g>
<defs>
<clipPath id="clip0_18_1319">
<rect width="232" height="128" fill="white" transform="translate(0 27)"/>
</clipPath>
</defs>
</svg>
