<svg width="15" height="18" viewBox="0 0 15 18" fill="none" xmlns="http://www.w3.org/2000/svg">
<path d="M1.58398 17.3327V11.0827H0.333984V6.49935C0.333984 6.04102 0.497179 5.64865 0.823568 5.32227C1.14996 4.99588 1.54232 4.83268 2.00065 4.83268H4.50065C4.95898 4.83268 5.35135 4.99588 5.67773 5.32227C6.00412 5.64865 6.16732 6.04102 6.16732 6.49935V11.0827H4.91732V17.3327H1.58398ZM3.25065 3.99935C2.79232 3.99935 2.39996 3.83615 2.07357 3.50977C1.74718 3.18338 1.58398 2.79102 1.58398 2.33268C1.58398 1.87435 1.74718 1.48199 2.07357 1.1556C2.39996 0.82921 2.79232 0.666016 3.25065 0.666016C3.70898 0.666016 4.10135 0.82921 4.42773 1.1556C4.75412 1.48199 4.91732 1.87435 4.91732 2.33268C4.91732 2.79102 4.75412 3.18338 4.42773 3.50977C4.10135 3.83615 3.70898 3.99935 3.25065 3.99935ZM9.50065 17.3327V12.3327H7.00065L9.12565 5.95768C9.23676 5.59657 9.44162 5.31879 9.74024 5.12435C10.0388 4.9299 10.3757 4.83268 10.7507 4.83268C11.1257 4.83268 11.4625 4.9299 11.7611 5.12435C12.0597 5.31879 12.2645 5.59657 12.3757 5.95768L14.5007 12.3327H12.0007V17.3327H9.50065ZM10.7507 3.99935C10.2923 3.99935 9.89996 3.83615 9.57357 3.50977C9.24718 3.18338 9.08398 2.79102 9.08398 2.33268C9.08398 1.87435 9.24718 1.48199 9.57357 1.1556C9.89996 0.82921 10.2923 0.666016 10.7507 0.666016C11.209 0.666016 11.6013 0.82921 11.9277 1.1556C12.2541 1.48199 12.4173 1.87435 12.4173 2.33268C12.4173 2.79102 12.2541 3.18338 11.9277 3.50977C11.6013 3.83615 11.209 3.99935 10.7507 3.99935Z" fill="#20B4E3"/>
</svg>
