<svg width="25" height="24" viewBox="0 0 25 24" fill="none" xmlns="http://www.w3.org/2000/svg">
<path fill-rule="evenodd" clip-rule="evenodd" d="M8.70232 16.4405C8.93132 16.4405 9.16032 16.4695 9.38432 16.5295C10.0603 16.7115 10.6473 17.1635 10.9953 17.7705C11.2213 18.1515 11.3463 18.5965 11.3503 19.0505C11.3503 19.7005 11.8723 20.2215 12.5143 20.2215H13.7673C14.4063 20.2215 14.9283 19.7035 14.9313 19.0645C14.9273 18.3585 15.2033 17.6875 15.7083 17.1825C16.2063 16.6845 16.9023 16.3855 17.5983 16.4055C18.0543 16.4165 18.4933 16.5395 18.8803 16.7595C19.4373 17.0785 20.1483 16.8885 20.4703 16.3385L21.1343 15.2315C21.2823 14.9765 21.3253 14.6565 21.2463 14.3615C21.1683 14.0665 20.9723 13.8105 20.7083 13.6595C20.0903 13.3035 19.6493 12.7295 19.4663 12.0415C19.2853 11.3665 19.3843 10.6295 19.7373 10.0225C19.9673 9.62249 20.3043 9.28549 20.7083 9.05349C21.2503 8.73649 21.4403 8.02749 21.1253 7.47549C21.1123 7.45349 21.1003 7.43049 21.0903 7.40649L20.5043 6.39049C20.1853 5.83549 19.4753 5.64449 18.9183 5.96149C18.3163 6.31749 17.6003 6.41949 16.9123 6.23849C16.2253 6.06049 15.6493 5.62549 15.2903 5.01149C15.0603 4.62749 14.9353 4.18049 14.9313 3.72549C14.9403 3.38349 14.8203 3.07649 14.6023 2.85149C14.3853 2.62749 14.0803 2.50049 13.7673 2.50049H12.5143C12.2043 2.50049 11.9143 2.62149 11.6953 2.83949C11.4773 3.05849 11.3583 3.34949 11.3603 3.65949C11.3393 5.12149 10.1443 6.29849 8.69732 6.29849C8.23332 6.29349 7.78632 6.16849 7.39832 5.93649C6.85332 5.62649 6.14132 5.81749 5.82232 6.37249L5.14532 7.48549C4.83532 8.02349 5.02532 8.73449 5.57732 9.05549C6.39632 9.52949 6.90732 10.4135 6.90732 11.3615C6.90732 12.3095 6.39632 13.1925 5.57532 13.6675C5.02632 13.9855 4.83632 14.6925 5.15432 15.2425L5.78532 16.3305C5.94132 16.6115 6.19632 16.8145 6.49132 16.8975C6.78532 16.9795 7.10932 16.9445 7.37932 16.7945C7.77632 16.5615 8.23832 16.4405 8.70232 16.4405ZM13.7673 21.7215H12.5143C11.0453 21.7215 9.85032 20.5275 9.85032 19.0585C9.84832 18.8775 9.79632 18.6895 9.69932 18.5265C9.54232 18.2525 9.28832 18.0565 8.99532 17.9785C8.70432 17.9005 8.38532 17.9435 8.12332 18.0955C7.49532 18.4455 6.75632 18.5305 6.08032 18.3405C5.40532 18.1495 4.82232 17.6855 4.48032 17.0705L3.85532 15.9935C3.12432 14.7255 3.55932 13.1005 4.82532 12.3685C5.18432 12.1615 5.40732 11.7755 5.40732 11.3615C5.40732 10.9475 5.18432 10.5605 4.82532 10.3535C3.55832 9.61749 3.12432 7.98849 3.85432 6.72049L4.53232 5.60749C5.25332 4.35349 6.88332 3.91149 8.15432 4.64149C8.32732 4.74449 8.51532 4.79649 8.70632 4.79849C9.32932 4.79849 9.85032 4.28449 9.86032 3.65249C9.85632 2.95549 10.1313 2.28649 10.6323 1.78149C11.1353 1.27749 11.8033 1.00049 12.5143 1.00049H13.7673C14.4833 1.00049 15.1793 1.29449 15.6783 1.80549C16.1763 2.31949 16.4513 3.02449 16.4303 3.73949C16.4323 3.90049 16.4853 4.08649 16.5813 4.24949C16.7403 4.51949 16.9913 4.70949 17.2893 4.78749C17.5873 4.86149 17.8993 4.82149 18.1643 4.66449C19.4443 3.93349 21.0733 4.37149 21.8043 5.64149L22.4273 6.72049C22.4433 6.74949 22.4573 6.77749 22.4693 6.80649C23.1313 8.05749 22.6893 9.63249 21.4593 10.3515C21.2803 10.4545 21.1353 10.5985 21.0353 10.7725C20.8803 11.0415 20.8373 11.3615 20.9153 11.6555C20.9953 11.9555 21.1863 12.2045 21.4553 12.3585C22.0623 12.7075 22.5153 13.2955 22.6963 13.9745C22.8773 14.6525 22.7783 15.3885 22.4253 15.9955L21.7613 17.1015C21.0303 18.3575 19.4013 18.7925 18.1343 18.0605C17.9653 17.9635 17.7703 17.9105 17.5763 17.9055H17.5703C17.2813 17.9055 16.9843 18.0285 16.7683 18.2435C16.5493 18.4625 16.4293 18.7545 16.4313 19.0645C16.4243 20.5335 15.2293 21.7215 13.7673 21.7215Z" fill="#1D1D1D"/>
<path fill-rule="evenodd" clip-rule="evenodd" d="M13.1453 9.47461C12.1053 9.47461 11.2593 10.3216 11.2593 11.3616C11.2593 12.4016 12.1053 13.2466 13.1453 13.2466C14.1853 13.2466 15.0313 12.4016 15.0313 11.3616C15.0313 10.3216 14.1853 9.47461 13.1453 9.47461ZM13.1453 14.7466C11.2783 14.7466 9.75928 13.2286 9.75928 11.3616C9.75928 9.49461 11.2783 7.97461 13.1453 7.97461C15.0123 7.97461 16.5313 9.49461 16.5313 11.3616C16.5313 13.2286 15.0123 14.7466 13.1453 14.7466Z" fill="#1D1D1D"/>
</svg>
