<svg width="21" height="21" viewBox="0 0 21 21" fill="none" xmlns="http://www.w3.org/2000/svg">
<mask id="mask0_434_729" style="mask-type:alpha" maskUnits="userSpaceOnUse" x="0" y="0" width="21" height="21">
<rect width="21" height="21" fill="#D9D9D9"/>
</mask>
<g mask="url(#mask0_434_729)">
<path d="M15.75 19.25C15.0208 19.25 14.401 18.9948 13.8906 18.4844C13.3802 17.974 13.125 17.3542 13.125 16.625C13.125 16.5229 13.1323 16.4172 13.1469 16.3078C13.1615 16.1984 13.1833 16.1 13.2125 16.0125L7.04375 12.425C6.79583 12.6438 6.51875 12.8151 6.2125 12.9391C5.90625 13.063 5.58542 13.125 5.25 13.125C4.52083 13.125 3.90104 12.8698 3.39062 12.3594C2.88021 11.849 2.625 11.2292 2.625 10.5C2.625 9.77083 2.88021 9.15104 3.39062 8.64062C3.90104 8.13021 4.52083 7.875 5.25 7.875C5.58542 7.875 5.90625 7.93698 6.2125 8.06094C6.51875 8.1849 6.79583 8.35625 7.04375 8.575L13.2125 4.9875C13.1833 4.9 13.1615 4.80156 13.1469 4.69219C13.1323 4.58281 13.125 4.47708 13.125 4.375C13.125 3.64583 13.3802 3.02604 13.8906 2.51562C14.401 2.00521 15.0208 1.75 15.75 1.75C16.4792 1.75 17.099 2.00521 17.6094 2.51562C18.1198 3.02604 18.375 3.64583 18.375 4.375C18.375 5.10417 18.1198 5.72396 17.6094 6.23438C17.099 6.74479 16.4792 7 15.75 7C15.4146 7 15.0938 6.93802 14.7875 6.81406C14.4813 6.6901 14.2042 6.51875 13.9563 6.3L7.7875 9.8875C7.81667 9.975 7.83854 10.0734 7.85313 10.1828C7.86771 10.2922 7.875 10.3979 7.875 10.5C7.875 10.6021 7.86771 10.7078 7.85313 10.8172C7.83854 10.9266 7.81667 11.025 7.7875 11.1125L13.9563 14.7C14.2042 14.4812 14.4813 14.3099 14.7875 14.1859C15.0938 14.062 15.4146 14 15.75 14C16.4792 14 17.099 14.2552 17.6094 14.7656C18.1198 15.276 18.375 15.8958 18.375 16.625C18.375 17.3542 18.1198 17.974 17.6094 18.4844C17.099 18.9948 16.4792 19.25 15.75 19.25ZM15.75 5.25C15.9979 5.25 16.2057 5.16615 16.3734 4.99844C16.5411 4.83073 16.625 4.62292 16.625 4.375C16.625 4.12708 16.5411 3.91927 16.3734 3.75156C16.2057 3.58385 15.9979 3.5 15.75 3.5C15.5021 3.5 15.2943 3.58385 15.1266 3.75156C14.9589 3.91927 14.875 4.12708 14.875 4.375C14.875 4.62292 14.9589 4.83073 15.1266 4.99844C15.2943 5.16615 15.5021 5.25 15.75 5.25ZM5.25 11.375C5.49792 11.375 5.70573 11.2911 5.87344 11.1234C6.04115 10.9557 6.125 10.7479 6.125 10.5C6.125 10.2521 6.04115 10.0443 5.87344 9.87656C5.70573 9.70885 5.49792 9.625 5.25 9.625C5.00208 9.625 4.79427 9.70885 4.62656 9.87656C4.45885 10.0443 4.375 10.2521 4.375 10.5C4.375 10.7479 4.45885 10.9557 4.62656 11.1234C4.79427 11.2911 5.00208 11.375 5.25 11.375ZM15.75 17.5C15.9979 17.5 16.2057 17.4161 16.3734 17.2484C16.5411 17.0807 16.625 16.8729 16.625 16.625C16.625 16.3771 16.5411 16.1693 16.3734 16.0016C16.2057 15.8339 15.9979 15.75 15.75 15.75C15.5021 15.75 15.2943 15.8339 15.1266 16.0016C14.9589 16.1693 14.875 16.3771 14.875 16.625C14.875 16.8729 14.9589 17.0807 15.1266 17.2484C15.2943 17.4161 15.5021 17.5 15.75 17.5Z" fill="#263C51"/>
</g>
</svg>
