<svg width="18" height="14" viewBox="0 0 18 14" fill="none" xmlns="http://www.w3.org/2000/svg">
<path d="M3.87308 13.298C3.22264 13.298 2.67039 13.0705 2.21633 12.6156C1.76228 12.1607 1.53525 11.6082 1.53525 10.9583H0.125V2.25642C0.125 1.83547 0.270833 1.47917 0.5625 1.1875C0.854167 0.895833 1.21047 0.75 1.6314 0.75H12.9775V3.92308H15.189L17.8814 7.52885V10.9583H16.375C16.375 11.6082 16.1473 12.1607 15.692 12.6156C15.2367 13.0705 14.6838 13.298 14.0334 13.298C13.3829 13.298 12.8307 13.0705 12.3766 12.6156C11.9225 12.1607 11.6955 11.6082 11.6955 10.9583H6.21471C6.21471 11.61 5.98705 12.1629 5.53173 12.6169C5.07642 13.071 4.52354 13.298 3.87308 13.298ZM3.87498 12.0481C4.18053 12.0481 4.43855 11.9428 4.64902 11.7324C4.85949 11.5219 4.96473 11.2639 4.96473 10.9583C4.96473 10.6527 4.85949 10.3947 4.64902 10.1843C4.43855 9.97378 4.18053 9.86854 3.87498 9.86854C3.56941 9.86854 3.31139 9.97378 3.10092 10.1843C2.89044 10.3947 2.78521 10.6527 2.78521 10.9583C2.78521 11.2639 2.89044 11.5219 3.10092 11.7324C3.31139 11.9428 3.56941 12.0481 3.87498 12.0481ZM1.37498 9.70833H1.97754C2.15487 9.39957 2.41101 9.14075 2.74596 8.93188C3.0809 8.723 3.45724 8.61856 3.87498 8.61856C4.28203 8.61856 4.6557 8.72167 4.99598 8.92788C5.33626 9.13407 5.59507 9.39422 5.77242 9.70833H11.7276V1.99998H1.6314C1.5673 1.99998 1.50853 2.02669 1.4551 2.0801C1.40169 2.13354 1.37498 2.19231 1.37498 2.25642V9.70833ZM14.0352 12.0481C14.3408 12.0481 14.5988 11.9428 14.8093 11.7324C15.0198 11.5219 15.125 11.2639 15.125 10.9583C15.125 10.6527 15.0198 10.3947 14.8093 10.1843C14.5988 9.97378 14.3408 9.86854 14.0352 9.86854C13.7297 9.86854 13.4717 9.97378 13.2612 10.1843C13.0507 10.3947 12.9455 10.6527 12.9455 10.9583C12.9455 11.2639 13.0507 11.5219 13.2612 11.7324C13.4717 11.9428 13.7297 12.0481 14.0352 12.0481ZM12.9775 8.04167H16.7115L14.548 5.17304H12.9775V8.04167Z" fill="#20B4E3"/>
</svg>
