<svg width="22" height="22" viewBox="0 0 22 22" fill="none" xmlns="http://www.w3.org/2000/svg">
<path fill-rule="evenodd" clip-rule="evenodd" d="M11 6.52333C8.52752 6.52333 6.52321 8.52764 6.52321 11.0001C6.52321 13.4725 8.52752 15.4768 11 15.4768C13.4724 15.4768 15.4767 13.4725 15.4767 11.0001C15.4767 8.52764 13.4724 6.52333 11 6.52333ZM5.24414 11.0001C5.24414 7.82123 7.82111 5.24426 11 5.24426C14.1788 5.24426 16.7558 7.82123 16.7558 11.0001C16.7558 14.1789 14.1788 16.7559 11 16.7559C7.82111 16.7559 5.24414 14.1789 5.24414 11.0001Z" fill="#1D1D1D"/>
<path fill-rule="evenodd" clip-rule="evenodd" d="M11 1.83337C11.3532 1.83337 11.6395 2.1197 11.6395 2.4729V3.32562C11.6395 3.67883 11.3532 3.96516 11 3.96516C10.6468 3.96516 10.3604 3.67883 10.3604 3.32562V2.4729C10.3604 2.1197 10.6468 1.83337 11 1.83337Z" fill="#1D1D1D"/>
<path fill-rule="evenodd" clip-rule="evenodd" d="M11 18.0349C11.3532 18.0349 11.6395 18.3213 11.6395 18.6745V19.5272C11.6395 19.8803 11.3532 20.1667 11 20.1667C10.6468 20.1667 10.3604 19.8803 10.3604 19.5272V18.6745C10.3604 18.3213 10.6468 18.0349 11 18.0349Z" fill="#1D1D1D"/>
<path fill-rule="evenodd" clip-rule="evenodd" d="M20.1667 11C20.1667 11.3532 19.8803 11.6396 19.5271 11.6396H18.6744C18.3212 11.6396 18.0349 11.3532 18.0349 11C18.0349 10.6468 18.3212 10.3605 18.6744 10.3605H19.5271C19.8803 10.3605 20.1667 10.6468 20.1667 11Z" fill="#1D1D1D"/>
<path fill-rule="evenodd" clip-rule="evenodd" d="M3.96509 11C3.96509 11.3532 3.67876 11.6396 3.32556 11.6396H2.47284C2.11964 11.6396 1.83331 11.3532 1.83331 11C1.83331 10.6468 2.11964 10.3605 2.47284 10.3605H3.32556C3.67876 10.3605 3.96509 10.6468 3.96509 11Z" fill="#1D1D1D"/>
<path fill-rule="evenodd" clip-rule="evenodd" d="M17.4818 4.51825C17.7315 4.768 17.7315 5.17293 17.4818 5.42269L16.8789 6.02565C16.6291 6.27541 16.2242 6.27541 15.9744 6.02565C15.7247 5.7759 15.7247 5.37096 15.9744 5.12121L16.5774 4.51825C16.8272 4.26849 17.2321 4.26849 17.4818 4.51825Z" fill="#1D1D1D"/>
<path fill-rule="evenodd" clip-rule="evenodd" d="M6.02559 15.9744C6.27535 16.2242 6.27535 16.6291 6.02559 16.8789L5.42263 17.4818C5.17287 17.7315 4.76794 17.7315 4.51819 17.4818C4.26843 17.2321 4.26843 16.8272 4.51819 16.5774L5.12115 15.9744C5.3709 15.7247 5.77584 15.7247 6.02559 15.9744Z" fill="#1D1D1D"/>
<path fill-rule="evenodd" clip-rule="evenodd" d="M17.4818 17.4818C17.2321 17.7315 16.8272 17.7315 16.5774 17.4818L15.9744 16.8789C15.7247 16.6291 15.7247 16.2242 15.9744 15.9744C16.2242 15.7247 16.6291 15.7247 16.8789 15.9744L17.4818 16.5774C17.7315 16.8272 17.7315 17.2321 17.4818 17.4818Z" fill="#1D1D1D"/>
<path fill-rule="evenodd" clip-rule="evenodd" d="M6.02559 6.02565C5.77584 6.27541 5.37091 6.27541 5.12115 6.02565L4.51819 5.42269C4.26843 5.17293 4.26843 4.768 4.51819 4.51825C4.76794 4.26849 5.17287 4.26849 5.42263 4.51825L6.02559 5.12121C6.27535 5.37096 6.27535 5.7759 6.02559 6.02565Z" fill="#1D1D1D"/>
</svg>
