<svg width="20" height="20" viewBox="0 0 20 20" fill="none" xmlns="http://www.w3.org/2000/svg">
<path d="M10.0016 19.5C8.68772 19.5 7.45268 19.2506 6.29655 18.752C5.1404 18.2533 4.13472 17.5765 3.2795 16.7217C2.42427 15.8669 1.74721 14.8616 1.24833 13.706C0.749442 12.5504 0.5 11.3156 0.5 10.0017C0.5 8.68772 0.749334 7.45268 1.248 6.29655C1.74667 5.1404 2.42342 4.13472 3.27825 3.2795C4.1331 2.42427 5.13834 1.74721 6.29398 1.24833C7.44959 0.749443 8.68437 0.5 9.9983 0.5C11.3122 0.5 12.5473 0.749334 13.7034 1.248C14.8596 1.74667 15.8652 2.42342 16.7205 3.27825C17.5757 4.1331 18.2527 5.13834 18.7516 6.29398C19.2505 7.44959 19.5 8.68437 19.5 9.9983C19.5 11.3122 19.2506 12.5473 18.752 13.7034C18.2533 14.8596 17.5765 15.8652 16.7217 16.7205C15.8669 17.5757 14.8616 18.2527 13.706 18.7516C12.5504 19.2505 11.3156 19.5 10.0016 19.5ZM7.09998 17.45L8.56923 14.1038C7.94504 13.8834 7.40631 13.5417 6.95303 13.0789C6.49974 12.616 6.15387 12.073 5.9154 11.45L2.53075 12.85C2.92048 13.9166 3.51535 14.85 4.31535 15.65C5.11535 16.45 6.04356 17.05 7.09998 17.45ZM5.9154 8.55C6.14103 7.92692 6.48238 7.38814 6.93943 6.93368C7.39648 6.47919 7.93333 6.13977 8.55 5.9154L7.14998 2.53075C6.07689 2.93715 5.14035 3.54035 4.34035 4.34035C3.54035 5.14035 2.93715 6.07689 2.53075 7.14998L5.9154 8.55ZM9.9977 12.8461C10.7877 12.8461 11.4599 12.5696 12.0144 12.0167C12.5689 11.4637 12.8461 10.7922 12.8461 10.0023C12.8461 9.21229 12.5696 8.54005 12.0167 7.98555C11.4637 7.43107 10.7922 7.15383 10.0023 7.15383C9.21228 7.15383 8.54005 7.43032 7.98555 7.9833C7.43107 8.53627 7.15383 9.20774 7.15383 9.9977C7.15383 10.7877 7.43032 11.4599 7.9833 12.0144C8.53628 12.5689 9.20775 12.8461 9.9977 12.8461ZM12.9 17.45C13.95 17.05 14.8708 16.4541 15.6625 15.6625C16.4541 14.8708 17.05 13.95 17.45 12.9L14.1038 11.4307C13.8922 12.0474 13.557 12.5826 13.098 13.0365C12.6391 13.4903 12.1064 13.8397 11.5 14.0846L12.9 17.45ZM14.0846 8.5L17.45 7.09998C17.05 6.04998 16.4541 5.12914 15.6625 4.33748C14.8708 3.54581 13.95 2.94998 12.9 2.54998L11.5 5.94618C12.0935 6.17694 12.6115 6.51284 13.0538 6.95385C13.4961 7.39487 13.8397 7.91025 14.0846 8.5Z" fill="#263C51"/>
</svg>
