<svg width="34" height="34" viewBox="0 0 34 34" fill="none" xmlns="http://www.w3.org/2000/svg">
<rect x="33" y="33" width="32" height="32" rx="16" transform="rotate(-180 33 33)" fill="#F9FAF9"/>
<rect x="33.25" y="33.25" width="32.5" height="32.5" rx="16.25" transform="rotate(-180 33.25 33.25)" stroke="#19B86C" stroke-opacity="0.2" stroke-width="0.5"/>
<path fill-rule="evenodd" clip-rule="evenodd" d="M23.744 17.4959C24.0042 17.7227 24.0313 18.1175 23.8044 18.3777L19.562 23.244C19.3908 23.4404 19.1156 23.51 18.8716 23.4185C18.6276 23.3271 18.4659 23.0939 18.4659 22.8333L18.4659 11.1666C18.4659 10.8215 18.7458 10.5416 19.0909 10.5416C19.4361 10.5416 19.7159 10.8215 19.7159 11.1666L19.7159 21.1653L22.8622 17.5563C23.0891 17.2961 23.4839 17.269 23.744 17.4959Z" fill="#19B86C"/>
<path fill-rule="evenodd" clip-rule="evenodd" d="M11.2559 16.504C10.9958 16.2772 10.9688 15.8825 11.1956 15.6223L15.438 10.7559C15.6093 10.5595 15.8843 10.49 16.1284 10.5814C16.3724 10.6728 16.5341 10.9061 16.5341 11.1666L16.5341 22.8333C16.5341 23.1785 16.2543 23.4583 15.9091 23.4583C15.5639 23.4583 15.2841 23.1785 15.2841 22.8333L15.2841 12.8347L12.1378 16.4437C11.9109 16.7039 11.5162 16.7309 11.2559 16.504Z" fill="#19B86C"/>
</svg>
