<svg width="22" height="22" viewBox="0 0 22 22" fill="none" xmlns="http://www.w3.org/2000/svg">
<path d="M14.0557 12.9483V3.05516C14.0557 1.37053 12.6849 0 10.9999 0C9.31516 0 7.94454 1.37053 7.94454 3.05516V12.9482C6.6929 13.9017 5.95575 15.3743 5.95575 16.9558C5.95575 19.7372 8.21845 22 10.9999 22C13.7815 22 16.0444 19.7372 16.0444 16.9558C16.0444 15.3745 15.3072 13.9019 14.0557 12.9483ZM10.9999 20.681C8.94584 20.681 7.27475 19.0099 7.27475 16.9558C7.27475 15.6989 7.90682 14.5344 8.96554 13.8407C9.15152 13.7189 9.26363 13.5114 9.26363 13.2891V3.05516C9.26363 2.09783 10.0425 1.319 11 1.319C11.9577 1.319 12.7368 2.09783 12.7368 3.05516V13.2891C12.7368 13.5115 12.8489 13.7189 13.0349 13.8407C14.0935 14.5344 14.7255 15.6989 14.7255 16.9558C14.7254 19.0099 13.0541 20.681 10.9999 20.681Z" fill="#1D1D1D"/>
<path d="M11.6595 14.8644V6.14864C11.6595 5.78442 11.3644 5.48914 11 5.48914C10.6357 5.48914 10.3405 5.78442 10.3405 6.14864V14.8644C9.45206 15.1443 8.80786 15.9743 8.80786 16.9558C8.80786 18.1663 9.7892 19.148 11 19.148C12.2112 19.148 13.1924 18.1663 13.1924 16.9558C13.1923 15.9742 12.5481 15.1441 11.6595 14.8644Z" fill="#1D1D1D"/>
</svg>
