<svg width="18" height="20" viewBox="0 0 18 20" fill="none" xmlns="http://www.w3.org/2000/svg">
<path d="M2.99997 19.5C2.30127 19.5 1.70993 19.258 1.22595 18.774C0.741983 18.29 0.5 17.6987 0.5 17V14.1154H3.5V0.5H17.5V17C17.5 17.6987 17.258 18.29 16.774 18.774C16.29 19.258 15.6987 19.5 15 19.5H2.99997ZM15 18C15.2833 18 15.5208 17.9041 15.7125 17.7125C15.9041 17.5208 16 17.2833 16 17V1.99998H4.99998V14.1154H14V17C14 17.2833 14.0958 17.5208 14.2875 17.7125C14.4791 17.9041 14.7166 18 15 18ZM6.1923 6.69225V5.1923H14.8077V6.69225H6.1923ZM6.1923 9.57688V8.0769H14.8077V9.57688H6.1923ZM2.99997 18H12.5V15.6153H1.99997V17C1.99997 17.2833 2.09581 17.5208 2.28747 17.7125C2.47914 17.9041 2.71664 18 2.99997 18ZM2.99997 18H1.99997H12.5H2.99997Z" fill="#263C51"/>
</svg>
