<svg width="18" height="18" viewBox="0 0 18 18" fill="none" xmlns="http://www.w3.org/2000/svg">
<path d="M9.00007 17.7001C13.8602 17.7001 17.8001 13.7602 17.8001 8.9001C17.8001 4.03999 13.8602 0.100098 9.00007 0.100098C4.13997 0.100098 0.200073 4.03999 0.200073 8.9001C0.200073 13.7602 4.13997 17.7001 9.00007 17.7001ZM13.0776 7.47823L8.67405 11.8782C8.46762 12.0845 8.1877 12.2003 7.89588 12.2001C7.60407 12.1999 7.32428 12.0838 7.11811 11.8773L4.92163 9.67729C4.4924 9.24737 4.49296 8.55089 4.92288 8.12166C5.3528 7.69242 6.04928 7.69298 6.47851 8.1229L7.89749 9.54415L11.5226 5.92196C11.9524 5.49256 12.6488 5.49284 13.0783 5.9226C13.5077 6.35235 13.5074 7.04883 13.0776 7.47823Z" fill="#13A10E"/>
</svg>
