<svg width="104" height="42" viewBox="0 0 104 42" fill="none" xmlns="http://www.w3.org/2000/svg">
<path d="M100.522 15.6004L96.4877 13.4214L93.0589 5.69568C91.8487 2.72426 89.0249 0.941406 85.7978 0.941406H73.4942C70.0654 0.941406 67.4433 3.51664 67.4433 6.88426V22.7319H63.4094V15.0062C63.4094 13.8176 62.6026 13.0252 61.3924 13.0252C52.0007 13.0264 2.69861 13.2233 2.69861 13.2233C1.48843 13.2233 0.681641 14.0157 0.681641 15.2043V21.1471C0.681641 24.5147 3.3037 27.09 6.73255 27.09H21.6581C20.0446 28.4766 18.8344 30.6557 18.8344 33.0328C18.8344 37.3909 22.4649 40.9566 26.9023 40.9566C30.7345 40.9566 33.7599 38.3814 34.7684 35.0138H79.7469C80.5536 38.3814 83.7808 40.9566 87.613 40.9566C91.4453 40.9566 94.4707 38.3814 95.4792 35.0138H99.5132C101.732 35.0138 103.547 33.2309 103.547 31.0519V20.949C103.749 18.5719 102.539 16.5909 100.522 15.6004ZM6.93425 23.1281C5.72407 23.1281 4.91728 22.3357 4.91728 21.1471V17.1852H59.3755V22.93L6.93425 23.1281ZM27.1039 36.9947C24.8853 36.9947 23.07 35.2119 23.07 33.0328C23.07 30.8538 24.8853 29.0709 27.1039 29.0709C29.3226 29.0709 31.1379 30.8538 31.1379 33.0328C31.1379 35.0138 29.3226 36.9947 27.1039 36.9947ZM87.613 36.9947C85.3944 36.9947 83.5791 35.2119 83.5791 33.0328C83.5791 30.8538 85.3944 29.0709 87.613 29.0709C89.8317 29.0709 91.647 30.8538 91.647 33.0328C91.647 35.0138 89.8317 36.9947 87.613 36.9947ZM99.7149 23.1281V27.09V31.0519H95.4792C94.6724 27.6843 91.4453 25.109 87.613 25.109C83.7808 25.109 80.7553 27.6843 79.7469 31.0519H34.9701C34.5667 29.4671 33.7599 28.0805 32.5498 27.09L69.4603 26.8919C70.6705 26.8919 71.4773 26.0995 71.4773 24.9109V7.08235C71.4773 5.89378 72.2841 5.1014 73.4942 5.1014H85.7978C87.4113 5.1014 88.8232 6.09188 89.4283 7.47854L90.2351 9.2614H83.5791C82.3689 9.2614 81.5621 10.0538 81.5621 11.2424V15.2043C81.5621 16.3928 82.3689 17.1852 83.5791 17.1852H94.8741L98.7064 19.1662C99.3115 19.5624 99.7149 20.1566 99.7149 20.949V23.1281Z" fill="#CBE2EF" stroke="#CBE2EF" stroke-width="0.5"/>
</svg>
