<svg width="239" height="109" viewBox="0 0 239 109" fill="none" xmlns="http://www.w3.org/2000/svg">
<path d="M155.573 0H0V77.3904H155.573V0Z" fill="#546FFF"/>
<path style="mix-blend-mode:screen" d="M155.573 0H0V77.3904H155.573V0Z" fill="url(#paint0_linear_292_1242)"/>
<path d="M164.244 28.0547C162.819 28.0547 161.662 29.2117 161.662 30.6371V77.3898H168.889V28.0547H164.244Z" fill="#3B4DB3"/>
<path d="M237.102 39.1626V85.3784C237.102 87.424 235.446 89.0808 233.401 89.0808H172.58C170.535 89.0808 168.879 87.424 168.879 85.3784V3.70245C168.879 1.65684 170.535 0 172.58 0H209.713C210.944 0 212.1 0.62016 212.785 1.64759L215.052 5.03533L236.473 37.1078C236.594 37.2836 236.695 37.478 236.788 37.6724C236.991 38.1352 237.102 38.6443 237.102 39.1626Z" fill="url(#paint1_linear_292_1242)"/>
<path d="M236.799 37.6722H179.734V5.03516H215.063L236.484 37.1076C236.604 37.2835 236.706 37.4778 236.799 37.6722Z" fill="url(#paint2_linear_292_1242)"/>
<path style="mix-blend-mode:screen" d="M236.799 37.6722H179.734V5.03516H215.063L218.718 10.5055L223.326 17.4106L236.484 37.1076C236.604 37.2835 236.706 37.4778 236.799 37.6722Z" fill="url(#paint3_linear_292_1242)"/>
<path d="M236.437 69.1523H209.048C207.638 69.1523 206.494 70.2961 206.494 71.707V88.7013C206.494 90.1122 207.638 91.2559 209.048 91.2559H236.437C237.848 91.2559 238.991 90.1122 238.991 88.7013V71.707C238.991 70.2961 237.848 69.1523 236.437 69.1523Z" fill="#3B4DB3"/>
<path d="M199.128 88.063C199.156 88.6184 198.702 89.0719 198.147 89.0719H153.445C152.89 89.0719 152.446 88.6091 152.464 88.063C152.538 86.2858 152.816 84.5549 153.269 82.8981H32.6543V77.4H155.573C159.617 70.4209 167.168 65.7188 175.792 65.7188C188.33 65.7188 198.591 75.6506 199.128 88.063Z" fill="#4D64DE"/>
<g style="mix-blend-mode:multiply" opacity="0.25">
<path d="M199.128 88.063C199.156 88.6184 198.702 89.0719 198.147 89.0719H153.445C152.89 89.0719 152.446 88.6091 152.464 88.063C152.538 86.2766 152.816 84.5549 153.279 82.8981H32.6543V77.4H155.573C159.617 70.4209 167.168 65.7188 175.792 65.7188C188.33 65.7188 198.591 75.6506 199.128 88.0723V88.063Z" fill="#4D64DE"/>
</g>
<path d="M195.197 93.6165C197.702 82.8993 191.047 72.1801 180.334 69.6743C169.62 67.1685 158.904 73.8251 156.399 84.5422C153.894 95.2593 160.548 105.979 171.262 108.484C181.976 110.99 192.692 104.334 195.197 93.6165Z" fill="#3B4DB3"/>
<path d="M186.988 91.7079C188.44 85.5218 184.603 79.3299 178.419 77.8778C172.235 76.4257 166.045 80.2634 164.593 86.4495C163.142 92.6356 166.978 98.8275 173.162 100.28C179.346 101.732 185.536 97.894 186.988 91.7079Z" fill="#DDE0E8"/>
<path d="M184.064 90.4178C184.804 85.8458 181.698 81.5398 177.127 80.8001C172.557 80.0604 168.252 83.1671 167.513 87.7392C166.773 92.3112 169.879 96.6172 174.45 97.3569C179.02 98.0966 183.325 94.9899 184.064 90.4178Z" fill="#EFF2FF"/>
<g style="mix-blend-mode:multiply" opacity="0.25">
<path d="M202.218 83.6658C202.089 82.2218 201.866 80.1114 201.163 77.5752C201.071 77.2605 200.969 76.9366 200.867 76.6126C200.756 76.2886 200.664 75.9462 200.543 75.6037C200.414 75.2705 200.284 74.928 200.145 74.5763C200.081 74.4004 200.016 74.2245 199.942 74.0487C199.859 73.8728 199.785 73.6969 199.701 73.5211C199.091 72.0864 198.258 70.6332 197.249 69.1892C196.231 67.7452 195.001 66.3383 193.539 65.0795C192.086 63.8114 190.411 62.6822 188.57 61.7936C187.293 61.1734 185.988 60.6828 184.674 60.3126C184.017 60.1367 183.36 59.9701 182.703 59.859C182.37 59.8035 182.046 59.748 181.713 59.7017C181.667 59.7017 181.611 59.6924 181.565 59.6832C181.445 48.2148 181.084 39.9121 180.658 39.9121C180.233 39.9121 179.853 48.6221 179.742 60.5255V61.3863L180.63 61.4418C180.742 61.4418 180.899 61.4603 181.038 61.4789C181.186 61.4974 181.324 61.5159 181.473 61.5344C181.769 61.5807 182.065 61.627 182.361 61.6825C182.962 61.7936 183.554 61.9509 184.165 62.1175C185.368 62.4693 186.571 62.9321 187.737 63.4967C191.133 65.135 193.872 67.5879 195.824 70.2166C196.805 71.531 197.629 72.8639 198.267 74.1968C198.35 74.3634 198.434 74.5207 198.517 74.6873C198.591 74.8539 198.665 75.0205 198.739 75.1779C198.887 75.5019 199.026 75.8258 199.165 76.1313C199.303 76.446 199.405 76.7607 199.535 77.0754C199.655 77.3809 199.766 77.6863 199.877 77.9825C200.719 80.3613 201.136 82.3884 201.487 83.7768C201.774 85.1745 201.996 85.952 202.126 85.9428C202.255 85.9335 202.283 85.1282 202.227 83.6658H202.218Z" fill="#4D64DE"/>
</g>
<g style="mix-blend-mode:screen">
<path d="M237.104 48.8359V63.4976H230.062C229.34 63.4976 228.748 62.9052 228.748 62.1833V50.1596C228.748 49.4283 229.34 48.8452 230.062 48.8452H237.104V48.8359Z" fill="#EFF2FF"/>
</g>
<path d="M154.556 0H0V77.3904H155.573V0H154.556ZM6.50497 70.8833V6.50705H73.2573V70.8833H6.50497ZM79.7623 70.8833V6.50705H149.068V70.8833H79.7623Z" fill="#546FFF"/>
<path style="mix-blend-mode:screen" opacity="0.5" d="M212.851 5.03516L180.224 37.6722H179.725V21.7147L196.408 5.03516H212.851Z" fill="url(#paint4_linear_292_1242)"/>
<path style="mix-blend-mode:screen" opacity="0.5" d="M223.324 17.4109L203.069 37.6726H191.549L218.716 10.5059L223.324 17.4109Z" fill="url(#paint5_linear_292_1242)"/>
<path opacity="0.35" d="M6.50586 70.8841V6.50781H73.2582V10.5065H10.9011V70.8841H6.50586Z" fill="#546FFF"/>
<path opacity="0.35" d="M79.7617 70.8841V6.50781H149.068V10.5065H84.157V70.8841H79.7617Z" fill="#546FFF"/>
<g style="mix-blend-mode:multiply" opacity="0.25">
<path d="M106.819 82.8985H61.7285C62.2652 80.9547 63.0425 79.1128 64.0326 77.4004H104.515C105.505 79.1128 106.283 80.9547 106.819 82.8985Z" fill="#4D64DE"/>
</g>
<g style="mix-blend-mode:multiply" opacity="0.25">
<path d="M57.5924 82.8985H32.9512V77.4004H55.2883C56.2784 79.1128 57.0557 80.9547 57.5924 82.8985Z" fill="#4D64DE"/>
</g>
<path d="M32.6365 65.709C20.0985 65.709 9.83672 75.6408 9.30004 88.0532C9.27228 88.6086 9.72568 89.0714 10.2809 89.0714H54.9829C55.5381 89.0714 55.9915 88.6086 55.9637 88.0532C55.4271 75.6408 45.1653 65.709 32.6273 65.709H32.6365Z" fill="#4D64DE"/>
<g style="mix-blend-mode:multiply" opacity="0.25">
<path d="M32.6736 65.709C20.1356 65.709 9.87383 75.6408 9.33715 88.0532C9.30939 88.6086 9.76279 89.0714 10.318 89.0714H55.02C55.5752 89.0714 56.0286 88.6086 56.0009 88.0532C55.4642 75.6408 45.2024 65.709 32.6644 65.709H32.6736Z" fill="#4D64DE"/>
</g>
<path d="M46.7181 103.168C54.4982 95.3852 54.4982 82.7672 46.7181 74.9847C38.9381 67.2021 26.3241 67.2021 18.5441 74.9847C10.764 82.7672 10.764 95.3852 18.5441 103.168C26.3241 110.95 38.9381 110.95 46.7181 103.168Z" fill="#3B4DB3"/>
<path d="M40.764 97.2117C45.2557 92.7186 45.2557 85.4338 40.764 80.9407C36.2723 76.4475 28.9898 76.4475 24.4982 80.9407C20.0065 85.4338 20.0065 92.7186 24.4982 97.2117C28.9898 101.705 36.2723 101.705 40.764 97.2117Z" fill="#DDE0E8"/>
<path d="M40.91 90.412C41.6494 85.8399 38.5437 81.5339 33.9731 80.7942C29.4025 80.0546 25.0979 83.1613 24.3584 87.7333C23.619 92.3054 26.7247 96.6114 31.2953 97.351C35.8659 98.0907 40.1705 94.984 40.91 90.412Z" fill="#EFF2FF"/>
<path d="M81.6404 65.709C69.1024 65.709 58.8406 75.6408 58.3039 88.0532C58.2762 88.6086 58.7296 89.0714 59.2848 89.0714H103.987C104.542 89.0714 104.995 88.6086 104.968 88.0532C104.431 75.6408 94.1692 65.709 81.6312 65.709H81.6404Z" fill="#4D64DE"/>
<g style="mix-blend-mode:multiply" opacity="0.25">
<path d="M81.6775 65.709C69.1395 65.709 58.8777 75.6408 58.3411 88.0532C58.3133 88.6086 58.7667 89.0714 59.3219 89.0714H104.024C104.579 89.0714 105.033 88.6086 105.005 88.0532C104.468 75.6408 94.2063 65.709 81.6683 65.709H81.6775Z" fill="#4D64DE"/>
</g>
<path d="M95.722 103.16C103.502 95.3773 103.502 82.7594 95.722 74.9768C87.942 67.1943 75.328 67.1943 67.548 74.9768C59.7679 82.7594 59.7679 95.3774 67.548 103.16C75.328 110.942 87.942 110.942 95.722 103.16Z" fill="#3B4DB3"/>
<path d="M87.095 99.2057C92.6848 96.1874 94.7702 89.2076 91.7528 83.616C88.7354 78.0244 81.7579 75.9384 76.1681 78.9567C70.5783 81.975 68.4929 88.9548 71.5103 94.5464C74.5277 100.138 81.5051 102.224 87.095 99.2057Z" fill="#DDE0E8"/>
<path d="M88.7987 93.4359C91.2048 89.4789 89.9485 84.32 85.9928 81.9132C82.0371 79.5064 76.8798 80.763 74.4738 84.72C72.0677 88.677 73.3239 93.8359 77.2797 96.2427C81.2354 98.6496 86.3927 97.3929 88.7987 93.4359Z" fill="#EFF2FF"/>
<defs>
<linearGradient id="paint0_linear_292_1242" x1="153.26" y1="77.0664" x2="1.82158" y2="0.131545" gradientUnits="userSpaceOnUse">
<stop stop-color="#546FFF"/>
<stop offset="0.1" stop-color="#5E77FF"/>
<stop offset="0.48" stop-color="#8296FF"/>
<stop offset="0.8" stop-color="#98A9FF"/>
<stop offset="1" stop-color="#A1B1FF"/>
</linearGradient>
<linearGradient id="paint1_linear_292_1242" x1="226.933" y1="99.1608" x2="165.057" y2="3.85005" gradientUnits="userSpaceOnUse">
<stop stop-color="#A1B1FF"/>
<stop offset="0.19" stop-color="#98A8FB"/>
<stop offset="0.5" stop-color="#8092F2"/>
<stop offset="0.89" stop-color="#596FE2"/>
<stop offset="1" stop-color="#4D64DE"/>
</linearGradient>
<linearGradient id="paint2_linear_292_1242" x1="221.401" y1="41.2821" x2="176.188" y2="3.77197" gradientUnits="userSpaceOnUse">
<stop stop-color="#C4ABFF"/>
<stop offset="1" stop-color="#E2D5FF"/>
</linearGradient>
<linearGradient id="paint3_linear_292_1242" x1="221.401" y1="41.2821" x2="176.188" y2="3.77197" gradientUnits="userSpaceOnUse">
<stop stop-color="#0DD168"/>
<stop offset="1" stop-color="#A6C0FF"/>
</linearGradient>
<linearGradient id="paint4_linear_292_1242" x1="196.399" y1="21.4462" x2="186.033" y2="12.8413" gradientUnits="userSpaceOnUse">
<stop stop-color="#C4ABFF"/>
<stop offset="1" stop-color="#E2D5FF"/>
</linearGradient>
<linearGradient id="paint5_linear_292_1242" x1="211.323" y1="29.2217" x2="203.28" y2="22.5506" gradientUnits="userSpaceOnUse">
<stop stop-color="#C4ABFF"/>
<stop offset="1" stop-color="#E2D5FF"/>
</linearGradient>
</defs>
</svg>
