<svg width="17" height="17" viewBox="0 0 17 17" fill="none" xmlns="http://www.w3.org/2000/svg">
<mask id="mask0_335_987" style="mask-type:alpha" maskUnits="userSpaceOnUse" x="0" y="0" width="17" height="17">
<rect width="17" height="17" fill="#D9D9D9"/>
</mask>
<g mask="url(#mask0_335_987)">
<path d="M8.5 15.5827C7.24861 15.5827 6.22743 15.3849 5.43646 14.9895C4.64549 14.594 4.25 14.0834 4.25 13.4577C4.25 13.0445 4.42118 12.6844 4.76354 12.3775C5.1059 12.0705 5.57812 11.8285 6.18021 11.6514L6.5875 12.9973C6.38681 13.0563 6.20382 13.1301 6.03854 13.2186C5.87326 13.3072 5.76111 13.3868 5.70208 13.4577C5.85556 13.6466 6.20972 13.8119 6.76458 13.9535C7.31944 14.0952 7.89792 14.166 8.5 14.166C9.10208 14.166 9.68351 14.0952 10.2443 13.9535C10.805 13.8119 11.1622 13.6466 11.3156 13.4577C11.2566 13.3868 11.1444 13.3072 10.9792 13.2186C10.8139 13.1301 10.6309 13.0563 10.4302 12.9973L10.8375 11.6514C11.4396 11.8285 11.9089 12.0705 12.2453 12.3775C12.5818 12.6844 12.75 13.0445 12.75 13.4577C12.75 14.0834 12.3545 14.594 11.5635 14.9895C10.7726 15.3849 9.75139 15.5827 8.5 15.5827ZM8.5 10.8546C8.7125 10.465 8.93681 10.1079 9.17292 9.7832C9.40903 9.45855 9.63924 9.14865 9.86354 8.85352C10.3003 8.28685 10.6486 7.77626 10.9083 7.32175C11.1681 6.86723 11.2979 6.30352 11.2979 5.6306C11.2979 4.85143 11.0264 4.19032 10.4833 3.64727C9.94028 3.10421 9.27917 2.83268 8.5 2.83268C7.72083 2.83268 7.05972 3.10421 6.51667 3.64727C5.97361 4.19032 5.70208 4.85143 5.70208 5.6306C5.70208 6.30352 5.83194 6.86723 6.09167 7.32175C6.35139 7.77626 6.69965 8.28685 7.13646 8.85352C7.36076 9.14865 7.59097 9.45855 7.82708 9.7832C8.06319 10.1079 8.2875 10.465 8.5 10.8546ZM8.5 13.4577C8.37014 13.4577 8.25208 13.4193 8.14583 13.3426C8.03958 13.2658 7.96285 13.1625 7.91563 13.0327C7.6441 12.1945 7.30174 11.4921 6.88854 10.9254C6.47535 10.3587 6.07396 9.81567 5.68438 9.29622C5.3066 8.77678 4.97899 8.23963 4.70156 7.68477C4.42413 7.12991 4.28542 6.44518 4.28542 5.6306C4.28542 4.45004 4.69271 3.45247 5.50729 2.63789C6.32187 1.82331 7.31944 1.41602 8.5 1.41602C9.68056 1.41602 10.6781 1.82331 11.4927 2.63789C12.3073 3.45247 12.7146 4.45004 12.7146 5.6306C12.7146 6.44518 12.5788 7.12991 12.3073 7.68477C12.0358 8.23963 11.7052 8.77678 11.3156 9.29622C10.9378 9.81567 10.5394 10.3587 10.1203 10.9254C9.70122 11.4921 9.3559 12.1945 9.08437 13.0327C9.03715 13.1625 8.96042 13.2658 8.85417 13.3426C8.74792 13.4193 8.62986 13.4577 8.5 13.4577ZM8.5 7.13581C8.91319 7.13581 9.26736 6.98824 9.5625 6.6931C9.85764 6.39796 10.0052 6.04379 10.0052 5.6306C10.0052 5.2174 9.85764 4.86324 9.5625 4.5681C9.26736 4.27296 8.91319 4.12539 8.5 4.12539C8.08681 4.12539 7.73264 4.27296 7.4375 4.5681C7.14236 4.86324 6.99479 5.2174 6.99479 5.6306C6.99479 6.04379 7.14236 6.39796 7.4375 6.6931C7.73264 6.98824 8.08681 7.13581 8.5 7.13581Z" fill="#FDFDFD"/>
</g>
</svg>
