<svg width="12" height="13" viewBox="0 0 12 13" fill="none" xmlns="http://www.w3.org/2000/svg">
<path d="M1.99926 11.1667H9.99926L9.04926 4.5H2.94926L1.99926 11.1667ZM5.99926 3.16667C6.18814 3.16667 6.34648 3.10278 6.47426 2.975C6.60203 2.84722 6.66592 2.68889 6.66592 2.5C6.66592 2.31111 6.60203 2.15278 6.47426 2.025C6.34648 1.89722 6.18814 1.83333 5.99926 1.83333C5.81037 1.83333 5.65203 1.89722 5.52426 2.025C5.39648 2.15278 5.33259 2.31111 5.33259 2.5C5.33259 2.68889 5.39648 2.84722 5.52426 2.975C5.65203 3.10278 5.81037 3.16667 5.99926 3.16667ZM7.88259 3.16667H9.04926C9.38259 3.16667 9.67148 3.27778 9.91592 3.5C10.1604 3.72222 10.3104 3.99444 10.3659 4.31667L11.3159 10.9833C11.3715 11.3833 11.2687 11.7361 11.0076 12.0417C10.7465 12.3472 10.4104 12.5 9.99926 12.5H1.99926C1.58814 12.5 1.25203 12.3472 0.990922 12.0417C0.729811 11.7361 0.627033 11.3833 0.682589 10.9833L1.63259 4.31667C1.68814 3.99444 1.83814 3.72222 2.08259 3.5C2.32703 3.27778 2.61592 3.16667 2.94926 3.16667H4.11592C4.08259 3.05556 4.05481 2.94722 4.03259 2.84167C4.01037 2.73611 3.99926 2.62222 3.99926 2.5C3.99926 1.94444 4.1937 1.47222 4.58259 1.08333C4.97148 0.694444 5.4437 0.5 5.99926 0.5C6.55481 0.5 7.02703 0.694444 7.41592 1.08333C7.80481 1.47222 7.99926 1.94444 7.99926 2.5C7.99926 2.62222 7.98814 2.73611 7.96592 2.84167C7.9437 2.94722 7.91592 3.05556 7.88259 3.16667Z" fill="#20B4E3"/>
</svg>
